<?xml version="1.0" encoding="UTF-8" standalone="no"?>
<!-- Created with Inkscape (http://www.inkscape.org/) -->

<svg
   xmlns:dc="http://purl.org/dc/elements/1.1/"
   xmlns:cc="http://creativecommons.org/ns#"
   xmlns:rdf="http://www.w3.org/1999/02/22-rdf-syntax-ns#"
   xmlns:svg="http://www.w3.org/2000/svg"
   xmlns="http://www.w3.org/2000/svg"
   xmlns:sodipodi="http://sodipodi.sourceforge.net/DTD/sodipodi-0.dtd"
   xmlns:inkscape="http://www.inkscape.org/namespaces/inkscape"
   id="svg2985"
   version="1.1"
   inkscape:version="0.48.5 r10040"
   width="1000"
   height="799.58375"
   xml:space="preserve"
   sodipodi:docname="DI2E (logo)-words.eps"><metadata
     id="metadata2991"><rdf:RDF><cc:Work
         rdf:about=""><dc:format>image/svg+xml</dc:format><dc:type
           rdf:resource="http://purl.org/dc/dcmitype/StillImage" /><dc:title></dc:title></cc:Work></rdf:RDF></metadata><defs
     id="defs2989"><clipPath
       clipPathUnits="userSpaceOnUse"
       id="clipPath3005"><path
         d="m 0,639.667 800,0 L 800,0 0,0 0,639.667 z"
         id="path3007" /></clipPath><clipPath
       clipPathUnits="userSpaceOnUse"
       id="clipPath3257"><path
         d="m 0,639.667 800,0 L 800,0 0,0 0,639.667 z"
         id="path3259" /></clipPath><clipPath
       clipPathUnits="userSpaceOnUse"
       id="clipPath3379"><path
         d="m 0,639.667 800,0 L 800,0 0,0 0,639.667 z"
         id="path3381" /></clipPath></defs><sodipodi:namedview
     pagecolor="#ffffff"
     bordercolor="#666666"
     borderopacity="1"
     objecttolerance="10"
     gridtolerance="10"
     guidetolerance="10"
     inkscape:pageopacity="0"
     inkscape:pageshadow="2"
     inkscape:window-width="1920"
     inkscape:window-height="1018"
     id="namedview2987"
     showgrid="false"
     inkscape:zoom="1.0392908"
     inkscape:cx="500"
     inkscape:cy="399.79187"
     inkscape:window-x="-8"
     inkscape:window-y="-8"
     inkscape:window-maximized="1"
     inkscape:current-layer="g2993" /><g
     id="g2993"
     inkscape:groupmode="layer"
     inkscape:label="DI2E (logo)"
     transform="matrix(1.25,0,0,-1.25,0,799.58375)"><path
       d="m 0,0.014 800,0 0,639.653 -800,0 L 0,0.014 z"
       style="fill:#ffffff;fill-opacity:1;fill-rule:nonzero;stroke:none"
       id="path2995" /><g
       id="g2997"
       transform="translate(194.6543,338.9932)"><path
         d="M 0,0 0.063,0.053"
         style="fill:none;stroke:#ff811a;stroke-opacity:1;stroke-width:1.25;stroke-linecap:round;stroke-linejoin:round;stroke-miterlimit:4;stroke-dasharray:none"
         id="path2999" /></g><g
       id="g3009"
       transform="translate(194.8408,339.1475)"><path
         d="M 0,0 C 0.022,0.016 0.044,0.031 0.065,0.05 0.146,0.122 0.23,0.194 0.313,0.267 l -0.437,-0.369 c 0.02,0.018 0.041,0.034 0.061,0.05 C -0.042,-0.035 -0.02,-0.019 0,0"
         style="fill:#ff811a;fill-opacity:1;fill-rule:nonzero;stroke:none"
         id="path3011"
         inkscape:connector-curvature="0" /></g><g
       id="g3013"
       transform="translate(253.3037,302.9053)"><path
         d="m 0,0 c -0.973,0.603 -1.967,1.206 -2.98,1.808 -0.52,-1.033 -1.051,-2.06 -1.588,-3.092 -0.54,-1.029 -1.087,-2.057 -1.644,-3.083 -0.557,-1.026 -1.119,-2.05 -1.688,-3.068 -0.571,-1.019 -1.15,-2.032 -1.73,-3.041 0.987,-0.578 1.956,-1.156 2.906,-1.734 0.947,-0.579 1.874,-1.154 2.783,-1.728 0.906,-0.576 1.792,-1.147 2.654,-1.718 0.758,-0.497 1.489,-0.994 2.211,-1.489 l 0.447,0 c 0.509,0.785 1.008,1.576 1.5,2.372 l 0,12.951 C 2.864,-1.818 2.858,-1.813 2.852,-1.81 1.921,-1.207 0.971,-0.603 0,0"
         style="fill:#ff811a;fill-opacity:1;fill-rule:nonzero;stroke:none"
         id="path3015"
         inkscape:connector-curvature="0" /></g><g
       id="g3017"
       transform="translate(189.7627,333.0977)"><path
         d="m 0,0 c -0.591,-0.772 -1.164,-1.568 -1.717,-2.388 -0.556,-0.822 -1.095,-1.663 -1.611,-2.531 0.341,0.163 0.709,0.312 1.096,0.443 0.391,0.133 0.803,0.25 1.244,0.355 0.436,0.104 0.899,0.192 1.383,0.265 0.487,0.072 0.995,0.132 1.526,0.175 0.527,0.894 1.073,1.763 1.633,2.61 0.561,0.843 1.138,1.66 1.727,2.453 C 5.873,2.177 6.478,2.941 7.097,3.681 7.713,4.423 8.344,5.138 8.986,5.826 8.461,5.76 7.955,5.681 7.468,5.586 6.987,5.49 6.525,5.381 6.086,5.256 5.648,5.132 5.23,4.992 4.835,4.841 4.444,4.688 4.073,4.521 3.728,4.338 3.073,3.663 2.438,2.963 1.815,2.242 1.193,1.52 0.588,0.771 0,0"
         style="fill:#ff811a;fill-opacity:1;fill-rule:nonzero;stroke:none"
         id="path3019"
         inkscape:connector-curvature="0" /></g><g
       id="g3021"
       transform="translate(204.8877,285.7607)"><path
         d="M 0,0 2.204,0 C 1.529,0.282 0.856,0.562 0.19,0.832 0.123,0.552 0.065,0.278 0,0"
         style="fill:#ff811a;fill-opacity:1;fill-rule:nonzero;stroke:none"
         id="path3023"
         inkscape:connector-curvature="0" /></g><g
       id="g3025"
       transform="translate(241.3174,288.4365)"><path
         d="m 0,0 c -0.542,-0.9 -1.088,-1.791 -1.636,-2.676 l 6.077,0 C 3.911,-2.348 3.389,-2.021 2.845,-1.691 1.915,-1.127 0.966,-0.563 0,0"
         style="fill:#ff811a;fill-opacity:1;fill-rule:nonzero;stroke:none"
         id="path3027"
         inkscape:connector-curvature="0" /></g><g
       id="g3029"
       transform="translate(191.1514,291.4639)"><path
         d="m 0,0 c -0.603,0.167 -1.192,0.324 -1.766,0.471 -0.573,0.145 -1.129,0.279 -1.669,0.404 -0.539,0.122 -1.061,0.232 -1.568,0.333 -0.506,0.099 -0.992,0.186 -1.464,0.262 0.025,-1.041 0.07,-2.077 0.139,-3.113 0.069,-1.029 0.161,-2.056 0.272,-3.076 0.037,-0.331 0.091,-0.655 0.133,-0.984 l 5.81,0 C -0.125,-4.849 -0.132,-3.99 -0.116,-3.126 -0.098,-2.09 -0.057,-1.047 0,0"
         style="fill:#ff811a;fill-opacity:1;fill-rule:nonzero;stroke:none"
         id="path3031"
         inkscape:connector-curvature="0" /></g><g
       id="g3033"
       transform="translate(183.1084,290.0791)"><path
         d="M 0,0 C -0.092,1.027 -0.161,2.058 -0.206,3.095 -0.626,3.136 -1.029,3.171 -1.413,3.189 -1.794,3.212 -2.158,3.218 -2.505,3.215 -2.848,3.213 -3.172,3.197 -3.479,3.171 -3.784,3.145 -4.07,3.107 -4.336,3.056 c 0.095,-1.007 0.213,-2.012 0.357,-3.012 0.143,-1.002 0.312,-2 0.503,-2.99 0.09,-0.46 0.203,-0.914 0.302,-1.372 l 3.72,0 C 0.481,-3.9 0.403,-3.486 0.347,-3.066 0.208,-2.051 0.091,-1.03 0,0"
         style="fill:#ff811a;fill-opacity:1;fill-rule:nonzero;stroke:none"
         id="path3035"
         inkscape:connector-curvature="0" /></g><g
       id="g3037"
       transform="translate(199.8271,288.627)"><path
         d="M 0,0 C -0.725,0.266 -1.436,0.521 -2.137,0.766 -2.838,1.008 -3.522,1.242 -4.197,1.465 -4.868,1.687 -5.528,1.897 -6.174,2.097 -6.268,1.054 -6.34,0.014 -6.393,-1.019 -6.425,-1.639 -6.437,-2.251 -6.455,-2.866 l 8.286,0 c 0.122,0.677 0.241,1.352 0.377,2.037 C 1.461,-0.542 0.726,-0.266 0,0"
         style="fill:#ff811a;fill-opacity:1;fill-rule:nonzero;stroke:none"
         id="path3039"
         inkscape:connector-curvature="0" /></g><g
       id="g3041"
       transform="translate(184.5127,326.874)"><path
         d="M 0,0 C 0.104,0.103 0.213,0.201 0.33,0.298 0.444,0.396 0.563,0.49 0.689,0.581 1.202,1.438 1.736,2.274 2.287,3.086 2.839,3.898 3.409,4.688 3.995,5.453 4.583,6.216 5.188,6.959 5.808,7.678 6.427,8.396 7.063,9.091 7.714,9.763 7.653,9.718 7.597,9.671 7.537,9.624 7.48,9.576 7.425,9.529 7.366,9.481 7.313,9.432 7.258,9.383 7.204,9.334 7.15,9.284 7.098,9.235 7.047,9.184 5.47,7.431 3.42,5.04 1.971,3.177 1.75,2.872 1.527,2.563 1.311,2.251 1.092,1.939 0.878,1.624 0.667,1.304 0.455,0.984 0.246,0.663 0.041,0.336 -0.165,0.01 -0.365,-0.319 -0.567,-0.653 c 0.086,0.115 0.173,0.225 0.268,0.335 C -0.204,-0.209 -0.105,-0.104 0,0"
         style="fill:#ff811a;fill-opacity:1;fill-rule:nonzero;stroke:none"
         id="path3043"
         inkscape:connector-curvature="0" /></g><g
       id="g3045"
       transform="translate(237.3994,290.666)"><path
         d="m 0,0 c -0.987,0.548 -1.976,1.087 -2.968,1.619 -0.991,0.529 -1.985,1.052 -2.98,1.565 -0.993,0.512 -1.988,1.017 -2.981,1.509 -0.992,0.495 -1.983,0.975 -2.972,1.451 -0.495,-1.04 -0.983,-2.078 -1.468,-3.11 -0.484,-1.032 -0.962,-2.057 -1.434,-3.076 -0.474,-1.018 -0.938,-2.027 -1.398,-3.029 -0.282,-0.617 -0.557,-1.225 -0.834,-1.834 l 14.193,0 c 0.375,0.637 0.751,1.273 1.126,1.917 C -1.144,-1.999 -0.569,-1.002 0,0"
         style="fill:#ff811a;fill-opacity:1;fill-rule:nonzero;stroke:none"
         id="path3047"
         inkscape:connector-curvature="0" /></g><g
       id="g3049"
       transform="translate(253.9961,347.9629)"><path
         d="M 0,0 C -0.075,-0.001 -0.161,-0.03 -0.259,-0.079 -0.357,-0.13 -0.469,-0.203 -0.59,-0.301 -0.712,-0.402 -0.845,-0.525 -0.989,-0.674 -1.136,-0.821 -1.292,-0.997 -1.463,-1.195 -0.848,-1.47 -0.237,-1.752 0.376,-2.044 0.977,-2.33 1.578,-2.628 2.179,-2.931 l 0,1.896 C 1.886,-0.889 1.594,-0.741 1.3,-0.603 0.867,-0.395 0.434,-0.193 0,0"
         style="fill:#ff811a;fill-opacity:1;fill-rule:nonzero;stroke:none"
         id="path3051"
         inkscape:connector-curvature="0" /></g><g
       id="g3053"
       transform="translate(178.5098,312.2256)"><path
         d="M 0,0 C 0.094,0.08 0.194,0.159 0.298,0.235 0.403,0.31 0.512,0.382 0.628,0.452 0.865,1.419 1.13,2.381 1.423,3.336 1.714,4.291 2.03,5.239 2.376,6.178 2.721,7.114 3.091,8.044 3.487,8.966 3.885,9.886 4.306,10.799 4.758,11.697 4.636,11.611 4.517,11.522 4.404,11.43 4.291,11.336 4.183,11.241 4.082,11.144 3.979,11.044 3.881,10.943 3.79,10.839 3.698,10.734 3.611,10.629 3.53,10.518 3.087,9.633 2.672,8.737 2.283,7.833 1.893,6.929 1.531,6.015 1.195,5.096 0.857,4.172 0.55,3.242 0.267,2.308 -0.018,1.373 -0.274,0.428 -0.505,-0.519 c 0.075,0.09 0.152,0.181 0.237,0.267 C -0.183,-0.166 -0.093,-0.081 0,0"
         style="fill:#ff811a;fill-opacity:1;fill-rule:nonzero;stroke:none"
         id="path3055"
         inkscape:connector-curvature="0" /></g><g
       id="g3057"
       transform="translate(228.4795,348.2334)"><path
         d="m 0,0 c 0.718,-0.148 1.443,-0.315 2.179,-0.49 0.736,-0.179 1.482,-0.369 2.237,-0.573 0.512,0.385 1.018,0.743 1.521,1.075 0.501,0.327 0.997,0.631 1.488,0.909 0.488,0.271 0.972,0.522 1.45,0.744 0.476,0.222 0.944,0.416 1.408,0.584 C 9.663,2.414 9.048,2.563 8.44,2.705 7.832,2.847 7.231,2.976 6.638,3.096 6.047,3.217 5.463,3.326 4.886,3.422 4.311,3.52 3.745,3.606 3.187,3.683 2.588,3.545 1.984,3.38 1.378,3.19 0.77,3.002 0.16,2.784 -0.453,2.538 -1.067,2.294 -1.682,2.021 -2.3,1.726 -2.918,1.423 -3.538,1.099 -4.157,0.746 -3.489,0.647 -2.806,0.536 -2.114,0.411 -1.42,0.289 -0.716,0.15 0,0"
         style="fill:#ff811a;fill-opacity:1;fill-rule:nonzero;stroke:none"
         id="path3059"
         inkscape:connector-curvature="0" /></g><g
       id="g3061"
       transform="translate(221.833,347.416)"><path
         d="m 0,0 c -0.623,-0.428 -1.246,-0.882 -1.868,-1.364 -0.622,-0.485 -1.243,-0.995 -1.861,-1.534 -0.619,-0.539 -1.238,-1.107 -1.849,-1.701 -0.614,-0.593 -1.229,-1.217 -1.834,-1.867 0.774,-0.131 1.559,-0.278 2.36,-0.437 0.806,-0.162 1.624,-0.34 2.454,-0.531 0.834,-0.193 1.677,-0.4 2.535,-0.624 0.861,-0.221 1.73,-0.459 2.613,-0.713 0.542,0.68 1.087,1.333 1.631,1.96 0.541,0.624 1.082,1.222 1.621,1.792 0.536,0.57 1.071,1.112 1.602,1.628 0.533,0.513 1.06,0.999 1.585,1.459 C 8.197,-1.716 7.415,-1.514 6.64,-1.323 5.87,-1.136 5.107,-0.961 4.355,-0.8 3.606,-0.639 2.867,-0.49 2.139,-0.356 1.414,-0.225 0.7,-0.105 0,0"
         style="fill:#ff811a;fill-opacity:1;fill-rule:nonzero;stroke:none"
         id="path3063"
         inkscape:connector-curvature="0" /></g><g
       id="g3065"
       transform="translate(234.0391,352.3232)"><path
         d="m 0,0 c 0.514,-0.068 1.035,-0.148 1.566,-0.236 0.532,-0.089 1.07,-0.19 1.615,-0.297 0.546,-0.11 1.1,-0.23 1.659,-0.357 0.56,-0.129 1.124,-0.268 1.696,-0.416 0.426,0.095 0.847,0.164 1.259,0.21 0.411,0.046 0.815,0.07 1.214,0.069 0.396,-0.002 0.782,-0.023 1.165,-0.072 0.38,-0.047 0.752,-0.118 1.116,-0.212 l -0.085,0.022 c -2.949,0.69 -3.064,0.718 -4.733,0.996 L 4.624,-0.018 C 4.25,0.03 3.873,0.067 3.493,0.091 3.113,0.116 2.729,0.13 2.344,0.132 1.958,0.135 1.567,0.125 1.179,0.103 0.788,0.081 0.395,0.048 0,0"
         style="fill:#ff811a;fill-opacity:1;fill-rule:nonzero;stroke:none"
         id="path3067"
         inkscape:connector-curvature="0" /></g><g
       id="g3069"
       transform="translate(217.3096,328.2607)"><path
         d="M 0,0 C 0.538,0.914 1.077,1.801 1.62,2.663 2.161,3.524 2.704,4.359 3.249,5.169 3.795,5.977 4.343,6.76 4.89,7.514 3.987,7.777 3.097,8.028 2.215,8.261 1.339,8.493 0.476,8.712 -0.377,8.915 -1.226,9.117 -2.063,9.304 -2.882,9.474 -3.7,9.645 -4.505,9.799 -5.293,9.94 -5.889,9.214 -6.479,8.462 -7.063,7.683 -7.646,6.905 -8.223,6.096 -8.79,5.262 -9.36,4.427 -9.921,3.565 -10.474,2.681 c -0.554,-0.891 -1.096,-1.803 -1.63,-2.744 0.811,-0.166 1.637,-0.35 2.48,-0.546 0.845,-0.2 1.708,-0.412 2.583,-0.644 0.879,-0.228 1.771,-0.476 2.677,-0.735 0.908,-0.263 1.831,-0.54 2.763,-0.834 C -1.071,-1.857 -0.536,-0.916 0,0"
         style="fill:#ff811a;fill-opacity:1;fill-rule:nonzero;stroke:none"
         id="path3071"
         inkscape:connector-curvature="0" /></g><g
       id="g3073"
       transform="translate(181.5449,309.709)"><path
         d="m 0,0 c -0.397,-0.047 -0.776,-0.108 -1.13,-0.183 -0.353,-0.075 -0.684,-0.165 -0.992,-0.267 -0.178,-0.996 -0.329,-1.997 -0.454,-3 -0.124,-1.004 -0.228,-2.012 -0.3,-3.019 -0.072,-1.009 -0.122,-2.02 -0.145,-3.034 -0.024,-1.011 -0.023,-2.022 0.005,-3.036 0.278,0.064 0.577,0.116 0.895,0.152 0.32,0.04 0.659,0.066 1.018,0.078 0.362,0.015 0.744,0.017 1.143,0.006 0.401,-0.015 0.821,-0.036 1.262,-0.075 0.017,1.043 0.06,2.089 0.124,3.134 0.066,1.043 0.155,2.089 0.269,3.132 0.114,1.042 0.252,2.086 0.415,3.125 0.162,1.037 0.35,2.073 0.559,3.105 C 2.181,0.126 1.714,0.121 1.268,0.103 0.824,0.083 0.401,0.05 0,0"
         style="fill:#ff811a;fill-opacity:1;fill-rule:nonzero;stroke:none"
         id="path3075"
         inkscape:connector-curvature="0" /></g><g
       id="g3077"
       transform="translate(253.7988,344.9102)"><path
         d="M 0,0 C -0.666,0.317 -1.335,0.628 -2.002,0.926 -2.203,0.661 -2.415,0.368 -2.639,0.052 -2.863,-0.267 -3.099,-0.61 -3.346,-0.979 -3.595,-1.35 -3.854,-1.744 -4.124,-2.165 c -0.273,-0.421 -0.555,-0.868 -0.848,-1.341 0.82,-0.37 1.64,-0.754 2.461,-1.145 0.82,-0.393 1.641,-0.796 2.458,-1.214 C 0.76,-6.276 1.568,-6.7 2.376,-7.134 l 0,5.953 C 2.251,-1.116 2.126,-1.048 2.001,-0.984 1.337,-0.646 0.669,-0.319 0,0"
         style="fill:#ff811a;fill-opacity:1;fill-rule:nonzero;stroke:none"
         id="path3079"
         inkscape:connector-curvature="0" /></g><g
       id="g3081"
       transform="translate(252.7744,336.8818)"><path
         d="M 0,0 C -0.863,0.437 -1.726,0.865 -2.593,1.28 -3.457,1.695 -4.323,2.099 -5.188,2.491 -5.514,1.947 -5.851,1.379 -6.197,0.784 -6.545,0.188 -6.904,-0.431 -7.273,-1.076 -7.645,-1.724 -8.024,-2.397 -8.415,-3.093 -8.809,-3.792 -9.21,-4.515 -9.622,-5.262 c 0.975,-0.445 1.946,-0.901 2.921,-1.373 0.973,-0.47 1.947,-0.954 2.919,-1.45 0.972,-0.495 1.942,-1.002 2.91,-1.523 0.966,-0.518 1.929,-1.048 2.887,-1.589 0.323,0.792 0.632,1.566 0.924,2.315 0.163,0.416 0.308,0.81 0.461,1.212 l 0,5.867 C 3.127,-1.652 2.855,-1.497 2.581,-1.35 1.724,-0.89 0.862,-0.438 0,0"
         style="fill:#ff811a;fill-opacity:1;fill-rule:nonzero;stroke:none"
         id="path3083"
         inkscape:connector-curvature="0" /></g><g
       id="g3085"
       transform="translate(253.7451,311.7988)"><path
         d="m 0,0 c -0.45,-0.978 -0.917,-1.974 -1.402,-2.986 1.007,-0.6 1.999,-1.204 2.966,-1.81 0.295,-0.183 0.575,-0.368 0.866,-0.553 l 0,10.872 C 2.066,4.66 1.689,3.78 1.294,2.881 0.881,1.938 0.448,0.978 0,0"
         style="fill:#ff811a;fill-opacity:1;fill-rule:nonzero;stroke:none"
         id="path3087"
         inkscape:connector-curvature="0" /></g><g
       id="g3089"
       transform="translate(186.0918,316.9561)"><path
         d="M 0,0 C 0.326,1.003 0.674,1.997 1.049,2.983 1.424,3.969 1.821,4.943 2.243,5.909 2.667,6.872 3.114,7.828 3.585,8.771 3.058,8.739 2.554,8.688 2.07,8.624 1.59,8.561 1.134,8.481 0.698,8.39 0.267,8.295 -0.144,8.188 -0.528,8.063 -0.913,7.941 -1.275,7.805 -1.612,7.652 -2.067,6.738 -2.496,5.818 -2.898,4.887 -3.302,3.955 -3.679,3.012 -4.031,2.062 -4.38,1.11 -4.705,0.149 -5.004,-0.815 c -0.299,-0.97 -0.571,-1.946 -0.817,-2.926 0.317,0.117 0.656,0.218 1.018,0.305 0.365,0.087 0.752,0.163 1.16,0.221 0.414,0.061 0.847,0.106 1.303,0.136 0.457,0.03 0.938,0.048 1.438,0.049 C -0.626,-2.014 -0.325,-1.003 0,0"
         style="fill:#ff811a;fill-opacity:1;fill-rule:nonzero;stroke:none"
         id="path3091"
         inkscape:connector-curvature="0" /></g><g
       id="g3093"
       transform="translate(196.0674,340.1904)"><path
         d="m 0,0 c -0.131,-0.108 -0.263,-0.217 -0.39,-0.326 -0.13,-0.109 -0.258,-0.221 -0.388,-0.332 -0.044,-0.04 -0.089,-0.08 -0.135,-0.118 L 0.394,0.321 C 0.262,0.215 0.13,0.107 0,0"
         style="fill:#ff811a;fill-opacity:1;fill-rule:nonzero;stroke:none"
         id="path3095"
         inkscape:connector-curvature="0" /></g><g
       id="g3097"
       transform="translate(177.2471,296.7178)"><path
         d="m 0,0 c 0.093,0.049 0.187,0.094 0.289,0.139 -0.037,0.997 -0.05,1.996 -0.037,2.993 0.016,0.996 0.055,1.993 0.119,2.99 0.067,0.993 0.157,1.986 0.273,2.977 0.118,0.99 0.26,1.976 0.429,2.96 C 0.965,11.996 0.856,11.929 0.755,11.859 0.654,11.793 0.556,11.719 0.465,11.645 0.375,11.57 0.287,11.493 0.205,11.413 0.125,11.333 0.049,11.251 -0.023,11.165 -0.186,10.203 -0.317,9.236 -0.427,8.269 -0.535,7.3 -0.616,6.326 -0.672,5.353 -0.73,4.378 -0.76,3.402 -0.763,2.426 c -0.006,-0.978 0.015,-1.954 0.062,-2.933 0.066,0.064 0.134,0.126 0.208,0.185 0.072,0.059 0.149,0.116 0.233,0.169 C -0.178,-0.102 -0.092,-0.05 0,0"
         style="fill:#ff811a;fill-opacity:1;fill-rule:nonzero;stroke:none"
         id="path3099"
         inkscape:connector-curvature="0" /></g><g
       id="g3101"
       transform="translate(245.1631,348.5039)"><path
         d="M 0,0 C -0.653,0.233 -1.306,0.455 -1.954,0.668 -2.599,0.879 -3.242,1.081 -3.881,1.272 -4.295,1.089 -4.717,0.878 -5.144,0.643 -5.575,0.405 -6.012,0.142 -6.454,-0.146 c -0.445,-0.293 -0.897,-0.61 -1.355,-0.955 -0.459,-0.344 -0.924,-0.715 -1.393,-1.114 0.776,-0.24 1.56,-0.489 2.348,-0.754 0.791,-0.263 1.587,-0.54 2.386,-0.83 0.803,-0.288 1.609,-0.59 2.417,-0.904 0.811,-0.316 1.623,-0.64 2.44,-0.98 0.34,0.453 0.671,0.879 0.99,1.279 0.319,0.397 0.627,0.771 0.927,1.119 0.297,0.347 0.585,0.665 0.862,0.962 0.276,0.291 0.541,0.559 0.798,0.802 -0.664,0.274 -1.33,0.538 -1.991,0.792 C 1.314,-0.476 0.656,-0.232 0,0"
         style="fill:#ff811a;fill-opacity:1;fill-rule:nonzero;stroke:none"
         id="path3103"
         inkscape:connector-curvature="0" /></g><g
       id="g3105"
       transform="translate(244.0371,350.6328)"><path
         d="m 0,0 c -0.375,-0.063 -0.758,-0.149 -1.147,-0.264 0.586,-0.174 1.176,-0.358 1.771,-0.552 0.594,-0.194 1.192,-0.398 1.792,-0.61 0.603,-0.213 1.207,-0.434 1.812,-0.667 0.607,-0.232 1.215,-0.472 1.825,-0.722 0.226,0.172 0.441,0.322 0.642,0.446 0.204,0.122 0.397,0.221 0.577,0.294 0.182,0.074 0.352,0.123 0.51,0.147 0.16,0.024 0.308,0.026 0.445,0 -0.433,0.176 -0.866,0.347 -1.295,0.51 C 6.5,-1.256 6.071,-1.097 5.645,-0.947 5.217,-0.795 4.792,-0.65 4.368,-0.514 3.946,-0.377 3.525,-0.246 3.106,-0.122 2.788,-0.034 2.462,0.03 2.129,0.068 1.79,0.107 1.444,0.121 1.091,0.108 0.735,0.099 0.372,0.063 0,0"
         style="fill:#ff811a;fill-opacity:1;fill-rule:nonzero;stroke:none"
         id="path3107"
         inkscape:connector-curvature="0" /></g><g
       id="g3109"
       transform="translate(210.8398,348.749)"><path
         d="m 0,0 c 0.315,0.087 0.639,0.165 0.973,0.236 0.336,0.075 0.679,0.138 1.032,0.195 0.726,0.33 1.46,0.632 2.193,0.912 0.737,0.276 1.474,0.533 2.217,0.764 0.738,0.227 1.482,0.436 2.227,0.616 0.201,0.049 0.403,0.093 0.603,0.14 C 8.367,2.682 7.457,2.49 6.705,2.3 1.66,0.815 1.358,0.728 -1.761,-0.604 c 0.272,0.116 0.558,0.223 0.85,0.324 0.294,0.1 0.597,0.195 0.911,0.28"
         style="fill:#ff811a;fill-opacity:1;fill-rule:nonzero;stroke:none"
         id="path3111"
         inkscape:connector-curvature="0" /></g><g
       id="g3113"
       transform="translate(208.1914,323.0859)"><path
         d="m 0,0 c -0.874,0.239 -1.733,0.459 -2.578,0.666 -0.84,0.207 -1.666,0.398 -2.476,0.573 -0.494,-0.989 -0.971,-1.99 -1.431,-2.997 -0.458,-1.013 -0.9,-2.032 -1.324,-3.06 -0.422,-1.031 -0.828,-2.069 -1.213,-3.112 -0.386,-1.046 -0.754,-2.095 -1.103,-3.152 0.775,-0.194 1.569,-0.406 2.377,-0.629 0.81,-0.224 1.636,-0.461 2.478,-0.714 0.842,-0.255 1.701,-0.523 2.572,-0.803 0.873,-0.283 1.759,-0.58 2.657,-0.889 0.403,1.064 0.822,2.126 1.252,3.183 0.431,1.057 0.875,2.107 1.332,3.153 0.458,1.044 0.926,2.082 1.408,3.11 0.483,1.028 0.979,2.049 1.487,3.059 C 4.503,-1.314 3.581,-1.029 2.673,-0.759 1.769,-0.491 0.877,-0.238 0,0"
         style="fill:#ff811a;fill-opacity:1;fill-rule:nonzero;stroke:none"
         id="path3115"
         inkscape:connector-curvature="0" /></g><g
       id="g3117"
       transform="translate(239.0225,342.8662)"><path
         d="M 0,0 C -0.84,0.308 -1.678,0.599 -2.509,0.881 -3.339,1.161 -4.163,1.427 -4.979,1.68 -5.467,1.207 -5.96,0.706 -6.459,0.178 -6.958,-0.35 -7.46,-0.905 -7.965,-1.486 c -0.509,-0.585 -1.02,-1.195 -1.533,-1.831 -0.517,-0.641 -1.034,-1.305 -1.554,-1.997 0.911,-0.295 1.834,-0.604 2.76,-0.926 0.93,-0.323 1.867,-0.661 2.811,-1.015 0.943,-0.351 1.895,-0.718 2.849,-1.099 0.959,-0.382 1.92,-0.778 2.885,-1.185 0.44,0.731 0.871,1.438 1.297,2.122 0.424,0.682 0.839,1.336 1.244,1.968 0.405,0.626 0.801,1.228 1.19,1.807 0.385,0.574 0.764,1.122 1.13,1.647 C 4.255,-1.639 3.399,-1.29 2.546,-0.959 1.694,-0.627 0.846,-0.308 0,0"
         style="fill:#ff811a;fill-opacity:1;fill-rule:nonzero;stroke:none"
         id="path3119"
         inkscape:connector-curvature="0" /></g><g
       id="g3121"
       transform="translate(240.0996,325.9805)"><path
         d="m 0,0 c -0.459,-0.862 -0.928,-1.749 -1.404,-2.658 -0.478,-0.909 -0.963,-1.843 -1.459,-2.795 -0.493,-0.956 -0.996,-1.933 -1.507,-2.93 1.045,-0.485 2.09,-0.986 3.136,-1.496 1.046,-0.51 2.092,-1.035 3.136,-1.57 1.047,-0.535 2.092,-1.082 3.13,-1.639 1.043,-0.56 2.079,-1.129 3.114,-1.708 0.492,1.008 0.968,1.999 1.43,2.973 0.461,0.974 0.908,1.927 1.338,2.864 0.431,0.934 0.845,1.85 1.244,2.744 0.398,0.894 0.781,1.769 1.151,2.624 -0.987,0.556 -1.977,1.099 -2.971,1.634 -0.994,0.533 -1.99,1.055 -2.99,1.564 -0.999,0.51 -2,1.007 -2.999,1.492 C 3.348,1.583 2.347,2.055 1.348,2.515 0.908,1.7 0.459,0.862 0,0"
         style="fill:#ff811a;fill-opacity:1;fill-rule:nonzero;stroke:none"
         id="path3123"
         inkscape:connector-curvature="0" /></g><g
       id="g3125"
       transform="translate(178.209,289.8965)"><path
         d="M 0,0 C -0.157,0.986 -0.286,1.98 -0.39,2.976 -0.485,2.938 -0.578,2.896 -0.665,2.855 -0.753,2.813 -0.838,2.769 -0.916,2.723 -0.995,2.675 -1.07,2.625 -1.142,2.574 -1.212,2.522 -1.277,2.468 -1.339,2.412 c 0.113,-0.974 0.253,-1.947 0.419,-2.915 0.164,-0.97 0.354,-1.935 0.567,-2.893 0.056,-0.249 0.127,-0.493 0.186,-0.74 l 0.981,0 C 0.724,-3.741 0.62,-3.35 0.537,-2.952 0.332,-1.973 0.154,-0.988 0,0"
         style="fill:#ff811a;fill-opacity:1;fill-rule:nonzero;stroke:none"
         id="path3127"
         inkscape:connector-curvature="0" /></g><g
       id="g3129"
       transform="translate(229.3467,352.6826)"><path
         d="m 0,0 c 0.429,-0.003 0.868,-0.017 1.313,-0.038 0.448,-0.024 0.902,-0.056 1.367,-0.097 0.341,0.033 0.683,0.062 1.025,0.079 0.339,0.018 0.679,0.029 1.016,0.033 0.338,0.002 0.674,-0.002 1.008,-0.015 0.334,-0.012 0.667,-0.031 0.998,-0.061 L 5.442,-0.002 C 1.401,0.133 1.07,0.146 -1.878,-0.033 l -0.578,-0.043 c 0.391,0.029 0.791,0.052 1.199,0.064 C -0.847,0 -0.428,0.005 0,0"
         style="fill:#ff811a;fill-opacity:1;fill-rule:nonzero;stroke:none"
         id="path3131"
         inkscape:connector-curvature="0" /></g><g
       id="g3133"
       transform="translate(219.2207,351.126)"><path
         d="m 0,0 c -0.741,-0.232 -1.479,-0.491 -2.213,-0.775 -0.736,-0.285 -1.47,-0.598 -2.199,-0.932 0.516,0.042 1.043,0.07 1.588,0.087 0.547,0.016 1.108,0.018 1.681,0.009 0.58,-0.011 1.172,-0.034 1.777,-0.069 0.606,-0.038 1.225,-0.086 1.859,-0.147 0.653,0.346 1.303,0.666 1.956,0.958 0.654,0.292 1.304,0.557 1.953,0.798 0.647,0.237 1.295,0.448 1.941,0.633 0.642,0.183 1.285,0.342 1.925,0.473 C 9.738,1.083 9.22,1.12 8.711,1.146 8.201,1.17 7.702,1.184 7.218,1.188 6.73,1.191 6.258,1.184 5.795,1.167 5.333,1.149 4.885,1.12 4.445,1.082 3.703,0.952 2.962,0.799 2.222,0.619 1.479,0.438 0.739,0.232 0,0"
         style="fill:#ff811a;fill-opacity:1;fill-rule:nonzero;stroke:none"
         id="path3135"
         inkscape:connector-curvature="0" /></g><g
       id="g3137"
       transform="translate(220.085,351.6123)"><path
         d="M 0,0 C 0.575,0.115 1.139,0.229 1.634,0.334 1.089,0.235 0.545,0.122 0,0"
         style="fill:#ff811a;fill-opacity:1;fill-rule:nonzero;stroke:none"
         id="path3139"
         inkscape:connector-curvature="0" /></g><g
       id="g3141"
       transform="translate(234.0361,352.3232)"><path
         d="M 0,0 C 0.001,0 0.002,0.001 0.003,0 0.002,0.001 0.001,0.001 0,0.001 L 0,0 z"
         style="fill:#ff811a;fill-opacity:1;fill-rule:nonzero;stroke:none"
         id="path3143"
         inkscape:connector-curvature="0" /></g><g
       id="g3145"
       transform="translate(197.2725,340.5146)"><path
         d="M 0,0 C 0.392,0.156 0.806,0.298 1.239,0.426 1.675,0.554 2.132,0.668 2.609,0.768 3.09,0.867 3.591,0.952 4.109,1.021 4.779,1.64 5.464,2.23 6.157,2.796 6.848,3.36 7.549,3.9 8.26,4.414 8.967,4.927 9.684,5.412 10.408,5.873 11.13,6.332 11.861,6.768 12.6,7.176 12.127,7.1 11.669,7.015 11.231,6.914 10.794,6.814 10.373,6.702 9.972,6.578 9.57,6.454 9.186,6.316 8.82,6.165 8.455,6.019 8.108,5.858 7.78,5.682 L 7.327,5.438 C 6.586,5.031 5.855,4.604 5.134,4.153 4.41,3.703 3.696,3.23 2.993,2.734 2.286,2.238 1.594,1.721 0.912,1.181 0.227,0.637 -0.445,0.076 -1.104,-0.509 -0.758,-0.325 -0.391,-0.157 0,0"
         style="fill:#ff811a;fill-opacity:1;fill-rule:nonzero;stroke:none"
         id="path3147"
         inkscape:connector-curvature="0" /></g><g
       id="g3149"
       transform="translate(200.9756,339.1064)"><path
         d="m 0,0 c -0.638,-0.696 -1.263,-1.416 -1.877,-2.164 -0.613,-0.746 -1.216,-1.522 -1.804,-2.321 -0.59,-0.799 -1.164,-1.627 -1.725,-2.48 -0.562,-0.852 -1.107,-1.731 -1.638,-2.635 0.594,0.002 1.209,-0.011 1.845,-0.041 0.636,-0.026 1.295,-0.073 1.972,-0.134 0.681,-0.061 1.381,-0.137 2.099,-0.228 0.721,-0.093 1.461,-0.201 2.22,-0.324 0.534,0.93 1.078,1.836 1.636,2.715 0.555,0.878 1.122,1.731 1.698,2.556 0.574,0.825 1.159,1.622 1.754,2.396 0.591,0.768 1.193,1.511 1.801,2.23 -0.74,0.097 -1.463,0.178 -2.168,0.245 -0.704,0.066 -1.39,0.118 -2.057,0.153 C 3.09,0.006 2.446,0.024 1.816,0.03 1.191,0.034 0.586,0.024 0,0"
         style="fill:#ff811a;fill-opacity:1;fill-rule:nonzero;stroke:none"
         id="path3151"
         inkscape:connector-curvature="0" /></g><g
       id="g3153"
       transform="translate(225.4473,322.0029)"><path
         d="m 0,0 c 1.01,-0.393 2.025,-0.801 3.044,-1.225 1.024,-0.421 2.052,-0.858 3.083,-1.306 0.515,0.99 1.027,1.962 1.532,2.91 0.504,0.944 1.001,1.867 1.494,2.77 0.491,0.897 0.976,1.774 1.454,2.627 0.477,0.85 0.947,1.677 1.413,2.481 C 11.029,8.679 10.041,9.086 9.06,9.481 8.079,9.875 7.104,10.254 6.136,10.619 5.168,10.984 4.206,11.335 3.255,11.671 2.303,12.004 1.359,12.325 0.426,12.632 -0.103,11.867 -0.631,11.073 -1.16,10.254 -1.692,9.436 -2.222,8.59 -2.753,7.72 -3.283,6.847 -3.814,5.949 -4.344,5.028 -4.873,4.104 -5.403,3.156 -5.931,2.185 -4.961,1.851 -3.983,1.5 -2.994,1.139 -2.005,0.772 -1.005,0.394 0,0"
         style="fill:#ff811a;fill-opacity:1;fill-rule:nonzero;stroke:none"
         id="path3155"
         inkscape:connector-curvature="0" /></g><g
       id="g3157"
       transform="translate(215.3135,348.0088)"><path
         d="m 0,0 c -0.599,0.014 -1.186,0.013 -1.751,0 -0.568,-0.014 -1.117,-0.042 -1.653,-0.084 -0.72,-0.407 -1.434,-0.844 -2.143,-1.304 -0.709,-0.465 -1.412,-0.952 -2.107,-1.467 -0.696,-0.516 -1.386,-1.06 -2.066,-1.626 -0.681,-0.569 -1.354,-1.165 -2.015,-1.79 0.575,0.034 1.173,0.05 1.789,0.05 0.619,0.002 1.253,-0.012 1.906,-0.041 0.657,-0.029 1.329,-0.073 2.02,-0.131 0.694,-0.059 1.404,-0.134 2.129,-0.224 0.622,0.64 1.253,1.255 1.888,1.844 0.633,0.584 1.272,1.144 1.914,1.675 0.64,0.531 1.286,1.035 1.935,1.51 0.645,0.476 1.294,0.923 1.948,1.345 C 3.13,-0.177 2.484,-0.121 1.849,-0.079 1.219,-0.039 0.602,-0.014 0,0"
         style="fill:#ff811a;fill-opacity:1;fill-rule:nonzero;stroke:none"
         id="path3159"
         inkscape:connector-curvature="0" /></g><g
       id="g3161"
       transform="translate(191.9111,325.7793)"><path
         d="m 0,0 c -0.477,-0.953 -0.932,-1.918 -1.359,-2.892 -0.432,-0.977 -0.836,-1.962 -1.219,-2.957 -0.383,-0.996 -0.742,-2.001 -1.078,-3.014 -0.336,-1.012 -0.647,-2.032 -0.938,-3.061 0.564,-0.036 1.149,-0.088 1.752,-0.155 0.605,-0.065 1.232,-0.148 1.876,-0.242 0.648,-0.096 1.315,-0.209 1.999,-0.335 0.69,-0.124 1.397,-0.266 2.121,-0.421 0.331,1.05 0.683,2.097 1.057,3.138 0.371,1.036 0.765,2.067 1.178,3.088 0.41,1.022 0.842,2.035 1.295,3.039 0.452,0.999 0.921,1.992 1.414,2.971 -0.756,0.135 -1.494,0.25 -2.212,0.354 C 5.169,-0.388 4.472,-0.304 3.795,-0.232 3.12,-0.164 2.466,-0.109 1.831,-0.069 1.199,-0.031 0.589,-0.008 0,0"
         style="fill:#ff811a;fill-opacity:1;fill-rule:nonzero;stroke:none"
         id="path3163"
         inkscape:connector-curvature="0" /></g><g
       id="g3165"
       transform="translate(239.9502,310.4395)"><path
         d="m 0,0 c -1.049,0.539 -2.099,1.065 -3.146,1.58 -1.048,0.514 -2.095,1.016 -3.14,1.505 -0.519,-1.032 -1.039,-2.067 -1.556,-3.107 -0.517,-1.041 -1.037,-2.085 -1.552,-3.131 -0.514,-1.049 -1.028,-2.097 -1.538,-3.149 -0.509,-1.049 -1.017,-2.098 -1.524,-3.146 1.013,-0.484 2.027,-0.975 3.044,-1.479 1.016,-0.501 2.033,-1.015 3.05,-1.541 1.017,-0.523 2.036,-1.057 3.049,-1.599 1.014,-0.543 2.026,-1.096 3.032,-1.658 0.566,1.021 1.127,2.047 1.682,3.074 0.556,1.029 1.108,2.06 1.655,3.093 0.547,1.034 1.089,2.069 1.622,3.103 0.534,1.032 1.063,2.067 1.583,3.1 -1.035,0.58 -2.077,1.151 -3.123,1.709 C 2.097,-1.086 1.048,-0.538 0,0"
         style="fill:#ff811a;fill-opacity:1;fill-rule:nonzero;stroke:none"
         id="path3167"
         inkscape:connector-curvature="0" /></g><g
       id="g3169"
       transform="translate(215.7764,301.1611)"><path
         d="m 0,0 c -0.948,0.395 -1.891,0.779 -2.822,1.151 -0.93,0.371 -1.852,0.731 -2.765,1.075 -0.39,-1.068 -0.767,-2.136 -1.132,-3.201 -0.364,-1.065 -0.718,-2.129 -1.054,-3.189 -0.338,-1.06 -0.664,-2.114 -0.975,-3.166 -0.311,-1.049 -0.607,-2.095 -0.892,-3.133 0.816,-0.325 1.64,-0.66 2.474,-1.009 0.834,-0.345 1.677,-0.704 2.527,-1.069 0.85,-0.371 1.709,-0.746 2.573,-1.135 0.863,-0.387 1.734,-0.786 2.608,-1.191 0.403,1 0.816,2.008 1.237,3.021 0.423,1.019 0.851,2.044 1.288,3.075 0.439,1.032 0.886,2.069 1.338,3.112 0.454,1.042 0.914,2.089 1.382,3.139 C 4.812,-2.076 3.839,-1.646 2.873,-1.225 1.909,-0.804 0.95,-0.395 0,0"
         style="fill:#ff811a;fill-opacity:1;fill-rule:nonzero;stroke:none"
         id="path3171"
         inkscape:connector-curvature="0" /></g><g
       id="g3173"
       transform="translate(189.8271,309.2666)"><path
         d="m 0,0 c -0.631,0.104 -1.24,0.192 -1.833,0.269 -0.586,0.074 -1.153,0.136 -1.703,0.179 -0.227,-1.039 -0.429,-2.085 -0.606,-3.133 -0.178,-1.048 -0.335,-2.1 -0.464,-3.151 -0.13,-1.05 -0.24,-2.104 -0.324,-3.157 -0.084,-1.052 -0.145,-2.105 -0.183,-3.154 0.494,-0.07 1.004,-0.154 1.533,-0.248 0.532,-0.096 1.079,-0.204 1.644,-0.322 0.567,-0.123 1.152,-0.252 1.751,-0.398 0.603,-0.146 1.221,-0.302 1.854,-0.469 0.115,1.061 0.249,2.121 0.402,3.188 0.155,1.068 0.331,2.136 0.526,3.204 0.196,1.067 0.413,2.135 0.648,3.203 0.237,1.069 0.496,2.135 0.773,3.197 -0.706,0.16 -1.396,0.307 -2.067,0.438 C 1.283,-0.221 0.631,-0.103 0,0"
         style="fill:#ff811a;fill-opacity:1;fill-rule:nonzero;stroke:none"
         id="path3175"
         inkscape:connector-curvature="0" /></g><g
       id="g3177"
       transform="translate(229.501,315.4121)"><path
         d="m 0,0 c -1.034,0.452 -2.063,0.895 -3.088,1.322 -1.021,0.429 -2.038,0.841 -3.046,1.241 -1.008,0.397 -2.008,0.783 -2.997,1.152 -0.99,0.369 -1.967,0.724 -2.937,1.067 -0.509,-1.017 -1.009,-2.041 -1.499,-3.073 -0.491,-1.036 -0.97,-2.075 -1.438,-3.123 -0.47,-1.049 -0.928,-2.102 -1.373,-3.158 -0.446,-1.06 -0.884,-2.121 -1.307,-3.186 0.934,-0.348 1.88,-0.708 2.831,-1.083 0.958,-0.375 1.922,-0.761 2.895,-1.162 0.972,-0.4 1.953,-0.813 2.942,-1.24 0.989,-0.424 1.985,-0.865 2.985,-1.314 0.482,1.056 0.973,2.11 1.468,3.165 0.496,1.054 0.993,2.104 1.5,3.155 0.502,1.048 1.009,2.093 1.522,3.134 0.51,1.04 1.025,2.074 1.542,3.103"
         style="fill:#ff811a;fill-opacity:1;fill-rule:nonzero;stroke:none"
         id="path3179"
         inkscape:connector-curvature="0" /></g><g
       id="g3181"
       transform="translate(204.0186,305.5869)"><path
         d="m 0,0 c -0.852,0.281 -1.687,0.551 -2.509,0.807 -0.82,0.254 -1.628,0.494 -2.418,0.722 -0.787,0.227 -1.561,0.439 -2.319,0.638 -0.297,-1.065 -0.577,-2.136 -0.835,-3.206 -0.26,-1.069 -0.499,-2.142 -0.72,-3.214 -0.221,-1.068 -0.424,-2.14 -0.606,-3.206 -0.182,-1.065 -0.345,-2.129 -0.489,-3.189 0.679,-0.204 1.373,-0.416 2.078,-0.644 0.709,-0.228 1.431,-0.463 2.165,-0.715 0.737,-0.248 1.487,-0.512 2.246,-0.783 0.763,-0.275 1.539,-0.561 2.323,-0.855 0.246,1.048 0.508,2.1 0.784,3.157 0.277,1.058 0.568,2.121 0.875,3.184 0.305,1.068 0.627,2.136 0.965,3.204 0.335,1.069 0.689,2.14 1.051,3.21 C 1.717,-0.579 0.852,-0.283 0,0"
         style="fill:#ff811a;fill-opacity:1;fill-rule:nonzero;stroke:none"
         id="path3183"
         inkscape:connector-curvature="0" /></g><g
       id="g3193"
       transform="translate(160.4771,386.5674)"><path
         d="m 0,0 c -10.957,0 -19.871,-8.914 -19.871,-19.871 l 0,-93.309 c 0,-10.957 8.914,-19.871 19.871,-19.871 l 476.046,0 c 10.957,0 19.871,8.914 19.871,19.871 l 0,93.309 C 495.917,-8.914 487.003,0 476.046,0 L 0,0 z m 476.046,-141.691 -476.046,0 c -15.721,0 -28.511,12.791 -28.511,28.511 l 0,93.309 c 0,15.721 12.79,28.512 28.511,28.512 l 476.046,0 c 15.721,0 28.511,-12.791 28.511,-28.512 l 0,-93.309 c 0,-15.72 -12.79,-28.511 -28.511,-28.511"
         style="fill:#ff811a;fill-opacity:1;fill-rule:nonzero;stroke:none"
         id="path3195"
         inkscape:connector-curvature="0" /></g><path
       d="m 390.935,277.821 1.545,0 0,-13.724 -1.545,0 0,13.724 z"
       style="fill:#ff811a;fill-opacity:1;fill-rule:nonzero;stroke:none"
       id="path3209"
       inkscape:connector-curvature="0" /><g
       id="g3211"
       transform="translate(406.335,272.8477)"><path
         d="m 0,0 0,-8.75 -1.563,0 0,8.75 c 0,0.399 -0.344,0.742 -0.743,0.742 l -6.634,0 C -9.359,0.742 -9.703,0.399 -9.703,0 l 0,-8.75 -1.562,0 0,11.056 8.959,0 C -1.028,2.306 0,1.275 0,0"
         style="fill:#ff811a;fill-opacity:1;fill-rule:nonzero;stroke:none"
         id="path3213"
         inkscape:connector-curvature="0" /></g><g
       id="g3215"
       transform="translate(409.8799,276.4678)"><path
         d="m 0,0 0,-1.314 4.785,0 0,-1.564 -4.785,0 0,-9.492 -1.563,0 0,12.37 c 0,1.298 1.009,2.308 2.306,2.308 l 4.042,0 0,-1.563 -4.042,0 C 0.344,0.745 0,0.402 0,0"
         style="fill:#ff811a;fill-opacity:1;fill-rule:nonzero;stroke:none"
         id="path3217"
         inkscape:connector-curvature="0" /></g><g
       id="g3219"
       transform="translate(418.3408,273.5898)"><path
         d="m 0,0 c -0.398,0 -0.742,-0.343 -0.742,-0.742 l 0,-6.445 c 0,-0.399 0.344,-0.742 0.742,-0.742 l 6.634,0 c 0.422,0 0.746,0.343 0.746,0.742 l 0,6.445 C 7.38,-0.343 7.056,0 6.634,0 L 0,0 z m 6.634,1.563 c 1.298,0 2.327,-1.03 2.327,-2.305 l 0,-6.445 c 0,-1.275 -1.029,-2.305 -2.327,-2.305 l -6.634,0 c -1.275,0 -2.305,1.03 -2.305,2.305 l 0,6.445 c 0,1.275 1.03,2.305 2.305,2.305 l 6.634,0 z"
         style="fill:#ff811a;fill-opacity:1;fill-rule:nonzero;stroke:none"
         id="path3221"
         inkscape:connector-curvature="0" /></g><g
       id="g3223"
       transform="translate(437.5752,275.1533)"><path
         d="m 0,0 0,-1.563 -6.213,0 c -0.402,0 -0.744,-0.343 -0.744,-0.743 l 0,-8.75 -1.564,0 0,8.75 C -8.521,-1.03 -7.492,0 -6.213,0 L 0,0 z"
         style="fill:#ff811a;fill-opacity:1;fill-rule:nonzero;stroke:none"
         id="path3225"
         inkscape:connector-curvature="0" /></g><g
       id="g3227"
       transform="translate(455.7578,272.8477)"><path
         d="m 0,0 0,-8.75 -1.543,0 0,8.75 c 0,0.399 -0.344,0.742 -0.763,0.742 l -4.593,0 C -7.317,0.742 -7.643,0.399 -7.643,0 l 0,-8.75 -1.582,0 0,8.75 c 0,0.399 -0.342,0.742 -0.743,0.742 l -4.611,0 c -0.403,0 -0.744,-0.343 -0.744,-0.742 l 0,-8.75 -1.584,0 0,11.056 14.601,0 C -1.01,2.306 0,1.275 0,0"
         style="fill:#ff811a;fill-opacity:1;fill-rule:nonzero;stroke:none"
         id="path3229"
         inkscape:connector-curvature="0" /></g><g
       id="g3231"
       transform="translate(467.1377,268.8447)"><path
         d="m 0,0 -8.121,0 0,-2.441 c 0,-0.4 0.344,-0.743 0.745,-0.743 L 0,-3.184 0,0 z m 1.582,4.003 0,-8.75 -8.958,0 c -1.279,0 -2.307,1.03 -2.307,2.306 l 0,4.004 9.683,0 0,2.44 c 0,0.399 -0.324,0.742 -0.744,0.742 l -8.939,0 0,1.564 8.939,0 c 1.297,0 2.326,-1.031 2.326,-2.306"
         style="fill:#ff811a;fill-opacity:1;fill-rule:nonzero;stroke:none"
         id="path3233"
         inkscape:connector-curvature="0" /></g><g
       id="g3235"
       transform="translate(472.2646,273.5898)"><path
         d="m 0,0 0,-7.187 c 0,-0.399 0.344,-0.742 0.742,-0.742 l 4.042,0 0,-1.563 -4.042,0 c -1.296,0 -2.305,1.03 -2.305,2.305 l 0,12.373 1.563,0 0,-3.623 4.784,0 L 4.784,0 0,0 z"
         style="fill:#ff811a;fill-opacity:1;fill-rule:nonzero;stroke:none"
         id="path3237"
         inkscape:connector-curvature="0" /></g><path
       d="m 478.592,275.153 1.563,0 0,-11.056 -1.563,0 0,11.056 z m 1.563,2.06 -1.563,0 0,1.563 1.563,0 0,-1.563 z"
       style="fill:#ff811a;fill-opacity:1;fill-rule:nonzero;stroke:none"
       id="path3239"
       inkscape:connector-curvature="0" /><g
       id="g3241"
       transform="translate(484.8447,273.5898)"><path
         d="m 0,0 c -0.401,0 -0.743,-0.343 -0.743,-0.742 l 0,-6.445 c 0,-0.399 0.342,-0.742 0.743,-0.742 l 6.631,0 c 0.423,0 0.745,0.343 0.745,0.742 l 0,6.445 C 7.376,-0.343 7.054,0 6.631,0 L 0,0 z m 6.631,1.563 c 1.298,0 2.327,-1.03 2.327,-2.305 l 0,-6.445 c 0,-1.275 -1.029,-2.305 -2.327,-2.305 l -6.631,0 c -1.277,0 -2.307,1.03 -2.307,2.305 l 0,6.445 c 0,1.275 1.03,2.305 2.307,2.305 l 6.631,0 z"
         style="fill:#ff811a;fill-opacity:1;fill-rule:nonzero;stroke:none"
         id="path3243"
         inkscape:connector-curvature="0" /></g><g
       id="g3245"
       transform="translate(506.7646,272.8477)"><path
         d="m 0,0 0,-8.75 -1.563,0 0,8.75 c 0,0.399 -0.344,0.742 -0.743,0.742 l -6.633,0 C -9.36,0.742 -9.701,0.399 -9.701,0 l 0,-8.75 -1.566,0 0,11.056 8.961,0 C -1.031,2.306 0,1.275 0,0"
         style="fill:#ff811a;fill-opacity:1;fill-rule:nonzero;stroke:none"
         id="path3247"
         inkscape:connector-curvature="0" /></g><g
       id="g3249"
       transform="translate(512.1816,365.2803)"><path
         d="m 0,0 c 2.159,-2.682 3.242,-5.405 3.242,-8.171 l 0,-24.908 c 0,-4.931 -1.254,-8.519 -3.763,-10.767 -2.508,-2.164 -4.884,-3.242 -7.133,-3.242 l -65.786,0 0,-15.179 76.682,0 0,-17.253 -101.589,0 0,36.712 c 0,4.411 1.252,7.653 3.761,9.729 2.509,2.16 4.844,3.243 7.006,3.243 l 65.915,0 0,16.216 -76.682,0 0,17.383 88.617,0 C -5.495,3.763 -2.251,2.508 0,0"
         style="fill:#ff811a;fill-opacity:1;fill-rule:nonzero;stroke:none"
         id="path3251"
         inkscape:connector-curvature="0" /></g><g
       id="g3253"><g
         id="g3255"
         clip-path="url(#clipPath3257)"><g
           id="g3261"
           transform="translate(185.1592,275.5352)"><path
             d="m 0,0 c 0,0.399 -0.344,0.741 -0.743,0.741 l -9.15,0 c -0.4,0 -0.744,-0.342 -0.744,-0.741 l 0,-9.151 c 0,-0.399 0.344,-0.742 0.744,-0.742 l 9.15,0 C -0.344,-9.893 0,-9.55 0,-9.151 L 0,0 z M -0.743,2.286 C 0.533,2.286 1.543,1.277 1.543,0 l 0,-9.151 c 0,-1.277 -1.01,-2.287 -2.286,-2.287 l -11.438,0 0,13.724 11.438,0 z"
             style="fill:#414e68;fill-opacity:1;fill-rule:nonzero;stroke:none"
             id="path3263" /></g><g
           id="g3265"
           transform="translate(198.4258,270.4082)"><path
             d="m 0,0 0,2.439 c 0,0.4 -0.325,0.743 -0.744,0.743 l -6.634,0 c -0.4,0 -0.743,-0.343 -0.743,-0.743 L -8.121,0 0,0 z m 1.581,2.439 0,-4.002 -9.702,0 0,-2.442 c 0,-0.399 0.343,-0.742 0.743,-0.742 l 8.959,0 0,-1.564 -8.959,0 c -1.277,0 -2.306,1.031 -2.306,2.306 l 0,6.444 c 0,1.276 1.029,2.306 2.306,2.306 l 6.634,0 c 1.296,0 2.325,-1.03 2.325,-2.306"
             style="fill:#414e68;fill-opacity:1;fill-rule:nonzero;stroke:none"
             id="path3267" /></g><g
           id="g3269"
           transform="translate(203.5322,276.4678)"><path
             d="m 0,0 0,-1.314 4.785,0 0,-1.564 -4.785,0 0,-9.492 -1.563,0 0,12.37 c 0,1.298 1.01,2.308 2.306,2.308 l 4.042,0 0,-1.563 -4.042,0 C 0.344,0.745 0,0.402 0,0"
             style="fill:#414e68;fill-opacity:1;fill-rule:nonzero;stroke:none"
             id="path3271" /></g><g
           id="g3273"
           transform="translate(219.373,270.4082)"><path
             d="m 0,0 0,2.439 c 0,0.4 -0.324,0.743 -0.744,0.743 l -6.634,0 c -0.399,0 -0.744,-0.343 -0.744,-0.743 L -8.122,0 0,0 z m 1.581,2.439 0,-4.002 -9.703,0 0,-2.442 c 0,-0.399 0.345,-0.742 0.744,-0.742 l 8.959,0 0,-1.564 -8.959,0 c -1.277,0 -2.307,1.031 -2.307,2.306 l 0,6.444 c 0,1.276 1.03,2.306 2.307,2.306 l 6.634,0 c 1.297,0 2.325,-1.03 2.325,-2.306"
             style="fill:#414e68;fill-opacity:1;fill-rule:nonzero;stroke:none"
             id="path3275" /></g><g
           id="g3277"
           transform="translate(234.2021,272.8477)"><path
             d="m 0,0 0,-8.75 -1.564,0 0,8.75 c 0,0.399 -0.342,0.742 -0.743,0.742 l -6.634,0 C -9.359,0.742 -9.702,0.399 -9.702,0 l 0,-8.75 -1.564,0 0,11.056 8.959,0 C -1.031,2.306 0,1.275 0,0"
             style="fill:#414e68;fill-opacity:1;fill-rule:nonzero;stroke:none"
             id="path3279" /></g><g
           id="g3281"
           transform="translate(247.3525,272.6953)"><path
             d="m 0,0 -1.582,0 0,0.152 c 0,0.4 -0.342,0.743 -0.744,0.743 l -6.633,0 c -0.399,0 -0.742,-0.343 -0.742,-0.743 l 0,-1.697 c 0,-0.399 0.343,-0.742 0.742,-0.742 l 6.633,0 C -1.029,-2.287 0,-3.317 0,-4.594 l 0,-1.698 c 0,-1.275 -1.029,-2.306 -2.326,-2.306 l -6.633,0 c -1.276,0 -2.307,1.031 -2.307,2.306 l 0,0.152 1.565,0 0,-0.152 c 0,-0.399 0.343,-0.742 0.742,-0.742 l 6.633,0 c 0.402,0 0.744,0.343 0.744,0.742 l 0,1.698 c 0,0.401 -0.342,0.743 -0.744,0.743 l -6.633,0 c -1.276,0 -2.307,1.03 -2.307,2.306 l 0,1.697 c 0,1.276 1.031,2.306 2.307,2.306 l 6.633,0 C -1.029,2.458 0,1.428 0,0.152 L 0,0 z"
             style="fill:#414e68;fill-opacity:1;fill-rule:nonzero;stroke:none"
             id="path3283" /></g><g
           id="g3285"
           transform="translate(258.6172,270.4082)"><path
             d="m 0,0 0,2.439 c 0,0.4 -0.324,0.743 -0.745,0.743 l -6.631,0 C -7.778,3.182 -8.12,2.839 -8.12,2.439 L -8.12,0 0,0 z m 1.582,2.439 0,-4.002 -9.702,0 0,-2.442 c 0,-0.399 0.342,-0.742 0.744,-0.742 l 8.958,0 0,-1.564 -8.958,0 c -1.277,0 -2.307,1.031 -2.307,2.306 l 0,6.444 c 0,1.276 1.03,2.306 2.307,2.306 l 6.631,0 c 1.298,0 2.327,-1.03 2.327,-2.306"
             style="fill:#414e68;fill-opacity:1;fill-rule:nonzero;stroke:none"
             id="path3287" /></g><path
           d="m 267.422,277.821 1.546,0 0,-13.724 -1.546,0 0,13.724 z"
           style="fill:#414e68;fill-opacity:1;fill-rule:nonzero;stroke:none"
           id="path3289" /><g
           id="g3291"
           transform="translate(282.8242,272.8477)"><path
             d="m 0,0 0,-8.75 -1.563,0 0,8.75 c 0,0.399 -0.343,0.742 -0.744,0.742 l -6.632,0 C -9.359,0.742 -9.702,0.399 -9.702,0 l 0,-8.75 -1.564,0 0,11.056 8.959,0 C -1.03,2.306 0,1.275 0,0"
             style="fill:#414e68;fill-opacity:1;fill-rule:nonzero;stroke:none"
             id="path3293" /></g><g
           id="g3295"
           transform="translate(286.3691,273.5898)"><path
             d="m 0,0 0,-7.187 c 0,-0.399 0.344,-0.742 0.743,-0.742 l 4.041,0 0,-1.563 -4.041,0 c -1.296,0 -2.306,1.03 -2.306,2.305 l 0,12.373 1.563,0 0,-3.623 4.784,0 L 4.784,0 0,0 z"
             style="fill:#414e68;fill-opacity:1;fill-rule:nonzero;stroke:none"
             id="path3297" /></g><g
           id="g3299"
           transform="translate(302.2646,270.4082)"><path
             d="m 0,0 0,2.439 c 0,0.4 -0.323,0.743 -0.742,0.743 l -6.633,0 C -7.777,3.182 -8.12,2.839 -8.12,2.439 L -8.12,0 0,0 z m 1.583,2.439 0,-4.002 -9.703,0 0,-2.442 c 0,-0.399 0.343,-0.742 0.745,-0.742 l 8.958,0 0,-1.564 -8.958,0 c -1.276,0 -2.307,1.031 -2.307,2.306 l 0,6.444 c 0,1.276 1.031,2.306 2.307,2.306 l 6.633,0 c 1.295,0 2.325,-1.03 2.325,-2.306"
             style="fill:#414e68;fill-opacity:1;fill-rule:nonzero;stroke:none"
             id="path3301" /></g><g
           id="g3303"
           transform="translate(306.9727,278.7754)"><path
             d="m 0,0 0,-12.372 c 0,-0.399 0.344,-0.742 0.743,-0.742 l 1.867,0 0,-1.564 -1.867,0 c -1.275,0 -2.305,1.031 -2.305,2.306 L -1.562,0 0,0 z"
             style="fill:#414e68;fill-opacity:1;fill-rule:nonzero;stroke:none"
             id="path3305" /></g><g
           id="g3307"
           transform="translate(312.7275,278.7754)"><path
             d="m 0,0 0,-12.372 c 0,-0.399 0.344,-0.742 0.745,-0.742 l 1.868,0 0,-1.564 -1.868,0 c -1.278,0 -2.308,1.031 -2.308,2.306 L -1.563,0 0,0 z"
             style="fill:#414e68;fill-opacity:1;fill-rule:nonzero;stroke:none"
             id="path3309" /></g><path
           d="m 316.922,275.153 1.563,0 0,-11.056 -1.563,0 0,11.056 z m 1.563,2.06 -1.563,0 0,1.563 1.563,0 0,-1.563 z"
           style="fill:#414e68;fill-opacity:1;fill-rule:nonzero;stroke:none"
           id="path3311" /><g
           id="g3313"
           transform="translate(329.6162,265.6611)"><path
             d="m 0,0 c 0.4,0 0.744,0.343 0.744,0.742 l 0,6.445 C 0.744,7.586 0.4,7.929 0,7.929 l -6.633,0 c -0.399,0 -0.741,-0.343 -0.741,-0.742 l 0,-6.445 C -7.374,0.343 -7.032,0 -6.633,0 L 0,0 z m 0,-5.928 -6.899,0 0,1.581 6.899,0 c 0.4,0 0.744,0.344 0.744,0.745 l 0,2.039 -7.377,0 c -1.276,0 -2.305,1.03 -2.305,2.305 l 0,6.445 c 0,1.275 1.029,2.305 2.305,2.305 l 6.633,0 c 1.298,0 2.307,-1.03 2.307,-2.305 l 0,-10.789 C 2.307,-4.899 1.298,-5.928 0,-5.928"
             style="fill:#414e68;fill-opacity:1;fill-rule:nonzero;stroke:none"
             id="path3315" /></g><g
           id="g3317"
           transform="translate(343.2832,270.4082)"><path
             d="m 0,0 0,2.439 c 0,0.4 -0.323,0.743 -0.744,0.743 l -6.632,0 C -7.777,3.182 -8.12,2.839 -8.12,2.439 L -8.12,0 0,0 z m 1.582,2.439 0,-4.002 -9.702,0 0,-2.442 c 0,-0.399 0.343,-0.742 0.744,-0.742 l 8.958,0 0,-1.564 -8.958,0 c -1.277,0 -2.308,1.031 -2.308,2.306 l 0,6.444 c 0,1.276 1.031,2.306 2.308,2.306 l 6.632,0 c 1.297,0 2.326,-1.03 2.326,-2.306"
             style="fill:#414e68;fill-opacity:1;fill-rule:nonzero;stroke:none"
             id="path3319" /></g><g
           id="g3321"
           transform="translate(358.1133,272.8477)"><path
             d="m 0,0 0,-8.75 -1.564,0 0,8.75 c 0,0.399 -0.343,0.742 -0.743,0.742 l -6.635,0 C -9.359,0.742 -9.704,0.399 -9.704,0 l 0,-8.75 -1.563,0 0,11.056 8.96,0 C -1.031,2.306 0,1.275 0,0"
             style="fill:#414e68;fill-opacity:1;fill-rule:nonzero;stroke:none"
             id="path3323" /></g><g
           id="g3325"
           transform="translate(370.9395,265.6611)"><path
             d="m 0,0 0,-1.563 -8.959,0 c -1.275,0 -2.308,1.03 -2.308,2.305 l 0,6.445 c 0,1.275 1.033,2.305 2.308,2.305 l 8.921,0 0,-1.563 -8.921,0 c -0.399,0 -0.742,-0.343 -0.742,-0.742 l 0,-6.445 C -9.701,0.343 -9.358,0 -8.959,0 L 0,0 z"
             style="fill:#414e68;fill-opacity:1;fill-rule:nonzero;stroke:none"
             id="path3327" /></g><g
           id="g3329"
           transform="translate(382.1279,270.4082)"><path
             d="m 0,0 0,2.439 c 0,0.4 -0.323,0.743 -0.743,0.743 l -6.633,0 c -0.4,0 -0.743,-0.343 -0.743,-0.743 L -8.119,0 0,0 z m 1.583,2.439 0,-4.002 -9.702,0 0,-2.442 c 0,-0.399 0.343,-0.742 0.743,-0.742 l 8.959,0 0,-1.564 -8.959,0 c -1.275,0 -2.307,1.031 -2.307,2.306 l 0,6.444 c 0,1.276 1.032,2.306 2.307,2.306 l 6.633,0 c 1.296,0 2.326,-1.03 2.326,-2.306"
             style="fill:#414e68;fill-opacity:1;fill-rule:nonzero;stroke:none"
             id="path3331" /></g><g
           id="g3333"
           transform="translate(526.5488,276.2764)"><path
             d="m 0,0 -10.98,0 0,-4.535 8.825,0 0,-1.563 -8.825,0 0,-4.536 10.98,0 0,-1.545 -12.522,0 0,13.724 L 0,1.545 0,0 z"
             style="fill:#414e68;fill-opacity:1;fill-rule:nonzero;stroke:none"
             id="path3335" /></g><g
           id="g3337"
           transform="translate(539.8145,272.8477)"><path
             d="m 0,0 0,-8.75 -1.563,0 0,8.75 c 0,0.399 -0.342,0.742 -0.743,0.742 l -6.633,0 C -9.358,0.742 -9.702,0.399 -9.702,0 l 0,-8.75 -1.564,0 0,11.056 8.96,0 C -1.028,2.306 0,1.275 0,0"
             style="fill:#414e68;fill-opacity:1;fill-rule:nonzero;stroke:none"
             id="path3339" /></g><g
           id="g3341"
           transform="translate(543.3604,273.5898)"><path
             d="m 0,0 0,-7.187 c 0,-0.399 0.342,-0.742 0.743,-0.742 l 4.041,0 0,-1.563 -4.041,0 c -1.296,0 -2.307,1.03 -2.307,2.305 l 0,12.373 1.564,0 0,-3.623 4.784,0 L 4.784,0 0,0 z"
             style="fill:#414e68;fill-opacity:1;fill-rule:nonzero;stroke:none"
             id="path3343" /></g><g
           id="g3345"
           transform="translate(559.2559,270.4082)"><path
             d="m 0,0 0,2.439 c 0,0.4 -0.323,0.743 -0.742,0.743 l -6.633,0 C -7.778,3.182 -8.12,2.839 -8.12,2.439 L -8.12,0 0,0 z m 1.581,2.439 0,-4.002 -9.701,0 0,-2.442 c 0,-0.399 0.342,-0.742 0.745,-0.742 l 8.956,0 0,-1.564 -8.956,0 c -1.277,0 -2.308,1.031 -2.308,2.306 l 0,6.444 c 0,1.276 1.031,2.306 2.308,2.306 l 6.633,0 c 1.295,0 2.323,-1.03 2.323,-2.306"
             style="fill:#414e68;fill-opacity:1;fill-rule:nonzero;stroke:none"
             id="path3347" /></g><g
           id="g3349"
           transform="translate(571.207,275.1533)"><path
             d="m 0,0 0,-1.563 -6.215,0 c -0.4,0 -0.743,-0.343 -0.743,-0.743 l 0,-8.75 -1.563,0 0,8.75 C -8.521,-1.03 -7.491,0 -6.215,0 L 0,0 z"
             style="fill:#414e68;fill-opacity:1;fill-rule:nonzero;stroke:none"
             id="path3351" /></g><g
           id="g3353"
           transform="translate(582.1865,272.8477)"><path
             d="m 0,0 c 0,0.399 -0.344,0.742 -0.745,0.742 l -6.632,0 C -7.796,0.742 -8.14,0.399 -8.14,0 l 0,-6.444 c 0,-0.4 0.344,-0.743 0.763,-0.743 l 6.632,0 C -0.344,-7.187 0,-6.844 0,-6.444 L 0,0 z m 1.562,0 0,-6.444 c 0,-1.276 -1.03,-2.306 -2.307,-2.306 l -7.395,0 0,-4.384 -1.562,0 0,15.44 8.957,0 C 0.532,2.306 1.562,1.275 1.562,0"
             style="fill:#414e68;fill-opacity:1;fill-rule:nonzero;stroke:none"
             id="path3355" /></g><g
           id="g3357"
           transform="translate(593.6211,275.1533)"><path
             d="m 0,0 0,-1.563 -6.214,0 c -0.4,0 -0.743,-0.343 -0.743,-0.743 l 0,-8.75 -1.564,0 0,8.75 C -8.521,-1.03 -7.49,0 -6.214,0 L 0,0 z"
             style="fill:#414e68;fill-opacity:1;fill-rule:nonzero;stroke:none"
             id="path3359" /></g><path
           d="m 594.86,275.153 1.563,0 0,-11.056 -1.563,0 0,11.056 z m 1.563,2.06 -1.563,0 0,1.563 1.563,0 0,-1.563 z"
           style="fill:#414e68;fill-opacity:1;fill-rule:nonzero;stroke:none"
           id="path3361" /><g
           id="g3363"
           transform="translate(610.0137,272.6953)"><path
             d="m 0,0 -1.581,0 0,0.152 c 0,0.4 -0.345,0.743 -0.744,0.743 l -6.633,0 c -0.4,0 -0.743,-0.343 -0.743,-0.743 l 0,-1.697 c 0,-0.399 0.343,-0.742 0.743,-0.742 l 6.633,0 C -1.028,-2.287 0,-3.317 0,-4.594 l 0,-1.698 c 0,-1.275 -1.028,-2.306 -2.325,-2.306 l -6.633,0 c -1.277,0 -2.307,1.031 -2.307,2.306 l 0,0.152 1.564,0 0,-0.152 c 0,-0.399 0.343,-0.742 0.743,-0.742 l 6.633,0 c 0.399,0 0.744,0.343 0.744,0.742 l 0,1.698 c 0,0.401 -0.345,0.743 -0.744,0.743 l -6.633,0 c -1.277,0 -2.307,1.03 -2.307,2.306 l 0,1.697 c 0,1.276 1.03,2.306 2.307,2.306 l 6.633,0 C -1.028,2.458 0,1.428 0,0.152 L 0,0 z"
             style="fill:#414e68;fill-opacity:1;fill-rule:nonzero;stroke:none"
             id="path3365" /></g><g
           id="g3367"
           transform="translate(621.2783,270.4082)"><path
             d="m 0,0 0,2.439 c 0,0.4 -0.323,0.743 -0.743,0.743 l -6.634,0 c -0.399,0 -0.742,-0.343 -0.742,-0.743 L -8.119,0 0,0 z m 1.582,2.439 0,-4.002 -9.701,0 0,-2.442 c 0,-0.399 0.343,-0.742 0.742,-0.742 l 8.959,0 0,-1.564 -8.959,0 c -1.276,0 -2.308,1.031 -2.308,2.306 l 0,6.444 c 0,1.276 1.032,2.306 2.308,2.306 l 6.634,0 c 1.297,0 2.325,-1.03 2.325,-2.306"
             style="fill:#414e68;fill-opacity:1;fill-rule:nonzero;stroke:none"
             id="path3369" /></g><g
           id="g3371"
           transform="translate(606.5811,336.6123)"><path
             d="m 0,0 0,-17.384 -58.728,0 0,-15.047 75.645,0 0,-18.421 -101.59,0 0,50.852 L 0,0 z m 16.3,15.178 -100.973,0 0,17.253 100.973,0 0,-17.253 z m -240.934,17.253 25.401,0 0,-83.282 -25.401,0 0,83.282 z m -9.21,-3.892 c 1.816,-2.51 2.724,-5.535 2.724,-9.081 l 0,-57.337 c 0,-5.103 -1.255,-8.52 -3.763,-10.249 -2.509,-1.815 -4.844,-2.724 -7.004,-2.724 l -37.765,0 -58.901,0 0,24.258 0,25.426 24.908,0 0,-32.431 57.748,0 0,48.647 -82.656,0 0,17.383 95.627,0 c 4.324,0 7.35,-1.297 9.082,-3.892"
             style="fill:#414e68;fill-opacity:1;fill-rule:nonzero;stroke:none"
             id="path3373" /></g></g></g><g
       id="g3375"><g
         id="g3377"
         clip-path="url(#clipPath3379)"><g
           id="g3383"
           transform="translate(227.7725,311.9258)"><path
             d="m 0,0 c -0.448,-0.914 -0.895,-1.831 -1.336,-2.751 -0.125,-0.26 -0.246,-0.52 -0.37,-0.779 0.67,-0.269 1.342,-0.537 2.019,-0.822 0.715,-0.298 1.437,-0.61 2.161,-0.924 0.103,0.212 0.206,0.424 0.31,0.636 0.477,0.968 0.957,1.935 1.437,2.899 C 3.517,-1.438 2.812,-1.138 2.114,-0.848 1.404,-0.556 0.702,-0.276 0,0"
             style="fill:#a7c4e4;fill-opacity:1;fill-rule:nonzero;stroke:none"
             id="path3385" /></g><g
           id="g3387"
           transform="translate(236.4355,317.1387)"><path
             d="m 0,0 c -0.414,-0.738 -0.835,-1.497 -1.26,-2.273 -0.291,-0.534 -0.589,-1.089 -0.886,-1.641 0.838,-0.397 1.675,-0.794 2.514,-1.205 0.333,-0.163 0.666,-0.336 0.999,-0.501 0.309,0.593 0.618,1.187 0.919,1.764 0.41,0.78 0.813,1.543 1.208,2.286 C 3.14,-1.394 2.785,-1.21 2.43,-1.037 1.638,-0.651 0.846,-0.277 0.055,0.096 0.036,0.063 0.019,0.033 0,0"
             style="fill:#a7c4e4;fill-opacity:1;fill-rule:nonzero;stroke:none"
             id="path3389" /></g><g
           id="g3391"
           transform="translate(223.5088,322.7402)"><path
             d="m 0,0 c -0.165,-0.237 -0.329,-0.463 -0.493,-0.705 -0.473,-0.702 -0.944,-1.426 -1.412,-2.172 -0.199,-0.317 -0.398,-0.655 -0.597,-0.981 0.782,-0.296 1.566,-0.594 2.36,-0.907 0.266,-0.105 0.537,-0.219 0.803,-0.327 0.232,0.392 0.462,0.794 0.693,1.175 0.46,0.755 0.921,1.488 1.38,2.195 0.117,0.181 0.234,0.347 0.35,0.524 C 2.702,-1.046 2.318,-0.885 1.938,-0.737 1.288,-0.482 0.645,-0.243 0,0"
             style="fill:#a7c4e4;fill-opacity:1;fill-rule:nonzero;stroke:none"
             id="path3393" /></g><g
           id="g3395"
           transform="translate(234.2568,323.9229)"><path
             d="m 0,0 c -0.09,0.033 -0.178,0.063 -0.268,0.097 -0.293,-0.544 -0.585,-1.079 -0.882,-1.638 -0.182,-0.341 -0.368,-0.699 -0.551,-1.046 0.002,-10e-4 0.004,-10e-4 0.006,-0.002 0.839,-0.316 1.683,-0.645 2.533,-0.987 0.56,-0.224 1.125,-0.463 1.689,-0.698 0.15,0.291 0.305,0.591 0.452,0.878 0.327,0.627 0.643,1.232 0.961,1.841 C 3.449,-1.353 2.957,-1.146 2.47,-0.95 1.643,-0.621 0.817,-0.305 0,0"
             style="fill:#a7c4e4;fill-opacity:1;fill-rule:nonzero;stroke:none"
             id="path3397" /></g><g
           id="g3399"
           transform="translate(230.3398,296.666)"><path
             d="M 0,0 C 0.386,0.788 0.771,1.576 1.157,2.362 0.838,2.522 0.518,2.689 0.198,2.847 -0.657,3.271 -1.511,3.683 -2.364,4.091 -2.757,3.271 -3.147,2.451 -3.534,1.628 -3.806,1.052 -4.071,0.475 -4.338,-0.103 c 0.822,-0.396 1.645,-0.793 2.469,-1.204 0.331,-0.164 0.662,-0.337 0.994,-0.504 C -0.584,-1.207 -0.293,-0.604 0,0"
             style="fill:#a7c4e4;fill-opacity:1;fill-rule:nonzero;stroke:none"
             id="path3401" /></g><g
           id="g3403"
           transform="translate(219.4648,293.834)"><path
             d="m 0,0 c 0.63,-0.265 1.26,-0.529 1.895,-0.807 0.648,-0.281 1.3,-0.574 1.953,-0.868 0.239,0.514 0.475,1.025 0.717,1.541 C 4.891,0.559 5.221,1.255 5.55,1.95 4.858,2.257 4.17,2.563 3.485,2.859 2.852,3.132 2.222,3.395 1.592,3.656 1.299,2.993 1.005,2.328 0.717,1.668 0.475,1.109 0.238,0.556 0,0"
             style="fill:#a7c4e4;fill-opacity:1;fill-rule:nonzero;stroke:none"
             id="path3405" /></g><g
           id="g3407"
           transform="translate(212.7617,326.3232)"><path
             d="m 0,0 c -0.457,-0.545 -0.91,-1.1 -1.356,-1.678 -0.507,-0.66 -1.006,-1.344 -1.499,-2.047 0.321,-0.091 0.633,-0.175 0.958,-0.271 0.508,-0.151 1.032,-0.318 1.549,-0.479 0.059,0.087 0.116,0.181 0.174,0.267 0.493,0.722 0.991,1.419 1.497,2.097 0.359,0.477 0.724,0.931 1.088,1.388 -0.749,0.232 -1.496,0.46 -2.227,0.672 C 0.121,-0.033 0.063,-0.018 0,0"
             style="fill:#a7c4e4;fill-opacity:1;fill-rule:nonzero;stroke:none"
             id="path3409" /></g><g
           id="g3411"
           transform="translate(214.6182,306.583)"><path
             d="m 0,0 c -0.036,-0.083 -0.075,-0.164 -0.111,-0.246 -0.398,-0.905 -0.781,-1.815 -1.155,-2.732 -0.17,-0.416 -0.329,-0.836 -0.494,-1.255 0.032,-0.013 0.064,-0.025 0.096,-0.038 0.932,-0.372 1.874,-0.756 2.822,-1.151 0.074,-0.031 0.151,-0.064 0.225,-0.096 0.191,0.468 0.378,0.937 0.575,1.403 0.385,0.919 0.782,1.829 1.189,2.737 0.014,0.031 0.029,0.062 0.042,0.092 C 3.102,-1.25 3.012,-1.21 2.924,-1.174 1.951,-0.772 0.986,-0.387 0.029,-0.012 L 0,0 z"
             style="fill:#a7c4e4;fill-opacity:1;fill-rule:nonzero;stroke:none"
             id="path3413" /></g><g
           id="g3415"
           transform="translate(211.8652,317.0273)"><path
             d="m 0,0 c -0.108,0.025 -0.211,0.046 -0.319,0.07 -0.272,-0.596 -0.548,-1.191 -0.812,-1.793 -0.238,-0.546 -0.463,-1.095 -0.694,-1.644 0.011,-0.002 0.02,-0.004 0.031,-0.007 0.731,-0.18 1.476,-0.37 2.232,-0.578 0.524,-0.142 1.06,-0.299 1.594,-0.453 0.2,0.458 0.394,0.919 0.599,1.376 0.314,0.704 0.641,1.401 0.967,2.099 C 3.143,-0.804 2.684,-0.672 2.236,-0.555 1.479,-0.356 0.734,-0.172 0,0"
             style="fill:#a7c4e4;fill-opacity:1;fill-rule:nonzero;stroke:none"
             id="path3417" /></g><g
           id="g3419"
           transform="translate(185.9521,296.9199)"><path
             d="m 0,0 c -0.043,-0.46 -0.097,-0.919 -0.127,-1.379 -0.056,-0.862 -0.091,-1.725 -0.102,-2.592 0,-0.067 0.003,-0.134 0.002,-0.202 0.144,-0.026 0.277,-0.047 0.423,-0.075 0.151,-0.03 0.312,-0.067 0.464,-0.099 0.003,0.231 -0.007,0.459 -0.001,0.69 0.019,0.874 0.06,1.751 0.125,2.623 0.022,0.292 0.06,0.582 0.086,0.873 C 0.681,-0.124 0.481,-0.082 0.295,-0.048 0.193,-0.03 0.101,-0.018 0,0"
             style="fill:#a7c4e4;fill-opacity:1;fill-rule:nonzero;stroke:none"
             id="path3421" /></g><g
           id="g3423"
           transform="translate(190.6533,312)"><path
             d="M 0,0 C 0.204,0.47 0.432,0.933 0.65,1.397 0.533,1.416 0.408,1.44 0.292,1.458 0.167,1.477 0.052,1.487 -0.071,1.505 -0.409,0.82 -0.734,0.132 -1.034,-0.564 c -0.288,-0.668 -0.55,-1.343 -0.804,-2.021 0.258,-0.037 0.511,-0.071 0.776,-0.114 0.03,0.083 0.054,0.168 0.084,0.25 C -0.675,-1.625 -0.349,-0.81 0,0"
             style="fill:#a7c4e4;fill-opacity:1;fill-rule:nonzero;stroke:none"
             id="path3425" /></g><g
           id="g3427"
           transform="translate(220.5586,333.4297)"><path
             d="m 0,0 c -0.545,-0.81 -1.088,-1.645 -1.629,-2.506 -0.543,-0.862 -1.082,-1.749 -1.62,-2.663 -0.415,-0.708 -0.826,-1.444 -1.237,-2.183 0.538,-0.099 1.078,-0.201 1.632,-0.316 0.711,-0.147 1.435,-0.309 2.168,-0.484 0.073,-0.018 0.149,-0.038 0.221,-0.056 0.337,0.607 0.673,1.221 1.01,1.81 0.146,0.254 0.294,0.494 0.441,0.746 -0.607,0.137 -1.21,0.271 -1.799,0.39 -0.694,0.139 -1.376,0.265 -2.045,0.38 0.523,0.562 1.053,1.101 1.586,1.617 0.529,0.513 1.064,1.003 1.601,1.473 0.536,0.466 1.073,0.906 1.612,1.326 0.538,0.418 1.08,0.814 1.618,1.183 C 3.98,0.653 4.414,0.576 4.846,0.502 5.002,0.733 5.158,0.979 5.314,1.205 6.248,0.898 7.191,0.577 8.144,0.244 c 0.951,-0.336 1.913,-0.686 2.88,-1.052 0.969,-0.365 1.944,-0.744 2.924,-1.137 0.003,-10e-4 0.006,-0.003 0.009,-0.004 0.058,0.057 0.118,0.123 0.176,0.178 0.708,-0.219 1.421,-0.449 2.141,-0.69 0.719,-0.243 1.443,-0.497 2.172,-0.763 0.732,-0.266 1.467,-0.542 2.207,-0.83 0.738,-0.289 1.479,-0.588 2.223,-0.897 -0.155,-0.222 -0.318,-0.464 -0.478,-0.695 0.498,-0.236 0.995,-0.463 1.492,-0.705 0.493,-0.239 0.986,-0.49 1.479,-0.735 0.165,0.28 0.335,0.569 0.494,0.836 0.749,-0.34 1.499,-0.69 2.247,-1.048 0.749,-0.359 1.498,-0.73 2.245,-1.108 0.749,-0.381 1.494,-0.771 2.238,-1.169 0.74,-0.4 1.479,-0.808 2.214,-1.228 -0.169,-0.526 -0.355,-1.075 -0.552,-1.642 -0.199,-0.57 -0.411,-1.157 -0.634,-1.765 -0.227,-0.613 -0.466,-1.24 -0.718,-1.887 -0.256,-0.65 -0.522,-1.322 -0.802,-2.007 -0.642,0.362 -1.29,0.716 -1.939,1.069 -0.342,-0.737 -0.684,-1.476 -1.045,-2.237 -0.086,-0.182 -0.179,-0.373 -0.267,-0.556 0.686,-0.372 1.372,-0.746 2.052,-1.13 -0.318,-0.739 -0.648,-1.497 -0.995,-2.271 -0.344,-0.776 -0.704,-1.568 -1.077,-2.378 -0.374,-0.81 -0.759,-1.638 -1.158,-2.479 -0.401,-0.845 -0.814,-1.703 -1.238,-2.576 -0.775,0.433 -1.554,0.859 -2.333,1.278 -0.011,-0.02 -0.021,-0.041 -0.032,-0.061 -0.533,-1.034 -1.075,-2.07 -1.622,-3.103 -0.06,-0.115 -0.123,-0.229 -0.183,-0.345 0.804,-0.434 1.607,-0.871 2.409,-1.319 -0.451,-0.894 -0.91,-1.789 -1.371,-2.685 -0.463,-0.895 -0.933,-1.792 -1.406,-2.686 -0.473,-0.896 -0.951,-1.788 -1.432,-2.68 -0.482,-0.889 -0.968,-1.778 -1.455,-2.661 -0.863,0.481 -1.73,0.951 -2.596,1.416 -0.429,-0.751 -0.858,-1.501 -1.288,-2.244 -0.242,-0.416 -0.485,-0.827 -0.729,-1.24 l 0.074,-0.038 c 0.391,-0.209 0.78,-0.426 1.171,-0.639 l 3.482,0 c 0.548,0.885 1.094,1.775 1.636,2.676 0.711,-0.414 1.402,-0.83 2.094,-1.245 0.375,0.654 0.75,1.308 1.119,1.967 0.385,0.689 0.764,1.383 1.143,2.078 -0.662,0.397 -1.32,0.796 -2,1.193 0.58,1.009 1.159,2.021 1.73,3.041 0.569,1.018 1.132,2.042 1.688,3.067 0.557,1.027 1.104,2.054 1.644,3.083 0.537,1.033 1.068,2.06 1.588,3.092 0.552,-0.328 1.084,-0.656 1.624,-0.985 0.318,0.697 0.633,1.391 0.931,2.07 0.317,0.722 0.62,1.43 0.914,2.13 -0.483,0.295 -0.957,0.592 -1.45,0.885 0.486,1.013 0.952,2.009 1.403,2.986 0.448,0.978 0.88,1.939 1.293,2.881 0.396,0.899 0.773,1.779 1.136,2.643 l 0,8.044 c -0.065,-0.246 -0.125,-0.482 -0.198,-0.739 -0.697,0.397 -1.398,0.783 -2.101,1.161 -0.706,0.378 -1.412,0.747 -2.12,1.108 -0.707,0.36 -1.417,0.71 -2.129,1.051 -0.711,0.34 -1.422,0.669 -2.131,0.992 0.1,0.161 0.192,0.303 0.289,0.457 -0.571,0.285 -1.14,0.574 -1.711,0.85 -0.33,0.161 -0.661,0.309 -0.991,0.466 -0.14,-0.181 -0.277,-0.352 -0.421,-0.545 -0.707,0.292 -1.412,0.576 -2.115,0.847 -0.699,0.272 -1.396,0.534 -2.091,0.785 -0.694,0.25 -1.382,0.488 -2.068,0.719 -0.683,0.226 -1.361,0.444 -2.035,0.65 0.378,0.324 0.752,0.617 1.122,0.899 -0.361,0.147 -0.724,0.301 -1.084,0.445 -0.399,0.159 -0.795,0.306 -1.193,0.46 C 14.578,1.504 14.519,1.473 14.458,1.433 14.022,1.147 13.583,0.837 13.143,0.504 12.487,0.681 11.843,0.844 11.203,1 10.564,1.151 9.936,1.294 9.316,1.425 8.695,1.555 8.086,1.675 7.485,1.781 6.885,1.891 6.294,1.984 5.713,2.07 6.252,2.377 6.789,2.656 7.323,2.917 7.855,3.175 8.386,3.409 8.915,3.618 8.448,3.774 7.979,3.937 7.518,4.087 7.292,4.012 7.066,3.949 6.841,3.866 6.278,3.659 5.715,3.43 5.151,3.178 4.585,2.925 4.02,2.648 3.457,2.347 2.909,2.4 2.371,2.443 1.845,2.474 1.579,2.49 1.326,2.495 1.067,2.505 1.26,2.449 1.447,2.401 1.641,2.345 1.34,1.931 1.04,1.487 0.739,1.057 0.894,1.042 1.042,1.034 1.198,1.018 0.884,0.815 0.572,0.588 0.26,0.37 0.173,0.244 0.086,0.128 0,0"
             style="fill:#a7c4e4;fill-opacity:1;fill-rule:nonzero;stroke:none"
             id="path3429" /></g><g
           id="g3431"
           transform="translate(183.6553,306.7217)"><path
             d="m 0,0 c -0.163,-1.039 -0.302,-2.083 -0.415,-3.125 -0.114,-1.043 -0.203,-2.089 -0.27,-3.132 -0.063,-1.045 -0.106,-2.091 -0.124,-3.134 -0.44,0.039 -0.86,0.06 -1.261,0.076 -0.4,0.01 -0.782,0.008 -1.143,-0.006 -0.359,-0.013 -0.698,-0.038 -1.018,-0.078 -0.319,-0.037 -0.618,-0.088 -0.895,-0.153 -0.028,1.014 -0.029,2.026 -0.006,3.036 0.024,1.014 0.073,2.026 0.146,3.035 0.072,1.006 0.175,2.014 0.299,3.018 0.125,1.003 0.277,2.004 0.455,3 0.307,0.103 0.638,0.192 0.992,0.268 0.353,0.074 0.732,0.135 1.13,0.182 0.401,0.05 0.824,0.083 1.267,0.103 C -0.396,3.108 0.07,3.113 0.559,3.105 0.35,2.073 0.162,1.037 0,0 M -5.413,5.252 C -5.498,5.166 -5.575,5.075 -5.65,4.985 c 0.23,0.947 0.487,1.892 0.771,2.827 0.283,0.934 0.591,1.864 0.929,2.788 0.336,0.919 0.697,1.833 1.088,2.737 0.388,0.904 0.803,1.8 1.247,2.684 0.081,0.112 0.168,0.217 0.26,0.322 0.09,0.104 0.188,0.205 0.292,0.304 0.1,0.098 0.209,0.193 0.322,0.287 0.112,0.092 0.231,0.181 0.353,0.267 C -0.84,16.303 -1.261,15.39 -1.658,14.47 -2.055,13.548 -2.425,12.618 -2.77,11.682 -3.115,10.743 -3.432,9.795 -3.723,8.84 -4.016,7.885 -4.28,6.923 -4.518,5.956 -4.634,5.886 -4.742,5.813 -4.848,5.739 -4.951,5.663 -5.052,5.584 -5.146,5.504 -5.238,5.423 -5.328,5.338 -5.413,5.252 m -0.352,-6.157 c -0.115,-0.991 -0.206,-1.984 -0.272,-2.977 -0.065,-0.997 -0.104,-1.994 -0.119,-2.99 -0.013,-0.997 0,-1.996 0.037,-2.993 -0.103,-0.045 -0.196,-0.09 -0.289,-0.139 -0.092,-0.05 -0.178,-0.101 -0.26,-0.153 -0.084,-0.053 -0.161,-0.11 -0.233,-0.169 -0.075,-0.059 -0.142,-0.121 -0.208,-0.185 -0.047,0.979 -0.068,1.955 -0.062,2.933 0.003,0.976 0.032,1.952 0.091,2.927 0.056,0.973 0.137,1.947 0.245,2.916 0.109,0.967 0.241,1.934 0.403,2.896 0.073,0.086 0.149,0.168 0.229,0.248 0.082,0.08 0.17,0.157 0.26,0.232 0.09,0.074 0.189,0.148 0.29,0.214 0.101,0.07 0.21,0.137 0.318,0.2 -0.169,-0.984 -0.311,-1.97 -0.43,-2.96 m 6.663,21.393 c 0.206,0.327 0.415,0.649 0.626,0.968 0.211,0.32 0.425,0.636 0.644,0.947 0.217,0.313 0.439,0.621 0.66,0.926 1.449,1.863 3.499,4.254 5.076,6.007 0.051,0.052 0.104,0.101 0.158,0.15 0.053,0.049 0.108,0.098 0.162,0.148 0.058,0.048 0.114,0.095 0.171,0.142 0.059,0.047 0.116,0.094 0.176,0.139 C 7.921,29.243 7.284,28.549 6.665,27.83 6.045,27.111 5.44,26.368 4.853,25.605 4.267,24.84 3.696,24.051 3.145,23.238 2.594,22.427 2.06,21.591 1.547,20.733 1.421,20.643 1.302,20.549 1.188,20.45 1.07,20.354 0.961,20.255 0.857,20.152 0.752,20.049 0.653,19.943 0.559,19.834 0.464,19.725 0.376,19.614 0.29,19.499 c 0.202,0.334 0.402,0.663 0.608,0.989 m 10.044,10.729 c 0.396,0.151 0.814,0.291 1.251,0.415 0.44,0.125 0.902,0.234 1.382,0.33 0.488,0.095 0.993,0.174 1.519,0.24 C 14.451,31.514 13.82,30.799 13.204,30.057 12.585,29.317 11.98,28.553 11.389,27.758 10.8,26.965 10.223,26.148 9.661,25.305 9.102,24.458 8.556,23.589 8.028,22.695 7.497,22.652 6.989,22.592 6.502,22.52 6.019,22.447 5.556,22.359 5.119,22.255 4.679,22.15 4.267,22.033 3.875,21.9 3.488,21.769 3.12,21.62 2.779,21.457 c 0.517,0.868 1.055,1.709 1.612,2.531 0.552,0.82 1.126,1.616 1.716,2.388 0.588,0.771 1.194,1.52 1.816,2.242 0.623,0.721 1.258,1.421 1.912,2.096 0.346,0.183 0.717,0.349 1.107,0.503 m 0.557,1.475 c 0.046,0.038 0.091,0.079 0.135,0.119 0.13,0.111 0.259,0.223 0.388,0.332 0.127,0.109 0.259,0.217 0.39,0.326 0.13,0.107 0.262,0.215 0.394,0.321 l -1.307,-1.098 c -0.083,-0.072 -0.167,-0.144 -0.248,-0.216 -0.022,-0.019 -0.043,-0.035 -0.065,-0.05 -0.02,-0.019 -0.042,-0.035 -0.063,-0.052 -0.02,-0.017 -0.041,-0.032 -0.061,-0.05 l 0.437,0.368 z m 5.111,3.835 c 0.703,0.496 1.417,0.969 2.141,1.419 0.722,0.45 1.452,0.878 2.193,1.285 l 0.453,0.244 c 0.329,0.176 0.675,0.337 1.041,0.483 0.365,0.151 0.75,0.289 1.151,0.413 0.401,0.124 0.822,0.236 1.26,0.336 0.437,0.101 0.895,0.186 1.368,0.262 -0.738,-0.408 -1.47,-0.844 -2.192,-1.303 -0.724,-0.461 -1.441,-0.946 -2.148,-1.459 -0.711,-0.514 -1.412,-1.054 -2.103,-1.618 -0.693,-0.566 -1.378,-1.156 -2.047,-1.775 -0.519,-0.069 -1.02,-0.154 -1.5,-0.253 -0.478,-0.1 -0.935,-0.214 -1.371,-0.342 -0.433,-0.128 -0.847,-0.27 -1.239,-0.426 -0.39,-0.157 -0.758,-0.325 -1.104,-0.509 0.659,0.585 1.331,1.146 2.016,1.69 0.682,0.54 1.374,1.057 2.081,1.553 m 17.28,7.8 c 0.752,0.191 1.662,0.382 2.54,0.564 0.545,0.122 1.089,0.235 1.633,0.334 C 37.568,45.12 37.005,45.006 36.43,44.891 36.229,44.844 36.027,44.8 35.826,44.75 35.082,44.57 34.338,44.361 33.6,44.135 32.856,43.903 32.119,43.646 31.383,43.37 c -0.734,-0.28 -1.467,-0.582 -2.194,-0.912 -0.352,-0.057 -0.696,-0.12 -1.032,-0.194 -0.334,-0.072 -0.657,-0.15 -0.972,-0.237 -0.315,-0.085 -0.618,-0.179 -0.912,-0.28 -0.292,-0.101 -0.578,-0.208 -0.849,-0.323 3.119,1.331 3.421,1.419 8.466,2.903 m 7.47,1.244 c 0.463,0.017 0.936,0.025 1.423,0.022 0.485,-0.005 0.984,-0.019 1.493,-0.043 0.509,-0.026 1.028,-0.063 1.557,-0.111 -0.64,-0.13 -1.282,-0.29 -1.925,-0.473 -0.645,-0.185 -1.294,-0.396 -1.94,-0.633 -0.65,-0.24 -1.3,-0.506 -1.953,-0.798 -0.654,-0.292 -1.304,-0.612 -1.956,-0.958 -0.634,0.062 -1.253,0.11 -1.86,0.148 -0.604,0.035 -1.196,0.057 -1.776,0.068 -0.573,0.01 -1.135,0.007 -1.682,-0.009 -0.545,-0.016 -1.072,-0.045 -1.588,-0.087 0.73,0.334 1.463,0.648 2.2,0.932 0.733,0.284 1.471,0.543 2.212,0.775 0.74,0.233 1.479,0.439 2.222,0.619 0.74,0.18 1.482,0.333 2.224,0.463 0.439,0.038 0.887,0.068 1.349,0.085 m 2.453,0.357 c 2.949,0.178 3.28,0.166 7.321,0.031 l 1.284,-0.097 c -0.331,0.03 -0.664,0.049 -0.997,0.061 -0.335,0.013 -0.671,0.016 -1.009,0.015 -0.337,-0.004 -0.677,-0.015 -1.016,-0.033 -0.341,-0.017 -0.683,-0.046 -1.025,-0.079 -0.465,0.041 -0.919,0.073 -1.367,0.097 -0.444,0.021 -0.884,0.035 -1.313,0.038 -0.427,0.005 -0.846,0 -1.256,-0.012 -0.409,-0.012 -0.809,-0.035 -1.2,-0.064 l 0.578,0.043 z m 10.064,-0.236 c 0.38,-0.023 0.757,-0.06 1.131,-0.108 l 1.847,-0.275 c 1.669,-0.279 1.785,-0.306 4.734,-0.996 l 0.085,-0.022 c -0.364,0.094 -0.736,0.164 -1.116,0.212 -0.383,0.049 -0.769,0.069 -1.165,0.071 -0.399,0.001 -0.803,-0.022 -1.214,-0.068 -0.412,-0.046 -0.833,-0.115 -1.259,-0.21 -0.572,0.147 -1.136,0.287 -1.696,0.416 -0.559,0.127 -1.114,0.247 -1.66,0.356 -0.544,0.108 -1.083,0.208 -1.614,0.297 -0.531,0.088 -1.053,0.168 -1.566,0.237 -10e-4,0.001 -0.002,0 -0.003,0 l 0,0.001 c 10e-4,0 0.002,0 0.003,-0.001 0.394,0.047 0.788,0.081 1.179,0.102 0.388,0.023 0.779,0.032 1.165,0.029 0.385,-0.002 0.769,-0.015 1.149,-0.041 m 9.611,-1.903 c 0.419,-0.124 0.84,-0.255 1.262,-0.392 0.424,-0.136 0.849,-0.281 1.276,-0.433 0.427,-0.15 0.856,-0.309 1.287,-0.471 0.43,-0.163 0.863,-0.334 1.295,-0.51 -0.136,0.026 -0.284,0.024 -0.444,0 -0.158,-0.024 -0.328,-0.073 -0.51,-0.147 -0.18,-0.073 -0.373,-0.172 -0.577,-0.294 -0.201,-0.124 -0.416,-0.273 -0.642,-0.446 -0.61,0.25 -1.218,0.49 -1.826,0.722 -0.604,0.233 -1.209,0.454 -1.811,0.667 -0.6,0.212 -1.198,0.416 -1.792,0.61 -0.595,0.194 -1.185,0.379 -1.772,0.552 0.39,0.115 0.773,0.201 1.148,0.264 0.372,0.063 0.735,0.099 1.091,0.109 0.353,0.012 0.699,-0.001 1.038,-0.041 0.333,-0.038 0.659,-0.102 0.977,-0.19 m 1.188,-4.33 c -0.278,-0.297 -0.566,-0.615 -0.863,-0.962 -0.299,-0.348 -0.607,-0.722 -0.926,-1.119 -0.32,-0.399 -0.651,-0.826 -0.991,-1.278 -0.816,0.339 -1.628,0.664 -2.439,0.979 -0.809,0.315 -1.614,0.616 -2.417,0.904 -0.799,0.29 -1.596,0.567 -2.386,0.83 -0.788,0.265 -1.572,0.514 -2.348,0.754 0.468,0.399 0.934,0.77 1.393,1.115 0.458,0.344 0.909,0.661 1.355,0.954 0.442,0.288 0.879,0.552 1.31,0.789 0.427,0.235 0.849,0.446 1.263,0.63 0.639,-0.192 1.282,-0.394 1.927,-0.605 0.648,-0.213 1.3,-0.434 1.954,-0.668 0.656,-0.232 1.314,-0.475 1.974,-0.729 0.662,-0.254 1.328,-0.518 1.992,-0.791 -0.257,-0.243 -0.522,-0.512 -0.798,-0.803 m -13.915,2.064 c -0.503,-0.332 -1.009,-0.689 -1.521,-1.074 -0.755,0.203 -1.501,0.394 -2.237,0.572 -0.735,0.175 -1.461,0.342 -2.179,0.491 -0.716,0.15 -1.42,0.289 -2.114,0.411 -0.691,0.125 -1.375,0.236 -2.043,0.335 0.619,0.352 1.239,0.677 1.857,0.979 0.619,0.296 1.233,0.569 1.847,0.813 0.613,0.246 1.223,0.464 1.831,0.652 0.607,0.19 1.21,0.355 1.809,0.492 0.558,-0.076 1.124,-0.163 1.699,-0.26 0.577,-0.096 1.161,-0.205 1.752,-0.327 0.594,-0.12 1.194,-0.249 1.803,-0.39 0.607,-0.142 1.222,-0.291 1.842,-0.456 -0.463,-0.168 -0.932,-0.363 -1.408,-0.584 -0.477,-0.222 -0.962,-0.473 -1.45,-0.744 -0.491,-0.279 -0.987,-0.582 -1.488,-0.91 m -5.179,-4.219 c -0.531,-0.517 -1.066,-1.059 -1.603,-1.628 -0.539,-0.571 -1.08,-1.168 -1.621,-1.792 -0.544,-0.628 -1.088,-1.28 -1.63,-1.96 -0.883,0.254 -1.752,0.491 -2.614,0.713 -0.857,0.223 -1.7,0.43 -2.534,0.624 -0.83,0.19 -1.648,0.368 -2.454,0.53 -0.801,0.159 -1.586,0.307 -2.36,0.438 0.605,0.649 1.219,1.273 1.834,1.867 0.611,0.593 1.23,1.162 1.848,1.7 0.618,0.539 1.24,1.05 1.862,1.534 0.622,0.483 1.245,0.937 1.868,1.364 0.7,-0.105 1.414,-0.224 2.138,-0.356 0.729,-0.134 1.468,-0.282 2.217,-0.443 0.752,-0.162 1.515,-0.336 2.284,-0.524 0.776,-0.19 1.558,-0.392 2.35,-0.608 -0.525,-0.46 -1.053,-0.947 -1.585,-1.459 M 27.768,34.67 c -0.726,0.09 -1.436,0.165 -2.129,0.225 -0.692,0.057 -1.364,0.101 -2.021,0.13 -0.653,0.029 -1.287,0.043 -1.906,0.041 -0.615,0 -1.214,-0.016 -1.789,-0.049 0.661,0.624 1.334,1.22 2.015,1.789 0.68,0.566 1.371,1.11 2.066,1.626 0.695,0.515 1.398,1.003 2.107,1.467 0.709,0.46 1.423,0.897 2.143,1.304 0.536,0.042 1.085,0.07 1.653,0.084 0.566,0.013 1.153,0.014 1.751,0 0.602,-0.014 1.219,-0.039 1.849,-0.079 0.636,-0.042 1.281,-0.098 1.945,-0.164 C 34.798,40.622 34.149,40.175 33.504,39.699 32.855,39.224 32.209,38.72 31.569,38.189 30.927,37.658 30.288,37.098 29.655,36.514 29.021,35.925 28.39,35.311 27.768,34.67 M 23.5,29.725 C 22.905,28.951 22.32,28.153 21.746,27.329 21.17,26.504 20.604,25.65 20.048,24.772 19.49,23.894 18.946,22.987 18.412,22.058 c -0.759,0.123 -1.499,0.231 -2.22,0.324 -0.717,0.091 -1.418,0.167 -2.098,0.227 -0.678,0.062 -1.337,0.109 -1.973,0.135 -0.636,0.029 -1.251,0.043 -1.845,0.041 0.532,0.903 1.077,1.782 1.638,2.635 0.562,0.852 1.135,1.681 1.726,2.479 0.588,0.8 1.19,1.576 1.803,2.322 0.615,0.748 1.24,1.467 1.877,2.164 0.586,0.024 1.192,0.034 1.817,0.03 0.63,-0.006 1.273,-0.024 1.939,-0.062 0.667,-0.036 1.354,-0.087 2.057,-0.153 0.705,-0.067 1.429,-0.148 2.169,-0.245 -0.609,-0.72 -1.21,-1.462 -1.802,-2.23 m -6.143,-9.23 C 17.287,20.432 17.213,20.369 17.143,20.306 17.124,20.29 17.105,20.277 17.087,20.264 17.069,20.248 17.052,20.232 17.034,20.22 17.016,20.205 16.997,20.19 16.98,20.175 l -0.054,-0.044 c 0.017,0.015 0.036,0.028 0.053,0.044 l 0.001,0 0.377,0.32 c 0.04,0.035 0.079,0.067 0.12,0.103 0.109,0.094 0.22,0.191 0.333,0.286 0.114,0.095 0.226,0.187 0.338,0.283 0.114,0.094 0.229,0.187 0.34,0.278 l -1.131,-0.95 z M 4.68,16.144 C 4.258,15.178 3.86,14.203 3.485,13.218 3.11,12.231 2.763,11.237 2.437,10.234 2.111,9.231 1.811,8.221 1.534,7.204 1.034,7.203 0.554,7.186 0.097,7.155 -0.359,7.125 -0.793,7.08 -1.206,7.02 -1.614,6.961 -2.002,6.886 -2.366,6.799 -2.729,6.711 -3.067,6.61 -3.385,6.493 c 0.246,0.981 0.519,1.956 0.818,2.926 0.298,0.965 0.624,1.926 0.972,2.877 0.353,0.95 0.73,1.893 1.133,2.825 0.402,0.932 0.831,1.852 1.286,2.766 0.337,0.152 0.699,0.289 1.084,0.411 0.385,0.124 0.795,0.231 1.227,0.326 0.435,0.092 0.891,0.171 1.372,0.234 0.483,0.065 0.987,0.116 1.514,0.147 C 5.551,18.063 5.104,17.106 4.68,16.144 M 1.168,-16.9 c -0.069,1.035 -0.114,2.071 -0.139,3.112 0.057,-0.009 0.118,-0.022 0.175,-0.031 0.012,0.657 0.025,1.315 0.063,1.971 0.041,0.729 0.108,1.456 0.184,2.182 -0.129,0.02 -0.265,0.046 -0.392,0.063 0.038,1.05 0.099,2.103 0.183,3.155 0.084,1.052 0.194,2.107 0.323,3.157 0.13,1.051 0.287,2.103 0.465,3.151 C 2.207,0.908 2.409,1.954 2.636,2.993 3.186,2.95 3.753,2.888 4.339,2.813 4.405,2.805 4.477,2.792 4.544,2.783 4.671,3.1 4.784,3.42 4.919,3.732 5.256,4.516 5.616,5.29 6,6.055 6.071,6.151 6.146,6.246 6.225,6.334 6.304,6.426 6.389,6.513 6.478,6.599 6.553,6.67 6.634,6.741 6.715,6.811 6.275,6.871 5.833,6.934 5.414,6.979 4.811,7.046 4.226,7.098 3.662,7.134 c 0.291,1.029 0.602,2.049 0.938,3.06 0.336,1.014 0.695,2.019 1.078,3.015 0.383,0.995 0.787,1.979 1.218,2.957 0.428,0.974 0.883,1.938 1.36,2.892 0.589,-0.008 1.199,-0.032 1.831,-0.07 0.635,-0.04 1.289,-0.094 1.964,-0.163 0.677,-0.071 1.374,-0.155 2.091,-0.255 0.449,-0.064 0.918,-0.145 1.38,-0.22 0.133,0.141 0.26,0.293 0.394,0.431 0.301,0.157 0.621,0.302 0.961,0.435 0.341,0.132 0.703,0.253 1.082,0.359 0.38,0.111 0.781,0.204 1.199,0.285 0.419,0.083 0.858,0.153 1.313,0.209 -0.556,-0.594 -1.102,-1.216 -1.637,-1.856 -0.537,-0.641 -1.06,-1.305 -1.571,-1.99 C 16.75,15.535 16.252,14.825 15.766,14.095 15.281,13.363 14.81,12.61 14.353,11.836 14.044,11.811 13.756,11.771 13.465,11.735 13.12,10.867 12.781,9.996 12.467,9.118 12.406,8.949 12.355,8.779 12.296,8.61 12.403,8.618 12.503,8.634 12.612,8.641 12.227,7.87 11.865,7.087 11.518,6.301 11.483,6.193 11.444,6.088 11.41,5.98 11.4,5.982 11.392,5.984 11.382,5.986 11.042,5.206 10.72,4.42 10.418,3.628 10.193,3.036 9.993,2.437 9.789,1.838 9.925,1.808 10.053,1.784 10.189,1.753 9.913,0.69 9.654,-0.375 9.417,-1.444 9.182,-2.512 8.965,-3.58 8.769,-4.647 8.574,-5.715 8.397,-6.783 8.243,-7.851 8.09,-8.918 7.956,-9.979 7.841,-11.039 7.559,-10.965 7.29,-10.9 7.014,-10.83 c -0.083,-0.802 -0.157,-1.606 -0.207,-2.41 -0.038,-0.604 -0.053,-1.209 -0.073,-1.815 0.255,-0.068 0.502,-0.131 0.762,-0.203 -0.057,-1.047 -0.098,-2.09 -0.116,-3.126 -0.016,-0.864 -0.009,-1.722 0.003,-2.577 l 0.961,0 c -0.017,0.4 -0.045,0.8 -0.054,1.202 0.408,-0.067 0.83,-0.143 1.269,-0.227 0.061,-0.013 0.128,-0.028 0.189,-0.04 0.01,0.303 0.016,0.606 0.031,0.913 0.046,0.894 0.114,1.797 0.19,2.7 -0.108,0.02 -0.221,0.045 -0.327,0.064 -0.455,0.08 -0.899,0.153 -1.326,0.212 0.032,0.911 0.086,1.824 0.158,2.735 0.073,0.911 0.167,1.822 0.279,2.734 0.115,0.911 0.25,1.819 0.404,2.729 0.154,0.908 0.329,1.813 0.525,2.715 0.475,-0.042 0.967,-0.092 1.475,-0.158 0.128,-0.015 0.266,-0.039 0.396,-0.057 0.004,0.017 0.006,0.035 0.01,0.051 0.22,1.073 0.459,2.145 0.719,3.214 0.03,0.121 0.065,0.241 0.094,0.362 -0.095,0.011 -0.196,0.027 -0.29,0.038 -0.52,0.057 -1.026,0.101 -1.513,0.133 0.247,0.89 0.52,1.776 0.81,2.652 0.29,0.877 0.601,1.746 0.933,2.61 0.331,0.862 0.683,1.714 1.056,2.562 0.371,0.841 0.763,1.676 1.176,2.503 0.338,-0.004 0.695,-0.024 1.049,-0.04 0.361,0.971 0.736,1.94 1.131,2.9 0.048,0.119 0.103,0.235 0.153,0.354 -0.192,0.003 -0.395,0.014 -0.581,0.013 0.459,0.785 0.931,1.547 1.419,2.284 0.141,0.216 0.293,0.416 0.436,0.628 0.429,0.933 0.869,1.862 1.327,2.779 0.197,-0.042 0.403,-0.095 0.6,-0.139 0.231,0.295 0.456,0.603 0.692,0.889 0.531,0.648 1.073,1.272 1.625,1.873 0.508,0.021 1.033,0.031 1.574,0.028 0.545,-0.005 1.103,-0.023 1.678,-0.054 0.567,-0.029 1.15,-0.075 1.745,-0.13 -0.259,0.07 -0.526,0.149 -0.783,0.215 -0.875,0.232 -1.738,0.444 -2.583,0.644 -0.842,0.196 -1.669,0.38 -2.48,0.547 0.14,0.248 0.288,0.479 0.429,0.723 -0.173,-0.031 -0.357,-0.054 -0.526,-0.09 -0.415,-0.085 -0.808,-0.183 -1.188,-0.294 -0.376,-0.111 -0.735,-0.233 -1.074,-0.369 -0.337,-0.134 -0.656,-0.283 -0.957,-0.442 0.572,0.506 1.155,0.995 1.747,1.465 0.591,0.468 1.193,0.916 1.804,1.347 0.608,0.429 1.227,0.838 1.854,1.229 0.043,0.026 0.088,0.05 0.131,0.076 0.363,0.565 0.723,1.136 1.094,1.679 0.568,0.834 1.144,1.643 1.728,2.421 0.583,0.779 1.174,1.531 1.769,2.257 0.788,-0.141 1.593,-0.295 2.411,-0.466 0.82,-0.17 1.657,-0.357 2.505,-0.559 0.545,-0.13 1.104,-0.276 1.659,-0.419 0.518,0.154 1.108,0.328 1.814,0.536 0.649,0.163 1.438,0.329 2.2,0.487 0.47,0.106 0.94,0.204 1.414,0.29 -0.428,-0.09 -0.918,-0.189 -1.414,-0.29 -0.175,-0.04 -0.348,-0.077 -0.522,-0.12 -0.648,-0.158 -1.289,-0.335 -1.93,-0.535 -0.428,-0.132 -0.851,-0.289 -1.275,-0.44 0.216,-0.056 0.427,-0.106 0.646,-0.163 0.005,-0.001 0.01,-0.003 0.014,-0.004 0.134,0.054 0.266,0.118 0.4,0.17 0.637,0.246 1.275,0.469 1.916,0.672 0.64,0.201 1.281,0.378 1.926,0.536 0.642,0.155 1.282,0.289 1.926,0.399 0.38,0.034 0.769,0.06 1.169,0.074 0.4,0.017 0.81,0.023 1.232,0.019 0.163,-0.001 0.336,-0.011 0.502,-0.015 0.074,0.096 0.149,0.191 0.223,0.286 -0.111,-0.007 -0.225,-0.01 -0.332,-0.018 l 0.337,0.025 c 0.229,0.293 0.459,0.6 0.687,0.883 0.513,0.637 1.025,1.246 1.533,1.831 0.505,0.581 1.007,1.137 1.506,1.664 0.499,0.529 0.992,1.03 1.48,1.502 0.816,-0.253 1.64,-0.518 2.47,-0.799 0.831,-0.282 1.669,-0.573 2.509,-0.88 0.846,-0.308 1.695,-0.627 2.546,-0.959 0.854,-0.332 1.709,-0.68 2.568,-1.037 -0.366,-0.524 -0.745,-1.073 -1.129,-1.646 -0.305,-0.452 -0.617,-0.932 -0.931,-1.412 0.504,-0.11 1.156,-0.262 2.317,-0.534 l 0.075,-0.019 c -0.317,0.082 -0.639,0.145 -0.967,0.186 -0.331,0.04 -0.668,0.06 -1.01,0.06 -0.21,0.001 -0.426,-0.02 -0.64,-0.036 -0.011,-0.018 -0.023,-0.034 -0.035,-0.053 -0.257,-0.4 -0.524,-0.828 -0.789,-1.248 0.531,-0.159 1.066,-0.327 1.606,-0.502 0.558,-0.183 1.124,-0.378 1.69,-0.579 0.212,-0.075 0.426,-0.157 0.639,-0.235 0.158,0.281 0.321,0.572 0.477,0.844 -0.519,0.183 -1.037,0.362 -1.554,0.529 -0.512,0.168 -1.023,0.328 -1.532,0.478 0.339,0.098 0.67,0.174 0.992,0.23 0.323,0.052 0.64,0.084 0.948,0.093 0.306,0.011 0.604,-0.001 0.897,-0.036 0.29,-0.033 0.574,-0.088 0.848,-0.165 0.014,-0.004 0.03,-0.009 0.045,-0.013 0.164,0.283 0.335,0.58 0.494,0.853 0.347,0.595 0.683,1.163 1.01,1.707 0.864,-0.392 1.73,-0.796 2.594,-1.211 0.868,-0.415 1.73,-0.843 2.593,-1.28 0.862,-0.438 1.724,-0.889 2.581,-1.349 0.275,-0.148 0.546,-0.303 0.82,-0.454 l 0,2.698 c -0.808,0.433 -1.617,0.857 -2.429,1.268 -0.818,0.418 -1.639,0.822 -2.458,1.214 -0.821,0.392 -1.642,0.776 -2.461,1.146 0.293,0.472 0.574,0.92 0.848,1.34 0.27,0.421 0.529,0.816 0.778,1.187 0.247,0.368 0.482,0.712 0.707,1.03 0.224,0.317 0.435,0.61 0.637,0.874 0.667,-0.298 1.336,-0.608 2.002,-0.926 0.669,-0.319 1.336,-0.646 2.001,-0.984 0.125,-0.063 0.25,-0.132 0.375,-0.196 l 0,1.303 c -0.601,0.302 -1.203,0.6 -1.803,0.886 -0.613,0.292 -1.224,0.574 -1.839,0.849 0.171,0.198 0.327,0.374 0.474,0.521 0.144,0.149 0.277,0.272 0.399,0.373 0.121,0.098 0.232,0.171 0.331,0.222 0.098,0.049 0.184,0.078 0.259,0.079 0.433,-0.193 0.867,-0.394 1.3,-0.602 0.294,-0.139 0.586,-0.286 0.879,-0.433 l 0,21.837 -83.004,0 0,-83.004 4.871,0 c -0.059,0.247 -0.13,0.491 -0.186,0.739 -0.214,0.958 -0.403,1.924 -0.567,2.894 -0.166,0.968 -0.306,1.941 -0.419,2.915 0.061,0.056 0.127,0.11 0.197,0.162 0.071,0.051 0.147,0.101 0.226,0.148 0.078,0.046 0.163,0.091 0.251,0.133 0.087,0.041 0.179,0.082 0.275,0.12 0.104,-0.995 0.232,-1.989 0.39,-2.975 0.154,-0.988 0.332,-1.973 0.537,-2.952 0.083,-0.398 0.186,-0.789 0.277,-1.184 l 0.911,0 c -0.099,0.458 -0.212,0.912 -0.301,1.372 -0.192,0.99 -0.361,1.988 -0.504,2.99 -0.144,1 -0.262,2.005 -0.357,3.012 0.266,0.052 0.552,0.089 0.857,0.115 0.307,0.027 0.631,0.042 0.974,0.044 0.347,0.003 0.711,-0.003 1.092,-0.025 0.384,-0.019 0.787,-0.054 1.207,-0.095 0.045,-1.037 0.114,-2.067 0.206,-3.095 0.091,-1.03 0.208,-2.05 0.347,-3.066 0.056,-0.42 0.135,-0.834 0.199,-1.252 l 1.574,0 c -0.042,0.329 -0.095,0.653 -0.133,0.984 -0.111,1.02 -0.203,2.047 -0.272,3.077"
             style="fill:#a7c4e4;fill-opacity:1;fill-rule:nonzero;stroke:none"
             id="path3433" /></g><g
           id="g3435"
           transform="translate(206.5166,298.6182)"><path
             d="M 0,0 C 0.6,-0.187 1.212,-0.386 1.828,-0.588 2.063,0.131 2.295,0.849 2.541,1.568 2.717,2.082 2.905,2.598 3.087,3.113 2.46,3.313 1.834,3.511 1.222,3.694 0.632,3.874 0.053,4.037 -0.522,4.199 -0.667,3.756 -0.819,3.312 -0.958,2.869 -1.208,2.079 -1.439,1.289 -1.672,0.5 -1.12,0.339 -0.568,0.177 0,0"
             style="fill:#a7c4e4;fill-opacity:1;fill-rule:nonzero;stroke:none"
             id="path3437" /></g><g
           id="g3439"
           transform="translate(203.3223,310.5361)"><path
             d="m 0,0 c -0.149,-0.354 -0.309,-0.703 -0.452,-1.06 -0.358,-0.887 -0.697,-1.78 -1.02,-2.678 -0.055,-0.154 -0.102,-0.31 -0.156,-0.464 0.764,-0.238 1.535,-0.486 2.324,-0.747 0.075,-0.026 0.153,-0.053 0.228,-0.078 0.084,0.232 0.158,0.466 0.244,0.698 0.335,0.903 0.684,1.806 1.052,2.696 0.113,0.276 0.238,0.546 0.354,0.82 C 2.441,-0.77 2.304,-0.721 2.171,-0.678 1.436,-0.441 0.715,-0.219 0,0"
             style="fill:#a7c4e4;fill-opacity:1;fill-rule:nonzero;stroke:none"
             id="path3441" /></g><g
           id="g3443"
           transform="translate(204.8877,285.7607)"><path
             d="M 0,0 C 0.065,0.278 0.123,0.552 0.19,0.832 0.856,0.562 1.529,0.282 2.204,0 L 5.847,0 C 6.03,0.657 6.213,1.315 6.411,1.979 6.48,2.215 6.559,2.454 6.63,2.691 6.504,2.747 6.376,2.805 6.25,2.859 5.415,3.218 4.589,3.569 3.771,3.908 3.696,3.631 3.614,3.353 3.542,3.076 3.302,2.162 3.076,1.25 2.864,0.344 2.184,0.6 1.513,0.847 0.854,1.081 0.193,1.318 -0.456,1.545 -1.094,1.763 -1.729,1.978 -2.354,2.185 -2.969,2.38 -3.58,2.576 -4.181,2.761 -4.768,2.937 c 0.124,0.919 0.265,1.841 0.424,2.764 0.073,0.422 0.16,0.848 0.24,1.272 C -4.161,6.993 -4.22,7.016 -4.276,7.036 -5.013,7.3 -5.739,7.555 -6.455,7.796 -6.534,7.312 -6.623,6.827 -6.692,6.344 -6.827,5.422 -6.942,4.5 -7.042,3.582 -7.061,3.587 -7.078,3.591 -7.097,3.596 -6.428,3.362 -5.751,3.119 -5.061,2.866 -4.335,2.601 -3.6,2.324 -2.853,2.037 -2.988,1.353 -3.107,0.677 -3.229,0 L 0,0 z"
             style="fill:#a7c4e4;fill-opacity:1;fill-rule:nonzero;stroke:none"
             id="path3445" /></g></g></g></g></svg>