<?xml version="1.0" standalone="no"?>
<!DOCTYPE svg PUBLIC "-//W3C//DTD SVG 1.1//EN" "http://www.w3.org/Graphics/SVG/1.1/DTD/svg11.dtd" >
<svg>
<metadata>
Created by FontForge 20090914 at Tue Jul 15 23:10:02 2014
 By www-data
(c) 1999-2012 Typodermic Fonts Inc. See attached license agreement. If agreement is missing visit typodermicfonts.com for more info.
</metadata>
<defs>
<font id="SofachromeRg-Regular" horiz-adv-x="1421" >
  <font-face 
    font-family="Sofachrome Rg"
    font-weight="400"
    font-stretch="normal"
    units-per-em="1000"
    panose-1="2 1 5 7 2 0 0 2 0 4"
    ascent="784"
    descent="-216"
    x-height="681.999"
    cap-height="682"
    bbox="-296 -216.002 2047 984"
    underline-thickness="20"
    underline-position="-123"
    unicode-range="U+0017-U+E004"
  />
<missing-glyph horiz-adv-x="453" 
d="M140 0c-28 0 -49.5 6.16895 -64.5 18.502s-22.5 31.166 -22.5 56.499v532c0 25.333 7.5 44.166 22.5 56.499s36.5 18.5 64.5 18.5h172c58 0 87 -25 87 -75v-532c0 -50 -29 -75 -87 -75h-172zM353 607.002c0 22.667 -13.667 34 -41 34h-172c-27.333 0 -41 -11.333 -41 -34
v-532c0 -23.333 13.667 -35 41 -35h172c27.333 0 41 11.667 41 35v532z" />
    <glyph glyph-name="copyright" unicode="&#x28;C&#x29;" horiz-adv-x="831" 
d="M726 340c0 42.667 -8.16699 82.834 -24.5 120.501s-38.666 70.667 -66.999 99s-61.333 50.666 -99 66.999s-77.834 24.5 -120.501 24.5s-82.834 -8.16699 -120.501 -24.5s-70.5 -38.666 -98.5 -66.999s-50.167 -61.333 -66.5 -99s-24.5 -77.834 -24.5 -120.501
s8.16699 -82.834 24.5 -120.501s38.5 -70.5 66.5 -98.5s60.833 -50.167 98.5 -66.5s77.834 -24.5 120.501 -24.5s82.834 8.16699 120.501 24.5s70.667 38.5 99 66.5s50.666 60.833 66.999 98.5s24.5 77.834 24.5 120.501zM778 340c0 -50 -9.5 -96.833 -28.5 -140.5
s-45 -81.834 -78 -114.501s-71.5 -58.5 -115.5 -77.5s-91 -28.5 -141 -28.5s-96.833 9.5 -140.5 28.5s-82 44.833 -115 77.5s-59 70.834 -78 114.501s-28.5 90.5 -28.5 140.5s9.5 97 28.5 141s45 82.5 78 115.5s71.333 59 115 78s90.5 28.5 140.5 28.5s97 -9.5 141 -28.5
s82.5 -45 115.5 -78s59 -71.5 78 -115.5s28.5 -91 28.5 -141zM376 197c-20 0 -37.167 4.16699 -51.5 12.5s-26 19.166 -35 32.499s-15.5 28.833 -19.5 46.5s-6 35.5 -6 53.5s2 35.667 6 53s10.5 32.833 19.5 46.5s20.667 24.667 35 33s31.5 12.5 51.5 12.5h149
c12 0 18 -6 18 -18v-25c0 -12 -6 -18 -18 -18h-97c-16 0 -27.333 -4 -34 -12s-10 -23.667 -10 -47v-40c0 -25.333 3.33301 -43.166 10 -53.499s18 -15.5 34 -15.5h98c11.333 0 17 -5.66699 17 -17v-26c0 -12 -5.66699 -18 -17 -18h-150z" />
    <glyph glyph-name="registered" unicode="&#x28;R&#x29;" horiz-adv-x="571" 
d="M476 469c0 26 -5 50.5 -15 73.5s-23.5 43 -40.5 60s-37.167 30.5 -60.5 40.5s-48 15 -74 15s-50.667 -5 -74 -15s-43.5 -23.5 -60.5 -40.5s-30.5 -37 -40.5 -60s-15 -47.5 -15 -73.5c0 -26.667 5 -51.5 15 -74.5s23.5 -43 40.5 -60s37.167 -30.5 60.5 -40.5
s48 -15 74 -15s50.667 5 74 15s43.5 23.5 60.5 40.5s30.5 37 40.5 60s15 47.833 15 74.5zM286 236c-32 0 -62.167 6.16699 -90.5 18.5s-53 29 -74 50s-37.667 45.667 -50 74s-18.5 58.5 -18.5 90.5s6.16699 62 18.5 90s29 52.5 50 73.5s45.667 37.5 74 49.5s58.5 18 90.5 18
s62 -6 90 -18s52.5 -28.5 73.5 -49.5s37.667 -45.5 50 -73.5s18.5 -58 18.5 -90s-6.16699 -62.167 -18.5 -90.5s-29 -53 -50 -74s-45.5 -37.667 -73.5 -50s-58 -18.5 -90 -18.5zM358 381c-12.667 0 -22.333 5 -29 15l-47 73c-5.33301 7.33301 -8 13 -8 17v4
c0 7.33301 6 11 18 11h13c12 0 18 6 18 18c0 12.667 -6 19 -18 19h-60v-139c0 -12 -6 -18 -18 -18h-12c-12 0 -18 6 -18 18v154c0 12 6 18 18 18h108c16.667 0 29.5 -5 38.5 -15s13.5 -22.333 13.5 -37c0 -12 -3.66699 -22.5 -11 -31.5s-17.333 -14.5 -30 -16.5l44 -67
c3.33301 -8 5 -13 5 -15c0 -5.33301 -3.66699 -8 -11 -8h-14z" />
    <glyph glyph-name="uni2117" unicode="&#x28;P&#x29;" horiz-adv-x="831" 
d="M726 340c0 42.667 -8.16699 82.834 -24.5 120.501s-38.666 70.667 -66.999 99s-61.333 50.666 -99 66.999s-77.834 24.5 -120.501 24.5s-82.834 -8.16699 -120.501 -24.5s-70.5 -38.666 -98.5 -66.999s-50.167 -61.333 -66.5 -99s-24.5 -77.834 -24.5 -120.501
s8.16699 -82.834 24.5 -120.501s38.5 -70.5 66.5 -98.5s60.833 -50.167 98.5 -66.5s77.834 -24.5 120.501 -24.5s82.834 8.16699 120.501 24.5s70.667 38.5 99 66.5s50.666 60.833 66.999 98.5s24.5 77.834 24.5 120.501zM778 340c0 -50 -9.5 -96.833 -28.5 -140.5
s-45 -81.834 -78 -114.501s-71.5 -58.5 -115.5 -77.5s-91 -28.5 -141 -28.5s-96.833 9.5 -140.5 28.5s-82 44.833 -115 77.5s-59 70.834 -78 114.501s-28.5 90.5 -28.5 140.5s9.5 97 28.5 141s45 82.5 78 115.5s71.333 59 115 78s90.5 28.5 140.5 28.5s97 -9.5 141 -28.5
s82.5 -45 115.5 -78s59 -71.5 78 -115.5s28.5 -91 28.5 -141zM442 280c-12 0 -18 6 -18 18v24c0 12 6 18 18 18h23c15.333 0 26 5.5 32 16.5s9 23.167 9 36.5s-3 25.333 -9 36s-16.667 16 -32 16h-84v-271c0 -12 -6 -18 -18 -18h-33c-12 0 -18 6 -18 18v314c0 12 6 18 18 18
h172c13.333 0 24.833 -3.16699 34.5 -9.5s17.667 -14.666 24 -24.999s11 -22 14 -35s4.5 -26.5 4.5 -40.5c0 -14.667 -1.66699 -28.834 -5 -42.501s-8.33301 -26 -15 -37s-15.5 -19.833 -26.5 -26.5s-23.833 -10 -38.5 -10h-52z" />
    <glyph glyph-name=".notdef" horiz-adv-x="453" 
d="M140 0c-28 0 -49.5 6.16895 -64.5 18.502s-22.5 31.166 -22.5 56.499v532c0 25.333 7.5 44.166 22.5 56.499s36.5 18.5 64.5 18.5h172c58 0 87 -25 87 -75v-532c0 -50 -29 -75 -87 -75h-172zM353 607.002c0 22.667 -13.667 34 -41 34h-172c-27.333 0 -41 -11.333 -41 -34
v-532c0 -23.333 13.667 -35 41 -35h172c27.333 0 41 11.667 41 35v532z" />
    <glyph glyph-name="uni0017" horiz-adv-x="353" 
 />
    <glyph glyph-name="space" unicode=" " horiz-adv-x="353" 
 />
    <glyph glyph-name="exclam" unicode="!" horiz-adv-x="412" 
d="M126 0c-30 0 -45 15 -45 45v144c0 29.333 15 44 45 44h159c30 0 45 -14.667 45 -44v-144c0 -30 -15 -45 -45 -45h-159zM129 286c-17.333 0 -27.334 9 -30.001 27l-45 331c-0.666992 2.66699 -1 6 -1 10c0 18.667 9.66699 28 29 28h249c18 0 27 -9 27 -27
c0 -2 -0.166992 -3.83301 -0.5 -5.5s-0.5 -3.5 -0.5 -5.5l-44 -331c-3.33301 -18 -13.666 -27 -30.999 -27h-153z" />
    <glyph glyph-name="quotedbl" unicode="&#x22;" horiz-adv-x="600" 
d="M135 408c-16.667 0 -30.002 4 -40.002 12s-16.667 19 -20 33l-39 142c-3.33301 11.333 -5.66602 22.166 -6.99902 32.499s-2 22.5 -2 36.5v36c0 24 11.667 36 35 36h178c23.333 0 35 -12 35 -36v-36c0 -14 -0.666992 -26.167 -2 -36.5s-3.66602 -21.166 -6.99902 -32.499
l-39 -142c-3.33301 -14 -10 -25 -20 -33s-23.333 -12 -40 -12h-32zM432.998 408c-16 0 -29.1699 4 -39.5029 12s-17.166 19 -20.499 33l-39 142c-3.33301 11.333 -5.66602 22.166 -6.99902 32.499s-2 22.5 -2 36.5v36c0 24 12 36 36 36h177c24 0 36 -12 36 -36v-36
c0 -14 -0.666992 -26.167 -2 -36.5s-3.66602 -21.166 -6.99902 -32.499l-39 -142c-4 -14 -11 -25 -21 -33s-23 -12 -39 -12h-33z" />
    <glyph glyph-name="numbersign" unicode="#" horiz-adv-x="537" 
d="M334 0c-4.66699 0 -8.5 1.66602 -11.5 4.99902s-4.5 7.33301 -4.5 12l13 191h-135l-13 -193c-1.33301 -10 -6.33301 -15 -15 -15h-43c-5.33301 0 -9.5 1.66699 -12.5 5s-4.5 7.33301 -4.5 12l12 191h-51c-4 0 -7.66699 1.5 -11 4.5s-5 6.16699 -5 9.5v49
c0 4.66699 1.66699 8.33398 5 11.001s7 4 11 4h57l8 122h-55c-4 0 -7.5 1.5 -10.5 4.5s-4.5 6.83301 -4.5 11.5v48c0 4 1.5 7.5 4.5 10.5s6.5 4.5 10.5 4.5h60l12 179c1.33301 10.667 6.66602 16 15.999 16h43c11.333 0 17 -5.66699 17 -17l-12 -178h135l12 179
c1.33301 10.667 7 16 17 16h42c5.33301 0 9.33301 -1.66699 12 -5s4 -7.33301 4 -12l-11 -178h43c4.66699 0 8.33398 -1.5 11.001 -4.5s4 -6.5 4 -10.5v-48c0 -10.667 -5 -16 -15 -16h-49l-8 -122h45c10.667 0 16 -5 16 -15v-49c0 -3.33301 -1.5 -6.5 -4.5 -9.5
s-6.83301 -4.5 -11.5 -4.5h-51l-13 -193c-1.33301 -10 -6.33301 -15 -15 -15h-44zM345 407.999h-136l-8 -122h136z" />
    <glyph glyph-name="dollar" unicode="$" horiz-adv-x="750" 
d="M433 118l0.000976562 -91c0 -18 -9 -27 -27 -27h-59c-17.333 0 -26 9 -26 27v91h-237c-18 0 -27 8.66699 -27 26v24c0 17.333 9 26 27 26h358l-308 145c-34 16 -56 33.333 -66 52s-15 39.667 -15 63c0 14.667 2.66699 28.667 8 42s13.333 25.166 24 35.499
s24 18.5 40 24.5s34.667 9 56 9h140v91c0 17.333 8.66699 26 26 26h59c18 0 27 -8.66699 27 -26v-91h222c18 0 27 -9 27 -27v-24c0 -18 -9 -27 -27 -27h-347l308 -144c33.333 -15.333 55.166 -32.666 65.499 -51.999s15.5 -40.333 15.5 -63
c0 -14.667 -2.66699 -28.667 -8 -42s-13.333 -25 -24 -35s-24 -18 -40 -24s-34.333 -9 -55 -9h-137z" />
    <glyph glyph-name="percent" unicode="%" horiz-adv-x="1186" 
d="M200 365c-24.667 0 -47.166 4.33398 -67.499 13.001s-37.666 20.667 -51.999 36s-25.5 33.333 -33.5 54s-12 43 -12 67c0 24.667 4 47.5 12 68.5s19.167 39 33.5 54s31.666 26.833 51.999 35.5s42.833 13 67.5 13h196c24.667 0 47.167 -4.33301 67.5 -13
s37.666 -20.667 51.999 -36s25.5 -33.333 33.5 -54s12 -43.334 12 -68.001c0 -24 -4 -46.333 -12 -67s-19.333 -38.667 -34 -54s-32 -27.333 -52 -36s-42.333 -13 -67 -13h-196zM370.001 569.001c0 31.333 -4.50195 52.168 -13.502 62.501s-24.167 15.5 -45.5 15.5h-37
c-19.333 0 -33.166 -5.33301 -41.499 -16s-12.5 -31.334 -12.5 -62.001v-54c0 -34 4.33301 -57.667 13 -71s22.334 -20 41.001 -20h37c20.667 0 35.667 6.66699 45 20s14 37 14 71v54zM268.999 -19.9971c-6.66699 -6.66699 -12.332 -11 -16.999 -13s-11.334 -3 -20.001 -3
h-41c-6 0 -10.667 1.83301 -14 5.5s-5 7.83398 -5 12.501c0 6 2.33301 11.333 7 16l729 704c6.66699 6.66699 12.5 11 17.5 13s11.833 3 20.5 3h40c6 0 10.667 -1.83301 14 -5.5s5 -7.83398 5 -12.501c0 -6 -2.33301 -11.333 -7 -16zM789.001 -8.99707
c-24.667 0 -47.166 4.33398 -67.499 13.001s-37.666 20.667 -51.999 36s-25.5 33.333 -33.5 54s-12 43 -12 67c0 24.667 4 47.5 12 68.5s19.167 39 33.5 54s31.666 26.833 51.999 35.5s42.833 13 67.5 13h196c24.667 0 47.167 -4.33301 67.5 -13s37.666 -20.667 51.999 -36
s25.5 -33.333 33.5 -54s12 -43.334 12 -68.001c0 -24 -4 -46.333 -12 -67s-19.333 -38.667 -34 -54s-32 -27.333 -52 -36s-42.333 -13 -67 -13h-196zM959.002 195.004c0 31.333 -4.50195 52.168 -13.502 62.501s-24.167 15.5 -45.5 15.5h-37
c-19.333 0 -33.166 -5.33301 -41.499 -16s-12.5 -31.334 -12.5 -62.001v-54c0 -34 4.33301 -57.667 13 -71s22.334 -20 41.001 -20h37c20.667 0 35.667 6.66699 45 20s14 37 14 71v54z" />
    <glyph glyph-name="ampersand" unicode="&#x26;" horiz-adv-x="785" 
d="M554 0c-14.667 0 -25.999 5.00098 -33.999 15.001l-67 74l-62 -42c-26.667 -17.333 -52.334 -30 -77.001 -38s-48 -12 -70 -12c-27.333 0 -52.666 5.16699 -75.999 15.5s-43.5 23.833 -60.5 40.5s-30.333 35.5 -40 56.5s-14.5 42.167 -14.5 63.5
c0 26.667 8.5 53.667 25.5 81s45.5 52.666 85.5 75.999l50 29l-44 49c-21.333 23.333 -35.5 46 -42.5 68s-10.5 43.667 -10.5 65c0 22.667 4.16699 42.667 12.5 60s20 32 35 44s33 21.167 54 27.5s43.833 9.5 68.5 9.5h106c20.667 0 39.167 -3 55.5 -9
s30.166 -14 41.499 -24s20 -21.833 26 -35.5s9 -27.834 9 -42.501c0 -19.333 -1.5 -36.166 -4.5 -50.499s-8 -27 -15 -38s-16 -21 -27 -30s-24.167 -17.833 -39.5 -26.5l-41 -23l142 -157l60 38c6.66699 4 12.5 7 17.5 9s11.167 3 18.5 3h102c10 0 15 -4 15 -12
c0 -4 -2.66699 -7.66699 -8 -11l-145 -92l132 -144c3.33301 -3.33301 5.5 -6.5 6.5 -9.5s1.5 -5.83301 1.5 -8.5c0 -12.667 -6.33301 -19 -19 -19h-167zM275.001 290.001l-52.0029 -30.001c-17.333 -9.33301 -30.166 -20.666 -38.499 -33.999s-12.5 -27 -12.5 -41
c0 -13.333 2.83301 -25.5 8.5 -36.5s12.834 -20.5 21.501 -28.5s18.5 -14.333 29.5 -19s21.833 -7 32.5 -7c24.667 0 48.334 7.66699 71.001 23l61 38zM378.998 488c4.66699 2.66699 9.33203 5.66602 13.999 8.99902s8.83398 7.5 12.501 12.5s6.5 11.5 8.5 19.5s3 18 3 30
c0 10 -3.5 18.167 -10.5 24.5s-18.833 9.5 -35.5 9.5h-68c-15.333 0 -25.833 -2.33301 -31.5 -7s-8.5 -11.667 -8.5 -21c0 -6.66699 1.83301 -13.167 5.5 -19.5s10.167 -14.166 19.5 -23.499l51 -56z" />
    <glyph glyph-name="quotesingle" unicode="'" horiz-adv-x="302" 
d="M135 408c-16.667 0 -30.002 4 -40.002 12s-16.667 19 -20 33l-39 142c-3.33301 11.333 -5.66602 22.166 -6.99902 32.499s-2 22.5 -2 36.5v36c0 24 11.667 36 35 36h178c23.333 0 35 -12 35 -36v-36c0 -14 -0.666992 -26.167 -2 -36.5s-3.66602 -21.166 -6.99902 -32.499
l-39 -142c-3.33301 -14 -10 -25 -20 -33s-23.333 -12 -40 -12h-32z" />
    <glyph glyph-name="parenleft" unicode="(" horiz-adv-x="390" 
d="M224 -109c-8 0 -15.332 2.66699 -21.999 8l-67 66c-5.33301 6.66699 -8 13.334 -8 20.001v713c0 7.33301 2.66699 13.666 8 18.999l67 66c6.66699 5.33301 14 8 22 8h99c9.33301 0 14 -4.66699 14 -14v-28c0 -8.66699 -4.66699 -13 -14 -13h-86
c-4.66699 0 -8.33398 -1.33301 -11.001 -4l-36 -36c-3.33301 -3.33301 -5 -7.33301 -5 -12v-686c0 -5.33301 1.66699 -9 5 -11l36 -37c2 -2 5.66699 -3 11 -3h86c9.33301 0 14 -4.66699 14 -14v-27c0 -10 -4.66699 -15 -14 -15h-99z" />
    <glyph glyph-name="parenright" unicode=")" horiz-adv-x="390" 
d="M188 -101c-6.66699 -5.33301 -13.999 -8 -21.999 -8h-99c-9.33301 0 -14 5 -14 15v27c0 9.33301 4.66699 14 14 14h86c5.33301 0 9 1 11 3l36 37c3.33301 2 5 5.66699 5 11v686c0 4.66699 -1.66699 8.66699 -5 12l-36 36c-2.66699 2.66699 -6.33398 4 -11.001 4h-86
c-9.33301 0 -14 4.33301 -14 13v28c0 9.33301 4.66699 14 14 14h99c8 0 15.333 -2.66699 22 -8l67 -66c5.33301 -5.33301 8 -11.666 8 -18.999v-713c0 -6.66699 -2.66699 -13.334 -8 -20.001z" />
    <glyph glyph-name="asterisk" unicode="*" horiz-adv-x="535" 
d="M434 336c-7.33301 -9.33301 -16.334 -14.0039 -27.001 -14.0039c-9.33301 0 -17.333 3.33301 -24 10l-80 77l-20 -110c-1.33301 -9.33301 -5.16602 -16.5 -11.499 -21.5s-13.833 -7.5 -22.5 -7.5c-2.66699 0 -6 0.666992 -10 2l-64 21
c-7.33301 2.66699 -13.166 6.83398 -17.499 12.501s-6.5 12.167 -6.5 19.5c0 6 1.33301 11.333 4 16l48 101l-110 -15c-11.333 0 -20.833 2.66699 -28.5 8s-11.5 14 -11.5 26v65c0 12 4 20.667 12 26s17.667 8 29 8l109 -15l-47 101c-2.66699 4.66699 -4 9.66699 -4 15
c0 7.33301 2.16699 14 6.5 20s10.5 10.333 18.5 13l62 20c4 1.33301 7.66699 2 11 2c7.33301 0 14.333 -2.5 21 -7.5s10.667 -11.833 12 -20.5l20 -110l80 77c6.66699 6.66699 14.667 10 24 10c11.333 0 20.666 -4.66699 27.999 -14l39 -52
c4.66699 -6.66699 7 -14.334 7 -23.001c0 -5.33301 -1.5 -10.666 -4.5 -15.999s-7.5 -9.66602 -13.5 -12.999l-99 -53l99 -54c6 -3.33301 10.5 -7.66602 13.5 -12.999s4.5 -10.666 4.5 -15.999c0 -8 -2.33301 -15.667 -7 -23z" />
    <glyph glyph-name="plus" unicode="+" horiz-adv-x="747" 
d="M359 21c-18 0 -27 9 -27 27v253h-252c-18 0 -27 9 -27 27v28c0 18 9 27 27 27h252v252c0 18 9 27 27 27h29c17.333 0 26 -9 26 -27v-252h253c18 0 27 -9 27 -27v-28c0 -18 -9 -27 -27 -27h-253v-253c0 -18 -8.66699 -27 -26 -27h-29z" />
    <glyph glyph-name="comma" unicode="," horiz-adv-x="342" 
d="M98 -94c-30 0 -45 14.665 -45 43.998v239c0 29.333 15 44 45 44h159c30 0 45 -14.667 45 -44v-28c0 -13.333 -1.33301 -24.666 -4 -33.999s-7.66699 -20.666 -15 -33.999l-75 -143c-16 -29.333 -39 -44 -69 -44h-41z" />
    <glyph glyph-name="hyphen" unicode="-" horiz-adv-x="338" 
d="M53 277c-18 0 -27 9 -27 27v64c0 18 9 27 27 27h230c18 0 27 -9 27 -27v-64c0 -18 -9 -27 -27 -27h-230z" />
    <glyph glyph-name="period" unicode="." horiz-adv-x="355" 
d="M98 0c-30 0 -45 15 -45 45v144c0 29.333 15 44 45 44h159c30 0 45 -14.667 45 -44v-144c0 -30 -15 -45 -45 -45h-159z" />
    <glyph glyph-name="slash" unicode="/" horiz-adv-x="639" 
d="M22 -36c-6 0 -11.167 1.33301 -15.5 4s-6.5 6.66699 -6.5 12s2.33301 11.333 7 18l529 704c5.33301 6.66699 10 11 14 13s10.333 3 19 3h47c6.66699 0 12.167 -1.33301 16.5 -4s6.5 -6.66699 6.5 -12s-2.33301 -11.333 -7 -18l-530 -704
c-4.66699 -6.66699 -9.16699 -11 -13.5 -13s-10.833 -3 -19.5 -3h-47z" />
    <glyph glyph-name="zero" unicode="0" horiz-adv-x="1122" 
d="M365 0c-48.667 0 -93.1699 8.66602 -133.503 25.999s-75 41.333 -104 72s-51.5 66.834 -67.5 108.501s-24 86.5 -24 134.5c0 49.333 7.83301 94.833 23.5 136.5s37.834 77.667 66.501 108s63.334 54 104.001 71s85.667 25.5 135 25.5h392c50 0 95.167 -8.66699 135.5 -26
s75 -41.166 104 -71.499s51.333 -66.333 67 -108s23.5 -86.834 23.5 -135.501c0 -48 -8 -92.833 -24 -134.5s-38.5 -77.667 -67.5 -108s-63.667 -54.333 -104 -72s-85.166 -26.5 -134.499 -26.5h-392zM705.997 408.999c0 30.667 -2.1709 56 -6.50391 76
s-11.166 36 -20.499 48s-21.5 20.333 -36.5 25s-33.167 7 -54.5 7h-74c-19.333 0 -36 -2.5 -50 -7.5s-25.5 -13.5 -34.5 -25.5s-15.5 -28 -19.5 -48s-6 -45 -6 -75v-109c0 -67.333 8.83301 -114.5 26.5 -141.5s45.5 -40.5 83.5 -40.5h74c20.667 0 38.334 3.16699 53.001 9.5
s26.834 16.5 36.501 30.5s16.834 32.667 21.501 56s7 52 7 86v109z" />
    <glyph glyph-name="one" unicode="1" horiz-adv-x="556" 
d="M152 0c-12.667 0 -19 4.33203 -19 12.999v552h-76c-18 0 -27 9 -27 27v64c0 17.333 9 26 27 26h298c50 0 88.5 -10.167 115.5 -30.5s40.5 -49.166 40.5 -86.499v-552c0 -8.66699 -6 -13 -18 -13h-341z" />
    <glyph glyph-name="two" unicode="2" horiz-adv-x="1084" 
d="M80 0c-18 0 -27.002 9 -27.002 27v132c0 50.667 5.66699 92 17 124s33 57 65 75s76.167 30.167 132.5 36.5s129.5 9.5 219.5 9.5h103c26.667 0 47.167 7.16699 61.5 21.5s21.5 34.5 21.5 60.5c0 26.667 -7.16699 46.5 -21.5 59.5s-34.833 19.5 -61.5 19.5h-483
c-18 0 -27 9 -27 27v64c0 17.333 9 26 27 26h686c38.667 0 72.334 -5.83301 101.001 -17.5s52.334 -27 71.001 -46s32.667 -40.5 42 -64.5s14 -48.667 14 -74c0 -24.667 -4.5 -48.667 -13.5 -72s-22.667 -44 -41 -62s-42 -32.5 -71 -43.5s-63.5 -16.5 -103.5 -16.5h-238
c-26 0 -47 -1.83301 -63 -5.5s-28.333 -9.66699 -37 -18s-14.5 -19 -17.5 -32s-4.5 -28.5 -4.5 -46.5v-66h572c18 0 27 -9 27 -27v-64c0 -18 -9 -27 -27 -27h-924z" />
    <glyph glyph-name="three" unicode="3" horiz-adv-x="1034" 
d="M62 0c-17.333 0 -26.001 8.99805 -26.001 26.998v64c0 18 8.66699 27 26 27h435c38 0 65.333 8.5 82 25.5s25 41.5 25 73.5c0 32.667 -8.33301 56.834 -25 72.501s-44 23.5 -82 23.5h-234c-18 0 -27 8.66699 -27 26v65c0 17.333 9 26 27 26h251
c33.333 0 56.166 6.33301 68.499 19s18.5 29 18.5 49s-6.16699 36.167 -18.5 48.5s-35.166 18.5 -68.499 18.5h-444c-17.333 0 -26 9 -26 27v64c0 17.333 8.66699 26 26 26h701c66.667 0 116.5 -15.167 149.5 -45.5s49.5 -72.5 49.5 -126.5
c0 -20.667 -2.83301 -38.334 -8.5 -53.001s-12.5 -27 -20.5 -37s-16.5 -18 -25.5 -24s-16.833 -10.667 -23.5 -14c10.667 -3.33301 22.334 -9.83301 35.001 -19.5s24.334 -22 35.001 -37s19.5 -32.667 26.5 -53s10.5 -42.833 10.5 -67.5
c0 -25.333 -4.66699 -50.166 -14 -74.499s-24 -46.166 -44 -65.499s-45.333 -35 -76 -47s-67.334 -18 -110.001 -18h-693z" />
    <glyph glyph-name="four" unicode="4" horiz-adv-x="1138" 
d="M675 0c-17.333 0 -25.999 9 -25.999 27v121h-597c-18 0 -27 9 -27 27v46c0 15.333 6.66699 28 20 38l521 398c21.333 16.667 44.666 25 69.999 25h364c17.333 0 26 -8.66699 26 -26v-399h73c18 0 27 -9 27 -27v-55c0 -18 -9 -27 -27 -27h-73v-121
c0 -18 -8.66699 -27 -26 -27h-325zM649.001 553l-380 -296h380v296z" />
    <glyph glyph-name="five" unicode="5" horiz-adv-x="1071" 
d="M80 0c-18 0 -27 8.99902 -27 26.999v64c0 18 9 27 27 27h529c14.667 0 27.5 2.5 38.5 7.5s19.833 11.833 26.5 20.5s11.667 18.5 15 29.5s5 22.167 5 33.5s-1.66699 22.5 -5 33.5s-8.33301 20.833 -15 29.5s-15.5 15.667 -26.5 21s-23.833 8 -38.5 8h-527
c-18 0 -27 9 -27 27v328c0 17.333 9 26 27 26h878c18 0 27 -8.66699 27 -26v-64c0 -18 -9 -27 -27 -27h-571v-159h423c36.667 0 68.5 -5.66699 95.5 -17s49.167 -26.5 66.5 -45.5s30.333 -40.667 39 -65s13 -49.5 13 -75.5c0 -25.333 -4.33301 -50.166 -13 -74.499
s-21.667 -46 -39 -65s-39.5 -34.333 -66.5 -46s-58.833 -17.5 -95.5 -17.5h-732z" />
    <glyph glyph-name="six" unicode="6" horiz-adv-x="1098" 
d="M298 0c-34 0 -66.834 4.99902 -98.501 14.999s-59.5 25.833 -83.5 47.5s-43.333 49.167 -58 82.5s-22 73.666 -22 120.999v185c0 40 7.33301 74.5 22 103.5s34.334 53 59.001 72s52.5 33 83.5 42s63.167 13.5 96.5 13.5h698c18 0 27 -8.66699 27 -26v-64
c0 -18 -9 -27 -27 -27h-500c-36 0 -62.167 -6.33301 -78.5 -19s-24.5 -31.667 -24.5 -57v-267c0 -32 9.66699 -57.333 29 -76s44 -28 74 -28h125c30 0 54.667 9.33301 74 28s29 44 29 76s-9.5 56.833 -28.5 74.5s-42.5 26.5 -70.5 26.5h-134c-18 0 -27 9 -27 27v54
c0 17.333 9 26 27 26h331c42.667 0 79.5 -6.33301 110.5 -19s56.5 -29.167 76.5 -49.5s34.667 -43.666 44 -69.999s14 -53.166 14 -80.499c0 -26.667 -4.5 -52.667 -13.5 -78s-22.833 -47.833 -41.5 -67.5s-42.5 -35.5 -71.5 -47.5s-63.167 -18 -102.5 -18h-539z" />
    <glyph glyph-name="seven" unicode="7" horiz-adv-x="931" 
d="M188 0c-16 0 -23.999 6 -23.999 18c0 4 1.66699 9.33301 5 16l327 531h-456c-18 0 -27 9 -27 27v64c0 17.333 9 26 27 26h845c17.333 0 26 -8.66699 26 -26v-32c0 -16 -4.33301 -30.667 -13 -44l-357 -561c-4 -7.33301 -8.83301 -12.333 -14.5 -15s-13.834 -4 -24.501 -4
h-314z" />
    <glyph glyph-name="eight" unicode="8" horiz-adv-x="1069" 
d="M277 0c-40.667 0 -76.3301 6 -106.997 18s-56.334 27.833 -77.001 47.5s-36.167 42 -46.5 67s-15.5 50.5 -15.5 76.5c0 37.333 10.333 71.833 31 103.5s46.667 54.834 78 69.501c-25.333 15.333 -44.166 35 -56.499 59s-18.5 49 -18.5 75c0 20.667 4 41 12 61
s20.167 37.667 36.5 53s36.666 27.833 60.999 37.5s52.833 14.5 85.5 14.5h546c32.667 0 61.167 -4.83301 85.5 -14.5s44.666 -22.167 60.999 -37.5s28.5 -33 36.5 -53s12 -40.333 12 -61c0 -26 -6.16699 -51 -18.5 -75s-31.166 -43.667 -56.499 -59
c31.333 -14.667 57.333 -37.834 78 -69.501s31 -66.167 31 -103.5c0 -26 -5.16699 -51.5 -15.5 -76.5s-25.833 -47.333 -46.5 -67s-46.334 -35.5 -77.001 -47.5s-66.334 -18 -107.001 -18h-512zM606.004 118c19.333 0 36.333 2.83301 51 8.5s27 13.167 37 22.5
s17.5 19.833 22.5 31.5s7.5 23.834 7.5 36.501s-2.5 25 -7.5 37s-12.5 22.667 -22.5 32s-22.333 16.833 -37 22.5s-31.667 8.5 -51 8.5h-145c-20 0 -37.333 -2.83301 -52 -8.5s-27 -13.167 -37 -22.5s-17.5 -20 -22.5 -32s-7.5 -24.333 -7.5 -37s2.5 -24.834 7.5 -36.501
s12.5 -22.167 22.5 -31.5s22.333 -16.833 37 -22.5s32 -8.5 52 -8.5h145zM453.004 565c-16 0 -29.999 -2.33301 -41.999 -7s-21.833 -10.834 -29.5 -18.501s-13.5 -16.167 -17.5 -25.5s-6 -19 -6 -29c0 -20.667 7.83301 -39.334 23.5 -56.001s39.5 -25 71.5 -25h161
c32 0 55.667 8.33301 71 25s23 35.334 23 56.001c0 10 -2 19.667 -6 29s-9.83301 17.833 -17.5 25.5s-17.334 13.834 -29.001 18.501s-25.5 7 -41.5 7h-161z" />
    <glyph glyph-name="nine" unicode="9" horiz-adv-x="1086" 
d="M127 0c-18 0 -27.002 9 -27.002 27v64c0 18 9 27 27 27h455c70.667 0 106 25 106 75v265c0 33.333 -9.66699 59.5 -29 78.5s-44.333 28.5 -75 28.5h-118c-17.333 0 -32 -2.66699 -44 -8s-21.667 -12.333 -29 -21s-12.666 -18.5 -15.999 -29.5s-5 -22.167 -5 -33.5
s1.66699 -22.333 5 -33s8.66602 -20.167 15.999 -28.5s17 -15.166 29 -20.499s26.667 -8 44 -8h124c17.333 0 26 -9 26 -27v-50c0 -18 -8.66699 -27 -26 -27h-325c-41.333 0 -77.166 5.83301 -107.499 17.5s-55.166 27.167 -74.499 46.5s-33.666 41.333 -42.999 66
s-14 49.667 -14 75c0 24.667 4.33301 49 13 73s22.167 45.167 40.5 63.5s41.5 33.166 69.5 44.499s61.333 17 100 17h539c34 0 66.833 -5 98.5 -15s59.5 -25.667 83.5 -47s43.333 -48.833 58 -82.5s22 -74.167 22 -121.5v-184c0 -40 -7.33301 -74.667 -22 -104
s-34.334 -53.5 -59.001 -72.5s-52.667 -33 -84 -42s-63.333 -13.5 -96 -13.5h-662z" />
    <glyph glyph-name="colon" unicode=":" horiz-adv-x="380" 
d="M112 0c-29.333 0 -44 15 -44 45v144c0 29.333 14.667 44 44 44h160c29.333 0 44 -14.667 44 -44v-144c0 -30 -14.667 -45 -44 -45h-160zM112 331c-29.333 0 -44 15 -44 45v144c0 30 14.667 45 44 45h160c29.333 0 44 -15 44 -45v-144c0 -30 -14.667 -45 -44 -45h-160z
" />
    <glyph glyph-name="semicolon" unicode=";" horiz-adv-x="377" 
d="M114 -94c-30 0 -45 14.665 -45 43.998v239c0 29.333 15 44 45 44h159c30 0 45 -14.667 45 -44v-28c0 -13.333 -1.33301 -24.666 -4 -33.999s-7.66699 -20.666 -15 -33.999l-75 -143c-16 -29.333 -39 -44 -69 -44h-41zM114 330.998c-30 0 -45 15 -45 45v144
c0 30 15 45 45 45h159c30 0 45 -15 45 -45v-144c0 -30 -15 -45 -45 -45h-159z" />
    <glyph glyph-name="less" unicode="&#x3c;" horiz-adv-x="613" 
d="M541 45c-6.66699 -10.667 -14 -16.002 -22 -16.002c-4 0 -9 2 -15 6l-428 246c-15.333 8.66699 -23 21.334 -23 38.001v42c0 18.667 7.33301 32.334 22 41.001l429 247c6.66699 3.33301 11.667 5 15 5c8.66699 0 16 -4.66699 22 -14l14 -25
c2.66699 -5.33301 4 -10.333 4 -15c0 -9.33301 -4.66699 -16.666 -14 -21.999l-410 -236l410 -236c9.33301 -4.66699 14 -11.334 14 -20.001c0 -6 -1.33301 -11.667 -4 -17z" />
    <glyph glyph-name="equal" unicode="=" horiz-adv-x="747" 
d="M80 176c-18 0 -27 9 -27 27v29c0 17.333 9 26 27 26h587c18 0 27 -8.66699 27 -26v-29c0 -18 -9 -27 -27 -27h-587zM80 426c-18 0 -27 9 -27 27v28c0 18 9 27 27 27h587c18 0 27 -9 27 -27v-28c0 -18 -9 -27 -27 -27h-587z" />
    <glyph glyph-name="greater" unicode="&#x3e;" horiz-adv-x="613" 
d="M109 35c-6 -4 -11 -6.00098 -15 -6.00098c-8 0 -15.333 5.33301 -22 16l-14 24c-3.33301 6.66699 -5 12.334 -5 17.001c0 8 5 14.667 15 20l410 236l-410 236c-10 6 -15 13.333 -15 22c0 3.33301 1.66699 8.33301 5 15l14 25c6 9.33301 13.333 14 22 14
c3.33301 0 8.33301 -1.66699 15 -5l429 -247c14 -8 21 -21.667 21 -41v-42c0 -17.333 -7.33301 -30 -22 -38z" />
    <glyph glyph-name="question" unicode="?" horiz-adv-x="859" 
d="M187 0c-29.333 0 -44 15 -44 45v144c0 29.333 14.667 44 44 44h160c29.333 0 44 -14.667 44 -44v-144c0 -30 -14.667 -45 -44 -45h-160zM486 329c-20.667 0 -37.999 -0.166992 -51.999 -0.5s-25.833 -1.33301 -35.5 -3s-17 -4 -22 -7s-8.83301 -7.16699 -11.5 -12.5
c-6 -13.333 -15 -20 -27 -20h-136c-18 0 -27 9 -27 27v25c0 6.66699 1 15.167 3 25.5s6.83301 20.5 14.5 30.5s19.167 18.5 34.5 25.5s36.666 10.5 63.999 10.5h187c23.333 0 40 7 50 21s15 29.333 15 46c0 17.333 -5 33 -15 47s-26.667 21 -50 21h-434c-18 0 -27 9 -27 27
v64c0 17.333 9 26 27 26h570c38 0 70.667 -5 98 -15s50 -23.333 68 -40s31.333 -35.667 40 -57s13 -43 13 -65s-4.33301 -43.5 -13 -64.5s-22 -39.833 -40 -56.5s-40.833 -30 -68.5 -40s-60.5 -15 -98.5 -15h-127z" />
    <glyph glyph-name="at" unicode="@" horiz-adv-x="866" 
d="M297 1c-33.333 0 -65.499 4.49902 -96.499 13.499s-58.833 23 -83.5 42s-44.334 43.167 -59.001 72.5s-22 64 -22 104v183c0 47.333 7.33301 87.833 22 121.5s34 61.167 58 82.5s51.833 37 83.5 47s64.5 15 98.5 15h326c36 0 66.833 -6.33301 92.5 -19
s46.834 -29.167 63.501 -49.5s29 -43.666 37 -69.999s12 -53.5 12 -81.5c0 -27.333 -4 -53.833 -12 -79.5s-20.333 -48.5 -37 -68.5s-37.834 -36.167 -63.501 -48.5s-56.5 -18.5 -92.5 -18.5h-227c-17.333 0 -31.833 3.33301 -43.5 10s-21 15.167 -28 25.5
s-12 22.333 -15 36s-4.5 27.5 -4.5 41.5s1.33301 27.5 4 40.5s7.16699 24.5 13.5 34.5s15 18 26 24s24.833 9 41.5 9h86c30.667 0 52 -8 64 -24s18 -34.333 18 -55v-76h34c14.667 0 27 3.66699 37 11s18.167 16.833 24.5 28.5s10.833 25 13.5 40s4 30.167 4 45.5
c0 16 -1.33301 31.667 -4 47s-7.16699 28.833 -13.5 40.5s-14.5 21.167 -24.5 28.5s-22.333 11 -37 11h-267c-30.667 0 -56 -7.83301 -76 -23.5s-30 -43.5 -30 -83.5v-264c0 -50.667 35.333 -76 106 -76h446c18 0 27 -8.66699 27 -26v-64c0 -18 -9 -27 -27 -27h-475z
M476.001 366.999c0 13.333 -3.33203 23.332 -9.99902 29.999s-15.334 10 -26.001 10h-12c-10 0 -18.333 -4.16699 -25 -12.5s-10 -19.166 -10 -32.499c0 -14 3.33301 -25.667 10 -35s15 -14 25 -14h48v54z" />
    <glyph glyph-name="A" unicode="A" 
d="M974 0c-21.333 0 -38.668 6.66602 -52.001 19.999l-387 401l-306 -303h454c18 0 27 -9 27 -27v-64c0 -18 -9 -27 -27 -27h-661c-12.667 0 -19 5.66699 -19 17c0 2 0.5 4.5 1.5 7.5s3.16699 5.83301 6.5 8.5l627 630c12.667 12.667 26.667 19 42 19h66
c16.667 0 31.334 -6.33301 44.001 -19l618 -628c3.33301 -3.33301 5.5 -6.66602 6.5 -9.99902s1.5 -6.33301 1.5 -9c0 -10.667 -7.66699 -16 -23 -16h-419z" />
    <glyph glyph-name="B" unicode="B" horiz-adv-x="1199" 
d="M62 0c-17.333 0 -26.001 8.99902 -26.001 26.999v629c0 17.333 8.66699 26 26 26h868c66.667 0 116.5 -15.167 149.5 -45.5s49.5 -72.5 49.5 -126.5c0 -20.667 -2.83301 -38.334 -8.5 -53.001s-12.5 -27 -20.5 -37s-16.667 -18 -26 -24s-17.333 -10.667 -24 -14
c10.667 -3.33301 22.334 -9.83301 35.001 -19.5s24.334 -22 35.001 -37s19.5 -32.667 26.5 -53s10.5 -42.833 10.5 -67.5c0 -25.333 -4.66699 -50.166 -14 -74.499s-24 -46.166 -44 -65.499s-45.333 -35 -76 -47s-67.334 -18 -110.001 -18h-851zM509.999 312.999
c-17.333 0 -26 8.66602 -26 25.999v65c0 17.333 8.66699 26 26 26h163c33.333 0 56.166 6.33301 68.499 19s18.5 29 18.5 49s-6.16699 36.167 -18.5 48.5s-35.166 18.5 -68.499 18.5h-252v-447h235c38 0 65.333 8.5 82 25.5s25 41.5 25 73.5
c0 32.667 -8.33301 56.834 -25 72.501s-44 23.5 -82 23.5h-146z" />
    <glyph glyph-name="C" unicode="C" horiz-adv-x="1104" 
d="M364 0c-47.333 0 -91.0039 8.49805 -131.004 25.498s-74.667 40.667 -104 71s-52.166 66.333 -68.499 108s-24.5 87.167 -24.5 136.5c0 48.667 7.83301 93.834 23.5 135.501s37.834 77.834 66.501 108.501s63.167 54.5 103.5 71.5s85.166 25.5 134.499 25.5h681
c18 0 27 -8.66699 27 -26v-64c0 -18 -9 -27 -27 -27h-447c-22 0 -40.5 -2.33301 -55.5 -7s-27.167 -13 -36.5 -25s-16 -28 -20 -48s-6 -45.333 -6 -76v-109c0 -34 2.33301 -62.667 7 -86s11.834 -42 21.501 -56s21.834 -24.167 36.501 -30.5s32.334 -9.5 53.001 -9.5h451
c17.333 0 26 -9 26 -27v-64c0 -18 -8.66699 -27 -26 -27h-685z" />
    <glyph glyph-name="D" unicode="D" horiz-adv-x="1248" 
d="M62 0c-17.333 0 -26.0039 9 -26.0039 27v629c0 17.333 8.66699 26 26 26h804c50 0 95.167 -8.66699 135.5 -26s74.833 -41.166 103.5 -71.499s50.834 -66.333 66.501 -108s23.5 -86.834 23.5 -135.501c0 -49.333 -8.16699 -94.833 -24.5 -136.5
s-39.166 -77.667 -68.499 -108s-64.166 -54 -104.499 -71s-84.166 -25.5 -131.499 -25.5h-804zM749.996 409c0 30.667 -2.00098 56.001 -6.00098 76.001s-10.667 36 -20 48s-21.333 20.333 -36 25s-32.667 7 -54 7h-202v-447h202c20 0 37.333 3.16699 52 9.5
s26.834 16.666 36.501 30.999s16.667 33 21 56s6.5 51.5 6.5 85.5v109z" />
    <glyph glyph-name="E" unicode="E" horiz-adv-x="1131" 
d="M578 313c-18 0 -27 8.66699 -27 26v65c0 17.333 9 26 27 26h478c17.333 0 26 -6 26 -18v-81c0 -12 -8.66699 -18 -26 -18h-478zM364 0c-47.333 0 -91.0039 8.49805 -131.004 25.498s-74.667 40.667 -104 71s-52.166 66.333 -68.499 108s-24.5 87.167 -24.5 136.5
c0 48.667 7.83301 93.834 23.5 135.501s37.834 77.834 66.501 108.501s63.167 54.5 103.5 71.5s85.166 25.5 134.499 25.5h699c18 0 27 -8.66699 27 -26v-64c0 -18 -9 -27 -27 -27h-465c-22 0 -40.5 -2.33301 -55.5 -7s-27.167 -13 -36.5 -25s-16 -28 -20 -48
s-6 -45.333 -6 -76v-109c0 -34 2.33301 -62.667 7 -86s11.834 -42 21.501 -56s21.834 -24.167 36.501 -30.5s32.334 -9.5 53.001 -9.5h468c18 0 27 -9 27 -27v-64c0 -18 -9 -27 -27 -27h-702z" />
    <glyph glyph-name="F" unicode="F" horiz-adv-x="1105" 
d="M599 565c-44 0 -74.667 -11.499 -92 -34.499s-26 -60.5 -26 -112.5v-391c0 -18 -9 -27 -27 -27h-383c-17.333 0 -26 9 -26 27v373c0 41.333 6 79.166 18 113.499s30 64 54 89s54.333 44.5 91 58.5s80 21 130 21h726c17.333 0 26 -8.66699 26 -26v-64
c0 -18 -8.66699 -27 -26 -27h-465zM579 313.001c-18 0 -27 8.66699 -27 26v65c0 17.333 9 26 27 26h479c18 0 27 -6 27 -18v-81c0 -12 -9 -18 -27 -18h-479z" />
    <glyph glyph-name="G" unicode="G" horiz-adv-x="1172" 
d="M364 0c-47.333 0 -91.0039 8.49805 -131.004 25.498s-74.667 40.667 -104 71s-52.166 66.333 -68.499 108s-24.5 87.167 -24.5 136.5c0 48.667 7.83301 93.834 23.5 135.501s37.834 77.834 66.501 108.501s63.167 54.5 103.5 71.5s85.166 25.5 134.499 25.5h697
c18 0 27 -8.66699 27 -26v-64c0 -18 -9 -27 -27 -27h-463c-22 0 -40.5 -2.33301 -55.5 -7s-27.167 -13 -36.5 -25s-16 -28 -20 -48s-6 -45.333 -6 -76v-109c0 -34 2.33301 -62.667 7 -86s11.834 -42 21.501 -56s21.834 -24.167 36.501 -30.5s32.334 -9.5 53.001 -9.5h177
v306c0 18 8.66699 27 26 27h286c18 0 27 -9 27 -27v-397c0 -18 -9 -27 -27 -27h-723z" />
    <glyph glyph-name="H" unicode="H" horiz-adv-x="1200" 
d="M777 0c-18 0 -27 9 -27 27v286h-300v-286c0 -18 -8.66699 -27 -26 -27h-344c-18 0 -27 9 -27 27v629c0 17.333 9 26 27 26h344c17.333 0 26 -8.66699 26 -26v-226h300v226c0 17.333 9 26 27 26h344c17.333 0 26 -8.66699 26 -26v-629c0 -18 -8.66699 -27 -26 -27h-344z
" />
    <glyph glyph-name="I" unicode="I" horiz-adv-x="513" 
d="M84 0c-17.333 0 -26 9 -26 27v629c0 17.333 8.66699 26 26 26h345c17.333 0 26 -8.66699 26 -26v-629c0 -18 -8.66699 -27 -26 -27h-345z" />
    <glyph glyph-name="J" unicode="J" horiz-adv-x="947" 
d="M37 0c-17.333 0 -26 8.99902 -26 26.999v64c0 18 8.66699 27 26 27h311c44 0 74.667 11.5 92 34.5s26 60.5 26 112.5v391c0 17.333 9 26 27 26h383c17.333 0 26 -8.66699 26 -26v-374c0 -41.333 -6 -79.166 -18 -113.499s-30 -64 -54 -89s-54.333 -44.5 -91 -58.5
s-80 -21 -130 -21h-572z" />
    <glyph glyph-name="K" unicode="K" horiz-adv-x="1302" 
d="M926 0c-14 0 -25.999 2.16797 -35.999 6.50098s-20.333 11.166 -31 20.499l-342 297c-7.33301 6 -12.333 12.5 -15 19.5s-4 16.5 -4 28.5v29c0 11.333 1.33301 19.666 4 24.999s8 10.333 16 15l400 215c13.333 7.33301 27 13.5 41 18.5s29 7.5 45 7.5h202
c7.33301 0 12.666 -1.66699 15.999 -5s5 -7.33301 5 -12c0 -7.33301 -4 -13 -12 -17l-397 -213l464 -390c9.33301 -7.33301 14 -15.666 14 -24.999c0 -5.33301 -2.33301 -10 -7 -14s-12 -6 -22 -6h-341zM79.001 0.000976562c-17.333 0 -26 9 -26 27v629
c0 17.333 8.66699 26 26 26h344c18 0 27 -8.66699 27 -26v-629c0 -18 -9 -27 -27 -27h-344z" />
    <glyph glyph-name="L" unicode="L" horiz-adv-x="1026" 
d="M338 0c-50 0 -93.333 7.00098 -130 21.001s-67 33.5 -91 58.5s-42 54.667 -54 89s-18 72.166 -18 113.499v374c0 17.333 8.66699 26 26 26h383c18 0 27 -8.66699 27 -26v-391c0 -52 8.66699 -89.5 26 -112.5s48 -34.5 92 -34.5h393c17.333 0 26 -9 26 -27v-64
c0 -18 -8.66699 -27 -26 -27h-654z" />
    <glyph glyph-name="M" unicode="M" horiz-adv-x="1419" 
d="M1008 0c-18 0 -27 9 -27 27v253l-282 -253c-10 -9.33301 -20.333 -16.166 -31 -20.499s-21 -6.5 -31 -6.5h-58c-10 0 -20.833 2.16699 -32.5 6.5s-23.167 11.166 -34.5 20.499l-316 253v-253c0 -18 -9 -27 -27 -27h-93c-18 0 -27 9 -27 27v629c0 17.333 9 26 27 26h86
c22 0 43.333 -8.66699 64 -26l469 -424l501 424c10.667 9.33301 22 16 34 20s24.333 6 37 6h72c18 0 27 -8.66699 27 -26v-629c0 -18 -9 -27 -27 -27h-331z" />
    <glyph glyph-name="N" unicode="N" horiz-adv-x="1282" 
d="M1137 0c-20 0 -37.501 1.33203 -52.501 3.99902s-33.5 8 -55.5 16l-797 298v-291c0 -18 -9 -27 -27 -27h-129c-18 0 -27 9 -27 27v629c0 17.333 9 26 27 26h123c10.667 0 20.334 -0.166992 29.001 -0.5s17 -1.16602 25 -2.49902s16.167 -3.33301 24.5 -6
s17.833 -6 28.5 -10l744 -287v280c0 17.333 9 26 27 26h129c18 0 27 -8.66699 27 -26v-629c0 -18 -9 -27 -27 -27h-69z" />
    <glyph glyph-name="O" unicode="O" horiz-adv-x="1220" 
d="M365 0c-48.667 0 -93.1699 8.66602 -133.503 25.999s-75 41.333 -104 72s-51.5 66.834 -67.5 108.501s-24 86.5 -24 134.5c0 49.333 7.83301 94.833 23.5 136.5s37.834 77.667 66.501 108s63.334 54 104.001 71s85.667 25.5 135 25.5h490c50 0 95.167 -8.66699 135.5 -26
s75 -41.166 104 -71.499s51.333 -66.333 67 -108s23.5 -86.834 23.5 -135.501c0 -48 -8 -92.833 -24 -134.5s-38.5 -77.667 -67.5 -108s-63.667 -54.333 -104 -72s-85.166 -26.5 -134.499 -26.5h-490zM785.997 408.999c0 30.667 -2.00293 56 -6.00293 76s-10.667 36 -20 48
s-21.5 20.333 -36.5 25s-33.5 7 -55.5 7h-136c-20 0 -36.833 -2.5 -50.5 -7.5s-25 -13.5 -34 -25.5s-15.5 -28 -19.5 -48s-6 -45 -6 -75v-109c0 -67.333 8.83301 -114.5 26.5 -141.5s45.5 -40.5 83.5 -40.5h136c20.667 0 38.334 3.16699 53.001 9.5s26.834 16.5 36.501 30.5
s16.834 32.667 21.501 56s7 52 7 86v109z" />
    <glyph glyph-name="P" unicode="P" horiz-adv-x="1167" 
d="M518 241c-17.333 0 -26.001 9 -26.001 27v64c0 18 8.66699 27 26 27h128c16 0 30.833 1.83301 44.5 5.5s25.5 9.5 35.5 17.5s18 18.5 24 31.5s9 29.167 9 48.5c0 35.333 -11 61.333 -33 78s-48.667 25 -80 25h-214v-538c0 -18 -9 -27 -27 -27h-343
c-17.333 0 -26 9 -26 27v629c0 17.333 8.66699 26 26 26h855c32.667 0 63.334 -5 92.001 -15s53.5 -24.5 74.5 -43.5s37.5 -42.5 49.5 -70.5s18 -59.667 18 -95c0 -36 -6.66699 -67.5 -20 -94.5s-31.666 -49.5 -54.999 -67.5s-50.833 -31.667 -82.5 -41
s-65.834 -14 -102.501 -14h-373z" />
    <glyph glyph-name="Q" unicode="Q" horiz-adv-x="1212" 
d="M658 -118c-17.333 0 -31.3359 8.66602 -42.0029 25.999l-59 92h-192c-48.667 0 -93.167 8.66699 -133.5 26s-75 41.333 -104 72s-51.5 66.834 -67.5 108.501s-24 86.5 -24 134.5c0 49.333 7.83301 94.833 23.5 136.5s37.834 77.667 66.501 108s63.334 54 104.001 71
s85.667 25.5 135 25.5h481c50 0 95.167 -8.66699 135.5 -26s75 -41.166 104 -71.499s51.333 -66.333 67 -108s23.5 -86.834 23.5 -135.501c0 -48 -8 -92.833 -24 -134.5s-38.5 -77.667 -67.5 -108s-63.667 -54.333 -104 -72s-85.166 -26.5 -134.499 -26.5l56 -87
c3.33301 -5.33301 5 -10.333 5 -15c0 -4 -1.33301 -7.66699 -4 -11s-7.66699 -5 -15 -5h-230zM776.997 408.999c0 30.667 -2.00293 56 -6.00293 76s-10.667 36 -20 48s-21.5 20.333 -36.5 25s-33.5 7 -55.5 7h-127c-20 0 -36.833 -2.5 -50.5 -7.5s-25 -13.5 -34 -25.5
s-15.5 -28 -19.5 -48s-6 -45 -6 -75v-109c0 -67.333 8.83301 -114.5 26.5 -141.5s45.5 -40.5 83.5 -40.5h127c20.667 0 38.334 3.16699 53.001 9.5s26.834 16.5 36.501 30.5s16.834 32.667 21.501 56s7 52 7 86v109z" />
    <glyph glyph-name="R" unicode="R" horiz-adv-x="1263" 
d="M894 0c-26.667 0 -48.665 8.99805 -65.998 26.998l-301 309c-5.33301 5.33301 -9.5 10.5 -12.5 15.5s-4.5 12.167 -4.5 21.5v31c0 17.333 8.66699 26 26 26h137c32 0 55.833 6 71.5 18s23.5 28.667 23.5 50c0 44.667 -31.667 67 -95 67h-223v-538c0 -18 -9 -27 -27 -27
h-343c-18 0 -27 9 -27 27v629c0 17.333 9 26 27 26h874c30 0 58 -4.16699 84 -12.5s48.5 -20.166 67.5 -35.499s33.833 -33.666 44.5 -54.999s16 -45 16 -71c0 -28 -5.16699 -53.167 -15.5 -75.5s-24.333 -41.5 -42 -57.5s-38.334 -29 -62.001 -39s-48.834 -17 -75.501 -21
l276 -283c4.66699 -4 7 -9.33301 7 -16c0 -4 -1.5 -7.66699 -4.5 -11s-7.5 -5 -13.5 -5h-342z" />
    <glyph glyph-name="S" unicode="S" horiz-adv-x="1038" 
d="M61 0c-17.333 0 -25.999 8.99902 -25.999 26.999v64c0 18 8.66699 27 26 27h561l-471 221c-25.333 12 -46 24.5 -62 37.5s-28.5 26.667 -37.5 41s-15 29.5 -18 45.5s-4.5 33 -4.5 51c0 22 4 43.167 12 63.5s20.167 38.333 36.5 54s36.666 28 60.999 37
s52.5 13.5 84.5 13.5h736c18 0 27 -8.66699 27 -26v-64c0 -18 -9 -27 -27 -27h-542l470 -221c26 -12 46.833 -24.5 62.5 -37.5s28 -26.667 37 -41s15 -29.666 18 -45.999s4.5 -33.5 4.5 -51.5c0 -22 -4 -43.167 -12 -63.5s-20.167 -38.333 -36.5 -54s-36.5 -28 -60.5 -37
s-52 -13.5 -84 -13.5h-755z" />
    <glyph glyph-name="T" unicode="T" horiz-adv-x="1036" 
d="M339 0c-12.667 0 -19 4.33301 -19 13v552h-292c-12.667 0 -19 3.66699 -19 11v93c0 8.66699 6.33301 13 19 13h981c12.667 0 19 -4.33301 19 -13v-93c0 -7.33301 -6.33301 -11 -19 -11h-293v-552c0 -8.66699 -6 -13 -18 -13h-359z" />
    <glyph glyph-name="U" unicode="U" horiz-adv-x="1188" 
d="M386 0c-61.333 0 -113.669 7.33203 -157.002 21.999s-78.666 35.667 -105.999 63s-47.166 60.333 -59.499 99s-18.5 82 -18.5 130v342c0 17.333 8.66699 26 26 26h374c17.333 0 26 -8.66699 26 -26v-342c0 -61.333 13 -109.333 39 -144s67.333 -52 124 -52h172
c57.333 0 99.5 17.333 126.5 52s40.5 82.667 40.5 144v342c0 17.333 9 26 27 26h120c18 0 27 -8.66699 27 -26v-342c0 -44 -6.83301 -85 -20.5 -123s-34.5 -71.167 -62.5 -99.5s-63.5 -50.666 -106.5 -66.999s-93.5 -24.5 -151.5 -24.5h-420z" />
    <glyph glyph-name="V" unicode="V" 
d="M781 20c-12 -13.333 -25.999 -20.001 -41.999 -20.001h-66c-17.333 0 -32 6.66699 -44 20l-617 628c-6 5.33301 -9 11.333 -9 18c0 10.667 7.66699 16 23 16h419c21.333 0 38.666 -6.66699 51.999 -20l388 -401l403 401c7.33301 6.66699 15 11.667 23 15s17.667 5 29 5
h57c12.667 0 19 -5.66699 19 -17c0 -5.33301 -2.66699 -10.666 -8 -15.999z" />
    <glyph glyph-name="W" unicode="W" horiz-adv-x="1957" 
d="M1372 0c-9.33301 0 -17.833 1.5 -25.5 4.5s-14.167 8.16699 -19.5 15.5l-315 425l-338 -425c-5.33301 -7.33301 -11.5 -12.5 -18.5 -15.5s-14.5 -4.5 -22.5 -4.5h-58c-18.667 0 -33.667 6.66699 -45 20l-519 628c-5.33301 5.33301 -8 11 -8 17c0 11.333 7.33301 17 22 17
h384c11.333 0 21.166 -1.5 29.499 -4.5s15.833 -8.16699 22.5 -15.5l301 -376l303 376c5.33301 7.33301 12.333 12.5 21 15.5s18.667 4.5 30 4.5h63c11.333 0 21.333 -1.5 30 -4.5s15.667 -8.16699 21 -15.5l300 -401l314 401c6 7.33301 13.333 12.5 22 15.5
s18.667 4.5 30 4.5h36c14 0 21 -5.33301 21 -16c0 -5.33301 -2 -11 -6 -17l-476 -629c-5.33301 -7.33301 -11.666 -12.5 -18.999 -15.5s-15 -4.5 -23 -4.5h-57z" />
    <glyph glyph-name="X" unicode="X" horiz-adv-x="1295" 
d="M839 0c-22 0 -41.333 7.33398 -58 22.001l-269 240l-333 -242c-9.33301 -6.66699 -19 -11.667 -29 -15s-21.667 -5 -35 -5h-73c-14 0 -21 5.33301 -21 16c0 6.66699 3.66699 13 11 19l405 296l-351 313c-6.66699 6 -10 12.667 -10 20
c0 5.33301 2.16699 9.66602 6.5 12.999s10.833 5 19.5 5h417c12 0 22.667 -1.83301 32 -5.5s18 -9.16699 26 -16.5l186 -167l234 169c9.33301 6.66699 19 11.667 29 15s21.667 5 35 5h73c14 0 21 -5.33301 21 -16c0 -6.66699 -3.66699 -12.667 -11 -18l-305 -223l433 -387
c7.33301 -6 11 -12.333 11 -19c0 -12.667 -8.66699 -19 -26 -19h-418z" />
    <glyph glyph-name="Y" unicode="Y" horiz-adv-x="1139" 
d="M397 0c-17.333 0 -26 8.99902 -26 26.999v238l-359 383c-6 6 -9 12 -9 18c0 5.33301 2 9.33301 6 12s8.66699 4 14 4h403c18 0 33 -6.66699 45 -20l266 -292l277 293c7.33301 7.33301 14 12.333 20 15s14 4 24 4h58c6.66699 0 11.5 -1.5 14.5 -4.5s4.5 -6.5 4.5 -10.5
c0 -5.33301 -1.66699 -9.66602 -5 -12.999l-362 -383v-244c0 -18 -9 -27 -27 -27h-344z" />
    <glyph glyph-name="Z" unicode="Z" horiz-adv-x="1083" 
d="M61 0c-17.333 0 -26 9 -26 27v64c0 11.333 1.33301 19.833 4 25.5s8.66699 13.167 18 22.5l490 426h-465c-18 0 -27 9 -27 27v64c0 17.333 9 26 27 26h934c17.333 0 26 -8.66699 26 -26v-64c0 -11.333 -1.33301 -20 -4 -26s-8.66699 -13.667 -18 -23l-454 -425h462
c18 0 27 -9 27 -27v-64c0 -18 -9 -27 -27 -27h-967z" />
    <glyph glyph-name="bracketleft" unicode="[" horiz-adv-x="382" 
d="M145 -109c-17.333 0 -26 8.66699 -26 26v848c0 17.333 8.66699 26 26 26h170c9.33301 0 14 -4.66699 14 -14v-28c0 -8.66699 -4.66699 -13 -14 -13h-127c-7.33301 0 -11 -4.33301 -11 -13v-765c0 -7.33301 4.33301 -11 13 -11h125c9.33301 0 14 -5 14 -15v-26
c0 -10 -4.66699 -15 -14 -15h-170z" />
    <glyph glyph-name="backslash" unicode="\" horiz-adv-x="639" 
d="M569 -36c-8.66699 0 -15 1 -19 3s-8.66699 6.33301 -14 13l-529 704c-4.66699 6.66699 -7 12.667 -7 18s2.16699 9.33301 6.5 12s9.5 4 15.5 4h47c8.66699 0 15.167 -1 19.5 -3s8.83301 -6.33301 13.5 -13l530 -704c4.66699 -6.66699 7 -12.667 7 -18
s-2.16699 -9.33301 -6.5 -12s-9.83301 -4 -16.5 -4h-47z" />
    <glyph glyph-name="bracketright" unicode="]" horiz-adv-x="380" 
d="M67 -109c-9.33301 0 -14 5 -14 15v26c0 10 4.66699 15 14 15h125c8.66699 0 13 3.66699 13 11v765c0 8.66699 -3.66699 13 -11 13h-127c-9.33301 0 -14 4.33301 -14 13v28c0 9.33301 4.66699 14 14 14h170c17.333 0 26 -8.66699 26 -26v-848
c0 -17.333 -8.66699 -26 -26 -26h-170z" />
    <glyph glyph-name="asciicircum" unicode="^" horiz-adv-x="535" 
d="M428 367c-8 -4 -15.334 -6 -22.001 -6c-11.333 0 -21 6.33301 -29 19l-110 190l-109 -190c-8 -12.667 -18 -19 -30 -19c-6 0 -13 2 -21 6l-34 20c-13.333 7.33301 -20 17 -20 29c0 4.66699 2.33301 11.667 7 21l125 216c10.667 19.333 29.334 29 56.001 29h52
c26.667 0 45.334 -9.66699 56.001 -29l126 -216c1.33301 -4 2.66602 -7.66699 3.99902 -11s2 -6.66602 2 -9.99902c0 -12.667 -6.66699 -22.334 -20 -29.001z" />
    <glyph glyph-name="underscore" unicode="_" horiz-adv-x="615" 
d="M19 -150c-12.667 0 -19 4.66699 -19 14v57c-0 8 6.33301 12 19 12h577c12.667 0 19 -4 19 -12v-57c0 -9.33301 -6.33301 -14 -19 -14h-577z" />
    <glyph glyph-name="grave" unicode="`" horiz-adv-x="452" 
d="M68 843c-10 2 -15.001 8.33203 -15.001 18.999v53c0 13.333 5.66699 20 17 20c4.66699 0 9.66699 -0.333008 15 -1s10.666 -2.66699 15.999 -6l279 -132c12 -5.33301 18 -12.666 18 -21.999v-45c0 -13.333 -6 -20 -18 -20c-3.33301 0 -6.66602 0.333008 -9.99902 1
s-7.66602 2 -12.999 4z" />
    <glyph glyph-name="a" unicode="a" 
d="M974 0c-21.333 0 -38.668 6.66602 -52.001 19.999l-387 401l-306 -303h454c18 0 27 -9 27 -27v-64c0 -18 -9 -27 -27 -27h-661c-12.667 0 -19 5.66699 -19 17c0 2 0.5 4.5 1.5 7.5s3.16699 5.83301 6.5 8.5l627 630c12.667 12.667 26.667 19 42 19h66
c16.667 0 31.334 -6.33301 44.001 -19l618 -628c3.33301 -3.33301 5.5 -6.66602 6.5 -9.99902s1.5 -6.33301 1.5 -9c0 -10.667 -7.66699 -16 -23 -16h-419z" />
    <glyph glyph-name="b" unicode="b" horiz-adv-x="1199" 
d="M62 0c-17.333 0 -26.001 8.99902 -26.001 26.999v629c0 17.333 8.66699 26 26 26h868c66.667 0 116.5 -15.167 149.5 -45.5s49.5 -72.5 49.5 -126.5c0 -20.667 -2.83301 -38.334 -8.5 -53.001s-12.5 -27 -20.5 -37s-16.667 -18 -26 -24s-17.333 -10.667 -24 -14
c10.667 -3.33301 22.334 -9.83301 35.001 -19.5s24.334 -22 35.001 -37s19.5 -32.667 26.5 -53s10.5 -42.833 10.5 -67.5c0 -25.333 -4.66699 -50.166 -14 -74.499s-24 -46.166 -44 -65.499s-45.333 -35 -76 -47s-67.334 -18 -110.001 -18h-851zM509.999 312.999
c-17.333 0 -26 8.66602 -26 25.999v65c0 17.333 8.66699 26 26 26h163c33.333 0 56.166 6.33301 68.499 19s18.5 29 18.5 49s-6.16699 36.167 -18.5 48.5s-35.166 18.5 -68.499 18.5h-252v-447h235c38 0 65.333 8.5 82 25.5s25 41.5 25 73.5
c0 32.667 -8.33301 56.834 -25 72.501s-44 23.5 -82 23.5h-146z" />
    <glyph glyph-name="c" unicode="c" horiz-adv-x="1104" 
d="M364 0c-47.333 0 -91.0039 8.49805 -131.004 25.498s-74.667 40.667 -104 71s-52.166 66.333 -68.499 108s-24.5 87.167 -24.5 136.5c0 48.667 7.83301 93.834 23.5 135.501s37.834 77.834 66.501 108.501s63.167 54.5 103.5 71.5s85.166 25.5 134.499 25.5h681
c18 0 27 -8.66699 27 -26v-64c0 -18 -9 -27 -27 -27h-447c-22 0 -40.5 -2.33301 -55.5 -7s-27.167 -13 -36.5 -25s-16 -28 -20 -48s-6 -45.333 -6 -76v-109c0 -34 2.33301 -62.667 7 -86s11.834 -42 21.501 -56s21.834 -24.167 36.501 -30.5s32.334 -9.5 53.001 -9.5h451
c17.333 0 26 -9 26 -27v-64c0 -18 -8.66699 -27 -26 -27h-685z" />
    <glyph glyph-name="d" unicode="d" horiz-adv-x="1248" 
d="M62 0c-17.333 0 -26.0039 9 -26.0039 27v629c0 17.333 8.66699 26 26 26h804c50 0 95.167 -8.66699 135.5 -26s74.833 -41.166 103.5 -71.499s50.834 -66.333 66.501 -108s23.5 -86.834 23.5 -135.501c0 -49.333 -8.16699 -94.833 -24.5 -136.5
s-39.166 -77.667 -68.499 -108s-64.166 -54 -104.499 -71s-84.166 -25.5 -131.499 -25.5h-804zM749.996 409c0 30.667 -2.00098 56.001 -6.00098 76.001s-10.667 36 -20 48s-21.333 20.333 -36 25s-32.667 7 -54 7h-202v-447h202c20 0 37.333 3.16699 52 9.5
s26.834 16.666 36.501 30.999s16.667 33 21 56s6.5 51.5 6.5 85.5v109z" />
    <glyph glyph-name="e" unicode="e" horiz-adv-x="1131" 
d="M578 313c-18 0 -27 8.66699 -27 26v65c0 17.333 9 26 27 26h478c17.333 0 26 -6 26 -18v-81c0 -12 -8.66699 -18 -26 -18h-478zM364 0c-47.333 0 -91.0039 8.49805 -131.004 25.498s-74.667 40.667 -104 71s-52.166 66.333 -68.499 108s-24.5 87.167 -24.5 136.5
c0 48.667 7.83301 93.834 23.5 135.501s37.834 77.834 66.501 108.501s63.167 54.5 103.5 71.5s85.166 25.5 134.499 25.5h699c18 0 27 -8.66699 27 -26v-64c0 -18 -9 -27 -27 -27h-465c-22 0 -40.5 -2.33301 -55.5 -7s-27.167 -13 -36.5 -25s-16 -28 -20 -48
s-6 -45.333 -6 -76v-109c0 -34 2.33301 -62.667 7 -86s11.834 -42 21.501 -56s21.834 -24.167 36.501 -30.5s32.334 -9.5 53.001 -9.5h468c18 0 27 -9 27 -27v-64c0 -18 -9 -27 -27 -27h-702z" />
    <glyph glyph-name="f" unicode="f" horiz-adv-x="1105" 
d="M599 565c-44 0 -74.667 -11.499 -92 -34.499s-26 -60.5 -26 -112.5v-391c0 -18 -9 -27 -27 -27h-383c-17.333 0 -26 9 -26 27v373c0 41.333 6 79.166 18 113.499s30 64 54 89s54.333 44.5 91 58.5s80 21 130 21h726c17.333 0 26 -8.66699 26 -26v-64
c0 -18 -8.66699 -27 -26 -27h-465zM579 313.001c-18 0 -27 8.66699 -27 26v65c0 17.333 9 26 27 26h479c18 0 27 -6 27 -18v-81c0 -12 -9 -18 -27 -18h-479z" />
    <glyph glyph-name="g" unicode="g" horiz-adv-x="1172" 
d="M364 0c-47.333 0 -91.0039 8.49805 -131.004 25.498s-74.667 40.667 -104 71s-52.166 66.333 -68.499 108s-24.5 87.167 -24.5 136.5c0 48.667 7.83301 93.834 23.5 135.501s37.834 77.834 66.501 108.501s63.167 54.5 103.5 71.5s85.166 25.5 134.499 25.5h697
c18 0 27 -8.66699 27 -26v-64c0 -18 -9 -27 -27 -27h-463c-22 0 -40.5 -2.33301 -55.5 -7s-27.167 -13 -36.5 -25s-16 -28 -20 -48s-6 -45.333 -6 -76v-109c0 -34 2.33301 -62.667 7 -86s11.834 -42 21.501 -56s21.834 -24.167 36.501 -30.5s32.334 -9.5 53.001 -9.5h177
v306c0 18 8.66699 27 26 27h286c18 0 27 -9 27 -27v-397c0 -18 -9 -27 -27 -27h-723z" />
    <glyph glyph-name="h" unicode="h" horiz-adv-x="1200" 
d="M777 0c-18 0 -27 9 -27 27v286h-300v-286c0 -18 -8.66699 -27 -26 -27h-344c-18 0 -27 9 -27 27v629c0 17.333 9 26 27 26h344c17.333 0 26 -8.66699 26 -26v-226h300v226c0 17.333 9 26 27 26h344c17.333 0 26 -8.66699 26 -26v-629c0 -18 -8.66699 -27 -26 -27h-344z
" />
    <glyph glyph-name="i" unicode="i" horiz-adv-x="513" 
d="M84 0c-17.333 0 -26 9 -26 27v629c0 17.333 8.66699 26 26 26h345c17.333 0 26 -8.66699 26 -26v-629c0 -18 -8.66699 -27 -26 -27h-345z" />
    <glyph glyph-name="j" unicode="j" horiz-adv-x="947" 
d="M37 0c-17.333 0 -26 8.99902 -26 26.999v64c0 18 8.66699 27 26 27h311c44 0 74.667 11.5 92 34.5s26 60.5 26 112.5v391c0 17.333 9 26 27 26h383c17.333 0 26 -8.66699 26 -26v-374c0 -41.333 -6 -79.166 -18 -113.499s-30 -64 -54 -89s-54.333 -44.5 -91 -58.5
s-80 -21 -130 -21h-572z" />
    <glyph glyph-name="k" unicode="k" horiz-adv-x="1302" 
d="M926 0c-14 0 -25.999 2.16797 -35.999 6.50098s-20.333 11.166 -31 20.499l-342 297c-7.33301 6 -12.333 12.5 -15 19.5s-4 16.5 -4 28.5v29c0 11.333 1.33301 19.666 4 24.999s8 10.333 16 15l400 215c13.333 7.33301 27 13.5 41 18.5s29 7.5 45 7.5h202
c7.33301 0 12.666 -1.66699 15.999 -5s5 -7.33301 5 -12c0 -7.33301 -4 -13 -12 -17l-397 -213l464 -390c9.33301 -7.33301 14 -15.666 14 -24.999c0 -5.33301 -2.33301 -10 -7 -14s-12 -6 -22 -6h-341zM79.001 0.000976562c-17.333 0 -26 9 -26 27v629
c0 17.333 8.66699 26 26 26h344c18 0 27 -8.66699 27 -26v-629c0 -18 -9 -27 -27 -27h-344z" />
    <glyph glyph-name="l" unicode="l" horiz-adv-x="1026" 
d="M338 0c-50 0 -93.333 7.00098 -130 21.001s-67 33.5 -91 58.5s-42 54.667 -54 89s-18 72.166 -18 113.499v374c0 17.333 8.66699 26 26 26h383c18 0 27 -8.66699 27 -26v-391c0 -52 8.66699 -89.5 26 -112.5s48 -34.5 92 -34.5h393c17.333 0 26 -9 26 -27v-64
c0 -18 -8.66699 -27 -26 -27h-654z" />
    <glyph glyph-name="m" unicode="m" horiz-adv-x="1419" 
d="M1008 0c-18 0 -27 9 -27 27v253l-282 -253c-10 -9.33301 -20.333 -16.166 -31 -20.499s-21 -6.5 -31 -6.5h-58c-10 0 -20.833 2.16699 -32.5 6.5s-23.167 11.166 -34.5 20.499l-316 253v-253c0 -18 -9 -27 -27 -27h-93c-18 0 -27 9 -27 27v629c0 17.333 9 26 27 26h86
c22 0 43.333 -8.66699 64 -26l469 -424l501 424c10.667 9.33301 22 16 34 20s24.333 6 37 6h72c18 0 27 -8.66699 27 -26v-629c0 -18 -9 -27 -27 -27h-331z" />
    <glyph glyph-name="n" unicode="n" horiz-adv-x="1282" 
d="M1137 0c-20 0 -37.501 1.33203 -52.501 3.99902s-33.5 8 -55.5 16l-797 298v-291c0 -18 -9 -27 -27 -27h-129c-18 0 -27 9 -27 27v629c0 17.333 9 26 27 26h123c10.667 0 20.334 -0.166992 29.001 -0.5s17 -1.16602 25 -2.49902s16.167 -3.33301 24.5 -6
s17.833 -6 28.5 -10l744 -287v280c0 17.333 9 26 27 26h129c18 0 27 -8.66699 27 -26v-629c0 -18 -9 -27 -27 -27h-69z" />
    <glyph glyph-name="o" unicode="o" horiz-adv-x="1220" 
d="M365 0c-48.667 0 -93.1699 8.66602 -133.503 25.999s-75 41.333 -104 72s-51.5 66.834 -67.5 108.501s-24 86.5 -24 134.5c0 49.333 7.83301 94.833 23.5 136.5s37.834 77.667 66.501 108s63.334 54 104.001 71s85.667 25.5 135 25.5h490c50 0 95.167 -8.66699 135.5 -26
s75 -41.166 104 -71.499s51.333 -66.333 67 -108s23.5 -86.834 23.5 -135.501c0 -48 -8 -92.833 -24 -134.5s-38.5 -77.667 -67.5 -108s-63.667 -54.333 -104 -72s-85.166 -26.5 -134.499 -26.5h-490zM785.997 408.999c0 30.667 -2.00293 56 -6.00293 76s-10.667 36 -20 48
s-21.5 20.333 -36.5 25s-33.5 7 -55.5 7h-136c-20 0 -36.833 -2.5 -50.5 -7.5s-25 -13.5 -34 -25.5s-15.5 -28 -19.5 -48s-6 -45 -6 -75v-109c0 -67.333 8.83301 -114.5 26.5 -141.5s45.5 -40.5 83.5 -40.5h136c20.667 0 38.334 3.16699 53.001 9.5s26.834 16.5 36.501 30.5
s16.834 32.667 21.501 56s7 52 7 86v109z" />
    <glyph glyph-name="p" unicode="p" horiz-adv-x="1167" 
d="M518 241c-17.333 0 -26.001 9 -26.001 27v64c0 18 8.66699 27 26 27h128c16 0 30.833 1.83301 44.5 5.5s25.5 9.5 35.5 17.5s18 18.5 24 31.5s9 29.167 9 48.5c0 35.333 -11 61.333 -33 78s-48.667 25 -80 25h-214v-538c0 -18 -9 -27 -27 -27h-343
c-17.333 0 -26 9 -26 27v629c0 17.333 8.66699 26 26 26h855c32.667 0 63.334 -5 92.001 -15s53.5 -24.5 74.5 -43.5s37.5 -42.5 49.5 -70.5s18 -59.667 18 -95c0 -36 -6.66699 -67.5 -20 -94.5s-31.666 -49.5 -54.999 -67.5s-50.833 -31.667 -82.5 -41
s-65.834 -14 -102.501 -14h-373z" />
    <glyph glyph-name="q" unicode="q" horiz-adv-x="1212" 
d="M658 -118c-17.333 0 -31.3359 8.66602 -42.0029 25.999l-59 92h-192c-48.667 0 -93.167 8.66699 -133.5 26s-75 41.333 -104 72s-51.5 66.834 -67.5 108.501s-24 86.5 -24 134.5c0 49.333 7.83301 94.833 23.5 136.5s37.834 77.667 66.501 108s63.334 54 104.001 71
s85.667 25.5 135 25.5h481c50 0 95.167 -8.66699 135.5 -26s75 -41.166 104 -71.499s51.333 -66.333 67 -108s23.5 -86.834 23.5 -135.501c0 -48 -8 -92.833 -24 -134.5s-38.5 -77.667 -67.5 -108s-63.667 -54.333 -104 -72s-85.166 -26.5 -134.499 -26.5l56 -87
c3.33301 -5.33301 5 -10.333 5 -15c0 -4 -1.33301 -7.66699 -4 -11s-7.66699 -5 -15 -5h-230zM776.997 408.999c0 30.667 -2.00293 56 -6.00293 76s-10.667 36 -20 48s-21.5 20.333 -36.5 25s-33.5 7 -55.5 7h-127c-20 0 -36.833 -2.5 -50.5 -7.5s-25 -13.5 -34 -25.5
s-15.5 -28 -19.5 -48s-6 -45 -6 -75v-109c0 -67.333 8.83301 -114.5 26.5 -141.5s45.5 -40.5 83.5 -40.5h127c20.667 0 38.334 3.16699 53.001 9.5s26.834 16.5 36.501 30.5s16.834 32.667 21.501 56s7 52 7 86v109z" />
    <glyph glyph-name="r" unicode="r" horiz-adv-x="1263" 
d="M894 0c-26.667 0 -48.665 8.99805 -65.998 26.998l-301 309c-5.33301 5.33301 -9.5 10.5 -12.5 15.5s-4.5 12.167 -4.5 21.5v31c0 17.333 8.66699 26 26 26h137c32 0 55.833 6 71.5 18s23.5 28.667 23.5 50c0 44.667 -31.667 67 -95 67h-223v-538c0 -18 -9 -27 -27 -27
h-343c-18 0 -27 9 -27 27v629c0 17.333 9 26 27 26h874c30 0 58 -4.16699 84 -12.5s48.5 -20.166 67.5 -35.499s33.833 -33.666 44.5 -54.999s16 -45 16 -71c0 -28 -5.16699 -53.167 -15.5 -75.5s-24.333 -41.5 -42 -57.5s-38.334 -29 -62.001 -39s-48.834 -17 -75.501 -21
l276 -283c4.66699 -4 7 -9.33301 7 -16c0 -4 -1.5 -7.66699 -4.5 -11s-7.5 -5 -13.5 -5h-342z" />
    <glyph glyph-name="s" unicode="s" horiz-adv-x="1038" 
d="M61 0c-17.333 0 -25.999 8.99902 -25.999 26.999v64c0 18 8.66699 27 26 27h561l-471 221c-25.333 12 -46 24.5 -62 37.5s-28.5 26.667 -37.5 41s-15 29.5 -18 45.5s-4.5 33 -4.5 51c0 22 4 43.167 12 63.5s20.167 38.333 36.5 54s36.666 28 60.999 37
s52.5 13.5 84.5 13.5h736c18 0 27 -8.66699 27 -26v-64c0 -18 -9 -27 -27 -27h-542l470 -221c26 -12 46.833 -24.5 62.5 -37.5s28 -26.667 37 -41s15 -29.666 18 -45.999s4.5 -33.5 4.5 -51.5c0 -22 -4 -43.167 -12 -63.5s-20.167 -38.333 -36.5 -54s-36.5 -28 -60.5 -37
s-52 -13.5 -84 -13.5h-755z" />
    <glyph glyph-name="t" unicode="t" horiz-adv-x="1036" 
d="M339 0c-12.667 0 -19 4.33301 -19 13v552h-292c-12.667 0 -19 3.66699 -19 11v93c0 8.66699 6.33301 13 19 13h981c12.667 0 19 -4.33301 19 -13v-93c0 -7.33301 -6.33301 -11 -19 -11h-293v-552c0 -8.66699 -6 -13 -18 -13h-359z" />
    <glyph glyph-name="u" unicode="u" horiz-adv-x="1188" 
d="M386 0c-61.333 0 -113.669 7.33203 -157.002 21.999s-78.666 35.667 -105.999 63s-47.166 60.333 -59.499 99s-18.5 82 -18.5 130v342c0 17.333 8.66699 26 26 26h374c17.333 0 26 -8.66699 26 -26v-342c0 -61.333 13 -109.333 39 -144s67.333 -52 124 -52h172
c57.333 0 99.5 17.333 126.5 52s40.5 82.667 40.5 144v342c0 17.333 9 26 27 26h120c18 0 27 -8.66699 27 -26v-342c0 -44 -6.83301 -85 -20.5 -123s-34.5 -71.167 -62.5 -99.5s-63.5 -50.666 -106.5 -66.999s-93.5 -24.5 -151.5 -24.5h-420z" />
    <glyph glyph-name="v" unicode="v" 
d="M781 20c-12 -13.333 -25.999 -20.001 -41.999 -20.001h-66c-17.333 0 -32 6.66699 -44 20l-617 628c-6 5.33301 -9 11.333 -9 18c0 10.667 7.66699 16 23 16h419c21.333 0 38.666 -6.66699 51.999 -20l388 -401l403 401c7.33301 6.66699 15 11.667 23 15s17.667 5 29 5
h57c12.667 0 19 -5.66699 19 -17c0 -5.33301 -2.66699 -10.666 -8 -15.999z" />
    <glyph glyph-name="w" unicode="w" horiz-adv-x="1957" 
d="M1372 0c-9.33301 0 -17.833 1.5 -25.5 4.5s-14.167 8.16699 -19.5 15.5l-315 425l-338 -425c-5.33301 -7.33301 -11.5 -12.5 -18.5 -15.5s-14.5 -4.5 -22.5 -4.5h-58c-18.667 0 -33.667 6.66699 -45 20l-519 628c-5.33301 5.33301 -8 11 -8 17c0 11.333 7.33301 17 22 17
h384c11.333 0 21.166 -1.5 29.499 -4.5s15.833 -8.16699 22.5 -15.5l301 -376l303 376c5.33301 7.33301 12.333 12.5 21 15.5s18.667 4.5 30 4.5h63c11.333 0 21.333 -1.5 30 -4.5s15.667 -8.16699 21 -15.5l300 -401l314 401c6 7.33301 13.333 12.5 22 15.5
s18.667 4.5 30 4.5h36c14 0 21 -5.33301 21 -16c0 -5.33301 -2 -11 -6 -17l-476 -629c-5.33301 -7.33301 -11.666 -12.5 -18.999 -15.5s-15 -4.5 -23 -4.5h-57z" />
    <glyph glyph-name="x" unicode="x" horiz-adv-x="1295" 
d="M839 0c-22 0 -41.333 7.33398 -58 22.001l-269 240l-333 -242c-9.33301 -6.66699 -19 -11.667 -29 -15s-21.667 -5 -35 -5h-73c-14 0 -21 5.33301 -21 16c0 6.66699 3.66699 13 11 19l405 296l-351 313c-6.66699 6 -10 12.667 -10 20
c0 5.33301 2.16699 9.66602 6.5 12.999s10.833 5 19.5 5h417c12 0 22.667 -1.83301 32 -5.5s18 -9.16699 26 -16.5l186 -167l234 169c9.33301 6.66699 19 11.667 29 15s21.667 5 35 5h73c14 0 21 -5.33301 21 -16c0 -6.66699 -3.66699 -12.667 -11 -18l-305 -223l433 -387
c7.33301 -6 11 -12.333 11 -19c0 -12.667 -8.66699 -19 -26 -19h-418z" />
    <glyph glyph-name="y" unicode="y" horiz-adv-x="1139" 
d="M397 0c-17.333 0 -26 8.99902 -26 26.999v238l-359 383c-6 6 -9 12 -9 18c0 5.33301 2 9.33301 6 12s8.66699 4 14 4h403c18 0 33 -6.66699 45 -20l266 -292l277 293c7.33301 7.33301 14 12.333 20 15s14 4 24 4h58c6.66699 0 11.5 -1.5 14.5 -4.5s4.5 -6.5 4.5 -10.5
c0 -5.33301 -1.66699 -9.66602 -5 -12.999l-362 -383v-244c0 -18 -9 -27 -27 -27h-344z" />
    <glyph glyph-name="z" unicode="z" horiz-adv-x="1083" 
d="M61 0c-17.333 0 -26 9 -26 27v64c0 11.333 1.33301 19.833 4 25.5s8.66699 13.167 18 22.5l490 426h-465c-18 0 -27 9 -27 27v64c0 17.333 9 26 27 26h934c17.333 0 26 -8.66699 26 -26v-64c0 -11.333 -1.33301 -20 -4 -26s-8.66699 -13.667 -18 -23l-454 -425h462
c18 0 27 -9 27 -27v-64c0 -18 -9 -27 -27 -27h-967z" />
    <glyph glyph-name="braceleft" unicode="{" horiz-adv-x="403" 
d="M261 -109c-8.66699 0 -15.667 2.66797 -21 8.00098l-68 66c-4 4 -6 9.66699 -6 17v338l-17 15h-31c-8.66699 0 -13 4.66699 -13 14v23c0 10 4.33301 15 13 15h31l17 15v298c0 8 2 13.667 6 17l68 66c5.33301 5.33301 12.333 8 21 8h74c9.33301 0 14 -4.66699 14 -14v-28
c0 -8.66699 -4.66699 -13 -14 -13h-62c-4.66699 0 -8 -1.66699 -10 -5l-37 -36c-2 -3.33301 -3 -6.33301 -3 -9v-282c0 -6 -2.33301 -11.333 -7 -16l-27 -27l27 -27c4.66699 -4.66699 7 -10.334 7 -17.001v-321c0 -3.33301 1 -6 3 -8l37 -37c2 -2.66699 5.33301 -4 10 -4h62
c9.33301 0 14 -4.66699 14 -14v-27c0 -10 -4.66699 -15 -14 -15h-74z" />
    <glyph glyph-name="bar" unicode="|" horiz-adv-x="282" 
d="M127 -89c-13.333 0 -20 6.66699 -20 20v820c0 13.333 6.66699 20 20 20h28c13.333 0 20 -6.66699 20 -20v-820c0 -13.333 -6.66699 -20 -20 -20h-28z" />
    <glyph glyph-name="braceright" unicode="}" horiz-adv-x="383" 
d="M163 -101c-5.33301 -5.33301 -12.334 -8 -21.001 -8h-74c-10 0 -15 5 -15 15v27c0 9.33301 5 14 15 14h61c4.66699 0 8.33398 1.33301 11.001 4l36 37c2.66699 2 4 4.66699 4 8v321c0 6.66699 2.33301 12.334 7 17.001l27 27l-27 27c-4.66699 4.66699 -7 10 -7 16v282
c0 3.33301 -1.33301 6.33301 -4 9l-36 36c-3.33301 3.33301 -7 5 -11 5h-61c-10 0 -15 4.33301 -15 13v28c0 9.33301 5 14 15 14h74c8.66699 0 15.667 -2.66699 21 -8l68 -66c4 -4 6 -9.66699 6 -17v-298l17 -15h30c9.33301 0 14 -5 14 -15v-23
c0 -9.33301 -4.66699 -14 -14 -14h-30l-17 -15v-338c0 -6.66699 -2 -12.334 -6 -17.001z" />
    <glyph glyph-name="asciitilde" unicode="~" horiz-adv-x="522" 
d="M359 290c-5.33301 -2.66699 -12.002 -4 -20.002 -4c-2.66699 0 -5 0.166992 -7 0.5s-4.33301 0.833008 -7 1.5l-128 31c-5.33301 1.33301 -9.66602 2 -12.999 2c-2.66699 0 -6 -0.666992 -10 -2l-95 -37c-3.33301 -2.66699 -8.66602 -4 -15.999 -4
c-6.66699 0 -10 4.66699 -10 14v49c0 6.66699 3 11 9 13l101 40c6 2 13 3 21 3c2 0 4 -0.166992 6 -0.5s4.33301 -0.5 7 -0.5l128 -32c2.66699 -0.666992 7 -1 13 -1c4.66699 0 8 0.333008 10 1l95 38c4 2 9.33301 3 16 3s10 -4.66699 10 -14v-49
c0 -7.33301 -3 -11.333 -9 -12z" />
    <glyph glyph-name="nonbreakingspace" unicode="&#xa0;" horiz-adv-x="353" 
 />
    <glyph glyph-name="exclamdown" unicode="&#xa1;" horiz-adv-x="412" 
d="M286.008 682c29.998 0 44.9971 -14.999 44.9971 -44.9971v-143.991c0 -29.3311 -14.999 -43.9971 -44.9971 -43.9971h-158.99c-29.998 0 -44.9971 14.666 -44.9971 43.9971v143.991c0 29.998 14.999 44.9971 44.9971 44.9971h158.99zM283.008 396.018
c17.332 0 27.3301 -8.99902 29.9971 -26.998l44.9971 -330.98c0.666992 -2.66699 1 -6 1 -9.99902c0 -18.665 -9.66602 -27.998 -28.998 -27.998h-248.984c-17.999 0 -26.999 8.99902 -26.999 26.998c0 2 0.166992 3.83301 0.5 5.5
c0.333008 1.66602 0.5 3.49902 0.5 5.49902l43.998 330.98c3.33301 17.999 13.666 26.998 30.999 26.998h152.99z" />
    <glyph glyph-name="cent" unicode="&#xa2;" horiz-adv-x="629" 
d="M412 118l-0.00195312 -91.001c0 -18 -8.66699 -27 -26 -27h-60c-17.333 0 -26 9 -26 27v91h-47c-31.333 0 -60.166 5.5 -86.499 16.5s-49.166 26.333 -68.499 46s-34.333 43.167 -45 70.5s-16 57.333 -16 90c0 32 5.16699 61.667 15.5 89s25 51 44 71
s41.833 35.667 68.5 47s56 17 88 17h47v91c0 17.333 8.66699 26 26 26h60c17.333 0 26 -8.66699 26 -26v-91h154c17.333 0 26 -9 26 -27v-24c0 -18 -8.66699 -27 -26 -27h-188c-14 0 -26 -1.5 -36 -4.5s-18.167 -8.16699 -24.5 -15.5s-10.833 -17.666 -13.5 -30.999
s-4 -30 -4 -50v-72c0 -44.667 6 -75.667 18 -93s32 -26 60 -26h189c18 0 27 -9 27 -27v-24c0 -17.333 -9 -26 -27 -26h-155z" />
    <glyph glyph-name="yen" unicode="&#xa5;" horiz-adv-x="841" 
d="M564 151l0.000976562 -124c0 -18 -6.66699 -27 -20 -27h-252c-12.667 0 -19 9 -19 27v124h-183c-18 0 -27 9 -27 27v29c0 17.333 9 26 27 26h183v70h-183c-18 0 -27 9 -27 27v28c0 18 9 27 27 27h137l-182 263c-4.66699 6.66699 -7 12.667 -7 18s1.66699 9.33301 5 12
s6.66602 4 9.99902 4h296c12.667 0 23.667 -6.66699 33 -20l154 -231l163 232c5.33301 7.33301 10.333 12.333 15 15s10.667 4 18 4h51c5.33301 0 9 -1.5 11 -4.5s3 -6.5 3 -10.5c0 -2 -0.333008 -4.33301 -1 -7s-1.66699 -4.66699 -3 -6l-187 -269h148
c17.333 0 26 -9 26 -27v-28c0 -18 -8.66699 -27 -26 -27h-190v-70h190c17.333 0 26 -8.66699 26 -26v-29c0 -18 -8.66699 -27 -26 -27h-190z" />
    <glyph glyph-name="brokenbar" unicode="&#xa6;" horiz-adv-x="282" 
d="M127 -89c-13.333 0 -20 6.66699 -20 20v317c0 13.333 6.66699 20 20 20h28c13.333 0 20 -6.66699 20 -20v-317c0 -13.333 -6.66699 -20 -20 -20h-28zM127 414c-13.333 0 -20 7 -20 21v316c0 13.333 6.66699 20 20 20h28c13.333 0 20 -6.66699 20 -20v-316
c0 -14 -6.66699 -21 -20 -21h-28z" />
    <glyph glyph-name="dieresis" unicode="&#xa8;" horiz-adv-x="487" 
d="M73 742c-13.333 0 -20 6.33301 -20 19v131c0 12 6.66699 18 20 18h98c14 0 21 -6 21 -18v-131c0 -12.667 -7 -19 -21 -19h-98zM315 742c-12.667 0 -19 6.33301 -19 19v131c0 12 6.33301 18 19 18h98c14 0 21 -6 21 -18v-131c0 -12.667 -7 -19 -21 -19h-98z" />
    <glyph glyph-name="ordfeminine" unicode="&#xaa;" horiz-adv-x="835" 
d="M562 267c-12 0 -21.334 3.99902 -28.001 11.999l-213 220l-169 -167h251c9.33301 0 14 -5 14 -15v-35c0 -10 -4.66699 -15 -14 -15h-364c-6.66699 0 -10 3 -10 9c0 4 1.33301 7 4 9l345 347c6.66699 6.66699 14.334 10 23.001 10h36c9.33301 0 17.333 -3.33301 24 -10
l340 -346c3.33301 -3.33301 5 -6.66602 5 -9.99902c0 -6 -4.33301 -9 -13 -9h-231z" />
    <glyph glyph-name="guillemotleft" unicode="&#xab;" horiz-adv-x="564" 
d="M518 193c-6 -9.33301 -13.333 -14.001 -22 -14.001c-4.66699 0 -9.66699 1.66699 -15 5l-158 91c-14 8 -21 21.667 -21 41v38c0 19.333 7 33 21 41l158 91c5.33301 3.33301 10.333 5 15 5c8.66699 0 16 -4.66699 22 -14l14 -25c2.66699 -5.33301 4 -10.333 4 -15
c0 -10 -4.66699 -17.333 -14 -22l-138 -80l138 -80c9.33301 -5.33301 14 -12.666 14 -21.999c0 -4.66699 -1.33301 -9.66699 -4 -15zM241 192.999c-5.33301 -9.33301 -12.333 -14.0029 -21 -14.0029c-4.66699 0 -9.66699 1.66699 -15 5l-158 91c-14 8 -21 21.667 -21 41v38
c0 19.333 7 33 21 41l158 91c5.33301 3.33301 10.333 5 15 5c8.66699 0 15.667 -4.66699 21 -14l15 -25c1.33301 -3.33301 2.33301 -6.16602 3 -8.49902s1 -4.5 1 -6.5c0 -10 -4.66699 -17.333 -14 -22l-138 -80l138 -80c9.33301 -5.33301 14 -12.666 14 -21.999
c0 -2 -0.333008 -4.16699 -1 -6.5s-1.66699 -5.16602 -3 -8.49902z" />
    <glyph glyph-name="macron" unicode="&#xaf;" horiz-adv-x="474" 
d="M73 763c-13.333 0 -20 6 -20 18v56c0 12.667 6.66699 19 20 19h328c12.667 0 19 -6.33301 19 -19v-56c0 -12 -6.33301 -18 -19 -18h-328z" />
    <glyph glyph-name="degree" unicode="&#xb0;" horiz-adv-x="397" 
d="M267 615h-137v-190h137v190zM96 357c-28.667 0 -43 17.333 -43 52v222c0 34 14.333 51 43 51h205c28.667 0 43 -17 43 -51v-222c0 -34.667 -14.333 -52 -43 -52h-205z" />
    <glyph glyph-name="plusminus" unicode="&#xb1;" horiz-adv-x="747" 
d="M359 21c-18 0 -27 9 -27 27v253h-252c-18 0 -27 9 -27 27v28c0 18 9 27 27 27h252v252c0 18 9 27 27 27h29c17.333 0 26 -9 26 -27v-252h253c18 0 27 -9 27 -27v-28c0 -18 -9 -27 -27 -27h-253v-253c0 -18 -8.66699 -27 -26 -27h-29zM80 -125c-18 0 -27 9 -27 27v28
c0 18 9 27 27 27h587c18 0 27 -9 27 -27v-28c0 -18 -9 -27 -27 -27h-587z" />
    <glyph glyph-name="twosuperior" unicode="&#xb2;" horiz-adv-x="568" 
d="M53 365c-8.66699 0 -12.9971 4.33496 -12.9971 13.002v66c0 25.333 2.83301 46 8.5 62s16.5 28.5 32.5 37.5s38 15 66 18s64.667 4.5 110 4.5h51c13.333 0 23.666 3.66699 30.999 11s11 17.666 11 30.999c0 26 -14 39 -42 39h-241c-9.33301 0 -14 4.66699 -14 14v32
c0 8.66699 4.66699 13 14 13h343c19.333 0 36.166 -2.83301 50.499 -8.5s26.166 -13.334 35.499 -23.001s16.333 -20.5 21 -32.5s7 -24.333 7 -37c0 -12 -2.16699 -23.833 -6.5 -35.5s-11.333 -22 -21 -31s-21.667 -16.333 -36 -22s-31.5 -8.5 -51.5 -8.5h-119
c-26 0 -42.667 -4 -50 -12s-11 -21 -11 -39v-33h286c8.66699 0 13 -4.33301 13 -13v-33c0 -8.66699 -4.33301 -13 -13 -13h-462z" />
    <glyph glyph-name="threesuperior" unicode="&#xb3;" horiz-adv-x="543" 
d="M45 365c-9.33301 0 -14 4.33203 -14 12.999v33c0 8.66699 4.66699 13 14 13h217c35.333 0 53 16.667 53 50c0 31.333 -17.667 47 -53 47h-118c-8.66699 0 -13 4.33301 -13 13v32c0 9.33301 4.33301 14 13 14h126c17.333 0 29 3.16699 35 9.5s9 14.5 9 24.5s-3 18 -9 24
s-17.667 9 -35 9h-222c-8.66699 0 -13 4.66699 -13 14v32c0 8.66699 4.33301 13 13 13h351c33.333 0 58.166 -7.66699 74.499 -23s24.5 -36.333 24.5 -63c0 -10.667 -1.33301 -19.667 -4 -27s-6 -13.5 -10 -18.5s-8.33301 -8.83301 -13 -11.5l-12 -7
c10.667 -3.33301 22.167 -12.666 34.5 -27.999s18.5 -35.333 18.5 -60c0 -12.667 -2.33301 -25.167 -7 -37.5s-12 -23.333 -22 -33s-22.667 -17.5 -38 -23.5s-33.666 -9 -54.999 -9h-345z" />
    <glyph glyph-name="acute" unicode="&#xb4;" horiz-adv-x="451" 
d="M93 714c-6.66699 -3.33301 -14.333 -4.99902 -23 -4.99902c-11.333 0 -17 6.66699 -17 20v45c0 9.33301 6 16.666 18 21.999l278 132c6 3.33301 11.5 5.33301 16.5 6s9.83301 1 14.5 1c11.333 0 17 -6.66699 17 -20v-53c0 -10.667 -5 -17 -15 -19z" />
    <glyph glyph-name="periodcentered" unicode="&#xb7;" horiz-adv-x="355" 
d="M98 214c-30 0 -45 14.667 -45 44v145c0 29.333 15 44 45 44h159c30 0 45 -14.667 45 -44v-145c0 -29.333 -15 -44 -45 -44h-159z" />
    <glyph glyph-name="cedilla" unicode="&#xb8;" horiz-adv-x="229" 
d="M86 -161c-11.333 0 -18.001 6.33301 -20.001 19l-12 111c-0.666992 4.66699 -1 9 -1 13v11v7h122v-7v-24l-13 -111c-1.33301 -12.667 -7.66602 -19 -18.999 -19h-57z" />
    <glyph glyph-name="onesuperior" unicode="&#xb9;" horiz-adv-x="305" 
d="M89 365c-6.66699 0 -9.99902 2 -9.99902 6v276h-37c-8.66699 0 -13 4.66699 -13 14v32c0 8.66699 4.33301 13 13 13h149c25.333 0 44.666 -5.16699 57.999 -15.5s20 -24.833 20 -43.5v-276c0 -4 -3.33301 -6 -10 -6h-170z" />
    <glyph glyph-name="ordmasculine" unicode="&#xba;" horiz-adv-x="725" 
d="M228 267c-27.333 0 -52.166 4.83398 -74.499 14.501s-41.5 22.834 -57.5 39.501s-28.333 36.5 -37 59.5s-13 47.833 -13 74.5c0 27.333 4.33301 52.5 13 75.5s21 42.667 37 59s35.167 29.166 57.5 38.499s47.166 14 74.499 14h269c27.333 0 52.166 -4.66699 74.499 -14
s41.5 -22.333 57.5 -39s28.333 -36.5 37 -59.5s13 -47.833 13 -74.5s-4.33301 -51.334 -13 -74.001s-21 -42.5 -37 -59.5s-35.167 -30.333 -57.5 -40s-47.166 -14.5 -74.499 -14.5h-269zM459 492.001c0 33.333 -4.83496 56 -14.502 68s-26.167 18 -49.5 18h-76
c-21.333 0 -36.666 -6 -45.999 -18s-14 -34.667 -14 -68v-60c0 -37.333 4.83301 -63.333 14.5 -78s24.834 -22 45.501 -22h76c22 0 38.167 7.16699 48.5 21.5s15.5 40.5 15.5 78.5v60z" />
    <glyph glyph-name="guillemotright" unicode="&#xbb;" horiz-adv-x="564" 
d="M81 184c-5.33301 -3.33301 -10.333 -4.99707 -15 -4.99707c-8.66699 0 -15.667 4.66699 -21 14l-15 25c-1.33301 3.33301 -2.33301 6.16602 -3 8.49902s-1 4.5 -1 6.5c0 9.33301 4.66699 16.666 14 21.999l138 80l-138 80c-9.33301 4.66699 -14 12 -14 22
c0 2 0.333008 4.16699 1 6.5s1.66699 5.16602 3 8.49902l15 25c5.33301 9.33301 12.333 14 21 14c4.66699 0 9.66699 -1.66699 15 -5l158 -91c14 -8 21 -21.667 21 -41v-38c0 -19.333 -7 -33 -21 -41zM357 184.003c-5.33301 -3.33301 -10.333 -4.99707 -15 -4.99707
c-8.66699 0 -15.667 4.66699 -21 14l-15 25c-1.33301 3.33301 -2.33301 6.16602 -3 8.49902s-1 4.5 -1 6.5c0 9.33301 4.66699 16.666 14 21.999l138 80l-138 80c-9.33301 4.66699 -14 12 -14 22c0 2 0.333008 4.16699 1 6.5s1.66699 5.16602 3 8.49902l15 25
c5.33301 9.33301 12.333 14 21 14c4.66699 0 9.66699 -1.66699 15 -5l158 -91c14 -8 21 -21.667 21 -41v-38c0 -19.333 -7 -33 -21 -41z" />
    <glyph glyph-name="onequarter" unicode="&#xbc;" horiz-adv-x="1033" 
d="M160 365c-6.66699 0 -9.99902 2 -9.99902 6v276h-37c-8.66699 0 -13 4.66699 -13 14v32c0 8.66699 4.33301 13 13 13h149c25.333 0 44.666 -5.16699 57.999 -15.5s20 -24.833 20 -43.5v-276c0 -4 -3.33301 -6 -10 -6h-170zM132.001 -20
c-6.66699 -6.66699 -12.332 -11 -16.999 -13s-11.334 -3 -20.001 -3h-41c-6 0 -10.667 1.83301 -14 5.5s-5 7.83398 -5 12.501c0 6 2.33301 11.333 7 16l729 704c6.66699 6.66699 12.5 11 17.5 13s11.833 3 20.5 3h40c6 0 10.667 -1.83301 14 -5.5s5 -7.83398 5 -12.501
c0 -6 -2.33301 -11.333 -7 -16zM772.003 -9c-8.66699 0 -13 4.33301 -13 13v61h-299c-8.66699 0 -13 4.33301 -13 13v24c0 8 3.33301 14 10 18l260 200c10 8 21.667 12 35 12h182c8.66699 0 13 -4.33301 13 -13v-200h37c8.66699 0 13 -4.33301 13 -13v-28
c0 -8.66699 -4.33301 -13 -13 -13h-37v-61c0 -8.66699 -4.33301 -13 -13 -13h-162zM759.003 267l-190 -148h190v148z" />
    <glyph glyph-name="onehalf" unicode="&#xbd;" horiz-adv-x="1057" 
d="M169 365c-6.66699 0 -9.99902 2 -9.99902 6v276h-37c-8.66699 0 -13 4.66699 -13 14v32c0 8.66699 4.33301 13 13 13h149c25.333 0 44.666 -5.16699 57.999 -15.5s20 -24.833 20 -43.5v-276c0 -4 -3.33301 -6 -10 -6h-170zM132.001 -20
c-6.66699 -6.66699 -12.332 -11 -16.999 -13s-11.334 -3 -20.001 -3h-41c-6 0 -10.667 1.83301 -14 5.5s-5 7.83398 -5 12.501c0 6 2.33301 11.333 7 16l729 704c6.66699 6.66699 12.5 11 17.5 13s11.833 3 20.5 3h40c6 0 10.667 -1.83301 14 -5.5s5 -7.83398 5 -12.501
c0 -6 -2.33301 -11.333 -7 -16zM546.003 -9c-8.66699 0 -12.9971 4.33496 -12.9971 13.002v66c0 25.333 2.83301 46 8.5 62s16.5 28.5 32.5 37.5s38 15 66 18s64.667 4.5 110 4.5h51c13.333 0 23.666 3.66699 30.999 11s11 17.666 11 30.999c0 26 -14 39 -42 39h-241
c-9.33301 0 -14 4.66699 -14 14v32c0 8.66699 4.66699 13 14 13h343c19.333 0 36.166 -2.83301 50.499 -8.5s26.166 -13.334 35.499 -23.001s16.333 -20.5 21 -32.5s7 -24.333 7 -37c0 -12 -2.16699 -23.833 -6.5 -35.5s-11.333 -22 -21 -31s-21.667 -16.333 -36 -22
s-31.5 -8.5 -51.5 -8.5h-119c-26 0 -42.667 -4 -50 -12s-11 -21 -11 -39v-33h286c8.66699 0 13 -4.33301 13 -13v-33c0 -8.66699 -4.33301 -13 -13 -13h-462z" />
    <glyph glyph-name="threequarters" unicode="&#xbe;" horiz-adv-x="1134" 
d="M49 365c-9.33301 0 -14 4.33203 -14 12.999v33c0 8.66699 4.66699 13 14 13h217c35.333 0 53 16.667 53 50c0 31.333 -17.667 47 -53 47h-118c-8.66699 0 -13 4.33301 -13 13v32c0 9.33301 4.33301 14 13 14h126c17.333 0 29 3.16699 35 9.5s9 14.5 9 24.5s-3 18 -9 24
s-17.667 9 -35 9h-222c-8.66699 0 -13 4.66699 -13 14v32c0 8.66699 4.33301 13 13 13h351c33.333 0 58.166 -7.66699 74.499 -23s24.5 -36.333 24.5 -63c0 -10.667 -1.33301 -19.667 -4 -27s-6 -13.5 -10 -18.5s-8.33301 -8.83301 -13 -11.5l-12 -7
c10.667 -3.33301 22.167 -12.666 34.5 -27.999s18.5 -35.333 18.5 -60c0 -12.667 -2.33301 -25.167 -7 -37.5s-12 -23.333 -22 -33s-22.667 -17.5 -38 -23.5s-33.666 -9 -54.999 -9h-345zM260 -20.001c-6.66699 -6.66699 -12.332 -11 -16.999 -13s-11.334 -3 -20.001 -3h-41
c-6 0 -10.667 1.83301 -14 5.5s-5 7.83398 -5 12.501c0 6 2.33301 11.333 7 16l729 704c6.66699 6.66699 12.5 11 17.5 13s11.833 3 20.5 3h40c6 0 10.667 -1.83301 14 -5.5s5 -7.83398 5 -12.501c0 -6 -2.33301 -11.333 -7 -16zM873.002 -9.00098
c-8.66699 0 -13 4.33301 -13 13v61h-299c-8.66699 0 -13 4.33301 -13 13v24c0 8 3.33301 14 10 18l260 200c10 8 21.667 12 35 12h182c8.66699 0 13 -4.33301 13 -13v-200h37c8.66699 0 13 -4.33301 13 -13v-28c0 -8.66699 -4.33301 -13 -13 -13h-37v-61
c0 -8.66699 -4.33301 -13 -13 -13h-162zM860.002 266.999l-190 -148h190v148z" />
    <glyph glyph-name="questiondown" unicode="&#xbf;" horiz-adv-x="859" 
d="M672.012 682c29.3311 0 43.9971 -14.999 43.9971 -44.9971v-143.991c0 -29.3311 -14.666 -43.9971 -43.9971 -43.9971h-159.99c-29.332 0 -43.998 14.666 -43.998 43.9971v143.991c0 29.998 14.666 44.9971 43.998 44.9971h159.99zM373.029 353.021
c20.665 0 37.999 0.166016 51.998 0.499023s25.832 1.33301 35.498 3s16.999 4 21.999 7c4.99902 3 8.83203 7.16602 11.499 12.499c5.99902 13.333 14.998 19.999 26.9971 19.999h135.992c17.999 0 26.998 -8.99902 26.998 -26.998v-24.999
c0 -6.66602 -1 -15.165 -3 -25.498s-6.83301 -20.499 -14.499 -30.498s-19.165 -18.499 -34.498 -25.499c-15.332 -6.99902 -36.6641 -10.499 -63.9961 -10.499h-186.988c-23.332 0 -39.998 -7 -49.9971 -20.999s-14.999 -29.3311 -14.999 -45.9971
c0 -17.332 5 -32.998 14.999 -46.9971s26.665 -20.999 49.9971 -20.999h433.974c17.999 0 26.998 -8.99902 26.998 -26.998v-63.9961c0 -17.332 -8.99902 -25.998 -26.998 -25.998h-569.966c-37.9971 0 -70.6621 5 -97.9941 14.999
c-27.3311 9.99902 -49.9961 23.3311 -67.9951 39.9961c-17.999 16.666 -31.332 35.665 -39.998 56.9971s-12.999 42.9971 -12.999 64.9961s4.33301 43.498 12.999 64.4971s21.999 39.8311 39.998 56.4961s40.8311 29.998 68.4961 39.998
c27.665 9.99902 60.4961 14.999 98.4932 14.999h126.992z" />
    <glyph glyph-name="Agrave" unicode="&#xc0;" 
d="M974 0c-21.333 0 -38.668 6.66602 -52.001 19.999l-387 401l-306 -303h454c18 0 27 -9 27 -27v-64c0 -18 -9 -27 -27 -27h-661c-12.667 0 -19 5.66699 -19 17c0 2 0.5 4.5 1.5 7.5s3.16699 5.83301 6.5 8.5l627 630c12.667 12.667 26.667 19 42 19h66
c16.667 0 31.334 -6.33301 44.001 -19l618 -628c3.33301 -3.33301 5.5 -6.66602 6.5 -9.99902s1.5 -6.33301 1.5 -9c0 -10.667 -7.66699 -16 -23 -16h-419zM525.998 842.999c-10 2 -15.001 8.33203 -15.001 18.999v53c0 13.333 5.66699 20 17 20
c4.66699 0 9.66699 -0.333008 15 -1s10.666 -2.66699 15.999 -6l279 -132c12 -5.33301 18 -12.666 18 -21.999v-45c0 -13.333 -6 -20 -18 -20c-3.33301 0 -6.66602 0.333008 -9.99902 1s-7.66602 2 -12.999 4z" />
    <glyph glyph-name="Aacute" unicode="&#xc1;" 
d="M974 0c-21.333 0 -38.668 6.66602 -52.001 19.999l-387 401l-306 -303h454c18 0 27 -9 27 -27v-64c0 -18 -9 -27 -27 -27h-661c-12.667 0 -19 5.66699 -19 17c0 2 0.5 4.5 1.5 7.5s3.16699 5.83301 6.5 8.5l627 630c12.667 12.667 26.667 19 42 19h66
c16.667 0 31.334 -6.33301 44.001 -19l618 -628c3.33301 -3.33301 5.5 -6.66602 6.5 -9.99902s1.5 -6.33301 1.5 -9c0 -10.667 -7.66699 -16 -23 -16h-419zM603.998 713.999c-6.66699 -3.33301 -14.333 -4.99902 -23 -4.99902c-11.333 0 -17 6.66699 -17 20v45
c0 9.33301 6 16.666 18 21.999l278 132c6 3.33301 11.5 5.33301 16.5 6s9.83301 1 14.5 1c11.333 0 17 -6.66699 17 -20v-53c0 -10.667 -5 -17 -15 -19z" />
    <glyph glyph-name="Acircumflex" unicode="&#xc2;" 
d="M974 0c-21.333 0 -38.668 6.66602 -52.001 19.999l-387 401l-306 -303h454c18 0 27 -9 27 -27v-64c0 -18 -9 -27 -27 -27h-661c-12.667 0 -19 5.66699 -19 17c0 2 0.5 4.5 1.5 7.5s3.16699 5.83301 6.5 8.5l627 630c12.667 12.667 26.667 19 42 19h66
c16.667 0 31.334 -6.33301 44.001 -19l618 -628c3.33301 -3.33301 5.5 -6.66602 6.5 -9.99902s1.5 -6.33301 1.5 -9c0 -10.667 -7.66699 -16 -23 -16h-419zM709.998 822.999l-176.997 -98c-5.33301 -2 -10 -3.83301 -14 -5.5s-8.33301 -2.5 -13 -2.5c-10.667 0 -16 7 -16 21
v58c0 8 4 15 12 21l192 109c5.33301 2.66699 10.666 4 15.999 4s10.666 -1.33301 15.999 -4l192 -109c7.33301 -5.33301 11 -12.333 11 -21v-58c0 -14 -5 -21 -15 -21c-4 0 -8.33301 0.833008 -13 2.5s-9.33398 3.5 -14.001 5.5z" />
    <glyph glyph-name="Atilde" unicode="&#xc3;" 
d="M974 0c-21.333 0 -38.668 6.66602 -52.001 19.999l-387 401l-306 -303h454c18 0 27 -9 27 -27v-64c0 -18 -9 -27 -27 -27h-661c-12.667 0 -19 5.66699 -19 17c0 2 0.5 4.5 1.5 7.5s3.16699 5.83301 6.5 8.5l627 630c12.667 12.667 26.667 19 42 19h66
c16.667 0 31.334 -6.33301 44.001 -19l618 -628c3.33301 -3.33301 5.5 -6.66602 6.5 -9.99902s1.5 -6.33301 1.5 -9c0 -10.667 -7.66699 -16 -23 -16h-419zM828.998 753.999c-4.66699 -2.66699 -9.16895 -4.33203 -13.502 -4.99902s-8.16602 -1 -11.499 -1
c-7.33301 0 -12.666 0.333008 -15.999 1l-155 46c-3.33301 0.666992 -7.33301 1 -12 1c-4 0 -8 -1 -12 -3l-98 -44c-3.33301 -1.33301 -6.5 -2.5 -9.5 -3.5s-5.83301 -1.5 -8.5 -1.5c-10 0 -15 5 -15 15v55c0 13.333 5.33301 21.666 16 24.999l98 47
c10 3.33301 18.667 5 26 5c6.66699 0 11.667 -0.666992 15 -2l155 -44c2.66699 -0.666992 5 -1 7 -1h5c2 0 4 0.166992 6 0.5s4 0.5 6 0.5l99 44c5.33301 3.33301 11 5 17 5c10 0 15 -4.33301 15 -13v-57c0 -12 -5.33301 -20 -16 -24z" />
    <glyph glyph-name="Adieresis" unicode="&#xc4;" 
d="M974 0c-21.333 0 -38.668 6.66602 -52.001 19.999l-387 401l-306 -303h454c18 0 27 -9 27 -27v-64c0 -18 -9 -27 -27 -27h-661c-12.667 0 -19 5.66699 -19 17c0 2 0.5 4.5 1.5 7.5s3.16699 5.83301 6.5 8.5l627 630c12.667 12.667 26.667 19 42 19h66
c16.667 0 31.334 -6.33301 44.001 -19l618 -628c3.33301 -3.33301 5.5 -6.66602 6.5 -9.99902s1.5 -6.33301 1.5 -9c0 -10.667 -7.66699 -16 -23 -16h-419zM539.998 741.999c-13.333 0 -20 6.33301 -20 19v131c0 12 6.66699 18 20 18h98c14 0 21 -6 21 -18v-131
c0 -12.667 -7 -19 -21 -19h-98zM781.998 741.999c-12.667 0 -19 6.33301 -19 19v131c0 12 6.33301 18 19 18h98c14 0 21 -6 21 -18v-131c0 -12.667 -7 -19 -21 -19h-98z" />
    <glyph glyph-name="Aring" unicode="&#xc5;" 
d="M974 0c-21.333 0 -38.668 6.66602 -52.001 19.999l-387 401l-306 -303h454c18 0 27 -9 27 -27v-64c0 -18 -9 -27 -27 -27h-661c-12.667 0 -19 5.66699 -19 17c0 2 0.5 4.5 1.5 7.5s3.16699 5.83301 6.5 8.5l627 630c12.667 12.667 26.667 19 42 19h66
c16.667 0 31.334 -6.33301 44.001 -19l618 -628c3.33301 -3.33301 5.5 -6.66602 6.5 -9.99902s1.5 -6.33301 1.5 -9c0 -10.667 -7.66699 -16 -23 -16h-419zM611.998 698.999c-26 0 -39 16 -39 48v189c0 32 13 48 39 48h197c25.333 0 38 -16 38 -48v-189
c0 -32 -12.667 -48 -38 -48h-197zM777.998 914.999c0 5.33301 -2 8 -6 8h-125c-3.33301 0 -5 -2.33301 -5 -7v-150c0 -4 1.66699 -6 5 -6h125c4 0 6 2.66699 6 8v147z" />
    <glyph glyph-name="AE" unicode="&#xc6;" horiz-adv-x="1865" 
d="M962 0c-49.333 0 -83.333 12.5 -102 37.5s-28 59.833 -28 104.5v423h-125l-444 -447h454c18 0 27 -9 27 -27v-64c0 -18 -9 -27 -27 -27h-695c-12.667 0 -19 5.66699 -19 17c0 2 0.5 4.5 1.5 7.5s3.16699 5.83301 6.5 8.5l627 630c12.667 12.667 26.667 19 42 19h1117
c18 0 27 -8.66699 27 -26v-64c0 -18 -9 -27 -27 -27h-574v-394c0 -17.333 4.5 -30.5 13.5 -39.5s24.167 -13.5 45.5 -13.5h518c18 0 27 -9 27 -27v-64c0 -18 -9 -27 -27 -27h-838zM1321 313c-18 0 -27 8.66699 -27 26v65c0 17.333 9 26 27 26h469c17.333 0 26 -6 26 -18v-81
c0 -12 -8.66699 -18 -26 -18h-469z" />
    <glyph glyph-name="Ccedilla" unicode="&#xc7;" horiz-adv-x="1104" 
d="M364 0c-47.333 0 -91.0039 8.49805 -131.004 25.498s-74.667 40.667 -104 71s-52.166 66.333 -68.499 108s-24.5 87.167 -24.5 136.5c0 48.667 7.83301 93.834 23.5 135.501s37.834 77.834 66.501 108.501s63.167 54.5 103.5 71.5s85.166 25.5 134.499 25.5h681
c18 0 27 -8.66699 27 -26v-64c0 -18 -9 -27 -27 -27h-447c-22 0 -40.5 -2.33301 -55.5 -7s-27.167 -13 -36.5 -25s-16 -28 -20 -48s-6 -45.333 -6 -76v-109c0 -34 2.33301 -62.667 7 -86s11.834 -42 21.501 -56s21.834 -24.167 36.501 -30.5s32.334 -9.5 53.001 -9.5h451
c17.333 0 26 -9 26 -27v-64c0 -18 -8.66699 -27 -26 -27h-685zM549.996 -216.002c-11.333 0 -18.001 6.33301 -20.001 19l-12 111c-0.666992 4 -1 8.16699 -1 12.5v11.5v11c0 10 6 15 18 15h104c12 0 18 -5 18 -15v-11v-11.5c0 -4.33301 -0.333008 -8.5 -1 -12.5l-12 -111
c-1.33301 -12.667 -7.66602 -19 -18.999 -19h-75z" />
    <glyph glyph-name="Egrave" unicode="&#xc8;" horiz-adv-x="1131" 
d="M578 313c-18 0 -27 8.66699 -27 26v65c0 17.333 9 26 27 26h478c17.333 0 26 -6 26 -18v-81c0 -12 -8.66699 -18 -26 -18h-478zM364 0c-47.333 0 -91.0039 8.49805 -131.004 25.498s-74.667 40.667 -104 71s-52.166 66.333 -68.499 108s-24.5 87.167 -24.5 136.5
c0 48.667 7.83301 93.834 23.5 135.501s37.834 77.834 66.501 108.501s63.167 54.5 103.5 71.5s85.166 25.5 134.499 25.5h699c18 0 27 -8.66699 27 -26v-64c0 -18 -9 -27 -27 -27h-465c-22 0 -40.5 -2.33301 -55.5 -7s-27.167 -13 -36.5 -25s-16 -28 -20 -48
s-6 -45.333 -6 -76v-109c0 -34 2.33301 -62.667 7 -86s11.834 -42 21.501 -56s21.834 -24.167 36.501 -30.5s32.334 -9.5 53.001 -9.5h468c18 0 27 -9 27 -27v-64c0 -18 -9 -27 -27 -27h-702zM468.996 842.998c-10 2 -15.001 8.33203 -15.001 18.999v53
c0 13.333 5.66699 20 17 20c4.66699 0 9.66699 -0.333008 15 -1s10.666 -2.66699 15.999 -6l279 -132c12 -5.33301 18 -12.666 18 -21.999v-45c0 -13.333 -6 -20 -18 -20c-3.33301 0 -6.66602 0.333008 -9.99902 1s-7.66602 2 -12.999 4z" />
    <glyph glyph-name="Eacute" unicode="&#xc9;" horiz-adv-x="1131" 
d="M578 313c-18 0 -27 8.66699 -27 26v65c0 17.333 9 26 27 26h478c17.333 0 26 -6 26 -18v-81c0 -12 -8.66699 -18 -26 -18h-478zM364 0c-47.333 0 -91.0039 8.49805 -131.004 25.498s-74.667 40.667 -104 71s-52.166 66.333 -68.499 108s-24.5 87.167 -24.5 136.5
c0 48.667 7.83301 93.834 23.5 135.501s37.834 77.834 66.501 108.501s63.167 54.5 103.5 71.5s85.166 25.5 134.499 25.5h699c18 0 27 -8.66699 27 -26v-64c0 -18 -9 -27 -27 -27h-465c-22 0 -40.5 -2.33301 -55.5 -7s-27.167 -13 -36.5 -25s-16 -28 -20 -48
s-6 -45.333 -6 -76v-109c0 -34 2.33301 -62.667 7 -86s11.834 -42 21.501 -56s21.834 -24.167 36.501 -30.5s32.334 -9.5 53.001 -9.5h468c18 0 27 -9 27 -27v-64c0 -18 -9 -27 -27 -27h-702zM520.996 713.998c-6.66699 -3.33301 -14.333 -4.99902 -23 -4.99902
c-11.333 0 -17 6.66699 -17 20v45c0 9.33301 6 16.666 18 21.999l278 132c6 3.33301 11.5 5.33301 16.5 6s9.83301 1 14.5 1c11.333 0 17 -6.66699 17 -20v-53c0 -10.667 -5 -17 -15 -19z" />
    <glyph glyph-name="Ecircumflex" unicode="&#xca;" horiz-adv-x="1131" 
d="M578 313c-18 0 -27 8.66699 -27 26v65c0 17.333 9 26 27 26h478c17.333 0 26 -6 26 -18v-81c0 -12 -8.66699 -18 -26 -18h-478zM364 0c-47.333 0 -91.0039 8.49805 -131.004 25.498s-74.667 40.667 -104 71s-52.166 66.333 -68.499 108s-24.5 87.167 -24.5 136.5
c0 48.667 7.83301 93.834 23.5 135.501s37.834 77.834 66.501 108.501s63.167 54.5 103.5 71.5s85.166 25.5 134.499 25.5h699c18 0 27 -8.66699 27 -26v-64c0 -18 -9 -27 -27 -27h-465c-22 0 -40.5 -2.33301 -55.5 -7s-27.167 -13 -36.5 -25s-16 -28 -20 -48
s-6 -45.333 -6 -76v-109c0 -34 2.33301 -62.667 7 -86s11.834 -42 21.501 -56s21.834 -24.167 36.501 -30.5s32.334 -9.5 53.001 -9.5h468c18 0 27 -9 27 -27v-64c0 -18 -9 -27 -27 -27h-702zM611.996 822.998l-176.997 -98c-5.33301 -2 -10 -3.83301 -14 -5.5
s-8.33301 -2.5 -13 -2.5c-10.667 0 -16 7 -16 21v58c0 8 4 15 12 21l192 109c5.33301 2.66699 10.666 4 15.999 4s10.666 -1.33301 15.999 -4l192 -109c7.33301 -5.33301 11 -12.333 11 -21v-58c0 -14 -5 -21 -15 -21c-4 0 -8.33301 0.833008 -13 2.5
s-9.33398 3.5 -14.001 5.5z" />
    <glyph glyph-name="Edieresis" unicode="&#xcb;" horiz-adv-x="1131" 
d="M578 313c-18 0 -27 8.66699 -27 26v65c0 17.333 9 26 27 26h478c17.333 0 26 -6 26 -18v-81c0 -12 -8.66699 -18 -26 -18h-478zM364 0c-47.333 0 -91.0039 8.49805 -131.004 25.498s-74.667 40.667 -104 71s-52.166 66.333 -68.499 108s-24.5 87.167 -24.5 136.5
c0 48.667 7.83301 93.834 23.5 135.501s37.834 77.834 66.501 108.501s63.167 54.5 103.5 71.5s85.166 25.5 134.499 25.5h699c18 0 27 -8.66699 27 -26v-64c0 -18 -9 -27 -27 -27h-465c-22 0 -40.5 -2.33301 -55.5 -7s-27.167 -13 -36.5 -25s-16 -28 -20 -48
s-6 -45.333 -6 -76v-109c0 -34 2.33301 -62.667 7 -86s11.834 -42 21.501 -56s21.834 -24.167 36.501 -30.5s32.334 -9.5 53.001 -9.5h468c18 0 27 -9 27 -27v-64c0 -18 -9 -27 -27 -27h-702zM455.996 741.998c-13.333 0 -20 6.33301 -20 19v131c0 12 6.66699 18 20 18h98
c14 0 21 -6 21 -18v-131c0 -12.667 -7 -19 -21 -19h-98zM697.996 741.998c-12.667 0 -19 6.33301 -19 19v131c0 12 6.33301 18 19 18h98c14 0 21 -6 21 -18v-131c0 -12.667 -7 -19 -21 -19h-98z" />
    <glyph glyph-name="Igrave" unicode="&#xcc;" horiz-adv-x="513" 
d="M84 0c-17.333 0 -26 9 -26 27v629c0 17.333 8.66699 26 26 26h345c17.333 0 26 -8.66699 26 -26v-629c0 -18 -8.66699 -27 -26 -27h-345zM72 843c-10 2 -15.001 8.33203 -15.001 18.999v53c0 13.333 5.66699 20 17 20c4.66699 0 9.66699 -0.333008 15 -1
s10.666 -2.66699 15.999 -6l279 -132c12 -5.33301 18 -12.666 18 -21.999v-45c0 -13.333 -6 -20 -18 -20c-3.33301 0 -6.66602 0.333008 -9.99902 1s-7.66602 2 -12.999 4z" />
    <glyph glyph-name="Iacute" unicode="&#xcd;" horiz-adv-x="513" 
d="M84 0c-17.333 0 -26 9 -26 27v629c0 17.333 8.66699 26 26 26h345c17.333 0 26 -8.66699 26 -26v-629c0 -18 -8.66699 -27 -26 -27h-345zM151 714c-6.66699 -3.33301 -14.333 -4.99902 -23 -4.99902c-11.333 0 -17 6.66699 -17 20v45c0 9.33301 6 16.666 18 21.999
l278 132c6 3.33301 11.5 5.33301 16.5 6s9.83301 1 14.5 1c11.333 0 17 -6.66699 17 -20v-53c0 -10.667 -5 -17 -15 -19z" />
    <glyph glyph-name="Icircumflex" unicode="&#xce;" horiz-adv-x="513" 
d="M84 0c-17.333 0 -26 9 -26 27v629c0 17.333 8.66699 26 26 26h345c17.333 0 26 -8.66699 26 -26v-629c0 -18 -8.66699 -27 -26 -27h-345zM258 823l-176.997 -98c-5.33301 -2 -10 -3.83301 -14 -5.5s-8.33301 -2.5 -13 -2.5c-10.667 0 -16 7 -16 21v58c0 8 4 15 12 21
l192 109c5.33301 2.66699 10.666 4 15.999 4s10.666 -1.33301 15.999 -4l192 -109c7.33301 -5.33301 11 -12.333 11 -21v-58c0 -14 -5 -21 -15 -21c-4 0 -8.33301 0.833008 -13 2.5s-9.33398 3.5 -14.001 5.5z" />
    <glyph glyph-name="Idieresis" unicode="&#xcf;" horiz-adv-x="513" 
d="M84 0c-17.333 0 -26 9 -26 27v629c0 17.333 8.66699 26 26 26h345c17.333 0 26 -8.66699 26 -26v-629c0 -18 -8.66699 -27 -26 -27h-345zM85 742c-13.333 0 -20 6.33301 -20 19v131c0 12 6.66699 18 20 18h98c14 0 21 -6 21 -18v-131c0 -12.667 -7 -19 -21 -19h-98z
M327 742c-12.667 0 -19 6.33301 -19 19v131c0 12 6.33301 18 19 18h98c14 0 21 -6 21 -18v-131c0 -12.667 -7 -19 -21 -19h-98z" />
    <glyph glyph-name="Eth" unicode="&#xd0;" horiz-adv-x="1299" 
d="M113 0c-18 0 -27.001 9 -27.001 27v286h-59c-18 0 -27 8.66699 -27 26v65c0 17.333 9 26 27 26h59v226c0 17.333 9 26 27 26h804c49.333 0 94.166 -8.66699 134.499 -26s74.833 -41.166 103.5 -71.499s50.834 -66.333 66.501 -108s23.5 -86.834 23.5 -135.501
c0 -49.333 -8.16699 -94.833 -24.5 -136.5s-39.166 -77.667 -68.499 -108s-64 -54 -104 -71s-83.667 -25.5 -131 -25.5h-804zM800.999 409c0 30.667 -2.00098 56.001 -6.00098 76.001s-10.667 36 -20 48s-21.333 20.333 -36 25s-32.667 7 -54 7h-202v-135h190
c18 0 27 -6 27 -18v-81c0 -12 -9 -18 -27 -18h-190v-195h202c20 0 37.333 3.16699 52 9.5s26.834 16.666 36.501 30.999s16.667 33 21 56s6.5 51.5 6.5 85.5v109z" />
    <glyph glyph-name="Ntilde" unicode="&#xd1;" horiz-adv-x="1282" 
d="M1137 0c-20 0 -37.501 1.33203 -52.501 3.99902s-33.5 8 -55.5 16l-797 298v-291c0 -18 -9 -27 -27 -27h-129c-18 0 -27 9 -27 27v629c0 17.333 9 26 27 26h123c10.667 0 20.334 -0.166992 29.001 -0.5s17 -1.16602 25 -2.49902s16.167 -3.33301 24.5 -6
s17.833 -6 28.5 -10l744 -287v280c0 17.333 9 26 27 26h129c18 0 27 -8.66699 27 -26v-629c0 -18 -9 -27 -27 -27h-69zM794.999 753.999c-4.66699 -2.66699 -9.16895 -4.33203 -13.502 -4.99902s-8.16602 -1 -11.499 -1c-7.33301 0 -12.666 0.333008 -15.999 1l-155 46
c-3.33301 0.666992 -7.33301 1 -12 1c-4 0 -8 -1 -12 -3l-98 -44c-3.33301 -1.33301 -6.5 -2.5 -9.5 -3.5s-5.83301 -1.5 -8.5 -1.5c-10 0 -15 5 -15 15v55c0 13.333 5.33301 21.666 16 24.999l98 47c10 3.33301 18.667 5 26 5c6.66699 0 11.667 -0.666992 15 -2l155 -44
c2.66699 -0.666992 5 -1 7 -1h5c2 0 4 0.166992 6 0.5s4 0.5 6 0.5l99 44c5.33301 3.33301 11 5 17 5c10 0 15 -4.33301 15 -13v-57c0 -12 -5.33301 -20 -16 -24z" />
    <glyph glyph-name="Ograve" unicode="&#xd2;" horiz-adv-x="1220" 
d="M365 0c-48.667 0 -93.1699 8.66602 -133.503 25.999s-75 41.333 -104 72s-51.5 66.834 -67.5 108.501s-24 86.5 -24 134.5c0 49.333 7.83301 94.833 23.5 136.5s37.834 77.667 66.501 108s63.334 54 104.001 71s85.667 25.5 135 25.5h490c50 0 95.167 -8.66699 135.5 -26
s75 -41.166 104 -71.499s51.333 -66.333 67 -108s23.5 -86.834 23.5 -135.501c0 -48 -8 -92.833 -24 -134.5s-38.5 -77.667 -67.5 -108s-63.667 -54.333 -104 -72s-85.166 -26.5 -134.499 -26.5h-490zM785.997 408.999c0 30.667 -2.00293 56 -6.00293 76s-10.667 36 -20 48
s-21.5 20.333 -36.5 25s-33.5 7 -55.5 7h-136c-20 0 -36.833 -2.5 -50.5 -7.5s-25 -13.5 -34 -25.5s-15.5 -28 -19.5 -48s-6 -45 -6 -75v-109c0 -67.333 8.83301 -114.5 26.5 -141.5s45.5 -40.5 83.5 -40.5h136c20.667 0 38.334 3.16699 53.001 9.5s26.834 16.5 36.501 30.5
s16.834 32.667 21.501 56s7 52 7 86v109zM424.994 842.999c-10 2 -15.001 8.33203 -15.001 18.999v53c0 13.333 5.66699 20 17 20c4.66699 0 9.66699 -0.333008 15 -1s10.666 -2.66699 15.999 -6l279 -132c12 -5.33301 18 -12.666 18 -21.999v-45c0 -13.333 -6 -20 -18 -20
c-3.33301 0 -6.66602 0.333008 -9.99902 1s-7.66602 2 -12.999 4z" />
    <glyph glyph-name="Oacute" unicode="&#xd3;" horiz-adv-x="1220" 
d="M365 0c-48.667 0 -93.1699 8.66602 -133.503 25.999s-75 41.333 -104 72s-51.5 66.834 -67.5 108.501s-24 86.5 -24 134.5c0 49.333 7.83301 94.833 23.5 136.5s37.834 77.667 66.501 108s63.334 54 104.001 71s85.667 25.5 135 25.5h490c50 0 95.167 -8.66699 135.5 -26
s75 -41.166 104 -71.499s51.333 -66.333 67 -108s23.5 -86.834 23.5 -135.501c0 -48 -8 -92.833 -24 -134.5s-38.5 -77.667 -67.5 -108s-63.667 -54.333 -104 -72s-85.166 -26.5 -134.499 -26.5h-490zM785.997 408.999c0 30.667 -2.00293 56 -6.00293 76s-10.667 36 -20 48
s-21.5 20.333 -36.5 25s-33.5 7 -55.5 7h-136c-20 0 -36.833 -2.5 -50.5 -7.5s-25 -13.5 -34 -25.5s-15.5 -28 -19.5 -48s-6 -45 -6 -75v-109c0 -67.333 8.83301 -114.5 26.5 -141.5s45.5 -40.5 83.5 -40.5h136c20.667 0 38.334 3.16699 53.001 9.5s26.834 16.5 36.501 30.5
s16.834 32.667 21.501 56s7 52 7 86v109zM504.994 713.999c-6.66699 -3.33301 -14.333 -4.99902 -23 -4.99902c-11.333 0 -17 6.66699 -17 20v45c0 9.33301 6 16.666 18 21.999l278 132c6 3.33301 11.5 5.33301 16.5 6s9.83301 1 14.5 1c11.333 0 17 -6.66699 17 -20v-53
c0 -10.667 -5 -17 -15 -19z" />
    <glyph glyph-name="Ocircumflex" unicode="&#xd4;" horiz-adv-x="1220" 
d="M365 0c-48.667 0 -93.1699 8.66602 -133.503 25.999s-75 41.333 -104 72s-51.5 66.834 -67.5 108.501s-24 86.5 -24 134.5c0 49.333 7.83301 94.833 23.5 136.5s37.834 77.667 66.501 108s63.334 54 104.001 71s85.667 25.5 135 25.5h490c50 0 95.167 -8.66699 135.5 -26
s75 -41.166 104 -71.499s51.333 -66.333 67 -108s23.5 -86.834 23.5 -135.501c0 -48 -8 -92.833 -24 -134.5s-38.5 -77.667 -67.5 -108s-63.667 -54.333 -104 -72s-85.166 -26.5 -134.499 -26.5h-490zM785.997 408.999c0 30.667 -2.00293 56 -6.00293 76s-10.667 36 -20 48
s-21.5 20.333 -36.5 25s-33.5 7 -55.5 7h-136c-20 0 -36.833 -2.5 -50.5 -7.5s-25 -13.5 -34 -25.5s-15.5 -28 -19.5 -48s-6 -45 -6 -75v-109c0 -67.333 8.83301 -114.5 26.5 -141.5s45.5 -40.5 83.5 -40.5h136c20.667 0 38.334 3.16699 53.001 9.5s26.834 16.5 36.501 30.5
s16.834 32.667 21.501 56s7 52 7 86v109zM610.994 822.999l-176.997 -98c-5.33301 -2 -10 -3.83301 -14 -5.5s-8.33301 -2.5 -13 -2.5c-10.667 0 -16 7 -16 21v58c0 8 4 15 12 21l192 109c5.33301 2.66699 10.666 4 15.999 4s10.666 -1.33301 15.999 -4l192 -109
c7.33301 -5.33301 11 -12.333 11 -21v-58c0 -14 -5 -21 -15 -21c-4 0 -8.33301 0.833008 -13 2.5s-9.33398 3.5 -14.001 5.5z" />
    <glyph glyph-name="Otilde" unicode="&#xd5;" horiz-adv-x="1220" 
d="M365 0c-48.667 0 -93.1699 8.66602 -133.503 25.999s-75 41.333 -104 72s-51.5 66.834 -67.5 108.501s-24 86.5 -24 134.5c0 49.333 7.83301 94.833 23.5 136.5s37.834 77.667 66.501 108s63.334 54 104.001 71s85.667 25.5 135 25.5h490c50 0 95.167 -8.66699 135.5 -26
s75 -41.166 104 -71.499s51.333 -66.333 67 -108s23.5 -86.834 23.5 -135.501c0 -48 -8 -92.833 -24 -134.5s-38.5 -77.667 -67.5 -108s-63.667 -54.333 -104 -72s-85.166 -26.5 -134.499 -26.5h-490zM785.997 408.999c0 30.667 -2.00293 56 -6.00293 76s-10.667 36 -20 48
s-21.5 20.333 -36.5 25s-33.5 7 -55.5 7h-136c-20 0 -36.833 -2.5 -50.5 -7.5s-25 -13.5 -34 -25.5s-15.5 -28 -19.5 -48s-6 -45 -6 -75v-109c0 -67.333 8.83301 -114.5 26.5 -141.5s45.5 -40.5 83.5 -40.5h136c20.667 0 38.334 3.16699 53.001 9.5s26.834 16.5 36.501 30.5
s16.834 32.667 21.501 56s7 52 7 86v109zM727.994 753.999c-4.66699 -2.66699 -9.16895 -4.33203 -13.502 -4.99902s-8.16602 -1 -11.499 -1c-7.33301 0 -12.666 0.333008 -15.999 1l-155 46c-3.33301 0.666992 -7.33301 1 -12 1c-4 0 -8 -1 -12 -3l-98 -44
c-3.33301 -1.33301 -6.5 -2.5 -9.5 -3.5s-5.83301 -1.5 -8.5 -1.5c-10 0 -15 5 -15 15v55c0 13.333 5.33301 21.666 16 24.999l98 47c10 3.33301 18.667 5 26 5c6.66699 0 11.667 -0.666992 15 -2l155 -44c2.66699 -0.666992 5 -1 7 -1h5c2 0 4 0.166992 6 0.5s4 0.5 6 0.5
l99 44c5.33301 3.33301 11 5 17 5c10 0 15 -4.33301 15 -13v-57c0 -12 -5.33301 -20 -16 -24z" />
    <glyph glyph-name="Odieresis" unicode="&#xd6;" horiz-adv-x="1220" 
d="M365 0c-48.667 0 -93.1699 8.66602 -133.503 25.999s-75 41.333 -104 72s-51.5 66.834 -67.5 108.501s-24 86.5 -24 134.5c0 49.333 7.83301 94.833 23.5 136.5s37.834 77.667 66.501 108s63.334 54 104.001 71s85.667 25.5 135 25.5h490c50 0 95.167 -8.66699 135.5 -26
s75 -41.166 104 -71.499s51.333 -66.333 67 -108s23.5 -86.834 23.5 -135.501c0 -48 -8 -92.833 -24 -134.5s-38.5 -77.667 -67.5 -108s-63.667 -54.333 -104 -72s-85.166 -26.5 -134.499 -26.5h-490zM785.997 408.999c0 30.667 -2.00293 56 -6.00293 76s-10.667 36 -20 48
s-21.5 20.333 -36.5 25s-33.5 7 -55.5 7h-136c-20 0 -36.833 -2.5 -50.5 -7.5s-25 -13.5 -34 -25.5s-15.5 -28 -19.5 -48s-6 -45 -6 -75v-109c0 -67.333 8.83301 -114.5 26.5 -141.5s45.5 -40.5 83.5 -40.5h136c20.667 0 38.334 3.16699 53.001 9.5s26.834 16.5 36.501 30.5
s16.834 32.667 21.501 56s7 52 7 86v109zM438.994 741.999c-13.333 0 -20 6.33301 -20 19v131c0 12 6.66699 18 20 18h98c14 0 21 -6 21 -18v-131c0 -12.667 -7 -19 -21 -19h-98zM680.994 741.999c-12.667 0 -19 6.33301 -19 19v131c0 12 6.33301 18 19 18h98
c14 0 21 -6 21 -18v-131c0 -12.667 -7 -19 -21 -19h-98z" />
    <glyph glyph-name="multiply" unicode="&#xd7;" horiz-adv-x="747" 
d="M590 105c-8 -6.66699 -14.667 -10.002 -20 -10.002c-4.66699 0 -11 3.33301 -19 10l-179 179l-178 -178c-6 -6.66699 -12.333 -10 -19 -10c-6 0 -12 3.33301 -18 10l-21 20c-6 6 -9 12 -9 18s3 12.667 9 20l178 178l-178 178c-6 6 -9 12.333 -9 19
c0 5.33301 3 11.666 9 18.999l21 20c6 6 12 9 18 9c6.66699 0 13 -3 19 -9l178 -178l179 179c6.66699 6 13 9 19 9s12.667 -3 20 -9l19 -20c6 -6 9 -12.333 9 -19c0 -7.33301 -3 -13.666 -9 -18.999l-179 -179l179 -179c6 -5.33301 9 -11.666 9 -18.999
s-3 -13.666 -9 -18.999z" />
    <glyph glyph-name="Oslash" unicode="&#xd8;" horiz-adv-x="1220" 
d="M380 0l-42.0029 -55c-5.33301 -7.33301 -10 -11.833 -14 -13.5s-10.333 -2.5 -19 -2.5h-48c-6 0 -11.167 1.33301 -15.5 4s-6.5 6.66699 -6.5 12c0 4.66699 2.33301 10.667 7 18l38 47c-37.333 8.66699 -71 23.167 -101 43.5s-55.5 45 -76.5 74s-37.333 61.5 -49 97.5
s-17.5 74.667 -17.5 116c0 49.333 7.83301 94.833 23.5 136.5s37.834 77.667 66.501 108s63.334 54 104.001 71s85.667 25.5 135 25.5h443l44 56c4.66699 6 9 10.167 13 12.5s10.667 3.5 20 3.5h47c6 0 11.167 -1.33301 15.5 -4s6.5 -6.66699 6.5 -12
s-2.33301 -11.333 -7 -18l-33 -42c41.333 -6.66699 78.666 -19.667 111.999 -39s61.833 -43.833 85.5 -73.5s41.834 -63.5 54.501 -101.5s19 -79 19 -123c0 -48 -8 -92.833 -24 -134.5s-38.5 -77.667 -67.5 -108s-63.667 -54.333 -104 -72s-85.166 -26.5 -134.499 -26.5
h-475zM785.997 409c0 19.333 -1.00195 36.666 -3.00195 51.999s-4.66699 29 -8 41l-294 -375c7.33301 -3.33301 15.166 -5.66602 23.499 -6.99902s17.5 -2 27.5 -2h136c20.667 0 38.334 3.16699 53.001 9.5s26.834 16.5 36.501 30.5s16.834 32.667 21.501 56s7 52 7 86v109z
M712.995 560c-7.33301 2 -14.5 3.33301 -21.5 4s-14.833 1 -23.5 1h-136c-20 0 -36.833 -2.5 -50.5 -7.5s-25 -13.5 -34 -25.5s-15.5 -28 -19.5 -48s-6 -45 -6 -75v-109c0 -39.333 3 -72 9 -98z" />
    <glyph glyph-name="Ugrave" unicode="&#xd9;" horiz-adv-x="1188" 
d="M386 0c-61.333 0 -113.669 7.33203 -157.002 21.999s-78.666 35.667 -105.999 63s-47.166 60.333 -59.499 99s-18.5 82 -18.5 130v342c0 17.333 8.66699 26 26 26h374c17.333 0 26 -8.66699 26 -26v-342c0 -61.333 13 -109.333 39 -144s67.333 -52 124 -52h172
c57.333 0 99.5 17.333 126.5 52s40.5 82.667 40.5 144v342c0 17.333 9 26 27 26h120c18 0 27 -8.66699 27 -26v-342c0 -44 -6.83301 -85 -20.5 -123s-34.5 -71.167 -62.5 -99.5s-63.5 -50.666 -106.5 -66.999s-93.5 -24.5 -151.5 -24.5h-420zM560.997 842.999
c-10 2 -15.001 8.33203 -15.001 18.999v53c0 13.333 5.66699 20 17 20c4.66699 0 9.66699 -0.333008 15 -1s10.666 -2.66699 15.999 -6l279 -132c12 -5.33301 18 -12.666 18 -21.999v-45c0 -13.333 -6 -20 -18 -20c-3.33301 0 -6.66602 0.333008 -9.99902 1
s-7.66602 2 -12.999 4z" />
    <glyph glyph-name="Uacute" unicode="&#xda;" horiz-adv-x="1188" 
d="M386 0c-61.333 0 -113.669 7.33203 -157.002 21.999s-78.666 35.667 -105.999 63s-47.166 60.333 -59.499 99s-18.5 82 -18.5 130v342c0 17.333 8.66699 26 26 26h374c17.333 0 26 -8.66699 26 -26v-342c0 -61.333 13 -109.333 39 -144s67.333 -52 124 -52h172
c57.333 0 99.5 17.333 126.5 52s40.5 82.667 40.5 144v342c0 17.333 9 26 27 26h120c18 0 27 -8.66699 27 -26v-342c0 -44 -6.83301 -85 -20.5 -123s-34.5 -71.167 -62.5 -99.5s-63.5 -50.666 -106.5 -66.999s-93.5 -24.5 -151.5 -24.5h-420zM594.997 713.999
c-6.66699 -3.33301 -14.333 -4.99902 -23 -4.99902c-11.333 0 -17 6.66699 -17 20v45c0 9.33301 6 16.666 18 21.999l278 132c6 3.33301 11.5 5.33301 16.5 6s9.83301 1 14.5 1c11.333 0 17 -6.66699 17 -20v-53c0 -10.667 -5 -17 -15 -19z" />
    <glyph glyph-name="Ucircumflex" unicode="&#xdb;" horiz-adv-x="1188" 
d="M386 0c-61.333 0 -113.669 7.33203 -157.002 21.999s-78.666 35.667 -105.999 63s-47.166 60.333 -59.499 99s-18.5 82 -18.5 130v342c0 17.333 8.66699 26 26 26h374c17.333 0 26 -8.66699 26 -26v-342c0 -61.333 13 -109.333 39 -144s67.333 -52 124 -52h172
c57.333 0 99.5 17.333 126.5 52s40.5 82.667 40.5 144v342c0 17.333 9 26 27 26h120c18 0 27 -8.66699 27 -26v-342c0 -44 -6.83301 -85 -20.5 -123s-34.5 -71.167 -62.5 -99.5s-63.5 -50.666 -106.5 -66.999s-93.5 -24.5 -151.5 -24.5h-420zM717.997 822.999l-176.997 -98
c-5.33301 -2 -10 -3.83301 -14 -5.5s-8.33301 -2.5 -13 -2.5c-10.667 0 -16 7 -16 21v58c0 8 4 15 12 21l192 109c5.33301 2.66699 10.666 4 15.999 4s10.666 -1.33301 15.999 -4l192 -109c7.33301 -5.33301 11 -12.333 11 -21v-58c0 -14 -5 -21 -15 -21
c-4 0 -8.33301 0.833008 -13 2.5s-9.33398 3.5 -14.001 5.5z" />
    <glyph glyph-name="Udieresis" unicode="&#xdc;" horiz-adv-x="1188" 
d="M386 0c-61.333 0 -113.669 7.33203 -157.002 21.999s-78.666 35.667 -105.999 63s-47.166 60.333 -59.499 99s-18.5 82 -18.5 130v342c0 17.333 8.66699 26 26 26h374c17.333 0 26 -8.66699 26 -26v-342c0 -61.333 13 -109.333 39 -144s67.333 -52 124 -52h172
c57.333 0 99.5 17.333 126.5 52s40.5 82.667 40.5 144v342c0 17.333 9 26 27 26h120c18 0 27 -8.66699 27 -26v-342c0 -44 -6.83301 -85 -20.5 -123s-34.5 -71.167 -62.5 -99.5s-63.5 -50.666 -106.5 -66.999s-93.5 -24.5 -151.5 -24.5h-420zM556.997 741.999
c-13.333 0 -20 6.33301 -20 19v131c0 12 6.66699 18 20 18h98c14 0 21 -6 21 -18v-131c0 -12.667 -7 -19 -21 -19h-98zM798.997 741.999c-12.667 0 -19 6.33301 -19 19v131c0 12 6.33301 18 19 18h98c14 0 21 -6 21 -18v-131c0 -12.667 -7 -19 -21 -19h-98z" />
    <glyph glyph-name="Yacute" unicode="&#xdd;" horiz-adv-x="1139" 
d="M397 0c-17.333 0 -26 8.99902 -26 26.999v238l-359 383c-6 6 -9 12 -9 18c0 5.33301 2 9.33301 6 12s8.66699 4 14 4h403c18 0 33 -6.66699 45 -20l266 -292l277 293c7.33301 7.33301 14 12.333 20 15s14 4 24 4h58c6.66699 0 11.5 -1.5 14.5 -4.5s4.5 -6.5 4.5 -10.5
c0 -5.33301 -1.66699 -9.66602 -5 -12.999l-362 -383v-244c0 -18 -9 -27 -27 -27h-344zM553 713.999c-6.66699 -3.33301 -14.333 -4.99902 -23 -4.99902c-11.333 0 -17 6.66699 -17 20v45c0 9.33301 6 16.666 18 21.999l278 132c6 3.33301 11.5 5.33301 16.5 6
s9.83301 1 14.5 1c11.333 0 17 -6.66699 17 -20v-53c0 -10.667 -5 -17 -15 -19z" />
    <glyph glyph-name="Thorn" unicode="&#xde;" horiz-adv-x="1177" 
d="M518 108c-17.333 0 -26.001 9 -26.001 27v64c0 17.333 8.66699 26 26 26h128c16 0 30.833 1.83301 44.5 5.5s25.5 9.5 35.5 17.5s18 18.667 24 32s9 29.666 9 48.999c0 34.667 -11 60.334 -33 77.001s-48.667 25 -80 25h-214v-404c0 -18 -9 -27 -27 -27h-343
c-17.333 0 -26 9 -26 27v629c0 17.333 8.66699 26 26 26h343c18 0 27 -8.66699 27 -26v-107h485c32.667 0 63.334 -5 92.001 -15s53.5 -24.667 74.5 -44s37.5 -42.833 49.5 -70.5s18 -59.5 18 -95.5c0 -35.333 -6.66699 -66.5 -20 -93.5s-31.666 -49.5 -54.999 -67.5
s-50.833 -31.667 -82.5 -41s-65.834 -14 -102.501 -14h-373z" />
    <glyph glyph-name="germandbls" unicode="&#xdf;" horiz-adv-x="2076" 
d="M61 0c-17.333 0 -25.999 8.99902 -25.999 26.999v64c0 18 8.66699 27 26 27h561l-471 221c-25.333 12 -46 24.5 -62 37.5s-28.5 26.667 -37.5 41s-15 29.5 -18 45.5s-4.5 33 -4.5 51c0 22 4 43.167 12 63.5s20.167 38.333 36.5 54s36.666 28 60.999 37
s52.5 13.5 84.5 13.5h736c18 0 27 -8.66699 27 -26v-64c0 -18 -9 -27 -27 -27h-542l470 -221c26 -12 46.833 -24.5 62.5 -37.5s28 -26.667 37 -41s15 -29.666 18 -45.999s4.5 -33.5 4.5 -51.5c0 -22 -4 -43.167 -12 -63.5s-20.167 -38.333 -36.5 -54s-36.5 -28 -60.5 -37
s-52 -13.5 -84 -13.5h-755zM1099 -0.000976562c-17.333 0 -25.999 8.99902 -25.999 26.999v64c0 18 8.66699 27 26 27h561l-471 221c-25.333 12 -46 24.5 -62 37.5s-28.5 26.667 -37.5 41s-15 29.5 -18 45.5s-4.5 33 -4.5 51c0 22 4 43.167 12 63.5s20.167 38.333 36.5 54
s36.666 28 60.999 37s52.5 13.5 84.5 13.5h736c18 0 27 -8.66699 27 -26v-64c0 -18 -9 -27 -27 -27h-542l470 -221c26 -12 46.833 -24.5 62.5 -37.5s28 -26.667 37 -41s15 -29.666 18 -45.999s4.5 -33.5 4.5 -51.5c0 -22 -4 -43.167 -12 -63.5s-20.167 -38.333 -36.5 -54
s-36.5 -28 -60.5 -37s-52 -13.5 -84 -13.5h-755z" />
    <glyph glyph-name="agrave" unicode="&#xe0;" 
d="M974 0c-21.333 0 -38.668 6.66602 -52.001 19.999l-387 401l-306 -303h454c18 0 27 -9 27 -27v-64c0 -18 -9 -27 -27 -27h-661c-12.667 0 -19 5.66699 -19 17c0 2 0.5 4.5 1.5 7.5s3.16699 5.83301 6.5 8.5l627 630c12.667 12.667 26.667 19 42 19h66
c16.667 0 31.334 -6.33301 44.001 -19l618 -628c3.33301 -3.33301 5.5 -6.66602 6.5 -9.99902s1.5 -6.33301 1.5 -9c0 -10.667 -7.66699 -16 -23 -16h-419zM525.998 842.999c-10 2 -15.001 8.33203 -15.001 18.999v53c0 13.333 5.66699 20 17 20
c4.66699 0 9.66699 -0.333008 15 -1s10.666 -2.66699 15.999 -6l279 -132c12 -5.33301 18 -12.666 18 -21.999v-45c0 -13.333 -6 -20 -18 -20c-3.33301 0 -6.66602 0.333008 -9.99902 1s-7.66602 2 -12.999 4z" />
    <glyph glyph-name="aacute" unicode="&#xe1;" 
d="M974 0c-21.333 0 -38.668 6.66602 -52.001 19.999l-387 401l-306 -303h454c18 0 27 -9 27 -27v-64c0 -18 -9 -27 -27 -27h-661c-12.667 0 -19 5.66699 -19 17c0 2 0.5 4.5 1.5 7.5s3.16699 5.83301 6.5 8.5l627 630c12.667 12.667 26.667 19 42 19h66
c16.667 0 31.334 -6.33301 44.001 -19l618 -628c3.33301 -3.33301 5.5 -6.66602 6.5 -9.99902s1.5 -6.33301 1.5 -9c0 -10.667 -7.66699 -16 -23 -16h-419zM603.998 713.999c-6.66699 -3.33301 -14.333 -4.99902 -23 -4.99902c-11.333 0 -17 6.66699 -17 20v45
c0 9.33301 6 16.666 18 21.999l278 132c6 3.33301 11.5 5.33301 16.5 6s9.83301 1 14.5 1c11.333 0 17 -6.66699 17 -20v-53c0 -10.667 -5 -17 -15 -19z" />
    <glyph glyph-name="acircumflex" unicode="&#xe2;" 
d="M974 0c-21.333 0 -38.668 6.66602 -52.001 19.999l-387 401l-306 -303h454c18 0 27 -9 27 -27v-64c0 -18 -9 -27 -27 -27h-661c-12.667 0 -19 5.66699 -19 17c0 2 0.5 4.5 1.5 7.5s3.16699 5.83301 6.5 8.5l627 630c12.667 12.667 26.667 19 42 19h66
c16.667 0 31.334 -6.33301 44.001 -19l618 -628c3.33301 -3.33301 5.5 -6.66602 6.5 -9.99902s1.5 -6.33301 1.5 -9c0 -10.667 -7.66699 -16 -23 -16h-419zM709.998 822.999l-176.997 -98c-5.33301 -2 -10 -3.83301 -14 -5.5s-8.33301 -2.5 -13 -2.5c-10.667 0 -16 7 -16 21
v58c0 8 4 15 12 21l192 109c5.33301 2.66699 10.666 4 15.999 4s10.666 -1.33301 15.999 -4l192 -109c7.33301 -5.33301 11 -12.333 11 -21v-58c0 -14 -5 -21 -15 -21c-4 0 -8.33301 0.833008 -13 2.5s-9.33398 3.5 -14.001 5.5z" />
    <glyph glyph-name="atilde" unicode="&#xe3;" 
d="M974 0c-21.333 0 -38.668 6.66602 -52.001 19.999l-387 401l-306 -303h454c18 0 27 -9 27 -27v-64c0 -18 -9 -27 -27 -27h-661c-12.667 0 -19 5.66699 -19 17c0 2 0.5 4.5 1.5 7.5s3.16699 5.83301 6.5 8.5l627 630c12.667 12.667 26.667 19 42 19h66
c16.667 0 31.334 -6.33301 44.001 -19l618 -628c3.33301 -3.33301 5.5 -6.66602 6.5 -9.99902s1.5 -6.33301 1.5 -9c0 -10.667 -7.66699 -16 -23 -16h-419zM828.998 753.999c-4.66699 -2.66699 -9.16895 -4.33203 -13.502 -4.99902s-8.16602 -1 -11.499 -1
c-7.33301 0 -12.666 0.333008 -15.999 1l-155 46c-3.33301 0.666992 -7.33301 1 -12 1c-4 0 -8 -1 -12 -3l-98 -44c-3.33301 -1.33301 -6.5 -2.5 -9.5 -3.5s-5.83301 -1.5 -8.5 -1.5c-10 0 -15 5 -15 15v55c0 13.333 5.33301 21.666 16 24.999l98 47
c10 3.33301 18.667 5 26 5c6.66699 0 11.667 -0.666992 15 -2l155 -44c2.66699 -0.666992 5 -1 7 -1h5c2 0 4 0.166992 6 0.5s4 0.5 6 0.5l99 44c5.33301 3.33301 11 5 17 5c10 0 15 -4.33301 15 -13v-57c0 -12 -5.33301 -20 -16 -24z" />
    <glyph glyph-name="adieresis" unicode="&#xe4;" 
d="M974 0c-21.333 0 -38.668 6.66602 -52.001 19.999l-387 401l-306 -303h454c18 0 27 -9 27 -27v-64c0 -18 -9 -27 -27 -27h-661c-12.667 0 -19 5.66699 -19 17c0 2 0.5 4.5 1.5 7.5s3.16699 5.83301 6.5 8.5l627 630c12.667 12.667 26.667 19 42 19h66
c16.667 0 31.334 -6.33301 44.001 -19l618 -628c3.33301 -3.33301 5.5 -6.66602 6.5 -9.99902s1.5 -6.33301 1.5 -9c0 -10.667 -7.66699 -16 -23 -16h-419zM539.998 741.999c-13.333 0 -20 6.33301 -20 19v131c0 12 6.66699 18 20 18h98c14 0 21 -6 21 -18v-131
c0 -12.667 -7 -19 -21 -19h-98zM781.998 741.999c-12.667 0 -19 6.33301 -19 19v131c0 12 6.33301 18 19 18h98c14 0 21 -6 21 -18v-131c0 -12.667 -7 -19 -21 -19h-98z" />
    <glyph glyph-name="aring" unicode="&#xe5;" 
d="M974 0c-21.333 0 -38.668 6.66602 -52.001 19.999l-387 401l-306 -303h454c18 0 27 -9 27 -27v-64c0 -18 -9 -27 -27 -27h-661c-12.667 0 -19 5.66699 -19 17c0 2 0.5 4.5 1.5 7.5s3.16699 5.83301 6.5 8.5l627 630c12.667 12.667 26.667 19 42 19h66
c16.667 0 31.334 -6.33301 44.001 -19l618 -628c3.33301 -3.33301 5.5 -6.66602 6.5 -9.99902s1.5 -6.33301 1.5 -9c0 -10.667 -7.66699 -16 -23 -16h-419zM611.998 698.999c-26 0 -39 16 -39 48v189c0 32 13 48 39 48h197c25.333 0 38 -16 38 -48v-189
c0 -32 -12.667 -48 -38 -48h-197zM777.998 914.999c0 5.33301 -2 8 -6 8h-125c-3.33301 0 -5 -2.33301 -5 -7v-150c0 -4 1.66699 -6 5 -6h125c4 0 6 2.66699 6 8v147z" />
    <glyph glyph-name="ae" unicode="&#xe6;" horiz-adv-x="1865" 
d="M962 0c-49.333 0 -83.333 12.5 -102 37.5s-28 59.833 -28 104.5v423h-125l-444 -447h454c18 0 27 -9 27 -27v-64c0 -18 -9 -27 -27 -27h-695c-12.667 0 -19 5.66699 -19 17c0 2 0.5 4.5 1.5 7.5s3.16699 5.83301 6.5 8.5l627 630c12.667 12.667 26.667 19 42 19h1117
c18 0 27 -8.66699 27 -26v-64c0 -18 -9 -27 -27 -27h-574v-394c0 -17.333 4.5 -30.5 13.5 -39.5s24.167 -13.5 45.5 -13.5h518c18 0 27 -9 27 -27v-64c0 -18 -9 -27 -27 -27h-838zM1321 313c-18 0 -27 8.66699 -27 26v65c0 17.333 9 26 27 26h469c17.333 0 26 -6 26 -18v-81
c0 -12 -8.66699 -18 -26 -18h-469z" />
    <glyph glyph-name="ccedilla" unicode="&#xe7;" horiz-adv-x="1104" 
d="M364 0c-47.333 0 -91.0039 8.49805 -131.004 25.498s-74.667 40.667 -104 71s-52.166 66.333 -68.499 108s-24.5 87.167 -24.5 136.5c0 48.667 7.83301 93.834 23.5 135.501s37.834 77.834 66.501 108.501s63.167 54.5 103.5 71.5s85.166 25.5 134.499 25.5h681
c18 0 27 -8.66699 27 -26v-64c0 -18 -9 -27 -27 -27h-447c-22 0 -40.5 -2.33301 -55.5 -7s-27.167 -13 -36.5 -25s-16 -28 -20 -48s-6 -45.333 -6 -76v-109c0 -34 2.33301 -62.667 7 -86s11.834 -42 21.501 -56s21.834 -24.167 36.501 -30.5s32.334 -9.5 53.001 -9.5h451
c17.333 0 26 -9 26 -27v-64c0 -18 -8.66699 -27 -26 -27h-685zM549.996 -216.002c-11.333 0 -18.001 6.33301 -20.001 19l-12 111c-0.666992 4 -1 8.16699 -1 12.5v11.5v11c0 10 6 15 18 15h104c12 0 18 -5 18 -15v-11v-11.5c0 -4.33301 -0.333008 -8.5 -1 -12.5l-12 -111
c-1.33301 -12.667 -7.66602 -19 -18.999 -19h-75z" />
    <glyph glyph-name="egrave" unicode="&#xe8;" horiz-adv-x="1131" 
d="M578 313c-18 0 -27 8.66699 -27 26v65c0 17.333 9 26 27 26h478c17.333 0 26 -6 26 -18v-81c0 -12 -8.66699 -18 -26 -18h-478zM364 0c-47.333 0 -91.0039 8.49805 -131.004 25.498s-74.667 40.667 -104 71s-52.166 66.333 -68.499 108s-24.5 87.167 -24.5 136.5
c0 48.667 7.83301 93.834 23.5 135.501s37.834 77.834 66.501 108.501s63.167 54.5 103.5 71.5s85.166 25.5 134.499 25.5h699c18 0 27 -8.66699 27 -26v-64c0 -18 -9 -27 -27 -27h-465c-22 0 -40.5 -2.33301 -55.5 -7s-27.167 -13 -36.5 -25s-16 -28 -20 -48
s-6 -45.333 -6 -76v-109c0 -34 2.33301 -62.667 7 -86s11.834 -42 21.501 -56s21.834 -24.167 36.501 -30.5s32.334 -9.5 53.001 -9.5h468c18 0 27 -9 27 -27v-64c0 -18 -9 -27 -27 -27h-702zM468.996 842.998c-10 2 -15.001 8.33203 -15.001 18.999v53
c0 13.333 5.66699 20 17 20c4.66699 0 9.66699 -0.333008 15 -1s10.666 -2.66699 15.999 -6l279 -132c12 -5.33301 18 -12.666 18 -21.999v-45c0 -13.333 -6 -20 -18 -20c-3.33301 0 -6.66602 0.333008 -9.99902 1s-7.66602 2 -12.999 4z" />
    <glyph glyph-name="eacute" unicode="&#xe9;" horiz-adv-x="1131" 
d="M578 313c-18 0 -27 8.66699 -27 26v65c0 17.333 9 26 27 26h478c17.333 0 26 -6 26 -18v-81c0 -12 -8.66699 -18 -26 -18h-478zM364 0c-47.333 0 -91.0039 8.49805 -131.004 25.498s-74.667 40.667 -104 71s-52.166 66.333 -68.499 108s-24.5 87.167 -24.5 136.5
c0 48.667 7.83301 93.834 23.5 135.501s37.834 77.834 66.501 108.501s63.167 54.5 103.5 71.5s85.166 25.5 134.499 25.5h699c18 0 27 -8.66699 27 -26v-64c0 -18 -9 -27 -27 -27h-465c-22 0 -40.5 -2.33301 -55.5 -7s-27.167 -13 -36.5 -25s-16 -28 -20 -48
s-6 -45.333 -6 -76v-109c0 -34 2.33301 -62.667 7 -86s11.834 -42 21.501 -56s21.834 -24.167 36.501 -30.5s32.334 -9.5 53.001 -9.5h468c18 0 27 -9 27 -27v-64c0 -18 -9 -27 -27 -27h-702zM520.996 713.998c-6.66699 -3.33301 -14.333 -4.99902 -23 -4.99902
c-11.333 0 -17 6.66699 -17 20v45c0 9.33301 6 16.666 18 21.999l278 132c6 3.33301 11.5 5.33301 16.5 6s9.83301 1 14.5 1c11.333 0 17 -6.66699 17 -20v-53c0 -10.667 -5 -17 -15 -19z" />
    <glyph glyph-name="ecircumflex" unicode="&#xea;" horiz-adv-x="1131" 
d="M578 313c-18 0 -27 8.66699 -27 26v65c0 17.333 9 26 27 26h478c17.333 0 26 -6 26 -18v-81c0 -12 -8.66699 -18 -26 -18h-478zM364 0c-47.333 0 -91.0039 8.49805 -131.004 25.498s-74.667 40.667 -104 71s-52.166 66.333 -68.499 108s-24.5 87.167 -24.5 136.5
c0 48.667 7.83301 93.834 23.5 135.501s37.834 77.834 66.501 108.501s63.167 54.5 103.5 71.5s85.166 25.5 134.499 25.5h699c18 0 27 -8.66699 27 -26v-64c0 -18 -9 -27 -27 -27h-465c-22 0 -40.5 -2.33301 -55.5 -7s-27.167 -13 -36.5 -25s-16 -28 -20 -48
s-6 -45.333 -6 -76v-109c0 -34 2.33301 -62.667 7 -86s11.834 -42 21.501 -56s21.834 -24.167 36.501 -30.5s32.334 -9.5 53.001 -9.5h468c18 0 27 -9 27 -27v-64c0 -18 -9 -27 -27 -27h-702zM611.996 822.998l-176.997 -98c-5.33301 -2 -10 -3.83301 -14 -5.5
s-8.33301 -2.5 -13 -2.5c-10.667 0 -16 7 -16 21v58c0 8 4 15 12 21l192 109c5.33301 2.66699 10.666 4 15.999 4s10.666 -1.33301 15.999 -4l192 -109c7.33301 -5.33301 11 -12.333 11 -21v-58c0 -14 -5 -21 -15 -21c-4 0 -8.33301 0.833008 -13 2.5
s-9.33398 3.5 -14.001 5.5z" />
    <glyph glyph-name="edieresis" unicode="&#xeb;" horiz-adv-x="1131" 
d="M578 313c-18 0 -27 8.66699 -27 26v65c0 17.333 9 26 27 26h478c17.333 0 26 -6 26 -18v-81c0 -12 -8.66699 -18 -26 -18h-478zM364 0c-47.333 0 -91.0039 8.49805 -131.004 25.498s-74.667 40.667 -104 71s-52.166 66.333 -68.499 108s-24.5 87.167 -24.5 136.5
c0 48.667 7.83301 93.834 23.5 135.501s37.834 77.834 66.501 108.501s63.167 54.5 103.5 71.5s85.166 25.5 134.499 25.5h699c18 0 27 -8.66699 27 -26v-64c0 -18 -9 -27 -27 -27h-465c-22 0 -40.5 -2.33301 -55.5 -7s-27.167 -13 -36.5 -25s-16 -28 -20 -48
s-6 -45.333 -6 -76v-109c0 -34 2.33301 -62.667 7 -86s11.834 -42 21.501 -56s21.834 -24.167 36.501 -30.5s32.334 -9.5 53.001 -9.5h468c18 0 27 -9 27 -27v-64c0 -18 -9 -27 -27 -27h-702zM455.996 741.998c-13.333 0 -20 6.33301 -20 19v131c0 12 6.66699 18 20 18h98
c14 0 21 -6 21 -18v-131c0 -12.667 -7 -19 -21 -19h-98zM697.996 741.998c-12.667 0 -19 6.33301 -19 19v131c0 12 6.33301 18 19 18h98c14 0 21 -6 21 -18v-131c0 -12.667 -7 -19 -21 -19h-98z" />
    <glyph glyph-name="igrave" unicode="&#xec;" horiz-adv-x="513" 
d="M84 0c-17.333 0 -26 9 -26 27v629c0 17.333 8.66699 26 26 26h345c17.333 0 26 -8.66699 26 -26v-629c0 -18 -8.66699 -27 -26 -27h-345zM72 843c-10 2 -15.001 8.33203 -15.001 18.999v53c0 13.333 5.66699 20 17 20c4.66699 0 9.66699 -0.333008 15 -1
s10.666 -2.66699 15.999 -6l279 -132c12 -5.33301 18 -12.666 18 -21.999v-45c0 -13.333 -6 -20 -18 -20c-3.33301 0 -6.66602 0.333008 -9.99902 1s-7.66602 2 -12.999 4z" />
    <glyph glyph-name="iacute" unicode="&#xed;" horiz-adv-x="513" 
d="M84 0c-17.333 0 -26 9 -26 27v629c0 17.333 8.66699 26 26 26h345c17.333 0 26 -8.66699 26 -26v-629c0 -18 -8.66699 -27 -26 -27h-345zM151 714c-6.66699 -3.33301 -14.333 -4.99902 -23 -4.99902c-11.333 0 -17 6.66699 -17 20v45c0 9.33301 6 16.666 18 21.999
l278 132c6 3.33301 11.5 5.33301 16.5 6s9.83301 1 14.5 1c11.333 0 17 -6.66699 17 -20v-53c0 -10.667 -5 -17 -15 -19z" />
    <glyph glyph-name="icircumflex" unicode="&#xee;" horiz-adv-x="513" 
d="M84 0c-17.333 0 -26 9 -26 27v629c0 17.333 8.66699 26 26 26h345c17.333 0 26 -8.66699 26 -26v-629c0 -18 -8.66699 -27 -26 -27h-345zM258 823l-176.997 -98c-5.33301 -2 -10 -3.83301 -14 -5.5s-8.33301 -2.5 -13 -2.5c-10.667 0 -16 7 -16 21v58c0 8 4 15 12 21
l192 109c5.33301 2.66699 10.666 4 15.999 4s10.666 -1.33301 15.999 -4l192 -109c7.33301 -5.33301 11 -12.333 11 -21v-58c0 -14 -5 -21 -15 -21c-4 0 -8.33301 0.833008 -13 2.5s-9.33398 3.5 -14.001 5.5z" />
    <glyph glyph-name="idieresis" unicode="&#xef;" horiz-adv-x="513" 
d="M84 0c-17.333 0 -26 9 -26 27v629c0 17.333 8.66699 26 26 26h345c17.333 0 26 -8.66699 26 -26v-629c0 -18 -8.66699 -27 -26 -27h-345zM85 742c-13.333 0 -20 6.33301 -20 19v131c0 12 6.66699 18 20 18h98c14 0 21 -6 21 -18v-131c0 -12.667 -7 -19 -21 -19h-98z
M327 742c-12.667 0 -19 6.33301 -19 19v131c0 12 6.33301 18 19 18h98c14 0 21 -6 21 -18v-131c0 -12.667 -7 -19 -21 -19h-98z" />
    <glyph glyph-name="eth" unicode="&#xf0;" horiz-adv-x="1299" 
d="M113 0c-18 0 -27.001 9 -27.001 27v286h-59c-18 0 -27 8.66699 -27 26v65c0 17.333 9 26 27 26h59v226c0 17.333 9 26 27 26h804c49.333 0 94.166 -8.66699 134.499 -26s74.833 -41.166 103.5 -71.499s50.834 -66.333 66.501 -108s23.5 -86.834 23.5 -135.501
c0 -49.333 -8.16699 -94.833 -24.5 -136.5s-39.166 -77.667 -68.499 -108s-64 -54 -104 -71s-83.667 -25.5 -131 -25.5h-804zM800.999 409c0 30.667 -2.00098 56.001 -6.00098 76.001s-10.667 36 -20 48s-21.333 20.333 -36 25s-32.667 7 -54 7h-202v-135h190
c18 0 27 -6 27 -18v-81c0 -12 -9 -18 -27 -18h-190v-195h202c20 0 37.333 3.16699 52 9.5s26.834 16.666 36.501 30.999s16.667 33 21 56s6.5 51.5 6.5 85.5v109z" />
    <glyph glyph-name="ntilde" unicode="&#xf1;" horiz-adv-x="1282" 
d="M1137 0c-20 0 -37.501 1.33203 -52.501 3.99902s-33.5 8 -55.5 16l-797 298v-291c0 -18 -9 -27 -27 -27h-129c-18 0 -27 9 -27 27v629c0 17.333 9 26 27 26h123c10.667 0 20.334 -0.166992 29.001 -0.5s17 -1.16602 25 -2.49902s16.167 -3.33301 24.5 -6
s17.833 -6 28.5 -10l744 -287v280c0 17.333 9 26 27 26h129c18 0 27 -8.66699 27 -26v-629c0 -18 -9 -27 -27 -27h-69zM794.999 753.999c-4.66699 -2.66699 -9.16895 -4.33203 -13.502 -4.99902s-8.16602 -1 -11.499 -1c-7.33301 0 -12.666 0.333008 -15.999 1l-155 46
c-3.33301 0.666992 -7.33301 1 -12 1c-4 0 -8 -1 -12 -3l-98 -44c-3.33301 -1.33301 -6.5 -2.5 -9.5 -3.5s-5.83301 -1.5 -8.5 -1.5c-10 0 -15 5 -15 15v55c0 13.333 5.33301 21.666 16 24.999l98 47c10 3.33301 18.667 5 26 5c6.66699 0 11.667 -0.666992 15 -2l155 -44
c2.66699 -0.666992 5 -1 7 -1h5c2 0 4 0.166992 6 0.5s4 0.5 6 0.5l99 44c5.33301 3.33301 11 5 17 5c10 0 15 -4.33301 15 -13v-57c0 -12 -5.33301 -20 -16 -24z" />
    <glyph glyph-name="ograve" unicode="&#xf2;" horiz-adv-x="1220" 
d="M365 0c-48.667 0 -93.1699 8.66602 -133.503 25.999s-75 41.333 -104 72s-51.5 66.834 -67.5 108.501s-24 86.5 -24 134.5c0 49.333 7.83301 94.833 23.5 136.5s37.834 77.667 66.501 108s63.334 54 104.001 71s85.667 25.5 135 25.5h490c50 0 95.167 -8.66699 135.5 -26
s75 -41.166 104 -71.499s51.333 -66.333 67 -108s23.5 -86.834 23.5 -135.501c0 -48 -8 -92.833 -24 -134.5s-38.5 -77.667 -67.5 -108s-63.667 -54.333 -104 -72s-85.166 -26.5 -134.499 -26.5h-490zM785.997 408.999c0 30.667 -2.00293 56 -6.00293 76s-10.667 36 -20 48
s-21.5 20.333 -36.5 25s-33.5 7 -55.5 7h-136c-20 0 -36.833 -2.5 -50.5 -7.5s-25 -13.5 -34 -25.5s-15.5 -28 -19.5 -48s-6 -45 -6 -75v-109c0 -67.333 8.83301 -114.5 26.5 -141.5s45.5 -40.5 83.5 -40.5h136c20.667 0 38.334 3.16699 53.001 9.5s26.834 16.5 36.501 30.5
s16.834 32.667 21.501 56s7 52 7 86v109zM424.994 842.999c-10 2 -15.001 8.33203 -15.001 18.999v53c0 13.333 5.66699 20 17 20c4.66699 0 9.66699 -0.333008 15 -1s10.666 -2.66699 15.999 -6l279 -132c12 -5.33301 18 -12.666 18 -21.999v-45c0 -13.333 -6 -20 -18 -20
c-3.33301 0 -6.66602 0.333008 -9.99902 1s-7.66602 2 -12.999 4z" />
    <glyph glyph-name="oacute" unicode="&#xf3;" horiz-adv-x="1220" 
d="M365 0c-48.667 0 -93.1699 8.66602 -133.503 25.999s-75 41.333 -104 72s-51.5 66.834 -67.5 108.501s-24 86.5 -24 134.5c0 49.333 7.83301 94.833 23.5 136.5s37.834 77.667 66.501 108s63.334 54 104.001 71s85.667 25.5 135 25.5h490c50 0 95.167 -8.66699 135.5 -26
s75 -41.166 104 -71.499s51.333 -66.333 67 -108s23.5 -86.834 23.5 -135.501c0 -48 -8 -92.833 -24 -134.5s-38.5 -77.667 -67.5 -108s-63.667 -54.333 -104 -72s-85.166 -26.5 -134.499 -26.5h-490zM785.997 408.999c0 30.667 -2.00293 56 -6.00293 76s-10.667 36 -20 48
s-21.5 20.333 -36.5 25s-33.5 7 -55.5 7h-136c-20 0 -36.833 -2.5 -50.5 -7.5s-25 -13.5 -34 -25.5s-15.5 -28 -19.5 -48s-6 -45 -6 -75v-109c0 -67.333 8.83301 -114.5 26.5 -141.5s45.5 -40.5 83.5 -40.5h136c20.667 0 38.334 3.16699 53.001 9.5s26.834 16.5 36.501 30.5
s16.834 32.667 21.501 56s7 52 7 86v109zM504.994 713.999c-6.66699 -3.33301 -14.333 -4.99902 -23 -4.99902c-11.333 0 -17 6.66699 -17 20v45c0 9.33301 6 16.666 18 21.999l278 132c6 3.33301 11.5 5.33301 16.5 6s9.83301 1 14.5 1c11.333 0 17 -6.66699 17 -20v-53
c0 -10.667 -5 -17 -15 -19z" />
    <glyph glyph-name="ocircumflex" unicode="&#xf4;" horiz-adv-x="1220" 
d="M365 0c-48.667 0 -93.1699 8.66602 -133.503 25.999s-75 41.333 -104 72s-51.5 66.834 -67.5 108.501s-24 86.5 -24 134.5c0 49.333 7.83301 94.833 23.5 136.5s37.834 77.667 66.501 108s63.334 54 104.001 71s85.667 25.5 135 25.5h490c50 0 95.167 -8.66699 135.5 -26
s75 -41.166 104 -71.499s51.333 -66.333 67 -108s23.5 -86.834 23.5 -135.501c0 -48 -8 -92.833 -24 -134.5s-38.5 -77.667 -67.5 -108s-63.667 -54.333 -104 -72s-85.166 -26.5 -134.499 -26.5h-490zM785.997 408.999c0 30.667 -2.00293 56 -6.00293 76s-10.667 36 -20 48
s-21.5 20.333 -36.5 25s-33.5 7 -55.5 7h-136c-20 0 -36.833 -2.5 -50.5 -7.5s-25 -13.5 -34 -25.5s-15.5 -28 -19.5 -48s-6 -45 -6 -75v-109c0 -67.333 8.83301 -114.5 26.5 -141.5s45.5 -40.5 83.5 -40.5h136c20.667 0 38.334 3.16699 53.001 9.5s26.834 16.5 36.501 30.5
s16.834 32.667 21.501 56s7 52 7 86v109zM610.994 822.999l-176.997 -98c-5.33301 -2 -10 -3.83301 -14 -5.5s-8.33301 -2.5 -13 -2.5c-10.667 0 -16 7 -16 21v58c0 8 4 15 12 21l192 109c5.33301 2.66699 10.666 4 15.999 4s10.666 -1.33301 15.999 -4l192 -109
c7.33301 -5.33301 11 -12.333 11 -21v-58c0 -14 -5 -21 -15 -21c-4 0 -8.33301 0.833008 -13 2.5s-9.33398 3.5 -14.001 5.5z" />
    <glyph glyph-name="otilde" unicode="&#xf5;" horiz-adv-x="1220" 
d="M365 0c-48.667 0 -93.1699 8.66602 -133.503 25.999s-75 41.333 -104 72s-51.5 66.834 -67.5 108.501s-24 86.5 -24 134.5c0 49.333 7.83301 94.833 23.5 136.5s37.834 77.667 66.501 108s63.334 54 104.001 71s85.667 25.5 135 25.5h490c50 0 95.167 -8.66699 135.5 -26
s75 -41.166 104 -71.499s51.333 -66.333 67 -108s23.5 -86.834 23.5 -135.501c0 -48 -8 -92.833 -24 -134.5s-38.5 -77.667 -67.5 -108s-63.667 -54.333 -104 -72s-85.166 -26.5 -134.499 -26.5h-490zM785.997 408.999c0 30.667 -2.00293 56 -6.00293 76s-10.667 36 -20 48
s-21.5 20.333 -36.5 25s-33.5 7 -55.5 7h-136c-20 0 -36.833 -2.5 -50.5 -7.5s-25 -13.5 -34 -25.5s-15.5 -28 -19.5 -48s-6 -45 -6 -75v-109c0 -67.333 8.83301 -114.5 26.5 -141.5s45.5 -40.5 83.5 -40.5h136c20.667 0 38.334 3.16699 53.001 9.5s26.834 16.5 36.501 30.5
s16.834 32.667 21.501 56s7 52 7 86v109zM727.994 753.999c-4.66699 -2.66699 -9.16895 -4.33203 -13.502 -4.99902s-8.16602 -1 -11.499 -1c-7.33301 0 -12.666 0.333008 -15.999 1l-155 46c-3.33301 0.666992 -7.33301 1 -12 1c-4 0 -8 -1 -12 -3l-98 -44
c-3.33301 -1.33301 -6.5 -2.5 -9.5 -3.5s-5.83301 -1.5 -8.5 -1.5c-10 0 -15 5 -15 15v55c0 13.333 5.33301 21.666 16 24.999l98 47c10 3.33301 18.667 5 26 5c6.66699 0 11.667 -0.666992 15 -2l155 -44c2.66699 -0.666992 5 -1 7 -1h5c2 0 4 0.166992 6 0.5s4 0.5 6 0.5
l99 44c5.33301 3.33301 11 5 17 5c10 0 15 -4.33301 15 -13v-57c0 -12 -5.33301 -20 -16 -24z" />
    <glyph glyph-name="odieresis" unicode="&#xf6;" horiz-adv-x="1220" 
d="M365 0c-48.667 0 -93.1699 8.66602 -133.503 25.999s-75 41.333 -104 72s-51.5 66.834 -67.5 108.501s-24 86.5 -24 134.5c0 49.333 7.83301 94.833 23.5 136.5s37.834 77.667 66.501 108s63.334 54 104.001 71s85.667 25.5 135 25.5h490c50 0 95.167 -8.66699 135.5 -26
s75 -41.166 104 -71.499s51.333 -66.333 67 -108s23.5 -86.834 23.5 -135.501c0 -48 -8 -92.833 -24 -134.5s-38.5 -77.667 -67.5 -108s-63.667 -54.333 -104 -72s-85.166 -26.5 -134.499 -26.5h-490zM785.997 408.999c0 30.667 -2.00293 56 -6.00293 76s-10.667 36 -20 48
s-21.5 20.333 -36.5 25s-33.5 7 -55.5 7h-136c-20 0 -36.833 -2.5 -50.5 -7.5s-25 -13.5 -34 -25.5s-15.5 -28 -19.5 -48s-6 -45 -6 -75v-109c0 -67.333 8.83301 -114.5 26.5 -141.5s45.5 -40.5 83.5 -40.5h136c20.667 0 38.334 3.16699 53.001 9.5s26.834 16.5 36.501 30.5
s16.834 32.667 21.501 56s7 52 7 86v109zM438.994 741.999c-13.333 0 -20 6.33301 -20 19v131c0 12 6.66699 18 20 18h98c14 0 21 -6 21 -18v-131c0 -12.667 -7 -19 -21 -19h-98zM680.994 741.999c-12.667 0 -19 6.33301 -19 19v131c0 12 6.33301 18 19 18h98
c14 0 21 -6 21 -18v-131c0 -12.667 -7 -19 -21 -19h-98z" />
    <glyph glyph-name="divide" unicode="&#xf7;" horiz-adv-x="747" 
d="M80 301c-18 0 -27 9 -27 27v28c0 18 9 27 27 27h587c18 0 27 -9 27 -27v-28c0 -18 -9 -27 -27 -27h-587zM294 454c-30 0 -45 15 -45 45v144c0 29.333 15 44 45 44h159c30 0 45 -14.667 45 -44v-144c0 -30 -15 -45 -45 -45h-159zM294 0c-30 0 -45 15 -45 45v144
c0 29.333 15 44 45 44h159c30 0 45 -14.667 45 -44v-144c0 -30 -15 -45 -45 -45h-159z" />
    <glyph glyph-name="oslash" unicode="&#xf8;" horiz-adv-x="1220" 
d="M380 0l-42.0029 -55c-5.33301 -7.33301 -10 -11.833 -14 -13.5s-10.333 -2.5 -19 -2.5h-48c-6 0 -11.167 1.33301 -15.5 4s-6.5 6.66699 -6.5 12c0 4.66699 2.33301 10.667 7 18l38 47c-37.333 8.66699 -71 23.167 -101 43.5s-55.5 45 -76.5 74s-37.333 61.5 -49 97.5
s-17.5 74.667 -17.5 116c0 49.333 7.83301 94.833 23.5 136.5s37.834 77.667 66.501 108s63.334 54 104.001 71s85.667 25.5 135 25.5h443l44 56c4.66699 6 9 10.167 13 12.5s10.667 3.5 20 3.5h47c6 0 11.167 -1.33301 15.5 -4s6.5 -6.66699 6.5 -12
s-2.33301 -11.333 -7 -18l-33 -42c41.333 -6.66699 78.666 -19.667 111.999 -39s61.833 -43.833 85.5 -73.5s41.834 -63.5 54.501 -101.5s19 -79 19 -123c0 -48 -8 -92.833 -24 -134.5s-38.5 -77.667 -67.5 -108s-63.667 -54.333 -104 -72s-85.166 -26.5 -134.499 -26.5
h-475zM785.997 409c0 19.333 -1.00195 36.666 -3.00195 51.999s-4.66699 29 -8 41l-294 -375c7.33301 -3.33301 15.166 -5.66602 23.499 -6.99902s17.5 -2 27.5 -2h136c20.667 0 38.334 3.16699 53.001 9.5s26.834 16.5 36.501 30.5s16.834 32.667 21.501 56s7 52 7 86v109z
M712.995 560c-7.33301 2 -14.5 3.33301 -21.5 4s-14.833 1 -23.5 1h-136c-20 0 -36.833 -2.5 -50.5 -7.5s-25 -13.5 -34 -25.5s-15.5 -28 -19.5 -48s-6 -45 -6 -75v-109c0 -39.333 3 -72 9 -98z" />
    <glyph glyph-name="ugrave" unicode="&#xf9;" horiz-adv-x="1188" 
d="M386 0c-61.333 0 -113.669 7.33203 -157.002 21.999s-78.666 35.667 -105.999 63s-47.166 60.333 -59.499 99s-18.5 82 -18.5 130v342c0 17.333 8.66699 26 26 26h374c17.333 0 26 -8.66699 26 -26v-342c0 -61.333 13 -109.333 39 -144s67.333 -52 124 -52h172
c57.333 0 99.5 17.333 126.5 52s40.5 82.667 40.5 144v342c0 17.333 9 26 27 26h120c18 0 27 -8.66699 27 -26v-342c0 -44 -6.83301 -85 -20.5 -123s-34.5 -71.167 -62.5 -99.5s-63.5 -50.666 -106.5 -66.999s-93.5 -24.5 -151.5 -24.5h-420zM560.997 842.999
c-10 2 -15.001 8.33203 -15.001 18.999v53c0 13.333 5.66699 20 17 20c4.66699 0 9.66699 -0.333008 15 -1s10.666 -2.66699 15.999 -6l279 -132c12 -5.33301 18 -12.666 18 -21.999v-45c0 -13.333 -6 -20 -18 -20c-3.33301 0 -6.66602 0.333008 -9.99902 1
s-7.66602 2 -12.999 4z" />
    <glyph glyph-name="uacute" unicode="&#xfa;" horiz-adv-x="1188" 
d="M386 0c-61.333 0 -113.669 7.33203 -157.002 21.999s-78.666 35.667 -105.999 63s-47.166 60.333 -59.499 99s-18.5 82 -18.5 130v342c0 17.333 8.66699 26 26 26h374c17.333 0 26 -8.66699 26 -26v-342c0 -61.333 13 -109.333 39 -144s67.333 -52 124 -52h172
c57.333 0 99.5 17.333 126.5 52s40.5 82.667 40.5 144v342c0 17.333 9 26 27 26h120c18 0 27 -8.66699 27 -26v-342c0 -44 -6.83301 -85 -20.5 -123s-34.5 -71.167 -62.5 -99.5s-63.5 -50.666 -106.5 -66.999s-93.5 -24.5 -151.5 -24.5h-420zM594.997 713.999
c-6.66699 -3.33301 -14.333 -4.99902 -23 -4.99902c-11.333 0 -17 6.66699 -17 20v45c0 9.33301 6 16.666 18 21.999l278 132c6 3.33301 11.5 5.33301 16.5 6s9.83301 1 14.5 1c11.333 0 17 -6.66699 17 -20v-53c0 -10.667 -5 -17 -15 -19z" />
    <glyph glyph-name="ucircumflex" unicode="&#xfb;" horiz-adv-x="1188" 
d="M386 0c-61.333 0 -113.669 7.33203 -157.002 21.999s-78.666 35.667 -105.999 63s-47.166 60.333 -59.499 99s-18.5 82 -18.5 130v342c0 17.333 8.66699 26 26 26h374c17.333 0 26 -8.66699 26 -26v-342c0 -61.333 13 -109.333 39 -144s67.333 -52 124 -52h172
c57.333 0 99.5 17.333 126.5 52s40.5 82.667 40.5 144v342c0 17.333 9 26 27 26h120c18 0 27 -8.66699 27 -26v-342c0 -44 -6.83301 -85 -20.5 -123s-34.5 -71.167 -62.5 -99.5s-63.5 -50.666 -106.5 -66.999s-93.5 -24.5 -151.5 -24.5h-420zM717.997 822.999l-176.997 -98
c-5.33301 -2 -10 -3.83301 -14 -5.5s-8.33301 -2.5 -13 -2.5c-10.667 0 -16 7 -16 21v58c0 8 4 15 12 21l192 109c5.33301 2.66699 10.666 4 15.999 4s10.666 -1.33301 15.999 -4l192 -109c7.33301 -5.33301 11 -12.333 11 -21v-58c0 -14 -5 -21 -15 -21
c-4 0 -8.33301 0.833008 -13 2.5s-9.33398 3.5 -14.001 5.5z" />
    <glyph glyph-name="udieresis" unicode="&#xfc;" horiz-adv-x="1188" 
d="M386 0c-61.333 0 -113.669 7.33203 -157.002 21.999s-78.666 35.667 -105.999 63s-47.166 60.333 -59.499 99s-18.5 82 -18.5 130v342c0 17.333 8.66699 26 26 26h374c17.333 0 26 -8.66699 26 -26v-342c0 -61.333 13 -109.333 39 -144s67.333 -52 124 -52h172
c57.333 0 99.5 17.333 126.5 52s40.5 82.667 40.5 144v342c0 17.333 9 26 27 26h120c18 0 27 -8.66699 27 -26v-342c0 -44 -6.83301 -85 -20.5 -123s-34.5 -71.167 -62.5 -99.5s-63.5 -50.666 -106.5 -66.999s-93.5 -24.5 -151.5 -24.5h-420zM556.997 741.999
c-13.333 0 -20 6.33301 -20 19v131c0 12 6.66699 18 20 18h98c14 0 21 -6 21 -18v-131c0 -12.667 -7 -19 -21 -19h-98zM798.997 741.999c-12.667 0 -19 6.33301 -19 19v131c0 12 6.33301 18 19 18h98c14 0 21 -6 21 -18v-131c0 -12.667 -7 -19 -21 -19h-98z" />
    <glyph glyph-name="yacute" unicode="&#xfd;" horiz-adv-x="1139" 
d="M397 0c-17.333 0 -26 8.99902 -26 26.999v238l-359 383c-6 6 -9 12 -9 18c0 5.33301 2 9.33301 6 12s8.66699 4 14 4h403c18 0 33 -6.66699 45 -20l266 -292l277 293c7.33301 7.33301 14 12.333 20 15s14 4 24 4h58c6.66699 0 11.5 -1.5 14.5 -4.5s4.5 -6.5 4.5 -10.5
c0 -5.33301 -1.66699 -9.66602 -5 -12.999l-362 -383v-244c0 -18 -9 -27 -27 -27h-344zM553 713.999c-6.66699 -3.33301 -14.333 -4.99902 -23 -4.99902c-11.333 0 -17 6.66699 -17 20v45c0 9.33301 6 16.666 18 21.999l278 132c6 3.33301 11.5 5.33301 16.5 6
s9.83301 1 14.5 1c11.333 0 17 -6.66699 17 -20v-53c0 -10.667 -5 -17 -15 -19z" />
    <glyph glyph-name="thorn" unicode="&#xfe;" horiz-adv-x="1177" 
d="M518 108c-17.333 0 -26.001 9 -26.001 27v64c0 17.333 8.66699 26 26 26h128c16 0 30.833 1.83301 44.5 5.5s25.5 9.5 35.5 17.5s18 18.667 24 32s9 29.666 9 48.999c0 34.667 -11 60.334 -33 77.001s-48.667 25 -80 25h-214v-404c0 -18 -9 -27 -27 -27h-343
c-17.333 0 -26 9 -26 27v629c0 17.333 8.66699 26 26 26h343c18 0 27 -8.66699 27 -26v-107h485c32.667 0 63.334 -5 92.001 -15s53.5 -24.667 74.5 -44s37.5 -42.833 49.5 -70.5s18 -59.5 18 -95.5c0 -35.333 -6.66699 -66.5 -20 -93.5s-31.666 -49.5 -54.999 -67.5
s-50.833 -31.667 -82.5 -41s-65.834 -14 -102.501 -14h-373z" />
    <glyph glyph-name="ydieresis" unicode="&#xff;" horiz-adv-x="1139" 
d="M397 0c-17.333 0 -26 8.99902 -26 26.999v238l-359 383c-6 6 -9 12 -9 18c0 5.33301 2 9.33301 6 12s8.66699 4 14 4h403c18 0 33 -6.66699 45 -20l266 -292l277 293c7.33301 7.33301 14 12.333 20 15s14 4 24 4h58c6.66699 0 11.5 -1.5 14.5 -4.5s4.5 -6.5 4.5 -10.5
c0 -5.33301 -1.66699 -9.66602 -5 -12.999l-362 -383v-244c0 -18 -9 -27 -27 -27h-344zM512 741.999c-13.333 0 -20 6.33301 -20 19v131c0 12 6.66699 18 20 18h98c14 0 21 -6 21 -18v-131c0 -12.667 -7 -19 -21 -19h-98zM754 741.999c-12.667 0 -19 6.33301 -19 19v131
c0 12 6.33301 18 19 18h98c14 0 21 -6 21 -18v-131c0 -12.667 -7 -19 -21 -19h-98z" />
    <glyph glyph-name="Amacron" unicode="&#x100;" 
d="M974 0c-21.333 0 -38.668 6.66602 -52.001 19.999l-387 401l-306 -303h454c18 0 27 -9 27 -27v-64c0 -18 -9 -27 -27 -27h-661c-12.667 0 -19 5.66699 -19 17c0 2 0.5 4.5 1.5 7.5s3.16699 5.83301 6.5 8.5l627 630c12.667 12.667 26.667 19 42 19h66
c16.667 0 31.334 -6.33301 44.001 -19l618 -628c3.33301 -3.33301 5.5 -6.66602 6.5 -9.99902s1.5 -6.33301 1.5 -9c0 -10.667 -7.66699 -16 -23 -16h-419zM545.998 762.999c-13.333 0 -20 6 -20 18v56c0 12.667 6.66699 19 20 19h328c12.667 0 19 -6.33301 19 -19v-56
c0 -12 -6.33301 -18 -19 -18h-328z" />
    <glyph glyph-name="amacron" unicode="&#x101;" 
d="M974 0c-21.333 0 -38.668 6.66602 -52.001 19.999l-387 401l-306 -303h454c18 0 27 -9 27 -27v-64c0 -18 -9 -27 -27 -27h-661c-12.667 0 -19 5.66699 -19 17c0 2 0.5 4.5 1.5 7.5s3.16699 5.83301 6.5 8.5l627 630c12.667 12.667 26.667 19 42 19h66
c16.667 0 31.334 -6.33301 44.001 -19l618 -628c3.33301 -3.33301 5.5 -6.66602 6.5 -9.99902s1.5 -6.33301 1.5 -9c0 -10.667 -7.66699 -16 -23 -16h-419zM545.998 762.999c-13.333 0 -20 6 -20 18v56c0 12.667 6.66699 19 20 19h328c12.667 0 19 -6.33301 19 -19v-56
c0 -12 -6.33301 -18 -19 -18h-328z" />
    <glyph glyph-name="Abreve" unicode="&#x102;" 
d="M974 0c-21.333 0 -38.668 6.66602 -52.001 19.999l-387 401l-306 -303h454c18 0 27 -9 27 -27v-64c0 -18 -9 -27 -27 -27h-661c-12.667 0 -19 5.66699 -19 17c0 2 0.5 4.5 1.5 7.5s3.16699 5.83301 6.5 8.5l627 630c12.667 12.667 26.667 19 42 19h66
c16.667 0 31.334 -6.33301 44.001 -19l618 -628c3.33301 -3.33301 5.5 -6.66602 6.5 -9.99902s1.5 -6.33301 1.5 -9c0 -10.667 -7.66699 -16 -23 -16h-419zM794.998 748.999c-6 -5.33301 -16.667 -7.99902 -32 -7.99902h-105c-16 0 -26.667 2.66699 -32 8l-97 87
c-6 4 -9 10.667 -9 20v54c0 16 5.33301 24 16 24c5.33301 0 12 -2.66699 20 -8l101 -83c1.33301 -2.66699 4 -4.33398 8 -5.00098s8.66699 -1 14 -1h62c12 0 20 2 24 6l99 83c8 5.33301 14.667 8 20 8c10.667 0 16 -8 16 -24v-54c0 -9.33301 -3 -16 -9 -20z" />
    <glyph glyph-name="abreve" unicode="&#x103;" 
d="M974 0c-21.333 0 -38.668 6.66602 -52.001 19.999l-387 401l-306 -303h454c18 0 27 -9 27 -27v-64c0 -18 -9 -27 -27 -27h-661c-12.667 0 -19 5.66699 -19 17c0 2 0.5 4.5 1.5 7.5s3.16699 5.83301 6.5 8.5l627 630c12.667 12.667 26.667 19 42 19h66
c16.667 0 31.334 -6.33301 44.001 -19l618 -628c3.33301 -3.33301 5.5 -6.66602 6.5 -9.99902s1.5 -6.33301 1.5 -9c0 -10.667 -7.66699 -16 -23 -16h-419zM794.998 748.999c-6 -5.33301 -16.667 -7.99902 -32 -7.99902h-105c-16 0 -26.667 2.66699 -32 8l-97 87
c-6 4 -9 10.667 -9 20v54c0 16 5.33301 24 16 24c5.33301 0 12 -2.66699 20 -8l101 -83c1.33301 -2.66699 4 -4.33398 8 -5.00098s8.66699 -1 14 -1h62c12 0 20 2 24 6l99 83c8 5.33301 14.667 8 20 8c10.667 0 16 -8 16 -24v-54c0 -9.33301 -3 -16 -9 -20z" />
    <glyph glyph-name="Aogonek" unicode="&#x104;" 
d="M1150 -216c-11.333 0 -21.335 3.66602 -30.002 10.999s-13 17 -13 29c0 5.33301 1.33301 11.5 4 18.5s7 14.167 13 21.5l117 136h-267c-21.333 0 -38.666 6.66699 -51.999 20l-387 401l-306 -303h454c18 0 27 -9 27 -27v-64c0 -18 -9 -27 -27 -27h-661
c-12.667 0 -19 5.66699 -19 17c0 2 0.5 4.5 1.5 7.5s3.16699 5.83301 6.5 8.5l627 630c12.667 12.667 26.667 19 42 19h66c16.667 0 31.334 -6.33301 44.001 -19l618 -628c3.33301 -3.33301 5.5 -6.66602 6.5 -9.99902s1.5 -6.33301 1.5 -9c0 -10.667 -7.66699 -16 -23 -16
h-75l-80 -90c-1.33301 -2.66699 -2 -5 -2 -7c0 -5.33301 3 -8 9 -8h54c12.667 0 19 -7.33301 19 -22v-70c0 -12.667 -5.33301 -19 -16 -19h-152z" />
    <glyph glyph-name="aogonek" unicode="&#x105;" 
d="M1150 -216c-11.333 0 -21.335 3.66602 -30.002 10.999s-13 17 -13 29c0 5.33301 1.33301 11.5 4 18.5s7 14.167 13 21.5l117 136h-267c-21.333 0 -38.666 6.66699 -51.999 20l-387 401l-306 -303h454c18 0 27 -9 27 -27v-64c0 -18 -9 -27 -27 -27h-661
c-12.667 0 -19 5.66699 -19 17c0 2 0.5 4.5 1.5 7.5s3.16699 5.83301 6.5 8.5l627 630c12.667 12.667 26.667 19 42 19h66c16.667 0 31.334 -6.33301 44.001 -19l618 -628c3.33301 -3.33301 5.5 -6.66602 6.5 -9.99902s1.5 -6.33301 1.5 -9c0 -10.667 -7.66699 -16 -23 -16
h-75l-80 -90c-1.33301 -2.66699 -2 -5 -2 -7c0 -5.33301 3 -8 9 -8h54c12.667 0 19 -7.33301 19 -22v-70c0 -12.667 -5.33301 -19 -16 -19h-152z" />
    <glyph glyph-name="Cacute" unicode="&#x106;" horiz-adv-x="1104" 
d="M364 0c-47.333 0 -91.0039 8.49805 -131.004 25.498s-74.667 40.667 -104 71s-52.166 66.333 -68.499 108s-24.5 87.167 -24.5 136.5c0 48.667 7.83301 93.834 23.5 135.501s37.834 77.834 66.501 108.501s63.167 54.5 103.5 71.5s85.166 25.5 134.499 25.5h681
c18 0 27 -8.66699 27 -26v-64c0 -18 -9 -27 -27 -27h-447c-22 0 -40.5 -2.33301 -55.5 -7s-27.167 -13 -36.5 -25s-16 -28 -20 -48s-6 -45.333 -6 -76v-109c0 -34 2.33301 -62.667 7 -86s11.834 -42 21.501 -56s21.834 -24.167 36.501 -30.5s32.334 -9.5 53.001 -9.5h451
c17.333 0 26 -9 26 -27v-64c0 -18 -8.66699 -27 -26 -27h-685zM520.996 713.998c-6.66699 -3.33301 -14.333 -4.99902 -23 -4.99902c-11.333 0 -17 6.66699 -17 20v45c0 9.33301 6 16.666 18 21.999l278 132c6 3.33301 11.5 5.33301 16.5 6s9.83301 1 14.5 1
c11.333 0 17 -6.66699 17 -20v-53c0 -10.667 -5 -17 -15 -19z" />
    <glyph glyph-name="cacute" unicode="&#x107;" horiz-adv-x="1104" 
d="M364 0c-47.333 0 -91.0039 8.49805 -131.004 25.498s-74.667 40.667 -104 71s-52.166 66.333 -68.499 108s-24.5 87.167 -24.5 136.5c0 48.667 7.83301 93.834 23.5 135.501s37.834 77.834 66.501 108.501s63.167 54.5 103.5 71.5s85.166 25.5 134.499 25.5h681
c18 0 27 -8.66699 27 -26v-64c0 -18 -9 -27 -27 -27h-447c-22 0 -40.5 -2.33301 -55.5 -7s-27.167 -13 -36.5 -25s-16 -28 -20 -48s-6 -45.333 -6 -76v-109c0 -34 2.33301 -62.667 7 -86s11.834 -42 21.501 -56s21.834 -24.167 36.501 -30.5s32.334 -9.5 53.001 -9.5h451
c17.333 0 26 -9 26 -27v-64c0 -18 -8.66699 -27 -26 -27h-685zM520.996 713.998c-6.66699 -3.33301 -14.333 -4.99902 -23 -4.99902c-11.333 0 -17 6.66699 -17 20v45c0 9.33301 6 16.666 18 21.999l278 132c6 3.33301 11.5 5.33301 16.5 6s9.83301 1 14.5 1
c11.333 0 17 -6.66699 17 -20v-53c0 -10.667 -5 -17 -15 -19z" />
    <glyph glyph-name="Cdotaccent" unicode="&#x10a;" horiz-adv-x="1104" 
d="M364 0c-47.333 0 -91.0039 8.49805 -131.004 25.498s-74.667 40.667 -104 71s-52.166 66.333 -68.499 108s-24.5 87.167 -24.5 136.5c0 48.667 7.83301 93.834 23.5 135.501s37.834 77.834 66.501 108.501s63.167 54.5 103.5 71.5s85.166 25.5 134.499 25.5h681
c18 0 27 -8.66699 27 -26v-64c0 -18 -9 -27 -27 -27h-447c-22 0 -40.5 -2.33301 -55.5 -7s-27.167 -13 -36.5 -25s-16 -28 -20 -48s-6 -45.333 -6 -76v-109c0 -34 2.33301 -62.667 7 -86s11.834 -42 21.501 -56s21.834 -24.167 36.501 -30.5s32.334 -9.5 53.001 -9.5h451
c17.333 0 26 -9 26 -27v-64c0 -18 -8.66699 -27 -26 -27h-685zM562.996 741.998c-13.333 0 -20 6.33301 -20 19v131c0 12 6.66699 18 20 18h98c14 0 21 -6 21 -18v-131c0 -12.667 -7 -19 -21 -19h-98z" />
    <glyph glyph-name="cdotaccent" unicode="&#x10b;" horiz-adv-x="1104" 
d="M364 0c-47.333 0 -91.0039 8.49805 -131.004 25.498s-74.667 40.667 -104 71s-52.166 66.333 -68.499 108s-24.5 87.167 -24.5 136.5c0 48.667 7.83301 93.834 23.5 135.501s37.834 77.834 66.501 108.501s63.167 54.5 103.5 71.5s85.166 25.5 134.499 25.5h681
c18 0 27 -8.66699 27 -26v-64c0 -18 -9 -27 -27 -27h-447c-22 0 -40.5 -2.33301 -55.5 -7s-27.167 -13 -36.5 -25s-16 -28 -20 -48s-6 -45.333 -6 -76v-109c0 -34 2.33301 -62.667 7 -86s11.834 -42 21.501 -56s21.834 -24.167 36.501 -30.5s32.334 -9.5 53.001 -9.5h451
c17.333 0 26 -9 26 -27v-64c0 -18 -8.66699 -27 -26 -27h-685zM562.996 741.998c-13.333 0 -20 6.33301 -20 19v131c0 12 6.66699 18 20 18h98c14 0 21 -6 21 -18v-131c0 -12.667 -7 -19 -21 -19h-98z" />
    <glyph glyph-name="Ccaron" unicode="&#x10c;" horiz-adv-x="1104" 
d="M364 0c-47.333 0 -91.0039 8.49805 -131.004 25.498s-74.667 40.667 -104 71s-52.166 66.333 -68.499 108s-24.5 87.167 -24.5 136.5c0 48.667 7.83301 93.834 23.5 135.501s37.834 77.834 66.501 108.501s63.167 54.5 103.5 71.5s85.166 25.5 134.499 25.5h681
c18 0 27 -8.66699 27 -26v-64c0 -18 -9 -27 -27 -27h-447c-22 0 -40.5 -2.33301 -55.5 -7s-27.167 -13 -36.5 -25s-16 -28 -20 -48s-6 -45.333 -6 -76v-109c0 -34 2.33301 -62.667 7 -86s11.834 -42 21.501 -56s21.834 -24.167 36.501 -30.5s32.334 -9.5 53.001 -9.5h451
c17.333 0 26 -9 26 -27v-64c0 -18 -8.66699 -27 -26 -27h-685zM609.996 721.998c-5.33301 -3.33301 -10.667 -5.00098 -16 -5.00098c-6 0 -11.333 1.66699 -16 5l-192 110c-8 4.66699 -12 11.334 -12 20.001v58c0 13.333 5.33301 20 16 20c8.66699 0 17.667 -2.33301 27 -7
l177 -98l177 98c8.66699 4.66699 17.667 7 27 7c10 0 15 -6.66699 15 -20v-58c0 -9.33301 -3.66699 -16 -11 -20z" />
    <glyph glyph-name="ccaron" unicode="&#x10d;" horiz-adv-x="1104" 
d="M364 0c-47.333 0 -91.0039 8.49805 -131.004 25.498s-74.667 40.667 -104 71s-52.166 66.333 -68.499 108s-24.5 87.167 -24.5 136.5c0 48.667 7.83301 93.834 23.5 135.501s37.834 77.834 66.501 108.501s63.167 54.5 103.5 71.5s85.166 25.5 134.499 25.5h681
c18 0 27 -8.66699 27 -26v-64c0 -18 -9 -27 -27 -27h-447c-22 0 -40.5 -2.33301 -55.5 -7s-27.167 -13 -36.5 -25s-16 -28 -20 -48s-6 -45.333 -6 -76v-109c0 -34 2.33301 -62.667 7 -86s11.834 -42 21.501 -56s21.834 -24.167 36.501 -30.5s32.334 -9.5 53.001 -9.5h451
c17.333 0 26 -9 26 -27v-64c0 -18 -8.66699 -27 -26 -27h-685zM609.996 721.998c-5.33301 -3.33301 -10.667 -5.00098 -16 -5.00098c-6 0 -11.333 1.66699 -16 5l-192 110c-8 4.66699 -12 11.334 -12 20.001v58c0 13.333 5.33301 20 16 20c8.66699 0 17.667 -2.33301 27 -7
l177 -98l177 98c8.66699 4.66699 17.667 7 27 7c10 0 15 -6.66699 15 -20v-58c0 -9.33301 -3.66699 -16 -11 -20z" />
    <glyph glyph-name="Dcaron" unicode="&#x10e;" horiz-adv-x="1248" 
d="M62 0c-17.333 0 -26.0039 9 -26.0039 27v629c0 17.333 8.66699 26 26 26h804c50 0 95.167 -8.66699 135.5 -26s74.833 -41.166 103.5 -71.499s50.834 -66.333 66.501 -108s23.5 -86.834 23.5 -135.501c0 -49.333 -8.16699 -94.833 -24.5 -136.5
s-39.166 -77.667 -68.499 -108s-64.166 -54 -104.499 -71s-84.166 -25.5 -131.499 -25.5h-804zM749.996 409c0 30.667 -2.00098 56.001 -6.00098 76.001s-10.667 36 -20 48s-21.333 20.333 -36 25s-32.667 7 -54 7h-202v-447h202c20 0 37.333 3.16699 52 9.5
s26.834 16.666 36.501 30.999s16.667 33 21 56s6.5 51.5 6.5 85.5v109zM594.995 722.001c-5.33301 -3.33301 -10.667 -5.00098 -16 -5.00098c-6 0 -11.333 1.66699 -16 5l-192 110c-8 4.66699 -12 11.334 -12 20.001v58c0 13.333 5.33301 20 16 20
c8.66699 0 17.667 -2.33301 27 -7l177 -98l177 98c8.66699 4.66699 17.667 7 27 7c10 0 15 -6.66699 15 -20v-58c0 -9.33301 -3.66699 -16 -11 -20z" />
    <glyph glyph-name="dcaron" unicode="&#x10f;" horiz-adv-x="1248" 
d="M62 0c-17.333 0 -26.0039 9 -26.0039 27v629c0 17.333 8.66699 26 26 26h804c50 0 95.167 -8.66699 135.5 -26s74.833 -41.166 103.5 -71.499s50.834 -66.333 66.501 -108s23.5 -86.834 23.5 -135.501c0 -49.333 -8.16699 -94.833 -24.5 -136.5
s-39.166 -77.667 -68.499 -108s-64.166 -54 -104.499 -71s-84.166 -25.5 -131.499 -25.5h-804zM749.996 409c0 30.667 -2.00098 56.001 -6.00098 76.001s-10.667 36 -20 48s-21.333 20.333 -36 25s-32.667 7 -54 7h-202v-447h202c20 0 37.333 3.16699 52 9.5
s26.834 16.666 36.501 30.999s16.667 33 21 56s6.5 51.5 6.5 85.5v109zM594.995 722.001c-5.33301 -3.33301 -10.667 -5.00098 -16 -5.00098c-6 0 -11.333 1.66699 -16 5l-192 110c-8 4.66699 -12 11.334 -12 20.001v58c0 13.333 5.33301 20 16 20
c8.66699 0 17.667 -2.33301 27 -7l177 -98l177 98c8.66699 4.66699 17.667 7 27 7c10 0 15 -6.66699 15 -20v-58c0 -9.33301 -3.66699 -16 -11 -20z" />
    <glyph glyph-name="Dcroat" unicode="&#x110;" horiz-adv-x="1299" 
d="M113 0c-18 0 -27.001 9 -27.001 27v286h-59c-18 0 -27 8.66699 -27 26v65c0 17.333 9 26 27 26h59v226c0 17.333 9 26 27 26h804c49.333 0 94.166 -8.66699 134.499 -26s74.833 -41.166 103.5 -71.499s50.834 -66.333 66.501 -108s23.5 -86.834 23.5 -135.501
c0 -49.333 -8.16699 -94.833 -24.5 -136.5s-39.166 -77.667 -68.499 -108s-64 -54 -104 -71s-83.667 -25.5 -131 -25.5h-804zM800.999 409c0 30.667 -2.00098 56.001 -6.00098 76.001s-10.667 36 -20 48s-21.333 20.333 -36 25s-32.667 7 -54 7h-202v-135h190
c18 0 27 -6 27 -18v-81c0 -12 -9 -18 -27 -18h-190v-195h202c20 0 37.333 3.16699 52 9.5s26.834 16.666 36.501 30.999s16.667 33 21 56s6.5 51.5 6.5 85.5v109z" />
    <glyph glyph-name="dcroat" unicode="&#x111;" horiz-adv-x="1299" 
d="M113 0c-18 0 -27.001 9 -27.001 27v286h-59c-18 0 -27 8.66699 -27 26v65c0 17.333 9 26 27 26h59v226c0 17.333 9 26 27 26h804c49.333 0 94.166 -8.66699 134.499 -26s74.833 -41.166 103.5 -71.499s50.834 -66.333 66.501 -108s23.5 -86.834 23.5 -135.501
c0 -49.333 -8.16699 -94.833 -24.5 -136.5s-39.166 -77.667 -68.499 -108s-64 -54 -104 -71s-83.667 -25.5 -131 -25.5h-804zM800.999 409c0 30.667 -2.00098 56.001 -6.00098 76.001s-10.667 36 -20 48s-21.333 20.333 -36 25s-32.667 7 -54 7h-202v-135h190
c18 0 27 -6 27 -18v-81c0 -12 -9 -18 -27 -18h-190v-195h202c20 0 37.333 3.16699 52 9.5s26.834 16.666 36.501 30.999s16.667 33 21 56s6.5 51.5 6.5 85.5v109z" />
    <glyph glyph-name="Emacron" unicode="&#x112;" horiz-adv-x="1131" 
d="M578 313c-18 0 -27 8.66699 -27 26v65c0 17.333 9 26 27 26h478c17.333 0 26 -6 26 -18v-81c0 -12 -8.66699 -18 -26 -18h-478zM364 0c-47.333 0 -91.0039 8.49805 -131.004 25.498s-74.667 40.667 -104 71s-52.166 66.333 -68.499 108s-24.5 87.167 -24.5 136.5
c0 48.667 7.83301 93.834 23.5 135.501s37.834 77.834 66.501 108.501s63.167 54.5 103.5 71.5s85.166 25.5 134.499 25.5h699c18 0 27 -8.66699 27 -26v-64c0 -18 -9 -27 -27 -27h-465c-22 0 -40.5 -2.33301 -55.5 -7s-27.167 -13 -36.5 -25s-16 -28 -20 -48
s-6 -45.333 -6 -76v-109c0 -34 2.33301 -62.667 7 -86s11.834 -42 21.501 -56s21.834 -24.167 36.501 -30.5s32.334 -9.5 53.001 -9.5h468c18 0 27 -9 27 -27v-64c0 -18 -9 -27 -27 -27h-702zM437.996 762.998c-13.333 0 -20 6 -20 18v56c0 12.667 6.66699 19 20 19h328
c12.667 0 19 -6.33301 19 -19v-56c0 -12 -6.33301 -18 -19 -18h-328z" />
    <glyph glyph-name="emacron" unicode="&#x113;" horiz-adv-x="1131" 
d="M578 313c-18 0 -27 8.66699 -27 26v65c0 17.333 9 26 27 26h478c17.333 0 26 -6 26 -18v-81c0 -12 -8.66699 -18 -26 -18h-478zM364 0c-47.333 0 -91.0039 8.49805 -131.004 25.498s-74.667 40.667 -104 71s-52.166 66.333 -68.499 108s-24.5 87.167 -24.5 136.5
c0 48.667 7.83301 93.834 23.5 135.501s37.834 77.834 66.501 108.501s63.167 54.5 103.5 71.5s85.166 25.5 134.499 25.5h699c18 0 27 -8.66699 27 -26v-64c0 -18 -9 -27 -27 -27h-465c-22 0 -40.5 -2.33301 -55.5 -7s-27.167 -13 -36.5 -25s-16 -28 -20 -48
s-6 -45.333 -6 -76v-109c0 -34 2.33301 -62.667 7 -86s11.834 -42 21.501 -56s21.834 -24.167 36.501 -30.5s32.334 -9.5 53.001 -9.5h468c18 0 27 -9 27 -27v-64c0 -18 -9 -27 -27 -27h-702zM437.996 762.998c-13.333 0 -20 6 -20 18v56c0 12.667 6.66699 19 20 19h328
c12.667 0 19 -6.33301 19 -19v-56c0 -12 -6.33301 -18 -19 -18h-328z" />
    <glyph glyph-name="Ebreve" unicode="&#x114;" horiz-adv-x="1131" 
d="M578 313c-18 0 -27 8.66699 -27 26v65c0 17.333 9 26 27 26h478c17.333 0 26 -6 26 -18v-81c0 -12 -8.66699 -18 -26 -18h-478zM364 0c-47.333 0 -91.0039 8.49805 -131.004 25.498s-74.667 40.667 -104 71s-52.166 66.333 -68.499 108s-24.5 87.167 -24.5 136.5
c0 48.667 7.83301 93.834 23.5 135.501s37.834 77.834 66.501 108.501s63.167 54.5 103.5 71.5s85.166 25.5 134.499 25.5h699c18 0 27 -8.66699 27 -26v-64c0 -18 -9 -27 -27 -27h-465c-22 0 -40.5 -2.33301 -55.5 -7s-27.167 -13 -36.5 -25s-16 -28 -20 -48
s-6 -45.333 -6 -76v-109c0 -34 2.33301 -62.667 7 -86s11.834 -42 21.501 -56s21.834 -24.167 36.501 -30.5s32.334 -9.5 53.001 -9.5h468c18 0 27 -9 27 -27v-64c0 -18 -9 -27 -27 -27h-702zM674.996 748.998c-6 -5.33301 -16.667 -7.99902 -32 -7.99902h-105
c-16 0 -26.667 2.66699 -32 8l-97 87c-6 4 -9 10.667 -9 20v54c0 16 5.33301 24 16 24c5.33301 0 12 -2.66699 20 -8l101 -83c1.33301 -2.66699 4 -4.33398 8 -5.00098s8.66699 -1 14 -1h62c12 0 20 2 24 6l99 83c8 5.33301 14.667 8 20 8c10.667 0 16 -8 16 -24v-54
c0 -9.33301 -3 -16 -9 -20z" />
    <glyph glyph-name="ebreve" unicode="&#x115;" horiz-adv-x="1131" 
d="M578 313c-18 0 -27 8.66699 -27 26v65c0 17.333 9 26 27 26h478c17.333 0 26 -6 26 -18v-81c0 -12 -8.66699 -18 -26 -18h-478zM364 0c-47.333 0 -91.0039 8.49805 -131.004 25.498s-74.667 40.667 -104 71s-52.166 66.333 -68.499 108s-24.5 87.167 -24.5 136.5
c0 48.667 7.83301 93.834 23.5 135.501s37.834 77.834 66.501 108.501s63.167 54.5 103.5 71.5s85.166 25.5 134.499 25.5h699c18 0 27 -8.66699 27 -26v-64c0 -18 -9 -27 -27 -27h-465c-22 0 -40.5 -2.33301 -55.5 -7s-27.167 -13 -36.5 -25s-16 -28 -20 -48
s-6 -45.333 -6 -76v-109c0 -34 2.33301 -62.667 7 -86s11.834 -42 21.501 -56s21.834 -24.167 36.501 -30.5s32.334 -9.5 53.001 -9.5h468c18 0 27 -9 27 -27v-64c0 -18 -9 -27 -27 -27h-702zM674.996 748.998c-6 -5.33301 -16.667 -7.99902 -32 -7.99902h-105
c-16 0 -26.667 2.66699 -32 8l-97 87c-6 4 -9 10.667 -9 20v54c0 16 5.33301 24 16 24c5.33301 0 12 -2.66699 20 -8l101 -83c1.33301 -2.66699 4 -4.33398 8 -5.00098s8.66699 -1 14 -1h62c12 0 20 2 24 6l99 83c8 5.33301 14.667 8 20 8c10.667 0 16 -8 16 -24v-54
c0 -9.33301 -3 -16 -9 -20z" />
    <glyph glyph-name="Edotaccent" unicode="&#x116;" horiz-adv-x="1131" 
d="M578 313c-18 0 -27 8.66699 -27 26v65c0 17.333 9 26 27 26h478c17.333 0 26 -6 26 -18v-81c0 -12 -8.66699 -18 -26 -18h-478zM364 0c-47.333 0 -91.0039 8.49805 -131.004 25.498s-74.667 40.667 -104 71s-52.166 66.333 -68.499 108s-24.5 87.167 -24.5 136.5
c0 48.667 7.83301 93.834 23.5 135.501s37.834 77.834 66.501 108.501s63.167 54.5 103.5 71.5s85.166 25.5 134.499 25.5h699c18 0 27 -8.66699 27 -26v-64c0 -18 -9 -27 -27 -27h-465c-22 0 -40.5 -2.33301 -55.5 -7s-27.167 -13 -36.5 -25s-16 -28 -20 -48
s-6 -45.333 -6 -76v-109c0 -34 2.33301 -62.667 7 -86s11.834 -42 21.501 -56s21.834 -24.167 36.501 -30.5s32.334 -9.5 53.001 -9.5h468c18 0 27 -9 27 -27v-64c0 -18 -9 -27 -27 -27h-702zM562.996 741.998c-13.333 0 -20 6.33301 -20 19v131c0 12 6.66699 18 20 18h98
c14 0 21 -6 21 -18v-131c0 -12.667 -7 -19 -21 -19h-98z" />
    <glyph glyph-name="edotaccent" unicode="&#x117;" horiz-adv-x="1131" 
d="M578 313c-18 0 -27 8.66699 -27 26v65c0 17.333 9 26 27 26h478c17.333 0 26 -6 26 -18v-81c0 -12 -8.66699 -18 -26 -18h-478zM364 0c-47.333 0 -91.0039 8.49805 -131.004 25.498s-74.667 40.667 -104 71s-52.166 66.333 -68.499 108s-24.5 87.167 -24.5 136.5
c0 48.667 7.83301 93.834 23.5 135.501s37.834 77.834 66.501 108.501s63.167 54.5 103.5 71.5s85.166 25.5 134.499 25.5h699c18 0 27 -8.66699 27 -26v-64c0 -18 -9 -27 -27 -27h-465c-22 0 -40.5 -2.33301 -55.5 -7s-27.167 -13 -36.5 -25s-16 -28 -20 -48
s-6 -45.333 -6 -76v-109c0 -34 2.33301 -62.667 7 -86s11.834 -42 21.501 -56s21.834 -24.167 36.501 -30.5s32.334 -9.5 53.001 -9.5h468c18 0 27 -9 27 -27v-64c0 -18 -9 -27 -27 -27h-702zM562.996 741.998c-13.333 0 -20 6.33301 -20 19v131c0 12 6.66699 18 20 18h98
c14 0 21 -6 21 -18v-131c0 -12.667 -7 -19 -21 -19h-98z" />
    <glyph glyph-name="Eogonek" unicode="&#x118;" horiz-adv-x="1131" 
d="M912 -216c-11.333 0 -21.3379 3.66504 -30.0049 10.998s-13 17 -13 29c0 5.33301 1.33301 11.5 4 18.5s7 14.167 13 21.5l117 136h-639c-47.333 0 -91 8.5 -131 25.5s-74.667 40.667 -104 71s-52.166 66.333 -68.499 108s-24.5 87.167 -24.5 136.5
c0 48.667 7.83301 93.834 23.5 135.501s37.834 77.834 66.501 108.501s63.167 54.5 103.5 71.5s85.166 25.5 134.499 25.5h699c18 0 27 -8.66699 27 -26v-64c0 -18 -9 -27 -27 -27h-465c-22 0 -40.5 -2.33301 -55.5 -7s-27.167 -13 -36.5 -25s-16 -28 -20 -48
s-6 -45.333 -6 -76v-109c0 -34 2.33301 -62.667 7 -86s11.834 -42 21.501 -56s21.834 -24.167 36.501 -30.5s32.334 -9.5 53.001 -9.5h468c18 0 27 -9 27 -27v-64c0 -4.66699 -0.666992 -8.5 -2 -11.5s-2.66602 -5.83301 -3.99902 -8.5l-87 -97
c-1.33301 -2.66699 -2 -5 -2 -7c0 -5.33301 3.33301 -8 10 -8h53c13.333 0 20 -7.33301 20 -22v-70c0 -12.667 -5.33301 -19 -16 -19h-153zM577.995 312.998c-18 0 -27 8.66699 -27 26v65c0 17.333 9 26 27 26h478c17.333 0 26 -6 26 -18v-81c0 -12 -8.66699 -18 -26 -18
h-478z" />
    <glyph glyph-name="eogonek" unicode="&#x119;" horiz-adv-x="1131" 
d="M912 -216c-11.333 0 -21.3379 3.66504 -30.0049 10.998s-13 17 -13 29c0 5.33301 1.33301 11.5 4 18.5s7 14.167 13 21.5l117 136h-639c-47.333 0 -91 8.5 -131 25.5s-74.667 40.667 -104 71s-52.166 66.333 -68.499 108s-24.5 87.167 -24.5 136.5
c0 48.667 7.83301 93.834 23.5 135.501s37.834 77.834 66.501 108.501s63.167 54.5 103.5 71.5s85.166 25.5 134.499 25.5h699c18 0 27 -8.66699 27 -26v-64c0 -18 -9 -27 -27 -27h-465c-22 0 -40.5 -2.33301 -55.5 -7s-27.167 -13 -36.5 -25s-16 -28 -20 -48
s-6 -45.333 -6 -76v-109c0 -34 2.33301 -62.667 7 -86s11.834 -42 21.501 -56s21.834 -24.167 36.501 -30.5s32.334 -9.5 53.001 -9.5h468c18 0 27 -9 27 -27v-64c0 -4.66699 -0.666992 -8.5 -2 -11.5s-2.66602 -5.83301 -3.99902 -8.5l-87 -97
c-1.33301 -2.66699 -2 -5 -2 -7c0 -5.33301 3.33301 -8 10 -8h53c13.333 0 20 -7.33301 20 -22v-70c0 -12.667 -5.33301 -19 -16 -19h-153zM577.995 312.998c-18 0 -27 8.66699 -27 26v65c0 17.333 9 26 27 26h478c17.333 0 26 -6 26 -18v-81c0 -12 -8.66699 -18 -26 -18
h-478z" />
    <glyph glyph-name="Ecaron" unicode="&#x11a;" horiz-adv-x="1131" 
d="M578 313c-18 0 -27 8.66699 -27 26v65c0 17.333 9 26 27 26h478c17.333 0 26 -6 26 -18v-81c0 -12 -8.66699 -18 -26 -18h-478zM364 0c-47.333 0 -91.0039 8.49805 -131.004 25.498s-74.667 40.667 -104 71s-52.166 66.333 -68.499 108s-24.5 87.167 -24.5 136.5
c0 48.667 7.83301 93.834 23.5 135.501s37.834 77.834 66.501 108.501s63.167 54.5 103.5 71.5s85.166 25.5 134.499 25.5h699c18 0 27 -8.66699 27 -26v-64c0 -18 -9 -27 -27 -27h-465c-22 0 -40.5 -2.33301 -55.5 -7s-27.167 -13 -36.5 -25s-16 -28 -20 -48
s-6 -45.333 -6 -76v-109c0 -34 2.33301 -62.667 7 -86s11.834 -42 21.501 -56s21.834 -24.167 36.501 -30.5s32.334 -9.5 53.001 -9.5h468c18 0 27 -9 27 -27v-64c0 -18 -9 -27 -27 -27h-702zM609.996 721.998c-5.33301 -3.33301 -10.667 -5.00098 -16 -5.00098
c-6 0 -11.333 1.66699 -16 5l-192 110c-8 4.66699 -12 11.334 -12 20.001v58c0 13.333 5.33301 20 16 20c8.66699 0 17.667 -2.33301 27 -7l177 -98l177 98c8.66699 4.66699 17.667 7 27 7c10 0 15 -6.66699 15 -20v-58c0 -9.33301 -3.66699 -16 -11 -20z" />
    <glyph glyph-name="ecaron" unicode="&#x11b;" horiz-adv-x="1131" 
d="M578 313c-18 0 -27 8.66699 -27 26v65c0 17.333 9 26 27 26h478c17.333 0 26 -6 26 -18v-81c0 -12 -8.66699 -18 -26 -18h-478zM364 0c-47.333 0 -91.0039 8.49805 -131.004 25.498s-74.667 40.667 -104 71s-52.166 66.333 -68.499 108s-24.5 87.167 -24.5 136.5
c0 48.667 7.83301 93.834 23.5 135.501s37.834 77.834 66.501 108.501s63.167 54.5 103.5 71.5s85.166 25.5 134.499 25.5h699c18 0 27 -8.66699 27 -26v-64c0 -18 -9 -27 -27 -27h-465c-22 0 -40.5 -2.33301 -55.5 -7s-27.167 -13 -36.5 -25s-16 -28 -20 -48
s-6 -45.333 -6 -76v-109c0 -34 2.33301 -62.667 7 -86s11.834 -42 21.501 -56s21.834 -24.167 36.501 -30.5s32.334 -9.5 53.001 -9.5h468c18 0 27 -9 27 -27v-64c0 -18 -9 -27 -27 -27h-702zM609.996 721.998c-5.33301 -3.33301 -10.667 -5.00098 -16 -5.00098
c-6 0 -11.333 1.66699 -16 5l-192 110c-8 4.66699 -12 11.334 -12 20.001v58c0 13.333 5.33301 20 16 20c8.66699 0 17.667 -2.33301 27 -7l177 -98l177 98c8.66699 4.66699 17.667 7 27 7c10 0 15 -6.66699 15 -20v-58c0 -9.33301 -3.66699 -16 -11 -20z" />
    <glyph glyph-name="Gbreve" unicode="&#x11e;" horiz-adv-x="1172" 
d="M364 0c-47.333 0 -91.0039 8.49805 -131.004 25.498s-74.667 40.667 -104 71s-52.166 66.333 -68.499 108s-24.5 87.167 -24.5 136.5c0 48.667 7.83301 93.834 23.5 135.501s37.834 77.834 66.501 108.501s63.167 54.5 103.5 71.5s85.166 25.5 134.499 25.5h697
c18 0 27 -8.66699 27 -26v-64c0 -18 -9 -27 -27 -27h-463c-22 0 -40.5 -2.33301 -55.5 -7s-27.167 -13 -36.5 -25s-16 -28 -20 -48s-6 -45.333 -6 -76v-109c0 -34 2.33301 -62.667 7 -86s11.834 -42 21.501 -56s21.834 -24.167 36.501 -30.5s32.334 -9.5 53.001 -9.5h177
v306c0 18 8.66699 27 26 27h286c18 0 27 -9 27 -27v-397c0 -18 -9 -27 -27 -27h-723zM683.996 748.998c-6 -5.33301 -16.667 -7.99902 -32 -7.99902h-105c-16 0 -26.667 2.66699 -32 8l-97 87c-6 4 -9 10.667 -9 20v54c0 16 5.33301 24 16 24c5.33301 0 12 -2.66699 20 -8
l101 -83c1.33301 -2.66699 4 -4.33398 8 -5.00098s8.66699 -1 14 -1h62c12 0 20 2 24 6l99 83c8 5.33301 14.667 8 20 8c10.667 0 16 -8 16 -24v-54c0 -9.33301 -3 -16 -9 -20z" />
    <glyph glyph-name="gbreve" unicode="&#x11f;" horiz-adv-x="1172" 
d="M364 0c-47.333 0 -91.0039 8.49805 -131.004 25.498s-74.667 40.667 -104 71s-52.166 66.333 -68.499 108s-24.5 87.167 -24.5 136.5c0 48.667 7.83301 93.834 23.5 135.501s37.834 77.834 66.501 108.501s63.167 54.5 103.5 71.5s85.166 25.5 134.499 25.5h697
c18 0 27 -8.66699 27 -26v-64c0 -18 -9 -27 -27 -27h-463c-22 0 -40.5 -2.33301 -55.5 -7s-27.167 -13 -36.5 -25s-16 -28 -20 -48s-6 -45.333 -6 -76v-109c0 -34 2.33301 -62.667 7 -86s11.834 -42 21.501 -56s21.834 -24.167 36.501 -30.5s32.334 -9.5 53.001 -9.5h177
v306c0 18 8.66699 27 26 27h286c18 0 27 -9 27 -27v-397c0 -18 -9 -27 -27 -27h-723zM683.996 748.998c-6 -5.33301 -16.667 -7.99902 -32 -7.99902h-105c-16 0 -26.667 2.66699 -32 8l-97 87c-6 4 -9 10.667 -9 20v54c0 16 5.33301 24 16 24c5.33301 0 12 -2.66699 20 -8
l101 -83c1.33301 -2.66699 4 -4.33398 8 -5.00098s8.66699 -1 14 -1h62c12 0 20 2 24 6l99 83c8 5.33301 14.667 8 20 8c10.667 0 16 -8 16 -24v-54c0 -9.33301 -3 -16 -9 -20z" />
    <glyph glyph-name="Gdotaccent" unicode="&#x120;" horiz-adv-x="1172" 
d="M364 0c-47.333 0 -91.0039 8.49805 -131.004 25.498s-74.667 40.667 -104 71s-52.166 66.333 -68.499 108s-24.5 87.167 -24.5 136.5c0 48.667 7.83301 93.834 23.5 135.501s37.834 77.834 66.501 108.501s63.167 54.5 103.5 71.5s85.166 25.5 134.499 25.5h697
c18 0 27 -8.66699 27 -26v-64c0 -18 -9 -27 -27 -27h-463c-22 0 -40.5 -2.33301 -55.5 -7s-27.167 -13 -36.5 -25s-16 -28 -20 -48s-6 -45.333 -6 -76v-109c0 -34 2.33301 -62.667 7 -86s11.834 -42 21.501 -56s21.834 -24.167 36.501 -30.5s32.334 -9.5 53.001 -9.5h177
v306c0 18 8.66699 27 26 27h286c18 0 27 -9 27 -27v-397c0 -18 -9 -27 -27 -27h-723zM553.996 741.998c-13.333 0 -20 6.33301 -20 19v131c0 12 6.66699 18 20 18h98c14 0 21 -6 21 -18v-131c0 -12.667 -7 -19 -21 -19h-98z" />
    <glyph glyph-name="gdotaccent" unicode="&#x121;" horiz-adv-x="1172" 
d="M364 0c-47.333 0 -91.0039 8.49805 -131.004 25.498s-74.667 40.667 -104 71s-52.166 66.333 -68.499 108s-24.5 87.167 -24.5 136.5c0 48.667 7.83301 93.834 23.5 135.501s37.834 77.834 66.501 108.501s63.167 54.5 103.5 71.5s85.166 25.5 134.499 25.5h697
c18 0 27 -8.66699 27 -26v-64c0 -18 -9 -27 -27 -27h-463c-22 0 -40.5 -2.33301 -55.5 -7s-27.167 -13 -36.5 -25s-16 -28 -20 -48s-6 -45.333 -6 -76v-109c0 -34 2.33301 -62.667 7 -86s11.834 -42 21.501 -56s21.834 -24.167 36.501 -30.5s32.334 -9.5 53.001 -9.5h177
v306c0 18 8.66699 27 26 27h286c18 0 27 -9 27 -27v-397c0 -18 -9 -27 -27 -27h-723zM553.996 741.998c-13.333 0 -20 6.33301 -20 19v131c0 12 6.66699 18 20 18h98c14 0 21 -6 21 -18v-131c0 -12.667 -7 -19 -21 -19h-98z" />
    <glyph glyph-name="Gcommaaccent" unicode="&#x122;" horiz-adv-x="1172" 
d="M364 0c-47.333 0 -91.0039 8.49805 -131.004 25.498s-74.667 40.667 -104 71s-52.166 66.333 -68.499 108s-24.5 87.167 -24.5 136.5c0 48.667 7.83301 93.834 23.5 135.501s37.834 77.834 66.501 108.501s63.167 54.5 103.5 71.5s85.166 25.5 134.499 25.5h697
c18 0 27 -8.66699 27 -26v-64c0 -18 -9 -27 -27 -27h-463c-22 0 -40.5 -2.33301 -55.5 -7s-27.167 -13 -36.5 -25s-16 -28 -20 -48s-6 -45.333 -6 -76v-109c0 -34 2.33301 -62.667 7 -86s11.834 -42 21.501 -56s21.834 -24.167 36.501 -30.5s32.334 -9.5 53.001 -9.5h177
v306c0 18 8.66699 27 26 27h286c18 0 27 -9 27 -27v-397c0 -18 -9 -27 -27 -27h-723zM565.996 -216.002c-11.333 0 -18.001 6.33301 -20.001 19l-12 111c-0.666992 4 -1 8.16699 -1 12.5v11.5v11c0 10 6 15 18 15h104c12 0 18 -5 18 -15v-11v-11.5
c0 -4.33301 -0.333008 -8.5 -1 -12.5l-12 -111c-1.33301 -12.667 -7.66602 -19 -18.999 -19h-75z" />
    <glyph glyph-name="gcommaaccent" unicode="&#x123;" horiz-adv-x="1172" 
d="M364 0c-47.333 0 -91.0039 8.49805 -131.004 25.498s-74.667 40.667 -104 71s-52.166 66.333 -68.499 108s-24.5 87.167 -24.5 136.5c0 48.667 7.83301 93.834 23.5 135.501s37.834 77.834 66.501 108.501s63.167 54.5 103.5 71.5s85.166 25.5 134.499 25.5h697
c18 0 27 -8.66699 27 -26v-64c0 -18 -9 -27 -27 -27h-463c-22 0 -40.5 -2.33301 -55.5 -7s-27.167 -13 -36.5 -25s-16 -28 -20 -48s-6 -45.333 -6 -76v-109c0 -34 2.33301 -62.667 7 -86s11.834 -42 21.501 -56s21.834 -24.167 36.501 -30.5s32.334 -9.5 53.001 -9.5h177
v306c0 18 8.66699 27 26 27h286c18 0 27 -9 27 -27v-397c0 -18 -9 -27 -27 -27h-723zM565.996 -216.002c-11.333 0 -18.001 6.33301 -20.001 19l-12 111c-0.666992 4 -1 8.16699 -1 12.5v11.5v11c0 10 6 15 18 15h104c12 0 18 -5 18 -15v-11v-11.5
c0 -4.33301 -0.333008 -8.5 -1 -12.5l-12 -111c-1.33301 -12.667 -7.66602 -19 -18.999 -19h-75z" />
    <glyph glyph-name="Hbar" unicode="&#x126;" horiz-adv-x="1200" 
d="M777 0c-18 0 -27 9 -27 27v286h-300v-286c0 -18 -8.66699 -27 -26 -27h-344c-18 0 -27 9 -27 27v629c0 17.333 9 26 27 26h344c17.333 0 26 -8.66699 26 -26v-49h300v49c0 17.333 9 26 27 26h344c17.333 0 26 -8.66699 26 -26v-629c0 -18 -8.66699 -27 -26 -27h-344z
M750 430v83h-300v-83h300z" />
    <glyph glyph-name="hbar" unicode="&#x127;" horiz-adv-x="1200" 
d="M777 0c-18 0 -27 9 -27 27v286h-300v-286c0 -18 -8.66699 -27 -26 -27h-344c-18 0 -27 9 -27 27v629c0 17.333 9 26 27 26h344c17.333 0 26 -8.66699 26 -26v-49h300v49c0 17.333 9 26 27 26h344c17.333 0 26 -8.66699 26 -26v-629c0 -18 -8.66699 -27 -26 -27h-344z
M750 430v83h-300v-83h300z" />
    <glyph glyph-name="uni012A" unicode="&#x12a;" horiz-adv-x="513" 
d="M84 0c-17.333 0 -26 9 -26 27v629c0 17.333 8.66699 26 26 26h345c17.333 0 26 -8.66699 26 -26v-629c0 -18 -8.66699 -27 -26 -27h-345zM93 763c-13.333 0 -20 6 -20 18v56c0 12.667 6.66699 19 20 19h328c12.667 0 19 -6.33301 19 -19v-56c0 -12 -6.33301 -18 -19 -18
h-328z" />
    <glyph glyph-name="imacron" unicode="&#x12b;" horiz-adv-x="513" 
d="M84 0c-17.333 0 -26 9 -26 27v629c0 17.333 8.66699 26 26 26h345c17.333 0 26 -8.66699 26 -26v-629c0 -18 -8.66699 -27 -26 -27h-345zM93 763c-13.333 0 -20 6 -20 18v56c0 12.667 6.66699 19 20 19h328c12.667 0 19 -6.33301 19 -19v-56c0 -12 -6.33301 -18 -19 -18
h-328z" />
    <glyph glyph-name="Ibreve" unicode="&#x12c;" horiz-adv-x="513" 
d="M84 0c-17.333 0 -26 9 -26 27v629c0 17.333 8.66699 26 26 26h345c17.333 0 26 -8.66699 26 -26v-629c0 -18 -8.66699 -27 -26 -27h-345zM341 749c-6 -5.33301 -16.667 -7.99902 -32 -7.99902h-105c-16 0 -26.667 2.66699 -32 8l-97 87c-6 4 -9 10.667 -9 20v54
c0 16 5.33301 24 16 24c5.33301 0 12 -2.66699 20 -8l101 -83c1.33301 -2.66699 4 -4.33398 8 -5.00098s8.66699 -1 14 -1h62c12 0 20 2 24 6l99 83c8 5.33301 14.667 8 20 8c10.667 0 16 -8 16 -24v-54c0 -9.33301 -3 -16 -9 -20z" />
    <glyph glyph-name="ibreve" unicode="&#x12d;" horiz-adv-x="513" 
d="M84 0c-17.333 0 -26 9 -26 27v629c0 17.333 8.66699 26 26 26h345c17.333 0 26 -8.66699 26 -26v-629c0 -18 -8.66699 -27 -26 -27h-345zM341 749c-6 -5.33301 -16.667 -7.99902 -32 -7.99902h-105c-16 0 -26.667 2.66699 -32 8l-97 87c-6 4 -9 10.667 -9 20v54
c0 16 5.33301 24 16 24c5.33301 0 12 -2.66699 20 -8l101 -83c1.33301 -2.66699 4 -4.33398 8 -5.00098s8.66699 -1 14 -1h62c12 0 20 2 24 6l99 83c8 5.33301 14.667 8 20 8c10.667 0 16 -8 16 -24v-54c0 -9.33301 -3 -16 -9 -20z" />
    <glyph glyph-name="Iogonek" unicode="&#x12e;" horiz-adv-x="513" 
d="M193 -216c-11.333 0 -21.167 3.66699 -29.5 11s-12.5 17 -12.5 29c0 5.33301 1.16699 11.5 3.5 18.5s6.5 14.167 12.5 21.5l117 136h-200c-17.333 0 -26 9 -26 27v629c0 17.333 8.66699 26 26 26h345c17.333 0 26 -8.66699 26 -26v-629c0 -18 -8.66699 -27 -26 -27h-67
l-80 -90c-2 -2 -3 -4.33301 -3 -7c0 -5.33301 3.33301 -8 10 -8h53c13.333 0 20 -7.33301 20 -22v-70c0 -12.667 -5.33301 -19 -16 -19h-153z" />
    <glyph glyph-name="iogonek" unicode="&#x12f;" horiz-adv-x="513" 
d="M193 -216c-11.333 0 -21.167 3.66699 -29.5 11s-12.5 17 -12.5 29c0 5.33301 1.16699 11.5 3.5 18.5s6.5 14.167 12.5 21.5l117 136h-200c-17.333 0 -26 9 -26 27v629c0 17.333 8.66699 26 26 26h345c17.333 0 26 -8.66699 26 -26v-629c0 -18 -8.66699 -27 -26 -27h-67
l-80 -90c-2 -2 -3 -4.33301 -3 -7c0 -5.33301 3.33301 -8 10 -8h53c13.333 0 20 -7.33301 20 -22v-70c0 -12.667 -5.33301 -19 -16 -19h-153z" />
    <glyph glyph-name="Idotaccent" unicode="&#x130;" horiz-adv-x="513" 
d="M84 0c-17.333 0 -26 9 -26 27v629c0 17.333 8.66699 26 26 26h345c17.333 0 26 -8.66699 26 -26v-629c0 -18 -8.66699 -27 -26 -27h-345zM207 742c-13.333 0 -20 6.33301 -20 19v131c0 12 6.66699 18 20 18h98c14 0 21 -6 21 -18v-131c0 -12.667 -7 -19 -21 -19h-98z" />
    <glyph glyph-name="dotlessi" unicode="&#x131;" horiz-adv-x="513" 
d="M84 0c-17.333 0 -26 9 -26 27v629c0 17.333 8.66699 26 26 26h345c17.333 0 26 -8.66699 26 -26v-629c0 -18 -8.66699 -27 -26 -27h-345z" />
    <glyph glyph-name="IJ" unicode="&#x132;" horiz-adv-x="1460" 
d="M84 0c-17.333 0 -26 9 -26 27v629c0 17.333 8.66699 26 26 26h345c17.333 0 26 -8.66699 26 -26v-629c0 -18 -8.66699 -27 -26 -27h-345zM550 0c-17.333 0 -26 8.99902 -26 26.999v64c0 18 8.66699 27 26 27h311c44 0 74.667 11.5 92 34.5s26 60.5 26 112.5v391
c0 17.333 9 26 27 26h383c17.333 0 26 -8.66699 26 -26v-374c0 -41.333 -6 -79.166 -18 -113.499s-30 -64 -54 -89s-54.333 -44.5 -91 -58.5s-80 -21 -130 -21h-572z" />
    <glyph glyph-name="ij" unicode="&#x133;" horiz-adv-x="1460" 
d="M84 0c-17.333 0 -26 9 -26 27v629c0 17.333 8.66699 26 26 26h345c17.333 0 26 -8.66699 26 -26v-629c0 -18 -8.66699 -27 -26 -27h-345zM550 0c-17.333 0 -26 8.99902 -26 26.999v64c0 18 8.66699 27 26 27h311c44 0 74.667 11.5 92 34.5s26 60.5 26 112.5v391
c0 17.333 9 26 27 26h383c17.333 0 26 -8.66699 26 -26v-374c0 -41.333 -6 -79.166 -18 -113.499s-30 -64 -54 -89s-54.333 -44.5 -91 -58.5s-80 -21 -130 -21h-572z" />
    <glyph glyph-name="Kcommaaccent" unicode="&#x136;" horiz-adv-x="1302" 
d="M926 0c-14 0 -25.999 2.16797 -35.999 6.50098s-20.333 11.166 -31 20.499l-342 297c-7.33301 6 -12.333 12.5 -15 19.5s-4 16.5 -4 28.5v29c0 11.333 1.33301 19.666 4 24.999s8 10.333 16 15l400 215c13.333 7.33301 27 13.5 41 18.5s29 7.5 45 7.5h202
c7.33301 0 12.666 -1.66699 15.999 -5s5 -7.33301 5 -12c0 -7.33301 -4 -13 -12 -17l-397 -213l464 -390c9.33301 -7.33301 14 -15.666 14 -24.999c0 -5.33301 -2.33301 -10 -7 -14s-12 -6 -22 -6h-341zM79.001 0.000976562c-17.333 0 -26 9 -26 27v629
c0 17.333 8.66699 26 26 26h344c18 0 27 -8.66699 27 -26v-629c0 -18 -9 -27 -27 -27h-344zM631.001 -215.999c-11.333 0 -18.001 6.33301 -20.001 19l-12 111c-0.666992 4 -1 8.16699 -1 12.5v11.5v11c0 10 6 15 18 15h104c12 0 18 -5 18 -15v-11v-11.5
c0 -4.33301 -0.333008 -8.5 -1 -12.5l-12 -111c-1.33301 -12.667 -7.66602 -19 -18.999 -19h-75z" />
    <glyph glyph-name="kcommaaccent" unicode="&#x137;" horiz-adv-x="1302" 
d="M926 0c-14 0 -25.999 2.16797 -35.999 6.50098s-20.333 11.166 -31 20.499l-342 297c-7.33301 6 -12.333 12.5 -15 19.5s-4 16.5 -4 28.5v29c0 11.333 1.33301 19.666 4 24.999s8 10.333 16 15l400 215c13.333 7.33301 27 13.5 41 18.5s29 7.5 45 7.5h202
c7.33301 0 12.666 -1.66699 15.999 -5s5 -7.33301 5 -12c0 -7.33301 -4 -13 -12 -17l-397 -213l464 -390c9.33301 -7.33301 14 -15.666 14 -24.999c0 -5.33301 -2.33301 -10 -7 -14s-12 -6 -22 -6h-341zM79.001 0.000976562c-17.333 0 -26 9 -26 27v629
c0 17.333 8.66699 26 26 26h344c18 0 27 -8.66699 27 -26v-629c0 -18 -9 -27 -27 -27h-344zM631.001 -215.999c-11.333 0 -18.001 6.33301 -20.001 19l-12 111c-0.666992 4 -1 8.16699 -1 12.5v11.5v11c0 10 6 15 18 15h104c12 0 18 -5 18 -15v-11v-11.5
c0 -4.33301 -0.333008 -8.5 -1 -12.5l-12 -111c-1.33301 -12.667 -7.66602 -19 -18.999 -19h-75z" />
    <glyph glyph-name="Lacute" unicode="&#x139;" horiz-adv-x="1026" 
d="M338 0c-50 0 -93.333 7.00098 -130 21.001s-67 33.5 -91 58.5s-42 54.667 -54 89s-18 72.166 -18 113.499v374c0 17.333 8.66699 26 26 26h383c18 0 27 -8.66699 27 -26v-391c0 -52 8.66699 -89.5 26 -112.5s48 -34.5 92 -34.5h393c17.333 0 26 -9 26 -27v-64
c0 -18 -8.66699 -27 -26 -27h-654zM96 714.001c-6.66699 -3.33301 -14.333 -4.99902 -23 -4.99902c-11.333 0 -17 6.66699 -17 20v45c0 9.33301 6 16.666 18 21.999l278 132c6 3.33301 11.5 5.33301 16.5 6s9.83301 1 14.5 1c11.333 0 17 -6.66699 17 -20v-53
c0 -10.667 -5 -17 -15 -19z" />
    <glyph glyph-name="lacute" unicode="&#x13a;" horiz-adv-x="1026" 
d="M338 0c-50 0 -93.333 7.00098 -130 21.001s-67 33.5 -91 58.5s-42 54.667 -54 89s-18 72.166 -18 113.499v374c0 17.333 8.66699 26 26 26h383c18 0 27 -8.66699 27 -26v-391c0 -52 8.66699 -89.5 26 -112.5s48 -34.5 92 -34.5h393c17.333 0 26 -9 26 -27v-64
c0 -18 -8.66699 -27 -26 -27h-654zM96 714.001c-6.66699 -3.33301 -14.333 -4.99902 -23 -4.99902c-11.333 0 -17 6.66699 -17 20v45c0 9.33301 6 16.666 18 21.999l278 132c6 3.33301 11.5 5.33301 16.5 6s9.83301 1 14.5 1c11.333 0 17 -6.66699 17 -20v-53
c0 -10.667 -5 -17 -15 -19z" />
    <glyph glyph-name="Lcommaaccent" unicode="&#x13b;" horiz-adv-x="1026" 
d="M338 0c-50 0 -93.333 7.00098 -130 21.001s-67 33.5 -91 58.5s-42 54.667 -54 89s-18 72.166 -18 113.499v374c0 17.333 8.66699 26 26 26h383c18 0 27 -8.66699 27 -26v-391c0 -52 8.66699 -89.5 26 -112.5s48 -34.5 92 -34.5h393c17.333 0 26 -9 26 -27v-64
c0 -18 -8.66699 -27 -26 -27h-654zM538 -215.999c-11.333 0 -18.001 6.33301 -20.001 19l-12 111c-0.666992 4 -1 8.16699 -1 12.5v11.5v11c0 10 6 15 18 15h104c12 0 18 -5 18 -15v-11v-11.5c0 -4.33301 -0.333008 -8.5 -1 -12.5l-12 -111
c-1.33301 -12.667 -7.66602 -19 -18.999 -19h-75z" />
    <glyph glyph-name="lcommaaccent" unicode="&#x13c;" horiz-adv-x="1026" 
d="M338 0c-50 0 -93.333 7.00098 -130 21.001s-67 33.5 -91 58.5s-42 54.667 -54 89s-18 72.166 -18 113.499v374c0 17.333 8.66699 26 26 26h383c18 0 27 -8.66699 27 -26v-391c0 -52 8.66699 -89.5 26 -112.5s48 -34.5 92 -34.5h393c17.333 0 26 -9 26 -27v-64
c0 -18 -8.66699 -27 -26 -27h-654zM538 -215.999c-11.333 0 -18.001 6.33301 -20.001 19l-12 111c-0.666992 4 -1 8.16699 -1 12.5v11.5v11c0 10 6 15 18 15h104c12 0 18 -5 18 -15v-11v-11.5c0 -4.33301 -0.333008 -8.5 -1 -12.5l-12 -111
c-1.33301 -12.667 -7.66602 -19 -18.999 -19h-75z" />
    <glyph glyph-name="Lcaron" unicode="&#x13d;" horiz-adv-x="1026" 
d="M338 0c-50 0 -93.333 7.00098 -130 21.001s-67 33.5 -91 58.5s-42 54.667 -54 89s-18 72.166 -18 113.499v374c0 17.333 8.66699 26 26 26h383c18 0 27 -8.66699 27 -26v-391c0 -52 8.66699 -89.5 26 -112.5s48 -34.5 92 -34.5h393c17.333 0 26 -9 26 -27v-64
c0 -18 -8.66699 -27 -26 -27h-654zM680 408.001c-29.333 0 -44.001 14.999 -44.001 44.999v238c0 30 14.667 45 44 45h160c29.333 0 44 -15 44 -45v-27c0 -14 -1.16699 -25.667 -3.5 -35s-7.16602 -20.666 -14.499 -33.999l-76 -142c-16 -30 -39 -45 -69 -45h-41z" />
    <glyph glyph-name="lcaron" unicode="&#x13e;" horiz-adv-x="1026" 
d="M338 0c-50 0 -93.333 7.00098 -130 21.001s-67 33.5 -91 58.5s-42 54.667 -54 89s-18 72.166 -18 113.499v374c0 17.333 8.66699 26 26 26h383c18 0 27 -8.66699 27 -26v-391c0 -52 8.66699 -89.5 26 -112.5s48 -34.5 92 -34.5h393c17.333 0 26 -9 26 -27v-64
c0 -18 -8.66699 -27 -26 -27h-654zM680 408.001c-29.333 0 -44.001 14.999 -44.001 44.999v238c0 30 14.667 45 44 45h160c29.333 0 44 -15 44 -45v-27c0 -14 -1.16699 -25.667 -3.5 -35s-7.16602 -20.666 -14.499 -33.999l-76 -142c-16 -30 -39 -45 -69 -45h-41z" />
    <glyph glyph-name="Ldot" unicode="&#x13f;" horiz-adv-x="1026" 
d="M338 0c-50 0 -93.333 7.00098 -130 21.001s-67 33.5 -91 58.5s-42 54.667 -54 89s-18 72.166 -18 113.499v374c0 17.333 8.66699 26 26 26h383c18 0 27 -8.66699 27 -26v-391c0 -52 8.66699 -89.5 26 -112.5s48 -34.5 92 -34.5h393c17.333 0 26 -9 26 -27v-64
c0 -18 -8.66699 -27 -26 -27h-654zM216 742.001c-13.333 0 -20 6.33301 -20 19v131c0 12 6.66699 18 20 18h98c14 0 21 -6 21 -18v-131c0 -12.667 -7 -19 -21 -19h-98z" />
    <glyph glyph-name="ldot" unicode="&#x140;" horiz-adv-x="1026" 
d="M338 0c-50 0 -93.333 7.00098 -130 21.001s-67 33.5 -91 58.5s-42 54.667 -54 89s-18 72.166 -18 113.499v374c0 17.333 8.66699 26 26 26h383c18 0 27 -8.66699 27 -26v-391c0 -52 8.66699 -89.5 26 -112.5s48 -34.5 92 -34.5h393c17.333 0 26 -9 26 -27v-64
c0 -18 -8.66699 -27 -26 -27h-654zM216 742.001c-13.333 0 -20 6.33301 -20 19v131c0 12 6.66699 18 20 18h98c14 0 21 -6 21 -18v-131c0 -12.667 -7 -19 -21 -19h-98z" />
    <glyph glyph-name="Lslash" unicode="&#x141;" horiz-adv-x="1027" 
d="M338 0c-50 0 -93.333 7.00098 -130 21.001s-67 33.5 -91 58.5s-42 54.667 -54 89s-18 72.166 -18 113.499v374c0 17.333 8.66699 26 26 26h383c18 0 27 -8.66699 27 -26v-226h183c17.333 0 26 -6 26 -18v-81c0 -12 -8.66699 -18 -26 -18h-183v-48
c0 -52 8.66699 -89.5 26 -112.5s48 -34.5 92 -34.5h393c17.333 0 26 -9 26 -27v-64c0 -18 -8.66699 -27 -26 -27h-654z" />
    <glyph glyph-name="lslash" unicode="&#x142;" horiz-adv-x="1027" 
d="M338 0c-50 0 -93.333 7.00098 -130 21.001s-67 33.5 -91 58.5s-42 54.667 -54 89s-18 72.166 -18 113.499v374c0 17.333 8.66699 26 26 26h383c18 0 27 -8.66699 27 -26v-226h183c17.333 0 26 -6 26 -18v-81c0 -12 -8.66699 -18 -26 -18h-183v-48
c0 -52 8.66699 -89.5 26 -112.5s48 -34.5 92 -34.5h393c17.333 0 26 -9 26 -27v-64c0 -18 -8.66699 -27 -26 -27h-654z" />
    <glyph glyph-name="Nacute" unicode="&#x143;" horiz-adv-x="1282" 
d="M1137 0c-20 0 -37.501 1.33203 -52.501 3.99902s-33.5 8 -55.5 16l-797 298v-291c0 -18 -9 -27 -27 -27h-129c-18 0 -27 9 -27 27v629c0 17.333 9 26 27 26h123c10.667 0 20.334 -0.166992 29.001 -0.5s17 -1.16602 25 -2.49902s16.167 -3.33301 24.5 -6
s17.833 -6 28.5 -10l744 -287v280c0 17.333 9 26 27 26h129c18 0 27 -8.66699 27 -26v-629c0 -18 -9 -27 -27 -27h-69zM578.999 713.999c-6.66699 -3.33301 -14.333 -4.99902 -23 -4.99902c-11.333 0 -17 6.66699 -17 20v45c0 9.33301 6 16.666 18 21.999l278 132
c6 3.33301 11.5 5.33301 16.5 6s9.83301 1 14.5 1c11.333 0 17 -6.66699 17 -20v-53c0 -10.667 -5 -17 -15 -19z" />
    <glyph glyph-name="nacute" unicode="&#x144;" horiz-adv-x="1282" 
d="M1137 0c-20 0 -37.501 1.33203 -52.501 3.99902s-33.5 8 -55.5 16l-797 298v-291c0 -18 -9 -27 -27 -27h-129c-18 0 -27 9 -27 27v629c0 17.333 9 26 27 26h123c10.667 0 20.334 -0.166992 29.001 -0.5s17 -1.16602 25 -2.49902s16.167 -3.33301 24.5 -6
s17.833 -6 28.5 -10l744 -287v280c0 17.333 9 26 27 26h129c18 0 27 -8.66699 27 -26v-629c0 -18 -9 -27 -27 -27h-69zM578.999 713.999c-6.66699 -3.33301 -14.333 -4.99902 -23 -4.99902c-11.333 0 -17 6.66699 -17 20v45c0 9.33301 6 16.666 18 21.999l278 132
c6 3.33301 11.5 5.33301 16.5 6s9.83301 1 14.5 1c11.333 0 17 -6.66699 17 -20v-53c0 -10.667 -5 -17 -15 -19z" />
    <glyph glyph-name="Ncommaaccent" unicode="&#x145;" horiz-adv-x="1282" 
d="M1137 0c-20 0 -37.501 1.33203 -52.501 3.99902s-33.5 8 -55.5 16l-797 298v-291c0 -18 -9 -27 -27 -27h-129c-18 0 -27 9 -27 27v629c0 17.333 9 26 27 26h123c10.667 0 20.334 -0.166992 29.001 -0.5s17 -1.16602 25 -2.49902s16.167 -3.33301 24.5 -6
s17.833 -6 28.5 -10l744 -287v280c0 17.333 9 26 27 26h129c18 0 27 -8.66699 27 -26v-629c0 -18 -9 -27 -27 -27h-69zM585.999 -216.001c-11.333 0 -18.001 6.33301 -20.001 19l-12 111c-0.666992 4 -1 8.16699 -1 12.5v11.5v11c0 10 6 15 18 15h104c12 0 18 -5 18 -15v-11
v-11.5c0 -4.33301 -0.333008 -8.5 -1 -12.5l-12 -111c-1.33301 -12.667 -7.66602 -19 -18.999 -19h-75z" />
    <glyph glyph-name="ncommaaccent" unicode="&#x146;" horiz-adv-x="1282" 
d="M1137 0c-20 0 -37.501 1.33203 -52.501 3.99902s-33.5 8 -55.5 16l-797 298v-291c0 -18 -9 -27 -27 -27h-129c-18 0 -27 9 -27 27v629c0 17.333 9 26 27 26h123c10.667 0 20.334 -0.166992 29.001 -0.5s17 -1.16602 25 -2.49902s16.167 -3.33301 24.5 -6
s17.833 -6 28.5 -10l744 -287v280c0 17.333 9 26 27 26h129c18 0 27 -8.66699 27 -26v-629c0 -18 -9 -27 -27 -27h-69zM585.999 -216.001c-11.333 0 -18.001 6.33301 -20.001 19l-12 111c-0.666992 4 -1 8.16699 -1 12.5v11.5v11c0 10 6 15 18 15h104c12 0 18 -5 18 -15v-11
v-11.5c0 -4.33301 -0.333008 -8.5 -1 -12.5l-12 -111c-1.33301 -12.667 -7.66602 -19 -18.999 -19h-75z" />
    <glyph glyph-name="Ncaron" unicode="&#x147;" horiz-adv-x="1282" 
d="M1137 0c-20 0 -37.501 1.33203 -52.501 3.99902s-33.5 8 -55.5 16l-797 298v-291c0 -18 -9 -27 -27 -27h-129c-18 0 -27 9 -27 27v629c0 17.333 9 26 27 26h123c10.667 0 20.334 -0.166992 29.001 -0.5s17 -1.16602 25 -2.49902s16.167 -3.33301 24.5 -6
s17.833 -6 28.5 -10l744 -287v280c0 17.333 9 26 27 26h129c18 0 27 -8.66699 27 -26v-629c0 -18 -9 -27 -27 -27h-69zM692.999 721.999c-5.33301 -3.33301 -10.667 -5.00098 -16 -5.00098c-6 0 -11.333 1.66699 -16 5l-192 110c-8 4.66699 -12 11.334 -12 20.001v58
c0 13.333 5.33301 20 16 20c8.66699 0 17.667 -2.33301 27 -7l177 -98l177 98c8.66699 4.66699 17.667 7 27 7c10 0 15 -6.66699 15 -20v-58c0 -9.33301 -3.66699 -16 -11 -20z" />
    <glyph glyph-name="ncaron" unicode="&#x148;" horiz-adv-x="1282" 
d="M1137 0c-20 0 -37.501 1.33203 -52.501 3.99902s-33.5 8 -55.5 16l-797 298v-291c0 -18 -9 -27 -27 -27h-129c-18 0 -27 9 -27 27v629c0 17.333 9 26 27 26h123c10.667 0 20.334 -0.166992 29.001 -0.5s17 -1.16602 25 -2.49902s16.167 -3.33301 24.5 -6
s17.833 -6 28.5 -10l744 -287v280c0 17.333 9 26 27 26h129c18 0 27 -8.66699 27 -26v-629c0 -18 -9 -27 -27 -27h-69zM692.999 721.999c-5.33301 -3.33301 -10.667 -5.00098 -16 -5.00098c-6 0 -11.333 1.66699 -16 5l-192 110c-8 4.66699 -12 11.334 -12 20.001v58
c0 13.333 5.33301 20 16 20c8.66699 0 17.667 -2.33301 27 -7l177 -98l177 98c8.66699 4.66699 17.667 7 27 7c10 0 15 -6.66699 15 -20v-58c0 -9.33301 -3.66699 -16 -11 -20z" />
    <glyph glyph-name="Eng" unicode="&#x14a;" horiz-adv-x="1282" 
d="M626 -216c-17.333 0 -26.001 8.99902 -26.001 26.999v64c0 18 8.66699 27 26 27h307c38 0 65.833 8.83301 83.5 26.5s28.5 45.5 32.5 83.5l-817 306v-291c0 -18 -9 -27 -27 -27h-129c-18 0 -27 9 -27 27v629c0 17.333 9 26 27 26h123
c10.667 0 20.334 -0.166992 29.001 -0.5s17 -1.16602 25 -2.49902s16.167 -3.33301 24.5 -6s17.833 -6 28.5 -10l744 -287v280c0 17.333 9 26 27 26h129c18 0 27 -8.66699 27 -26v-629c0 -36 -7.33301 -68.833 -22 -98.5s-35 -55.167 -61 -76.5s-57 -38 -93 -50
s-75 -18 -117 -18h-314z" />
    <glyph glyph-name="eng" unicode="&#x14b;" horiz-adv-x="1282" 
d="M626 -216c-17.333 0 -26.001 8.99902 -26.001 26.999v64c0 18 8.66699 27 26 27h307c38 0 65.833 8.83301 83.5 26.5s28.5 45.5 32.5 83.5l-817 306v-291c0 -18 -9 -27 -27 -27h-129c-18 0 -27 9 -27 27v629c0 17.333 9 26 27 26h123
c10.667 0 20.334 -0.166992 29.001 -0.5s17 -1.16602 25 -2.49902s16.167 -3.33301 24.5 -6s17.833 -6 28.5 -10l744 -287v280c0 17.333 9 26 27 26h129c18 0 27 -8.66699 27 -26v-629c0 -36 -7.33301 -68.833 -22 -98.5s-35 -55.167 -61 -76.5s-57 -38 -93 -50
s-75 -18 -117 -18h-314z" />
    <glyph glyph-name="Omacron" unicode="&#x14c;" horiz-adv-x="1220" 
d="M365 0c-48.667 0 -93.1699 8.66602 -133.503 25.999s-75 41.333 -104 72s-51.5 66.834 -67.5 108.501s-24 86.5 -24 134.5c0 49.333 7.83301 94.833 23.5 136.5s37.834 77.667 66.501 108s63.334 54 104.001 71s85.667 25.5 135 25.5h490c50 0 95.167 -8.66699 135.5 -26
s75 -41.166 104 -71.499s51.333 -66.333 67 -108s23.5 -86.834 23.5 -135.501c0 -48 -8 -92.833 -24 -134.5s-38.5 -77.667 -67.5 -108s-63.667 -54.333 -104 -72s-85.166 -26.5 -134.499 -26.5h-490zM785.997 408.999c0 30.667 -2.00293 56 -6.00293 76s-10.667 36 -20 48
s-21.5 20.333 -36.5 25s-33.5 7 -55.5 7h-136c-20 0 -36.833 -2.5 -50.5 -7.5s-25 -13.5 -34 -25.5s-15.5 -28 -19.5 -48s-6 -45 -6 -75v-109c0 -67.333 8.83301 -114.5 26.5 -141.5s45.5 -40.5 83.5 -40.5h136c20.667 0 38.334 3.16699 53.001 9.5s26.834 16.5 36.501 30.5
s16.834 32.667 21.501 56s7 52 7 86v109zM441.994 762.999c-13.333 0 -20 6 -20 18v56c0 12.667 6.66699 19 20 19h328c12.667 0 19 -6.33301 19 -19v-56c0 -12 -6.33301 -18 -19 -18h-328z" />
    <glyph glyph-name="omacron" unicode="&#x14d;" horiz-adv-x="1220" 
d="M365 0c-48.667 0 -93.1699 8.66602 -133.503 25.999s-75 41.333 -104 72s-51.5 66.834 -67.5 108.501s-24 86.5 -24 134.5c0 49.333 7.83301 94.833 23.5 136.5s37.834 77.667 66.501 108s63.334 54 104.001 71s85.667 25.5 135 25.5h490c50 0 95.167 -8.66699 135.5 -26
s75 -41.166 104 -71.499s51.333 -66.333 67 -108s23.5 -86.834 23.5 -135.501c0 -48 -8 -92.833 -24 -134.5s-38.5 -77.667 -67.5 -108s-63.667 -54.333 -104 -72s-85.166 -26.5 -134.499 -26.5h-490zM785.997 408.999c0 30.667 -2.00293 56 -6.00293 76s-10.667 36 -20 48
s-21.5 20.333 -36.5 25s-33.5 7 -55.5 7h-136c-20 0 -36.833 -2.5 -50.5 -7.5s-25 -13.5 -34 -25.5s-15.5 -28 -19.5 -48s-6 -45 -6 -75v-109c0 -67.333 8.83301 -114.5 26.5 -141.5s45.5 -40.5 83.5 -40.5h136c20.667 0 38.334 3.16699 53.001 9.5s26.834 16.5 36.501 30.5
s16.834 32.667 21.501 56s7 52 7 86v109zM441.994 762.999c-13.333 0 -20 6 -20 18v56c0 12.667 6.66699 19 20 19h328c12.667 0 19 -6.33301 19 -19v-56c0 -12 -6.33301 -18 -19 -18h-328z" />
    <glyph glyph-name="Obreve" unicode="&#x14e;" horiz-adv-x="1220" 
d="M365 0c-48.667 0 -93.1699 8.66602 -133.503 25.999s-75 41.333 -104 72s-51.5 66.834 -67.5 108.501s-24 86.5 -24 134.5c0 49.333 7.83301 94.833 23.5 136.5s37.834 77.667 66.501 108s63.334 54 104.001 71s85.667 25.5 135 25.5h490c50 0 95.167 -8.66699 135.5 -26
s75 -41.166 104 -71.499s51.333 -66.333 67 -108s23.5 -86.834 23.5 -135.501c0 -48 -8 -92.833 -24 -134.5s-38.5 -77.667 -67.5 -108s-63.667 -54.333 -104 -72s-85.166 -26.5 -134.499 -26.5h-490zM785.997 408.999c0 30.667 -2.00293 56 -6.00293 76s-10.667 36 -20 48
s-21.5 20.333 -36.5 25s-33.5 7 -55.5 7h-136c-20 0 -36.833 -2.5 -50.5 -7.5s-25 -13.5 -34 -25.5s-15.5 -28 -19.5 -48s-6 -45 -6 -75v-109c0 -67.333 8.83301 -114.5 26.5 -141.5s45.5 -40.5 83.5 -40.5h136c20.667 0 38.334 3.16699 53.001 9.5s26.834 16.5 36.501 30.5
s16.834 32.667 21.501 56s7 52 7 86v109zM685.994 748.999c-6 -5.33301 -16.667 -7.99902 -32 -7.99902h-105c-16 0 -26.667 2.66699 -32 8l-97 87c-6 4 -9 10.667 -9 20v54c0 16 5.33301 24 16 24c5.33301 0 12 -2.66699 20 -8l101 -83
c1.33301 -2.66699 4 -4.33398 8 -5.00098s8.66699 -1 14 -1h62c12 0 20 2 24 6l99 83c8 5.33301 14.667 8 20 8c10.667 0 16 -8 16 -24v-54c0 -9.33301 -3 -16 -9 -20z" />
    <glyph glyph-name="obreve" unicode="&#x14f;" horiz-adv-x="1220" 
d="M365 0c-48.667 0 -93.1699 8.66602 -133.503 25.999s-75 41.333 -104 72s-51.5 66.834 -67.5 108.501s-24 86.5 -24 134.5c0 49.333 7.83301 94.833 23.5 136.5s37.834 77.667 66.501 108s63.334 54 104.001 71s85.667 25.5 135 25.5h490c50 0 95.167 -8.66699 135.5 -26
s75 -41.166 104 -71.499s51.333 -66.333 67 -108s23.5 -86.834 23.5 -135.501c0 -48 -8 -92.833 -24 -134.5s-38.5 -77.667 -67.5 -108s-63.667 -54.333 -104 -72s-85.166 -26.5 -134.499 -26.5h-490zM785.997 408.999c0 30.667 -2.00293 56 -6.00293 76s-10.667 36 -20 48
s-21.5 20.333 -36.5 25s-33.5 7 -55.5 7h-136c-20 0 -36.833 -2.5 -50.5 -7.5s-25 -13.5 -34 -25.5s-15.5 -28 -19.5 -48s-6 -45 -6 -75v-109c0 -67.333 8.83301 -114.5 26.5 -141.5s45.5 -40.5 83.5 -40.5h136c20.667 0 38.334 3.16699 53.001 9.5s26.834 16.5 36.501 30.5
s16.834 32.667 21.501 56s7 52 7 86v109zM685.994 748.999c-6 -5.33301 -16.667 -7.99902 -32 -7.99902h-105c-16 0 -26.667 2.66699 -32 8l-97 87c-6 4 -9 10.667 -9 20v54c0 16 5.33301 24 16 24c5.33301 0 12 -2.66699 20 -8l101 -83
c1.33301 -2.66699 4 -4.33398 8 -5.00098s8.66699 -1 14 -1h62c12 0 20 2 24 6l99 83c8 5.33301 14.667 8 20 8c10.667 0 16 -8 16 -24v-54c0 -9.33301 -3 -16 -9 -20z" />
    <glyph glyph-name="Ohungarumlaut" unicode="&#x150;" horiz-adv-x="1220" 
d="M365 0c-48.667 0 -93.1699 8.66602 -133.503 25.999s-75 41.333 -104 72s-51.5 66.834 -67.5 108.501s-24 86.5 -24 134.5c0 49.333 7.83301 94.833 23.5 136.5s37.834 77.667 66.501 108s63.334 54 104.001 71s85.667 25.5 135 25.5h490c50 0 95.167 -8.66699 135.5 -26
s75 -41.166 104 -71.499s51.333 -66.333 67 -108s23.5 -86.834 23.5 -135.501c0 -48 -8 -92.833 -24 -134.5s-38.5 -77.667 -67.5 -108s-63.667 -54.333 -104 -72s-85.166 -26.5 -134.499 -26.5h-490zM785.997 408.999c0 30.667 -2.00293 56 -6.00293 76s-10.667 36 -20 48
s-21.5 20.333 -36.5 25s-33.5 7 -55.5 7h-136c-20 0 -36.833 -2.5 -50.5 -7.5s-25 -13.5 -34 -25.5s-15.5 -28 -19.5 -48s-6 -45 -6 -75v-109c0 -67.333 8.83301 -114.5 26.5 -141.5s45.5 -40.5 83.5 -40.5h136c20.667 0 38.334 3.16699 53.001 9.5s26.834 16.5 36.501 30.5
s16.834 32.667 21.501 56s7 52 7 86v109zM477.994 706.999c-9.33301 0 -15.668 1.66699 -19.001 5s-5 6.66602 -5 9.99902s0.166992 5.83301 0.5 7.5s0.833008 3.83398 1.5 6.50098l58 183c3.33301 10.667 7 18.167 11 22.5s11 6.5 21 6.5h32c14 0 21 -7.33301 21 -22
c0 -5.33301 -1 -11 -3 -17l-66 -187c-3.33301 -10 -9.66602 -15 -18.999 -15h-33zM681.992 706.999c-9.33301 0 -15.668 1.66699 -19.001 5s-5 6.66602 -5 9.99902s0.166992 5.83301 0.5 7.5s0.833008 3.83398 1.5 6.50098l58 183c3.33301 10.667 7 18.167 11 22.5
s11 6.5 21 6.5h32c14 0 21 -7.33301 21 -22c0 -5.33301 -1 -11 -3 -17l-66 -187c-3.33301 -10 -9.66602 -15 -18.999 -15h-33z" />
    <glyph glyph-name="ohungarumlaut" unicode="&#x151;" horiz-adv-x="1220" 
d="M365 0c-48.667 0 -93.1699 8.66602 -133.503 25.999s-75 41.333 -104 72s-51.5 66.834 -67.5 108.501s-24 86.5 -24 134.5c0 49.333 7.83301 94.833 23.5 136.5s37.834 77.667 66.501 108s63.334 54 104.001 71s85.667 25.5 135 25.5h490c50 0 95.167 -8.66699 135.5 -26
s75 -41.166 104 -71.499s51.333 -66.333 67 -108s23.5 -86.834 23.5 -135.501c0 -48 -8 -92.833 -24 -134.5s-38.5 -77.667 -67.5 -108s-63.667 -54.333 -104 -72s-85.166 -26.5 -134.499 -26.5h-490zM785.997 408.999c0 30.667 -2.00293 56 -6.00293 76s-10.667 36 -20 48
s-21.5 20.333 -36.5 25s-33.5 7 -55.5 7h-136c-20 0 -36.833 -2.5 -50.5 -7.5s-25 -13.5 -34 -25.5s-15.5 -28 -19.5 -48s-6 -45 -6 -75v-109c0 -67.333 8.83301 -114.5 26.5 -141.5s45.5 -40.5 83.5 -40.5h136c20.667 0 38.334 3.16699 53.001 9.5s26.834 16.5 36.501 30.5
s16.834 32.667 21.501 56s7 52 7 86v109zM477.994 706.999c-9.33301 0 -15.668 1.66699 -19.001 5s-5 6.66602 -5 9.99902s0.166992 5.83301 0.5 7.5s0.833008 3.83398 1.5 6.50098l58 183c3.33301 10.667 7 18.167 11 22.5s11 6.5 21 6.5h32c14 0 21 -7.33301 21 -22
c0 -5.33301 -1 -11 -3 -17l-66 -187c-3.33301 -10 -9.66602 -15 -18.999 -15h-33zM681.992 706.999c-9.33301 0 -15.668 1.66699 -19.001 5s-5 6.66602 -5 9.99902s0.166992 5.83301 0.5 7.5s0.833008 3.83398 1.5 6.50098l58 183c3.33301 10.667 7 18.167 11 22.5
s11 6.5 21 6.5h32c14 0 21 -7.33301 21 -22c0 -5.33301 -1 -11 -3 -17l-66 -187c-3.33301 -10 -9.66602 -15 -18.999 -15h-33z" />
    <glyph glyph-name="OE" unicode="&#x152;" horiz-adv-x="1782" 
d="M365 0c-48.667 0 -93.1689 8.83301 -133.502 26.5s-75 41.667 -104 72s-51.5 66.333 -67.5 108s-24 86.5 -24 134.5c0 49.333 7.83301 94.833 23.5 136.5s37.834 77.667 66.501 108s63.334 54 104.001 71s85.667 25.5 135 25.5h1348c18 0 27 -8.66699 27 -26v-64
c0 -18 -9 -27 -27 -27h-557v-447h561c17.333 0 26 -9 26 -27v-64c0 -18 -8.66699 -27 -26 -27h-1352zM758.998 565h-227c-20 0 -36.833 -2.5 -50.5 -7.5s-25 -13.5 -34 -25.5s-15.5 -28 -19.5 -48s-6 -45 -6 -75v-109c0 -67.333 9 -114.5 27 -141.5s45.667 -40.5 83 -40.5
h227v447zM1255 313c-18 0 -27 8.66699 -27 26v65c0 17.333 9 26 27 26h451c18 0 27 -6 27 -18v-81c0 -12 -9 -18 -27 -18h-451z" />
    <glyph glyph-name="oe" unicode="&#x153;" horiz-adv-x="1782" 
d="M365 0c-48.667 0 -93.1689 8.83301 -133.502 26.5s-75 41.667 -104 72s-51.5 66.333 -67.5 108s-24 86.5 -24 134.5c0 49.333 7.83301 94.833 23.5 136.5s37.834 77.667 66.501 108s63.334 54 104.001 71s85.667 25.5 135 25.5h1348c18 0 27 -8.66699 27 -26v-64
c0 -18 -9 -27 -27 -27h-557v-447h561c17.333 0 26 -9 26 -27v-64c0 -18 -8.66699 -27 -26 -27h-1352zM758.998 565h-227c-20 0 -36.833 -2.5 -50.5 -7.5s-25 -13.5 -34 -25.5s-15.5 -28 -19.5 -48s-6 -45 -6 -75v-109c0 -67.333 9 -114.5 27 -141.5s45.667 -40.5 83 -40.5
h227v447zM1255 313c-18 0 -27 8.66699 -27 26v65c0 17.333 9 26 27 26h451c18 0 27 -6 27 -18v-81c0 -12 -9 -18 -27 -18h-451z" />
    <glyph glyph-name="Racute" unicode="&#x154;" horiz-adv-x="1263" 
d="M894 0c-26.667 0 -48.665 8.99805 -65.998 26.998l-301 309c-5.33301 5.33301 -9.5 10.5 -12.5 15.5s-4.5 12.167 -4.5 21.5v31c0 17.333 8.66699 26 26 26h137c32 0 55.833 6 71.5 18s23.5 28.667 23.5 50c0 44.667 -31.667 67 -95 67h-223v-538c0 -18 -9 -27 -27 -27
h-343c-18 0 -27 9 -27 27v629c0 17.333 9 26 27 26h874c30 0 58 -4.16699 84 -12.5s48.5 -20.166 67.5 -35.499s33.833 -33.666 44.5 -54.999s16 -45 16 -71c0 -28 -5.16699 -53.167 -15.5 -75.5s-24.333 -41.5 -42 -57.5s-38.334 -29 -62.001 -39s-48.834 -17 -75.501 -21
l276 -283c4.66699 -4 7 -9.33301 7 -16c0 -4 -1.5 -7.66699 -4.5 -11s-7.5 -5 -13.5 -5h-342zM464.002 713.998c-6.66699 -3.33301 -14.333 -4.99902 -23 -4.99902c-11.333 0 -17 6.66699 -17 20v45c0 9.33301 6 16.666 18 21.999l278 132c6 3.33301 11.5 5.33301 16.5 6
s9.83301 1 14.5 1c11.333 0 17 -6.66699 17 -20v-53c0 -10.667 -5 -17 -15 -19z" />
    <glyph glyph-name="racute" unicode="&#x155;" horiz-adv-x="1263" 
d="M894 0c-26.667 0 -48.665 8.99805 -65.998 26.998l-301 309c-5.33301 5.33301 -9.5 10.5 -12.5 15.5s-4.5 12.167 -4.5 21.5v31c0 17.333 8.66699 26 26 26h137c32 0 55.833 6 71.5 18s23.5 28.667 23.5 50c0 44.667 -31.667 67 -95 67h-223v-538c0 -18 -9 -27 -27 -27
h-343c-18 0 -27 9 -27 27v629c0 17.333 9 26 27 26h874c30 0 58 -4.16699 84 -12.5s48.5 -20.166 67.5 -35.499s33.833 -33.666 44.5 -54.999s16 -45 16 -71c0 -28 -5.16699 -53.167 -15.5 -75.5s-24.333 -41.5 -42 -57.5s-38.334 -29 -62.001 -39s-48.834 -17 -75.501 -21
l276 -283c4.66699 -4 7 -9.33301 7 -16c0 -4 -1.5 -7.66699 -4.5 -11s-7.5 -5 -13.5 -5h-342zM464.002 713.998c-6.66699 -3.33301 -14.333 -4.99902 -23 -4.99902c-11.333 0 -17 6.66699 -17 20v45c0 9.33301 6 16.666 18 21.999l278 132c6 3.33301 11.5 5.33301 16.5 6
s9.83301 1 14.5 1c11.333 0 17 -6.66699 17 -20v-53c0 -10.667 -5 -17 -15 -19z" />
    <glyph glyph-name="Rcommaaccent" unicode="&#x156;" horiz-adv-x="1263" 
d="M894 0c-26.667 0 -48.665 8.99805 -65.998 26.998l-301 309c-5.33301 5.33301 -9.5 10.5 -12.5 15.5s-4.5 12.167 -4.5 21.5v31c0 17.333 8.66699 26 26 26h137c32 0 55.833 6 71.5 18s23.5 28.667 23.5 50c0 44.667 -31.667 67 -95 67h-223v-538c0 -18 -9 -27 -27 -27
h-343c-18 0 -27 9 -27 27v629c0 17.333 9 26 27 26h874c30 0 58 -4.16699 84 -12.5s48.5 -20.166 67.5 -35.499s33.833 -33.666 44.5 -54.999s16 -45 16 -71c0 -28 -5.16699 -53.167 -15.5 -75.5s-24.333 -41.5 -42 -57.5s-38.334 -29 -62.001 -39s-48.834 -17 -75.501 -21
l276 -283c4.66699 -4 7 -9.33301 7 -16c0 -4 -1.5 -7.66699 -4.5 -11s-7.5 -5 -13.5 -5h-342zM576.002 -216.002c-11.333 0 -18.001 6.33301 -20.001 19l-12 111c-0.666992 4 -1 8.16699 -1 12.5v11.5v11c0 10 6 15 18 15h104c12 0 18 -5 18 -15v-11v-11.5
c0 -4.33301 -0.333008 -8.5 -1 -12.5l-12 -111c-1.33301 -12.667 -7.66602 -19 -18.999 -19h-75z" />
    <glyph glyph-name="rcommaaccent" unicode="&#x157;" horiz-adv-x="1263" 
d="M894 0c-26.667 0 -48.665 8.99805 -65.998 26.998l-301 309c-5.33301 5.33301 -9.5 10.5 -12.5 15.5s-4.5 12.167 -4.5 21.5v31c0 17.333 8.66699 26 26 26h137c32 0 55.833 6 71.5 18s23.5 28.667 23.5 50c0 44.667 -31.667 67 -95 67h-223v-538c0 -18 -9 -27 -27 -27
h-343c-18 0 -27 9 -27 27v629c0 17.333 9 26 27 26h874c30 0 58 -4.16699 84 -12.5s48.5 -20.166 67.5 -35.499s33.833 -33.666 44.5 -54.999s16 -45 16 -71c0 -28 -5.16699 -53.167 -15.5 -75.5s-24.333 -41.5 -42 -57.5s-38.334 -29 -62.001 -39s-48.834 -17 -75.501 -21
l276 -283c4.66699 -4 7 -9.33301 7 -16c0 -4 -1.5 -7.66699 -4.5 -11s-7.5 -5 -13.5 -5h-342zM576.002 -216.002c-11.333 0 -18.001 6.33301 -20.001 19l-12 111c-0.666992 4 -1 8.16699 -1 12.5v11.5v11c0 10 6 15 18 15h104c12 0 18 -5 18 -15v-11v-11.5
c0 -4.33301 -0.333008 -8.5 -1 -12.5l-12 -111c-1.33301 -12.667 -7.66602 -19 -18.999 -19h-75z" />
    <glyph glyph-name="Rcaron" unicode="&#x158;" horiz-adv-x="1263" 
d="M894 0c-26.667 0 -48.665 8.99805 -65.998 26.998l-301 309c-5.33301 5.33301 -9.5 10.5 -12.5 15.5s-4.5 12.167 -4.5 21.5v31c0 17.333 8.66699 26 26 26h137c32 0 55.833 6 71.5 18s23.5 28.667 23.5 50c0 44.667 -31.667 67 -95 67h-223v-538c0 -18 -9 -27 -27 -27
h-343c-18 0 -27 9 -27 27v629c0 17.333 9 26 27 26h874c30 0 58 -4.16699 84 -12.5s48.5 -20.166 67.5 -35.499s33.833 -33.666 44.5 -54.999s16 -45 16 -71c0 -28 -5.16699 -53.167 -15.5 -75.5s-24.333 -41.5 -42 -57.5s-38.334 -29 -62.001 -39s-48.834 -17 -75.501 -21
l276 -283c4.66699 -4 7 -9.33301 7 -16c0 -4 -1.5 -7.66699 -4.5 -11s-7.5 -5 -13.5 -5h-342zM603.002 721.998c-5.33301 -3.33301 -10.667 -5.00098 -16 -5.00098c-6 0 -11.333 1.66699 -16 5l-192 110c-8 4.66699 -12 11.334 -12 20.001v58c0 13.333 5.33301 20 16 20
c8.66699 0 17.667 -2.33301 27 -7l177 -98l177 98c8.66699 4.66699 17.667 7 27 7c10 0 15 -6.66699 15 -20v-58c0 -9.33301 -3.66699 -16 -11 -20z" />
    <glyph glyph-name="rcaron" unicode="&#x159;" horiz-adv-x="1263" 
d="M894 0c-26.667 0 -48.665 8.99805 -65.998 26.998l-301 309c-5.33301 5.33301 -9.5 10.5 -12.5 15.5s-4.5 12.167 -4.5 21.5v31c0 17.333 8.66699 26 26 26h137c32 0 55.833 6 71.5 18s23.5 28.667 23.5 50c0 44.667 -31.667 67 -95 67h-223v-538c0 -18 -9 -27 -27 -27
h-343c-18 0 -27 9 -27 27v629c0 17.333 9 26 27 26h874c30 0 58 -4.16699 84 -12.5s48.5 -20.166 67.5 -35.499s33.833 -33.666 44.5 -54.999s16 -45 16 -71c0 -28 -5.16699 -53.167 -15.5 -75.5s-24.333 -41.5 -42 -57.5s-38.334 -29 -62.001 -39s-48.834 -17 -75.501 -21
l276 -283c4.66699 -4 7 -9.33301 7 -16c0 -4 -1.5 -7.66699 -4.5 -11s-7.5 -5 -13.5 -5h-342zM603.002 721.998c-5.33301 -3.33301 -10.667 -5.00098 -16 -5.00098c-6 0 -11.333 1.66699 -16 5l-192 110c-8 4.66699 -12 11.334 -12 20.001v58c0 13.333 5.33301 20 16 20
c8.66699 0 17.667 -2.33301 27 -7l177 -98l177 98c8.66699 4.66699 17.667 7 27 7c10 0 15 -6.66699 15 -20v-58c0 -9.33301 -3.66699 -16 -11 -20z" />
    <glyph glyph-name="Sacute" unicode="&#x15a;" horiz-adv-x="1038" 
d="M61 0c-17.333 0 -25.999 8.99902 -25.999 26.999v64c0 18 8.66699 27 26 27h561l-471 221c-25.333 12 -46 24.5 -62 37.5s-28.5 26.667 -37.5 41s-15 29.5 -18 45.5s-4.5 33 -4.5 51c0 22 4 43.167 12 63.5s20.167 38.333 36.5 54s36.666 28 60.999 37
s52.5 13.5 84.5 13.5h736c18 0 27 -8.66699 27 -26v-64c0 -18 -9 -27 -27 -27h-542l470 -221c26 -12 46.833 -24.5 62.5 -37.5s28 -26.667 37 -41s15 -29.666 18 -45.999s4.5 -33.5 4.5 -51.5c0 -22 -4 -43.167 -12 -63.5s-20.167 -38.333 -36.5 -54s-36.5 -28 -60.5 -37
s-52 -13.5 -84 -13.5h-755zM386.001 713.999c-6.66699 -3.33301 -14.333 -4.99902 -23 -4.99902c-11.333 0 -17 6.66699 -17 20v45c0 9.33301 6 16.666 18 21.999l278 132c6 3.33301 11.5 5.33301 16.5 6s9.83301 1 14.5 1c11.333 0 17 -6.66699 17 -20v-53
c0 -10.667 -5 -17 -15 -19z" />
    <glyph glyph-name="sacute" unicode="&#x15b;" horiz-adv-x="1038" 
d="M61 0c-17.333 0 -25.999 8.99902 -25.999 26.999v64c0 18 8.66699 27 26 27h561l-471 221c-25.333 12 -46 24.5 -62 37.5s-28.5 26.667 -37.5 41s-15 29.5 -18 45.5s-4.5 33 -4.5 51c0 22 4 43.167 12 63.5s20.167 38.333 36.5 54s36.666 28 60.999 37
s52.5 13.5 84.5 13.5h736c18 0 27 -8.66699 27 -26v-64c0 -18 -9 -27 -27 -27h-542l470 -221c26 -12 46.833 -24.5 62.5 -37.5s28 -26.667 37 -41s15 -29.666 18 -45.999s4.5 -33.5 4.5 -51.5c0 -22 -4 -43.167 -12 -63.5s-20.167 -38.333 -36.5 -54s-36.5 -28 -60.5 -37
s-52 -13.5 -84 -13.5h-755zM386.001 713.999c-6.66699 -3.33301 -14.333 -4.99902 -23 -4.99902c-11.333 0 -17 6.66699 -17 20v45c0 9.33301 6 16.666 18 21.999l278 132c6 3.33301 11.5 5.33301 16.5 6s9.83301 1 14.5 1c11.333 0 17 -6.66699 17 -20v-53
c0 -10.667 -5 -17 -15 -19z" />
    <glyph glyph-name="Scedilla" unicode="&#x15e;" horiz-adv-x="1038" 
d="M61 0c-17.333 0 -25.999 8.99902 -25.999 26.999v64c0 18 8.66699 27 26 27h561l-471 221c-25.333 12 -46 24.5 -62 37.5s-28.5 26.667 -37.5 41s-15 29.5 -18 45.5s-4.5 33 -4.5 51c0 22 4 43.167 12 63.5s20.167 38.333 36.5 54s36.666 28 60.999 37
s52.5 13.5 84.5 13.5h736c18 0 27 -8.66699 27 -26v-64c0 -18 -9 -27 -27 -27h-542l470 -221c26 -12 46.833 -24.5 62.5 -37.5s28 -26.667 37 -41s15 -29.666 18 -45.999s4.5 -33.5 4.5 -51.5c0 -22 -4 -43.167 -12 -63.5s-20.167 -38.333 -36.5 -54s-36.5 -28 -60.5 -37
s-52 -13.5 -84 -13.5h-755zM455.001 -216.001c-11.333 0 -18.001 6.33301 -20.001 19l-12 111c-0.666992 4 -1 8.16699 -1 12.5v11.5v11c0 10 6 15 18 15h104c12 0 18 -5 18 -15v-11v-11.5c0 -4.33301 -0.333008 -8.5 -1 -12.5l-12 -111
c-1.33301 -12.667 -7.66602 -19 -18.999 -19h-75z" />
    <glyph glyph-name="scedilla" unicode="&#x15f;" horiz-adv-x="1038" 
d="M61 0c-17.333 0 -25.999 8.99902 -25.999 26.999v64c0 18 8.66699 27 26 27h561l-471 221c-25.333 12 -46 24.5 -62 37.5s-28.5 26.667 -37.5 41s-15 29.5 -18 45.5s-4.5 33 -4.5 51c0 22 4 43.167 12 63.5s20.167 38.333 36.5 54s36.666 28 60.999 37
s52.5 13.5 84.5 13.5h736c18 0 27 -8.66699 27 -26v-64c0 -18 -9 -27 -27 -27h-542l470 -221c26 -12 46.833 -24.5 62.5 -37.5s28 -26.667 37 -41s15 -29.666 18 -45.999s4.5 -33.5 4.5 -51.5c0 -22 -4 -43.167 -12 -63.5s-20.167 -38.333 -36.5 -54s-36.5 -28 -60.5 -37
s-52 -13.5 -84 -13.5h-755zM455.001 -216.001c-11.333 0 -18.001 6.33301 -20.001 19l-12 111c-0.666992 4 -1 8.16699 -1 12.5v11.5v11c0 10 6 15 18 15h104c12 0 18 -5 18 -15v-11v-11.5c0 -4.33301 -0.333008 -8.5 -1 -12.5l-12 -111
c-1.33301 -12.667 -7.66602 -19 -18.999 -19h-75z" />
    <glyph glyph-name="Scaron" unicode="&#x160;" horiz-adv-x="1038" 
d="M61 0c-17.333 0 -25.999 8.99902 -25.999 26.999v64c0 18 8.66699 27 26 27h561l-471 221c-25.333 12 -46 24.5 -62 37.5s-28.5 26.667 -37.5 41s-15 29.5 -18 45.5s-4.5 33 -4.5 51c0 22 4 43.167 12 63.5s20.167 38.333 36.5 54s36.666 28 60.999 37
s52.5 13.5 84.5 13.5h736c18 0 27 -8.66699 27 -26v-64c0 -18 -9 -27 -27 -27h-542l470 -221c26 -12 46.833 -24.5 62.5 -37.5s28 -26.667 37 -41s15 -29.666 18 -45.999s4.5 -33.5 4.5 -51.5c0 -22 -4 -43.167 -12 -63.5s-20.167 -38.333 -36.5 -54s-36.5 -28 -60.5 -37
s-52 -13.5 -84 -13.5h-755zM544.001 721.999c-5.33301 -3.33301 -10.667 -5.00098 -16 -5.00098c-6 0 -11.333 1.66699 -16 5l-192 110c-8 4.66699 -12 11.334 -12 20.001v58c0 13.333 5.33301 20 16 20c8.66699 0 17.667 -2.33301 27 -7l177 -98l177 98
c8.66699 4.66699 17.667 7 27 7c10 0 15 -6.66699 15 -20v-58c0 -9.33301 -3.66699 -16 -11 -20z" />
    <glyph glyph-name="scaron" unicode="&#x161;" horiz-adv-x="1038" 
d="M61 0c-17.333 0 -25.999 8.99902 -25.999 26.999v64c0 18 8.66699 27 26 27h561l-471 221c-25.333 12 -46 24.5 -62 37.5s-28.5 26.667 -37.5 41s-15 29.5 -18 45.5s-4.5 33 -4.5 51c0 22 4 43.167 12 63.5s20.167 38.333 36.5 54s36.666 28 60.999 37
s52.5 13.5 84.5 13.5h736c18 0 27 -8.66699 27 -26v-64c0 -18 -9 -27 -27 -27h-542l470 -221c26 -12 46.833 -24.5 62.5 -37.5s28 -26.667 37 -41s15 -29.666 18 -45.999s4.5 -33.5 4.5 -51.5c0 -22 -4 -43.167 -12 -63.5s-20.167 -38.333 -36.5 -54s-36.5 -28 -60.5 -37
s-52 -13.5 -84 -13.5h-755zM544.001 721.999c-5.33301 -3.33301 -10.667 -5.00098 -16 -5.00098c-6 0 -11.333 1.66699 -16 5l-192 110c-8 4.66699 -12 11.334 -12 20.001v58c0 13.333 5.33301 20 16 20c8.66699 0 17.667 -2.33301 27 -7l177 -98l177 98
c8.66699 4.66699 17.667 7 27 7c10 0 15 -6.66699 15 -20v-58c0 -9.33301 -3.66699 -16 -11 -20z" />
    <glyph glyph-name="Tcommaaccent" unicode="&#x162;" horiz-adv-x="1036" 
d="M339 0c-12.667 0 -19 4.33301 -19 13v552h-292c-12.667 0 -19 3.66699 -19 11v93c0 8.66699 6.33301 13 19 13h981c12.667 0 19 -4.33301 19 -13v-93c0 -7.33301 -6.33301 -11 -19 -11h-293v-552c0 -8.66699 -6 -13 -18 -13h-359zM481 -216
c-11.333 0 -18.001 6.33301 -20.001 19l-12 111c-0.666992 4 -1 8.16699 -1 12.5v11.5v11c0 10 6 15 18 15h104c12 0 18 -5 18 -15v-11v-11.5c0 -4.33301 -0.333008 -8.5 -1 -12.5l-12 -111c-1.33301 -12.667 -7.66602 -19 -18.999 -19h-75z" />
    <glyph glyph-name="tcommaaccent" unicode="&#x163;" horiz-adv-x="1036" 
d="M339 0c-12.667 0 -19 4.33301 -19 13v552h-292c-12.667 0 -19 3.66699 -19 11v93c0 8.66699 6.33301 13 19 13h981c12.667 0 19 -4.33301 19 -13v-93c0 -7.33301 -6.33301 -11 -19 -11h-293v-552c0 -8.66699 -6 -13 -18 -13h-359zM481 -216
c-11.333 0 -18.001 6.33301 -20.001 19l-12 111c-0.666992 4 -1 8.16699 -1 12.5v11.5v11c0 10 6 15 18 15h104c12 0 18 -5 18 -15v-11v-11.5c0 -4.33301 -0.333008 -8.5 -1 -12.5l-12 -111c-1.33301 -12.667 -7.66602 -19 -18.999 -19h-75z" />
    <glyph glyph-name="Tcaron" unicode="&#x164;" horiz-adv-x="1036" 
d="M339 0c-12.667 0 -19 4.33301 -19 13v552h-292c-12.667 0 -19 3.66699 -19 11v93c0 8.66699 6.33301 13 19 13h981c12.667 0 19 -4.33301 19 -13v-93c0 -7.33301 -6.33301 -11 -19 -11h-293v-552c0 -8.66699 -6 -13 -18 -13h-359zM534 722
c-5.33301 -3.33301 -10.667 -5.00098 -16 -5.00098c-6 0 -11.333 1.66699 -16 5l-192 110c-8 4.66699 -12 11.334 -12 20.001v58c0 13.333 5.33301 20 16 20c8.66699 0 17.667 -2.33301 27 -7l177 -98l177 98c8.66699 4.66699 17.667 7 27 7c10 0 15 -6.66699 15 -20v-58
c0 -9.33301 -3.66699 -16 -11 -20z" />
    <glyph glyph-name="tcaron" unicode="&#x165;" horiz-adv-x="1036" 
d="M339 0c-12.667 0 -19 4.33301 -19 13v552h-292c-12.667 0 -19 3.66699 -19 11v93c0 8.66699 6.33301 13 19 13h981c12.667 0 19 -4.33301 19 -13v-93c0 -7.33301 -6.33301 -11 -19 -11h-293v-552c0 -8.66699 -6 -13 -18 -13h-359zM534 722
c-5.33301 -3.33301 -10.667 -5.00098 -16 -5.00098c-6 0 -11.333 1.66699 -16 5l-192 110c-8 4.66699 -12 11.334 -12 20.001v58c0 13.333 5.33301 20 16 20c8.66699 0 17.667 -2.33301 27 -7l177 -98l177 98c8.66699 4.66699 17.667 7 27 7c10 0 15 -6.66699 15 -20v-58
c0 -9.33301 -3.66699 -16 -11 -20z" />
    <glyph glyph-name="Tbar" unicode="&#x166;" horiz-adv-x="1036" 
d="M716 277v-264c0 -8.66699 -6 -13 -18 -13h-359c-12.667 -0 -19 4.33301 -19 13v264h-131c-18 0 -27 9 -27 27v64c0 18 9 27 27 27h131v170h-292c-12.667 0 -19 3.66699 -19 11v93c0 8.66699 6.33301 13 19 13h981c12.667 0 19 -4.33301 19 -13v-93
c0 -7.33301 -6.33301 -11 -19 -11h-293v-170h131c18 0 27 -9 27 -27v-64c0 -18 -9 -27 -27 -27h-131z" />
    <glyph glyph-name="tbar" unicode="&#x167;" horiz-adv-x="1036" 
d="M716 277v-264c0 -8.66699 -6 -13 -18 -13h-359c-12.667 -0 -19 4.33301 -19 13v264h-131c-18 0 -27 9 -27 27v64c0 18 9 27 27 27h131v170h-292c-12.667 0 -19 3.66699 -19 11v93c0 8.66699 6.33301 13 19 13h981c12.667 0 19 -4.33301 19 -13v-93
c0 -7.33301 -6.33301 -11 -19 -11h-293v-170h131c18 0 27 -9 27 -27v-64c0 -18 -9 -27 -27 -27h-131z" />
    <glyph glyph-name="Utilde" unicode="&#x168;" horiz-adv-x="1188" 
d="M386 0c-61.333 0 -113.669 7.33203 -157.002 21.999s-78.666 35.667 -105.999 63s-47.166 60.333 -59.499 99s-18.5 82 -18.5 130v342c0 17.333 8.66699 26 26 26h374c17.333 0 26 -8.66699 26 -26v-342c0 -61.333 13 -109.333 39 -144s67.333 -52 124 -52h172
c57.333 0 99.5 17.333 126.5 52s40.5 82.667 40.5 144v342c0 17.333 9 26 27 26h120c18 0 27 -8.66699 27 -26v-342c0 -44 -6.83301 -85 -20.5 -123s-34.5 -71.167 -62.5 -99.5s-63.5 -50.666 -106.5 -66.999s-93.5 -24.5 -151.5 -24.5h-420zM836.997 753.999
c-4.66699 -2.66699 -9.16895 -4.33203 -13.502 -4.99902s-8.16602 -1 -11.499 -1c-7.33301 0 -12.666 0.333008 -15.999 1l-155 46c-3.33301 0.666992 -7.33301 1 -12 1c-4 0 -8 -1 -12 -3l-98 -44c-3.33301 -1.33301 -6.5 -2.5 -9.5 -3.5s-5.83301 -1.5 -8.5 -1.5
c-10 0 -15 5 -15 15v55c0 13.333 5.33301 21.666 16 24.999l98 47c10 3.33301 18.667 5 26 5c6.66699 0 11.667 -0.666992 15 -2l155 -44c2.66699 -0.666992 5 -1 7 -1h5c2 0 4 0.166992 6 0.5s4 0.5 6 0.5l99 44c5.33301 3.33301 11 5 17 5c10 0 15 -4.33301 15 -13v-57
c0 -12 -5.33301 -20 -16 -24z" />
    <glyph glyph-name="utilde" unicode="&#x169;" horiz-adv-x="1188" 
d="M386 0c-61.333 0 -113.669 7.33203 -157.002 21.999s-78.666 35.667 -105.999 63s-47.166 60.333 -59.499 99s-18.5 82 -18.5 130v342c0 17.333 8.66699 26 26 26h374c17.333 0 26 -8.66699 26 -26v-342c0 -61.333 13 -109.333 39 -144s67.333 -52 124 -52h172
c57.333 0 99.5 17.333 126.5 52s40.5 82.667 40.5 144v342c0 17.333 9 26 27 26h120c18 0 27 -8.66699 27 -26v-342c0 -44 -6.83301 -85 -20.5 -123s-34.5 -71.167 -62.5 -99.5s-63.5 -50.666 -106.5 -66.999s-93.5 -24.5 -151.5 -24.5h-420zM836.997 753.999
c-4.66699 -2.66699 -9.16895 -4.33203 -13.502 -4.99902s-8.16602 -1 -11.499 -1c-7.33301 0 -12.666 0.333008 -15.999 1l-155 46c-3.33301 0.666992 -7.33301 1 -12 1c-4 0 -8 -1 -12 -3l-98 -44c-3.33301 -1.33301 -6.5 -2.5 -9.5 -3.5s-5.83301 -1.5 -8.5 -1.5
c-10 0 -15 5 -15 15v55c0 13.333 5.33301 21.666 16 24.999l98 47c10 3.33301 18.667 5 26 5c6.66699 0 11.667 -0.666992 15 -2l155 -44c2.66699 -0.666992 5 -1 7 -1h5c2 0 4 0.166992 6 0.5s4 0.5 6 0.5l99 44c5.33301 3.33301 11 5 17 5c10 0 15 -4.33301 15 -13v-57
c0 -12 -5.33301 -20 -16 -24z" />
    <glyph glyph-name="Umacron" unicode="&#x16a;" horiz-adv-x="1188" 
d="M386 0c-61.333 0 -113.669 7.33203 -157.002 21.999s-78.666 35.667 -105.999 63s-47.166 60.333 -59.499 99s-18.5 82 -18.5 130v342c0 17.333 8.66699 26 26 26h374c17.333 0 26 -8.66699 26 -26v-342c0 -61.333 13 -109.333 39 -144s67.333 -52 124 -52h172
c57.333 0 99.5 17.333 126.5 52s40.5 82.667 40.5 144v342c0 17.333 9 26 27 26h120c18 0 27 -8.66699 27 -26v-342c0 -44 -6.83301 -85 -20.5 -123s-34.5 -71.167 -62.5 -99.5s-63.5 -50.666 -106.5 -66.999s-93.5 -24.5 -151.5 -24.5h-420zM553.997 762.999
c-13.333 0 -20 6 -20 18v56c0 12.667 6.66699 19 20 19h328c12.667 0 19 -6.33301 19 -19v-56c0 -12 -6.33301 -18 -19 -18h-328z" />
    <glyph glyph-name="umacron" unicode="&#x16b;" horiz-adv-x="1188" 
d="M386 0c-61.333 0 -113.669 7.33203 -157.002 21.999s-78.666 35.667 -105.999 63s-47.166 60.333 -59.499 99s-18.5 82 -18.5 130v342c0 17.333 8.66699 26 26 26h374c17.333 0 26 -8.66699 26 -26v-342c0 -61.333 13 -109.333 39 -144s67.333 -52 124 -52h172
c57.333 0 99.5 17.333 126.5 52s40.5 82.667 40.5 144v342c0 17.333 9 26 27 26h120c18 0 27 -8.66699 27 -26v-342c0 -44 -6.83301 -85 -20.5 -123s-34.5 -71.167 -62.5 -99.5s-63.5 -50.666 -106.5 -66.999s-93.5 -24.5 -151.5 -24.5h-420zM553.997 762.999
c-13.333 0 -20 6 -20 18v56c0 12.667 6.66699 19 20 19h328c12.667 0 19 -6.33301 19 -19v-56c0 -12 -6.33301 -18 -19 -18h-328z" />
    <glyph glyph-name="Ubreve" unicode="&#x16c;" horiz-adv-x="1188" 
d="M386 0c-61.333 0 -113.669 7.33203 -157.002 21.999s-78.666 35.667 -105.999 63s-47.166 60.333 -59.499 99s-18.5 82 -18.5 130v342c0 17.333 8.66699 26 26 26h374c17.333 0 26 -8.66699 26 -26v-342c0 -61.333 13 -109.333 39 -144s67.333 -52 124 -52h172
c57.333 0 99.5 17.333 126.5 52s40.5 82.667 40.5 144v342c0 17.333 9 26 27 26h120c18 0 27 -8.66699 27 -26v-342c0 -44 -6.83301 -85 -20.5 -123s-34.5 -71.167 -62.5 -99.5s-63.5 -50.666 -106.5 -66.999s-93.5 -24.5 -151.5 -24.5h-420zM811.997 748.999
c-6 -5.33301 -16.667 -7.99902 -32 -7.99902h-105c-16 0 -26.667 2.66699 -32 8l-97 87c-6 4 -9 10.667 -9 20v54c0 16 5.33301 24 16 24c5.33301 0 12 -2.66699 20 -8l101 -83c1.33301 -2.66699 4 -4.33398 8 -5.00098s8.66699 -1 14 -1h62c12 0 20 2 24 6l99 83
c8 5.33301 14.667 8 20 8c10.667 0 16 -8 16 -24v-54c0 -9.33301 -3 -16 -9 -20z" />
    <glyph glyph-name="ubreve" unicode="&#x16d;" horiz-adv-x="1188" 
d="M386 0c-61.333 0 -113.669 7.33203 -157.002 21.999s-78.666 35.667 -105.999 63s-47.166 60.333 -59.499 99s-18.5 82 -18.5 130v342c0 17.333 8.66699 26 26 26h374c17.333 0 26 -8.66699 26 -26v-342c0 -61.333 13 -109.333 39 -144s67.333 -52 124 -52h172
c57.333 0 99.5 17.333 126.5 52s40.5 82.667 40.5 144v342c0 17.333 9 26 27 26h120c18 0 27 -8.66699 27 -26v-342c0 -44 -6.83301 -85 -20.5 -123s-34.5 -71.167 -62.5 -99.5s-63.5 -50.666 -106.5 -66.999s-93.5 -24.5 -151.5 -24.5h-420zM811.997 748.999
c-6 -5.33301 -16.667 -7.99902 -32 -7.99902h-105c-16 0 -26.667 2.66699 -32 8l-97 87c-6 4 -9 10.667 -9 20v54c0 16 5.33301 24 16 24c5.33301 0 12 -2.66699 20 -8l101 -83c1.33301 -2.66699 4 -4.33398 8 -5.00098s8.66699 -1 14 -1h62c12 0 20 2 24 6l99 83
c8 5.33301 14.667 8 20 8c10.667 0 16 -8 16 -24v-54c0 -9.33301 -3 -16 -9 -20z" />
    <glyph glyph-name="Uring" unicode="&#x16e;" horiz-adv-x="1188" 
d="M386 0c-61.333 0 -113.669 7.33203 -157.002 21.999s-78.666 35.667 -105.999 63s-47.166 60.333 -59.499 99s-18.5 82 -18.5 130v342c0 17.333 8.66699 26 26 26h374c17.333 0 26 -8.66699 26 -26v-342c0 -61.333 13 -109.333 39 -144s67.333 -52 124 -52h172
c57.333 0 99.5 17.333 126.5 52s40.5 82.667 40.5 144v342c0 17.333 9 26 27 26h120c18 0 27 -8.66699 27 -26v-342c0 -44 -6.83301 -85 -20.5 -123s-34.5 -71.167 -62.5 -99.5s-63.5 -50.666 -106.5 -66.999s-93.5 -24.5 -151.5 -24.5h-420zM619.997 698.999
c-26 0 -39 16 -39 48v189c0 32 13 48 39 48h197c25.333 0 38 -16 38 -48v-189c0 -32 -12.667 -48 -38 -48h-197zM785.997 914.999c0 5.33301 -2 8 -6 8h-125c-3.33301 0 -5 -2.33301 -5 -7v-150c0 -4 1.66699 -6 5 -6h125c4 0 6 2.66699 6 8v147z" />
    <glyph glyph-name="uring" unicode="&#x16f;" horiz-adv-x="1188" 
d="M386 0c-61.333 0 -113.669 7.33203 -157.002 21.999s-78.666 35.667 -105.999 63s-47.166 60.333 -59.499 99s-18.5 82 -18.5 130v342c0 17.333 8.66699 26 26 26h374c17.333 0 26 -8.66699 26 -26v-342c0 -61.333 13 -109.333 39 -144s67.333 -52 124 -52h172
c57.333 0 99.5 17.333 126.5 52s40.5 82.667 40.5 144v342c0 17.333 9 26 27 26h120c18 0 27 -8.66699 27 -26v-342c0 -44 -6.83301 -85 -20.5 -123s-34.5 -71.167 -62.5 -99.5s-63.5 -50.666 -106.5 -66.999s-93.5 -24.5 -151.5 -24.5h-420zM619.997 698.999
c-26 0 -39 16 -39 48v189c0 32 13 48 39 48h197c25.333 0 38 -16 38 -48v-189c0 -32 -12.667 -48 -38 -48h-197zM785.997 914.999c0 5.33301 -2 8 -6 8h-125c-3.33301 0 -5 -2.33301 -5 -7v-150c0 -4 1.66699 -6 5 -6h125c4 0 6 2.66699 6 8v147z" />
    <glyph glyph-name="Uhungarumlaut" unicode="&#x170;" horiz-adv-x="1188" 
d="M386 0c-61.333 0 -113.669 7.33203 -157.002 21.999s-78.666 35.667 -105.999 63s-47.166 60.333 -59.499 99s-18.5 82 -18.5 130v342c0 17.333 8.66699 26 26 26h374c17.333 0 26 -8.66699 26 -26v-342c0 -61.333 13 -109.333 39 -144s67.333 -52 124 -52h172
c57.333 0 99.5 17.333 126.5 52s40.5 82.667 40.5 144v342c0 17.333 9 26 27 26h120c18 0 27 -8.66699 27 -26v-342c0 -44 -6.83301 -85 -20.5 -123s-34.5 -71.167 -62.5 -99.5s-63.5 -50.666 -106.5 -66.999s-93.5 -24.5 -151.5 -24.5h-420zM602.997 706.999
c-9.33301 0 -15.668 1.66699 -19.001 5s-5 6.66602 -5 9.99902s0.166992 5.83301 0.5 7.5s0.833008 3.83398 1.5 6.50098l58 183c3.33301 10.667 7 18.167 11 22.5s11 6.5 21 6.5h32c14 0 21 -7.33301 21 -22c0 -5.33301 -1 -11 -3 -17l-66 -187
c-3.33301 -10 -9.66602 -15 -18.999 -15h-33zM806.995 706.999c-9.33301 0 -15.668 1.66699 -19.001 5s-5 6.66602 -5 9.99902s0.166992 5.83301 0.5 7.5s0.833008 3.83398 1.5 6.50098l58 183c3.33301 10.667 7 18.167 11 22.5s11 6.5 21 6.5h32c14 0 21 -7.33301 21 -22
c0 -5.33301 -1 -11 -3 -17l-66 -187c-3.33301 -10 -9.66602 -15 -18.999 -15h-33z" />
    </font>
</defs>
</svg>
